<mxfile host="app.diagrams.net" agent="Mozilla/5.0 (Windows NT 10.0; Win64; x64) AppleWebKit/537.36 (KHTML, like Gecko) Chrome/134.0.0.0 Safari/537.36" version="26.0.16">
  <diagram name="Page-1" id="Z5kdjsQY8C0CLrHGog0H">
    <mxGraphModel dx="1900" dy="557" grid="1" gridSize="10" guides="1" tooltips="1" connect="1" arrows="1" fold="1" page="1" pageScale="1" pageWidth="850" pageHeight="1100" math="0" shadow="0">
      <root>
        <mxCell id="0" />
        <mxCell id="1" parent="0" />
        <mxCell id="5C5vTIJOmwcPiypYMRpX-45" style="edgeStyle=orthogonalEdgeStyle;rounded=0;orthogonalLoop=1;jettySize=auto;html=1;" edge="1" parent="1" source="5C5vTIJOmwcPiypYMRpX-2">
          <mxGeometry relative="1" as="geometry">
            <mxPoint x="230" y="364.75" as="targetPoint" />
          </mxGeometry>
        </mxCell>
        <mxCell id="5C5vTIJOmwcPiypYMRpX-2" value="" style="dashed=0;outlineConnect=0;html=1;align=center;labelPosition=center;verticalLabelPosition=bottom;verticalAlign=top;shape=mxgraph.weblogos.github" vertex="1" parent="1">
          <mxGeometry x="40" y="327.25" width="70" height="75" as="geometry" />
        </mxCell>
        <mxCell id="5C5vTIJOmwcPiypYMRpX-50" style="edgeStyle=orthogonalEdgeStyle;rounded=0;orthogonalLoop=1;jettySize=auto;html=1;" edge="1" parent="1" source="5C5vTIJOmwcPiypYMRpX-3">
          <mxGeometry relative="1" as="geometry">
            <mxPoint x="640" y="364.5" as="targetPoint" />
          </mxGeometry>
        </mxCell>
        <mxCell id="5C5vTIJOmwcPiypYMRpX-3" value="" style="image;sketch=0;aspect=fixed;html=1;points=[];align=center;fontSize=12;image=img/lib/mscae/Docker.svg;" vertex="1" parent="1">
          <mxGeometry x="457.93" y="326.75" width="92.07" height="75.5" as="geometry" />
        </mxCell>
        <mxCell id="5C5vTIJOmwcPiypYMRpX-46" style="edgeStyle=orthogonalEdgeStyle;rounded=0;orthogonalLoop=1;jettySize=auto;html=1;" edge="1" parent="1" source="5C5vTIJOmwcPiypYMRpX-4">
          <mxGeometry relative="1" as="geometry">
            <mxPoint x="460" y="364.75" as="targetPoint" />
          </mxGeometry>
        </mxCell>
        <mxCell id="5C5vTIJOmwcPiypYMRpX-4" value="" style="shape=image;verticalLabelPosition=bottom;labelBackgroundColor=default;verticalAlign=top;aspect=fixed;imageAspect=0;image=data:image/webp,UklGRjY5AABXRUJQVlA4WAoAAAAYAAAAywEAywEAQUxQSDkOAAAN8MT/nyOn1fZ9/aMoSq1Wuxk3wzBHlmUQMhkcL8zJOee0unLOy+t1La/ltcyrnHMONs45X1gvG3Ow0AVCluVhPAxNn6YpiuKnhYQ0Go1G/buSImIC0L9GpEEgApECiACttCKAbTRS2cYgEADCMglgLE6MzjIWJyyRsUwGAH990jHgrWeGB4OZ2TN7LriFspFI0WIEMqQIBAYtRQHExAAxAAYABpgAwN24ATAxAbwMYoB4EWLiztBNeCm0DKYFuGUzAQARbkpYSAB4WQzPBfgm7NmtsygIqsowCMQmvCuMTcCEBbwY1YgAJgYTlkkGAAgrSIsAoM50IWGhUncqApQmIigQCESKiEC+AECLMEAM55vFWwWDwSDHc3bWr4uIAlMxBKiImT2BiTHvL3nHnhhggBZDDmaAAUKfSUQBAF6EACYQArWVCACICVvIAextllvn1zU6SfZWFLEeYXSQ0B9rVcVytYrNmCEQCFDqVlUws2uebzQzD/D6QgdGKxrTIViba/bd3AMu851YNyqqKpCOtoXhPIELO+O9tWmxPjAm1Ir2qxhQ5ioWEta1ioaJSMW1ONzEQGbPwBW21ffRqBnRcby98J4nXRtkC7/IelmrQANxsJ90GGTXWn7OTQHO9WeEiqqowWCQsU4nMgQKdI2U1vZG4S/7Jph9v1UZjeMfqBNyO2Pfz3jdtsxDtaq+U40Ac+fa2UvtfkoFSsUG8IzyMNSGDBnAXr3OqeuTAn00/mCYFNYzM0pHVQHtObI9itSL+UvFHPt+RqlAETHYo7QkgBRI05Z5AjvnXP8yWvvicBXeM5cXN72ncs/gIfjpF09O9iWkYhNo1bKWmVB+EkCkdLB1E+Wu7W3fER+o7goDlKla10fuGQynLr2Ut7mfoJHwAF/OLzZRvsZhZXAHTRenuY84FH3SoZxNKiPhXerkpefA/UE9vie6UmS2pFmo9dGh3a3J2RnuA5Jgv3EodZU6ZG7Pz7XmsMbr6J6jm9Rcm8sdALpWv7eSPH56xq5lpJPt8yiDKTBVbebSwq9dyY9sG58ufCm0MKl/9UjT/kbWXosUGTUwD4vyWFGoCY4LdmvPA/GPOudRLis6Wvku/3PjmbUm0jGlHuWzIq223bBFxmvKA7UHFcrpWvSt+fzNZ8BrhQ5rVTuforSmYGRo61yrbdeGKDmyN0OZnRyr3TlxZipbC4LR6u6p80WpBQTh+B3v21fsWrB9F0pvE40PX7x6ouhxpD9h7phCOf6RHQP8mG33MqjRgUGU5KPhFj7jbe9S6leiRgulOX0uur/5h0Xeq7SqgVGixzr0bbbckwi/OpY5lOo0NvKzE3+apj2IooDZoWRXFJEucs+9RuuvPNhilO66uu+Lz7/QLnqLCpL6xUsZyngVbt82l7d9Lwnq938sRzkfJsc+/My5N4reQXHl8LnUlXSAwpEdbxdz3CtUpXY0R3lP6kMjE/nZnhF9t2F9iQcQvh39q017RHA0RclPDwQTtugFofm5G7kt+xCYX3Z/nrdWn1a7rjNKf6I9POuL1fdrtcxCAGmk+ouTv2OL1RVoQx4iqKjCfrX9xL1thhCqyviPPv4P3q+eOLpxI4cc6nBgoJmtnvvufweSGI6O7X/oxGoJKoGZEwUgSrQ6W6yOeHRoCMJYGxkceKm9GigYuf8U5PHA7e/ks34VmNo9EMjx+mzR4O6rfncKMvnV2j/mRdcF46lQjAVTzndZ8DPXcysUw+F3+dddVxHtuAGpVJSgxb6bRoMHnFiAjhmTPtdNdbIQTKUS32LuFqKfVSwZCH+y9c++6JaRIPWygSAYbs90y4d2pJBNipJPv/VMdxj1gYFCOAAzOn81zbpBm+HAi0ew07t22g0fO3y6YPEA9nz81ZOOV25sJIOE1sZnZnnFqjuvXvMiosPbd5xorpQJPWSUVGBSu1KHPj0rJMDRux+aXhkyShViYgwj55Wo3HeVIaZRePe2f0pXIhxJIanDg+84vwLD3y1E5TOjD6c5d0qNuJxFBRhVZzum91jIKmH/lhOdO5wLC2h88/d8p9RYIS0YUdPgzuzRQSYuYya0E51JWEFcIzK+1ZkfZpYX6B/M/7oThERkqIKUeXkVNeogMXtA2czyIp2xxIBU5LLlfSS2kNnwoxdeW15lixMaldiMl7V7wAuNGf/+efDSIh0QCw0lpLN0aaExBKFVsVJZtrTx2lnIbXJg5uzSkqH3BCfYfrm9tH21XHCSAzMzzEsZ3GwFRwXOYomkPFhwgMGB3N5ME7zokNLW36y+sw3J1UFt+GTjZgQWHYAAvhlIepRyN6NKMic88daLhV+EqLr9vPBUqs2MeYFJgigTniRhzNgFOhwYgPCG8fyNtlsAggArZbGQWIII4AXhcEuA6tG0XUCBFyC9+SovqN97RoAODb+QLiDtBUjBY6EOrQBpbT1ABlqECLCgUBsWIKOIMlDomQRIqZgaCyDBiiLVBIVOhIBQZSA1L0Rb5h30eC5ERB6kWYrAUNuuClF1y7uQYw0PtmRkKNENrWILGa5QEZg9bSHaGTZCkBciQyaCghAHpAmCzBBlBskRQZJJS5KGJJNmSap6QYo+WsgR3RWzHCFIvCBVFARZkyQpw4KkCYKs8D+ViSRJlkmJEoP+ZxIMQ5IgyFx3ckRJCEEOPJQgQZJJlFiUNvy/4f8N/2/4f8P/G/7f8P+G/zf8v+H/Df9v+H/D/xv+3/D/hv83/L9RXBKlJiWCZEnLERdk5KjJIDnyEGR2THIEeCg5YogyiRKYBIkJcswFAjmyjpQc+YxCOcoZJEc+p0COCktakN7Su8WI37akxQi2pWI5ahNDjokgyaJEEGUPJUfOE0iM+KSq6FiIuOmYlZYhBzTd2coBGXoliwBPJEOeNdiRlqHUh/C5CmXIQ4EvDMQyxKzATikZal0PwB5ahlJvwKkOZejSvAb7WzbLkGMNN2niIJAf61qewB4KJD8MzwROCcbIT+EcQ46ZsJCZSH4c1CIuCwL5KWy0SN6IE/lp5vVF7IVbY/lpFbVFimYsQO3L1UVk2INuwiQ/4MXS6SgKjewUxcWrwSLebtpMJDvMjs0iRXN2+thO2Tk1MUZYnD1rkh3vFW6eXdwWyk5+6bYl2DzQRHLDbG24hEajGgWSY1utpTirlYLgeO/NEuwCkpxr17Dkc5f2BHJTtCIsvZkNG7lxWbCMqQsHI7lpfe/2ZeQ2VnLjsmAZ0y1De0hq8tnKMjx7GKFhB6hlvfX9Y0pm8ie2EC0DaF/fDpn1LYPln0g/omQmf3ZHB1IGxRLjONUdaFhSdYHhwjU7wZigQyQwE1qho2+qvZBXf2oTOvsCRkwiLS37+kCH5hCqQFoKbugOZXaicp+0vGRD6hDz5c2RsHB+w6DTxcO3fVRY8NA16hgKXwSRpBSOqHN+rvX8wY9JykvNOlaymAkrWkmJ87Pfr6xI87ntu8JQSori6fewwu25ekVKGq1RrHRrdjiRkrnmys2d2TUsJdPnqyuWNaqxlLTawYoV+dMTPzwuIRP/dq+hFWPfyoYDkg/OLmxFN56aBj4WSEd64tpV1RXeX7meEMkG+7ZGt/7DuR8OjWy4xl8Od03BTRohyfAzlKiuadnj/KNKMoq/DNHNU76qQ7lIfdN01Wt+RCdy0bTT1FVwfzv0BSKh4IfnNbrsicEH5eLleeoyP9f654Pfkol/aoyG6PbczsSjJBE8cyVE9+dvXHrnngfkYWL66jytArbuypBRJAvMudNYnaf/Zdv2I3VZSJtPnqJVwpzliSFJ4CyNsXpfevmTY5rkgPmVx6uryNn/unRfSGLQnti2I1xFRfHYmR+vKings3+7E6u7Xbxiv2CMBLjssaGReLXZF+0XdSAC+fGtWP3T+UO3/pgq/9zvbqrHPSB1k5vvB5V+/PIthF7IU+1/3f0jZd+ftJIAvdH6pklIlXmeW9cNemX+1OWpBz9T5v3dm1WD3ulcBo4DKuc4z0AxeunsE+/OfP1ooMo47//jeJ3QW7nI03w0MFS+pWeHhmL02ubM69PfrFdLuDf+cSd6cVa8fuVDQVSu2fxEVI97Ujt/5uLXw5jKNHbtJyvo1YX/S/fpYKQ8myyOh+NJz3LuJT6gk9KMm/YNhV7eyn7H7B4/Vo691nqRA9PTnJ+igcGEqPxiTm2G3t/4m8uNjx9NTLnl7Cun3ve0BvjCWUKoNZVX7Jz181uwNs6dfPrE53Z9LCyv0jdOPl5VtEYws28VhmqkSiluunxgq8ba6f3fvV0Jvh6EpVTxb5dPYc2dKmb0vqBSNrXdSb/1Vqy9z2Wvhp+PhsummeK4J6zFXKTHsXl4tBqWRVn7dOMaxgKszXn2HDZ9oF4pj/IzzRtYy9PJt0/Hg59JIip72DVeuzAzVlVrmk3Ttt50hzGlD3zRyAv0ga9NP5R+ufIxbUoc/1jznyvVEP1g4VK/ZVNAhohKGc/eF1wo9Iu5+72LJ5OPjh4KgvKF8cTM0zY0RH0D2LHzV+Z9aDRpKk/YeW8LNT9ACv2lbzQee2/6nr2j0U5dnhTT2ex/ngzRn7JvXLziDCW6Srr8SP1ZtpvC2yqmT3H2xOl3baj3R4dMUH5MZ8dtin6XZ915+16Q1OuhLi/SfCK9bg4E6H+ni+ninbB2+3BUYrTzF9u3oG8uWpPnpj0PqWFd03GcKCoLWnbSNtvvGbOzSn0T+7zZajM2U0XdqowJqTTIfdNdLq5oQp/NnNrMT9rztl2k1fjeSkXvJLOua+Yn8yfVaFiNjULfzZ49W7bsvNcUkaKAQLSA1ke8gJmgFjBbX3BK6PuLYrr1fLvlGhQO71cqVB8LidY7zK2XnPX8dKMW/pZC0X7t1ZksDKnXAQBWUDggFCoAAHDJAJ0BKswBzAE+bTaXSCQjJSEnNFjQoA2JTdwk69APOFgP8PHyXvzhvZYGbJvrj8l/fv3F9r2uv2f+6/rP+1e9rw57B8xLzX9z/8n+K9p3/O9Vn6c/8vuE/xf+rfsD/oeyj5l/3b9Xf/w+wr+9faB8l39P6pf0YPNy/+HtC/uv6XGqd+tf9N9Gfzh8Z/2PL9e1/OEayZ2P8Pvz+bmoR7d/1++zgH7uP8Xz5/lOeD/o+G/9c/5HqZeddpofcvUS/cIdZ93IEz0WumJshk3Yy5B6AzMY9x/5wondaKIhlAS10KnN79q1hFmagZCZJ+5VaZggeEw+bt71uuslP9i0VnxdxngGpbdrnivM6yep+/6lY5//aPI5tTDJzkbsU5SVB1hwWJ6SRNEhcd1mK+zFzOonFztyifo//Dlkrd4ZA1EehVOranV8UxO6w+ST9ruVzrk5ljkO1/ddhIIPwt8SGsxNx8efA6eRkKwypUpubelpTsFNSmmWrjpwSfE/NB7RAaWWnbISj0EvdW7GcEQDoc1ysXAY4lUFMeKo9dGqvZT/rbuqiFlLLVzJnY8hToWNVmp9GcnmIP1+g7bOBM2XnsRaraD2aOQ3ZEpPpo4M9vXdUE+5tZ7D853khWocYjWHXKY8PtUR1O7e64z1yEAFkFFg4lRzOOzE93MvqK2PaYziRZ5JWtN4xJfqPAQAG4JOtcuaNuXN6DXqnoCDJ5OPqWM7FK2XnQKc6noNoowMMnwVJWQXnzITCS7ESHeejWcvKWQ0JZbYt0hot35QG6g0GTLrKSfVRQYd9Rps9+dPExhNLXMQEu76h+//8J3dd5t7+eE9IDQUQ6wVxUvIKM2zSVmjYHQuAB5KoZTR/fCc7RUGMg+SrzyINKxHt4V7bHa/Cl2XyEheFRZidNJ1strtde19N9Llkk/h4oI5Z6BoPuLGNYScldmff0q/RPjXvG+qDtj2ymL0w15VwDxPW7I9YvwwTlsyAlnaTFBuV4Gv65pEyCxstchAdTwz2CZ+fW5KeGaLj04p/2eDeWdIvBA+PHJMP7u4ls8dNz+F3R06dRiDjUflfYj2KSPB/kxcd/ChFol41IOjnS5fkxdKelo2dcGS/b77rnD0jFWuhIBI5YBT8co+Ted0Fewll0DUALhzKdQX7Fx66Cag2eIq2Oe/yEzG6NheeYUcjG1f+0k19R58zDqwfP49ZJoVHntstmD+zNZj7nfIWujnn2sRy53TzLjeiztgZdyKohLVkZ09cCINgFd1uPe6tXY/FFciUDPTyOCqpYI4vb3Fd2BegMZm1HEA7AqA1HSJuLlJnAvmnT8kUD7yKn3cMVidRgYI0nbdhO5Wgirm0B3m69rnlVefxRSDJ+VQKHpDcQwxhTVo+tWVaZiMlr/UAs45HZUDHW8se/1eeOaFtQn7WhAFJswyuNLdnKGfdibRDLOr+1094gFp+dSV0pZGIb2lRTmdF573HinFHY5w5x6IwFL2/BjKLoAC4M6YNGEpKykWyO2aJ3/3hX4xd3ABNigBSccaglQisFfZPneAQ8YW2GGPzvXT4q2G6h7P3i8KvFTMeyFtogL3cx4/IeD2fSNh++9VLHQ9B3GbLCJiGh8Ks+jdc81lT0HedoOacLmw5nHwqGnb+GE5IUQh2SSSSIg0BUUYGKbn96ik+ib4A03ZIij1K5YE2sP0ldSwviNTUWS2/LoVLa5gsOBtxVzr9yIj7J2THsXcchtMFH3ehvC4sVDb0rVk4xyiGsMzMywVcYrRMS25Uzv4mlZwPefWDXpWaZyeg/q13Mh+s7jPTFY6RiOd2BA6nBZIQHH1NYKlBqLfZttzyRrbcX3m3nufzYGqo0Nt0vWrr90t04kVHho//5McbUyKUJUOfPmur0j+hOtEZQxgzkSZogGOj0LN8O0HK18HmqnsyLvF1Gdo7zjEpuRrPBcSamr7HIbt6xToZQvAmVxYrvchrNFqAlhyMYfKZidgXp5i0Iilmxz34HWnZRsD5JVur6ZOfX6eJtfYm4/saPIJ1OSdtNZ4e9iw40+SBI/w9EmDvkMiwIWm+M6TmFpUsyQCMH4sahiJ1lvSc/FUFpJ+HGHj+fCyN7rpPAi0E606QRVkwsS5hPxEJW5UbJAF/OrDOTAP+2FSxnOzCVP32PBt42bbV6AUAAD++Vog29aSWDJbwj2f+sXiFH5p2H0rF8BfU1rf9l75Dsh1XL1P7hWv5lr4GddREuSFQksTGL1LhdeiCpW6UffbfXagVc5nauuoScRRsffRAZG6gFyGOgZHGEGyHDm30njWrfbuWD3QZSU9M8GRd/Wnl/mXhEV9m/MZSlMthx6Dzqmtg4J7CzZvIc90XMEnTAyWA8aKCOvrANLtfY4wsOCj3u7jZJwgs5D0U2GtmvPDxBZjCjjJgBVGL1jjHDlfokxnEZhgPVe4c9fKSCVlFn0br907XyMdYC1BZ1Kb7vcFM1Uynynbbt7Jenaf+hoge+DIe0xfW1AdCu19XTAuTzfLogTnt37JG91VG/IQAAbJeZ8f9qpO/Ocn83klGaKSREQ/L+gv7dHZor98qWtNDcMIsdGWj/hE56Nv+T/lVZsymRf/BhkrYgkt4Xv8EN+eQf1gqy7x4QwODhEIlWFhWiF/gpP5RRNy6Uvs+I0wKfBP1aEqYuJJ/MjdFGD7HYGeT5oANDhFqA0y7S+MJUCwnGNUZ2mHWDGm5DkL3GJeuOEDy2wd78XxTbys5eNY9HvhyLSUkAslVKaLLYzWQ8TQAGw8zNkDnvrDOPl6CDRKC4aijcm0A2oAJN6IAg6JnRl2AAH1tYWJ1jJ7stwmlWeIZTEX4zsrRAAcgfaZOVfKm2gpNt04OpCoa7kVSKnRB8m/4oX1s9TYlX5yc80qvEQm9BXIoqihZKT1AK5NIumca/fTEANvFR7IuwlnDiK0+61Es05xbOv1j3Za4LKsTHshYzThZc8MsQXDWGmdv6RKS7LoPBfLSHwQRbp4FOHAo2WzC0LWFJFu/iOrG78068eMo9l7R6dHfK0wFabVx77ygJ4cDrc6IQe3j3U8vtEnZBYf82SShV3aZeDhGgcIB1SeDfy9aqEvGsP1d6rYpSvnEIuGMFxQDKFGhvm7bTKs5Ryqzm55F4lAGCg0oQCCC37qCisBXdXoiBFlusrKtZq67NNQjAAAyQwcd9nLrULGAPkQdTpkwBNm/ojoAIQTJcemfCZuhgSXmKFgRSjjwcckWwTwXH91yNfcHkmF43RFsjMeyT4xzk93DvTG1+/NDAdMXJgqElN4/AVj3xYi8YFuFte+d+eucQtWwPsUygPsR7BNpfHh1/Z79SjPUfuey6RL7EJYbprtRyJbuY1Krz6EFiASxGrCcq6R+1cgIX7KmIQrcEB5rynBJlziBfmvpeknUjg4uC8xCFYcjt6qCBiIR+tFP9V9Lbz9GN09atfpCHuIfMD4WOMW3hZa2hP2zOnrosphkj99X0VMrfs+uFLx+C2H0OI95NHtzSgpfFG7BN88GB8jLhRM8sCvd0hLXFD2bKW33nua2RxbuSvf7aT7fKY/eXejiGO0kAi4HlIuTH2bYSxdHbxq8rZ+WjOu6PnBLBNhmUPeCSJuWA2z0clisureOo65rJsexMV9m4/M5F/mr7ydzM+cHjZScvO5FXfnbYEp9daKO6HlMqSi+unpCSB5m0fJtkok8vqZaPzyQ2f+M9I856Ag6AQS7maoKnbs3q9GQOYDx3IZO0Xx6uKL9n5n2Bd+ygO86bxVE/G2u/QxnkxhUCEnv0+kFz0zNQpJW02rk6u4zIFWTFLjt7OZmhoA4Df2HwxZfJqrl3LyEd59/LqS68SpKykniOun6rFi966uWTNNTKuGQuGvweFGsvsGzSDnvT8xWyyALygiJDBfB1FW1VfL7GMDfkN2slO6fnUfx0PX1yzMH0ZqKIE3onPBENQoTTgSJCCnx/DHd6uQ/8LxKh3Ig24Umyp4f9Rsx1jqP5MOHsfNIGRPzovIOfGSLDD6Q7P+PSCIVx0JMbZP28L2KGAR4+OycZdUsYYvPc0SI9AQz0ycGRUiddHbRSuoDV6YSGhzWu1GHanw0xNq+OT6VBiY44Nj2370K+aEX4YeRu1G4w5XVdZiPWhFeY8NnEoUIF1Rp1r+soSEK86TaB8JJXzG5kb0pr+aaOJkjBVn+JV61fdaQrp69+t+BYx2orMcZqBZBavjXTD3xpHh0ChIHjSmoYuMLAWNeZDwNthhSwylzFqDLEB2vbwpH07i+PaPAcFjriwi/PQnGEUMdFzdkptV9a0dDEwFr+01ViccUyGfJ1EqCpD+OAvNb866/lX3cXgrNq4rqOfP8dy3++SR2HQ47W4PMfAaNItiUk8LQq0GJ6aXb2dBRB4ad0csf46Ef7PSSh1zYqcH83iU0jy/whIAk5Oj9qSJF2uRypv9xs0/NfouL5Rtr1gLmgWiPNuCqBszb0et+1WAyzea2YmiaRf5vJ1arZSP0Hdk7CnXZNkZxZ4hCRQv9yWll9wYywLsPUmwFILXEIzUXbPZXfNyDzeg/PSoflW3PC2yW3meaVfrpNbZBohI/WZWRM+oN+MFegQvzdZ/LGEQtMk6jexLI3Y5V5kfr+kCYS/AtMfTm0Tx/tNGspzOapfE1AFJnqEUMTn33eMGqr0rl6eR52RjjCdCi6CEGzzknKCNZp3YccjUD6xv9Y4pf2Wl8KyxG5r7ntRF/rJQhMXS6pJP4FzZzvhyx4CwWoYGF9eqSXwy4uisOtc5H0k5LnW5DEOotrUBeAyQife1C4HPgK4TvNEBU+sdE8yHtU8JUeJW5z1Z/ncxt+bvS12LraXAISiGhplIXo6paERSyvVWFYkwEV3QTV8solW124iCT1dXEGvbcf1Y1Gr8XBwEHkwWFrYjm4tHD3TOtbkqWIevyXMD5puyXnYiNWlobr6yRFHzjc+0cXXp8S8EzSN1No4HMfsB1h8001FN8JcFfqLTJwAdckUZGngiIkcJLRm5twrXK+2JzB51vn7s/H0F5BekeDAXXDBX934LUc38/x6f6sDxur7QiulGJxpG8rfMgG8zkmHOgDT0QVg5N+PEEw4ha9NsRnapncE+rxKgxhF9fY1PYVX8LWu1ssLeUfSmb25x1P/Jmp9xoHemGxnaBvG21EySJULgOVgDfHFA5QSaHcAeSfFxcP/PRs6yUlxs+kK6g2l8PyapAKSv2NxEJTIDV75eUOBuK4X6tL/zC9Q+RpwzniQRiQjnI9dvgD+VI83eNyiWRsVWGGaTwtUq9yzM6lI+UyI5X2efmhUaFm8sw/kb2VcVfPIheAzQIZx9Z99a3SP62B2+a8BksgwlfFpbVhchTlesZIV1ltI/au41KH9Tz8NOlC1DS7tO4M4F56Jj5Eeh/zLVmSjFEwFi5SIwl3I17ycMFaPGFQAZPxohoxP+f/ll358u1E66MrWFyqdQUrYsWVfEcIDHQooCtRl3+XZX9SWAGqK8QTa2amxTw98oIF8Yk85MPXLpt32n+F6gp0YS95Tg3PQafKGHPlkOjJ/9lYiEgp0CypGd39W7iDNvihttcUe2bn7fuUcndpfVqadWKVoRsRRlqZb+tWNhRIda0hPIbbpiCdw2MRB8Qo4VjR1Br8Ki1j3bM6qnhEX7pivnFRwUQgnkwBqKx6TFHux2BexZz94w+btj+8s3pERYYLoHeRuuvvjTa+6wSEGMXl4tovMVdqAb0rgCksDUdyP8gUda6hvtRRzNE68XpAl6SgSSKCeOlE0u4pfI1THwuGSI03r6jfAtSh/wtW4QyqrHqw79sPFKPJIzp5hqGN5PR+XEZ7K3PJ8Oi/puWPAVAqeIsSKTqwthhGBjvVRvoTJvfc5z30t83gaDkz/tdyNyryfGEsuVAlkNUzh0RiFnnJc4D2woFRBfH2NUkgQv/NlNa+Ousui9gegE/b+8C17H3qbIVFdeUBMHFZhVHvE7WfldhIssHd7XThPPM9+MKLewkbTix0RcHQGhrzxTbq+ci0UL3PSmTf9L161f3tRHWlDWe6LkKPrIigmwwR4ed5iUNtmojwEfQOuDhtze4XHocoVq2f+NdpwVUB28QUMYK9sS/zpCrHOcamgTdu0cMh1/QEZYrPtTQVxgBri9BRGRwmyokCBwnm3QMPnG8ex3sz5GOeCQevFHxeTdK9F+vsbjXGl26gCOw3/46t0XHLyq9OXfwwspb3NLXXoekEuh+7ybG8maLfziWfoUiLB5PZvyvDHyitw9iIFfuZKeB3TRMrIDznXouS0ywF3eKI7XjZf+NoRsvDKCmjmwIeYSRSLnX7ufKOAyuNb+pjV5Mg3hnU7334YyA2xe/H+6U0uGTbiJ3+Z62D4KR1WXTMm1BIA6JIUg7/yS6p1de4zavpOPRHX779To4WAkDvgcbDPIkP3FZOarsREGFQRTGhYB19ktom4Hzw7nkOam1jnb5/IWNIztAPMMi7GcNQSqZUTVzbrkoHM+FwL/723/XNoKG81CoCf6yu6WTxzviPc2ByI+DTI+SDq94m23+mfF2ozFPBLb2/Uaf3rN3dXyBnjaPozP2j8dDMgpSKKjta+UG49mOCQQfj8RDmzim0mXxx4dgwmxYu7iDwqtLThWmhFRKTU8ejZPYQfLSdgpDdx/nqXCPt06IxKujDN5uCle1oFO2s8/fuLsqs494LI6pPUs4EbdoTapFOHURwFg0gkN137ymciqwxxJncqQfBZxCN+jXwfj+HZkA9hqBRAeg/KnlJxNFnY7AGGFZJLWiOzPULFWlSTnbWBiUs0obcuPMN6FV4+Wz6U2xmbZVFm9CBT3jbDAxpoqrvnlpyWv/1GRdK/QARnuG9NRYGNtAdlryz3maPq/zOW3Q6vF47xukRmczlGF1cRDrf0gN6UvWZC6+3JS8v0n65tmUZl6x2IGxCIf16fusMIIw2mPrdW6IC8R+Yq5x/gqbMEFL4HPdHapVK29OG8SACnBKjXzQdyW46Zvob8G7kAlvCk53UTJ8FNFU2/6BcxD/zefzQCGfJaQ2Lgt1xfKevRLnFqs2olFatEFIdavJBwEjQhLQWaU3n3ixl4gnCJ3U7Kg++tugp+mgUzaoPOtZglBJotcMphYJk1bZdLpig9n9RytgzSjZixHzV48x0Dr4rLcYaq9BSsJe4SwGnLkgYl+oJp+ZRkRhkY8/smsNdrO6hxuoBOHIlhS43gbrazfCXa1kckaB8BZS6m0r7yuUe6MSAujNpToruoY89btyPx1Ny1MKOx4jDXst2CikY9PJ/+ap+q7qoZ8cfFoZTvoyVfdht7peGg/99H/QXkRSKVp8Q6CjdEezWCWFCdHPFo6bNs0vSBom5Mmpf1Tzq+rGJO1tgB4o4osqTc7aQEnknBxeGBXr42dcIwb9Fx/Y0pLaO49P87uXOU8PlTct4s89YkYlypO+P0GkbxA8WQF/UoVMs26zbdEnVwfb7mmYmDkcGOioQ1ie3IsW/2VPCy914JAJYuqQ40nRtFa9e5jysnOwgZ1zKp0dYiuYRnAvRSbumggPTKxmNCe1lv118vKcbKbNn5mTNe4lvwJyWPmENsWPmaYxCYE+vkVoTozo1gScnoCpoVYKh8lpoKzEJLehkeDNfK2lNp2NbbRKee3I+YTV/6eJ2VJoB3hfD2iDrSVXwajQIQZb+IMHsRNumKryARGaL+1ufEzUN3BbwVEm9w2n8usrKqzEyH/RYssvrpAWbc4VUS1h9bm6JNks7QgtMQfCV4jZKb9OJZYmiUosz2SYNAAvtSqOQEc61nouFoSQ+zd7ktjbGCdc5wjGeVLUKxX0B1P3HVhMRJ//m5cdIZp+jGX2r3hmDyOY1wFH7IssugtEELEquZtNvgrJhB5qZNBqxPVUjN+pHBPU+FQugboTemjDugBv7nElbTADZy5B7fO8XVgjnt7lCc0Dg4QdZsfd6Xd4AnjjuTkxlbk6b98ZqjlrM9GvtIjdqpgT1ynzTD0+dLaY2eTartc6MP63S7PoWYT8TQYFpWyeT94o7RlvsMK+qbQ4SoEK0EKmaCYy1GXy4su06r1T7cJGY2AD1PvqUwBP4ErWR4iNqaeZcINBb7dQXnT6JsbRvYnPW3ZTY+7quonZnqc/EPWmP3pKZyEAbrBy8K57U5/4Ujps+PM3Ba5zJfLpHRR1QALZqf6dn5p4G2QeYFawO6R3aMKt4YNpqjHEz0YPb5XI6aipE23JbHtPVVpKh9IakSz/Btync9wEchs+7QlJkiaKcw053GCxXl+e3mjCSISHBDbfGKFogKveMerUhEvnopL5AM2+7sJN3lmb/yG8VaEICrEURg4GLoDfG9ouohrYoXCS8jzlv7CJnP9uEpMOu/c9Uc1UZqkhbFxyfSvf1WealKt8ibSIF3vD2XUNaXTdGFrpX+HeSvsAp6fiHdlhO8JxpOyGKYQTy0es5xegVGjmnh/0lbB7XjqhCWj7rWGNDniayR3CEVDLVs50PUlJbuBnMRioIroGGzl64A1OqZzA8Sf/pvZldLdNQZcYOpYNMlMWmAly7whFySxJnnyQmt8eiqu9BlrPTaVTiM5bSf6yQQFCEdgQ2c+Mm6De5B0a6haTyxN09KJwjkLH/nLu5seQNC2wDj8UueKMYMe4B5pD1uz3Qadh6qgJqTcK3NkEyKIe7RkRepQxDDgclRIS3FggxPArMPQ0jawCUXK5uR+lsVqzXITv7vvOCYl+Zn8YXOhku9xbkbxmbUPCkpJMGkKJfYYu2W9iaHGqgx90AXc0srX7vXD833jN8zi8N5yhh8k2wjP+rx6ZPBN1ON03lCuTmu/JThk7hMqbAa7lb2BJriPfEd1lwTe1fNsSmik6O476ExI3MzD7pojsbXwbYc7N3ylg6v0eK+gkc1cD33TV3gzpTxPAovW4qyCvOzsMcJ/3JPNVowFPMp45hu76T1wL9KzGnSO17bzZnHKLFQTsQKnE+3H2OJ4VzRjRHn1PD5X9D+eyG2pvN5dVchnsRp0YLMtWa+bxTgcYVi7SV4xYOxxnDuyKtdtOrAzySllEiM92h+HMD7D7t5l0CKqFdAqIpP9nFzeU8Hshe38TT2KDZvQuxBCNNrbtrmsTy+YqTD8MsoUopBo8VHYxIjzJeoN5Njzr/2tjPOBvSyt/5q2HZQPXk3hOk+gLNg6gzdqehABBaZHpNGf06elqwQPZtH7iHeyzmWXv3UpRgOEX7LoJMqsgu2VTnxzZJOe2EuCUKkXNHeXXA/OcY/jGvzxDr0PL34xcyWqhYQkQQv6+qKZP+3lsFoqIsDwmYjwNeQl7nke+h3AjcWVRiwmDdQ/gmE66TdkE/YJwXwQnn4png7mHH0zN4IJ/3JR8pfxWG1NZbA3Dv18FYn4LWLAk0FT+L+6gkQujoZEHcOmf0WVsG9BTYrt09bxSS2Al5WMIXTTRjNjz9GVsf1adOz+bsKQuH2ar1mVcZv3H8x/tgerzQ7XoBRWAZfXJmTZnqf4DJ9KHPCWguECWsPZUcq+XtkJHclht0DLZ8NqBFdujxTNqx8FqAHqIcBcXo+V3+nbZJ4AmdbQeHvRSWjitKYm+okXQbgP449d2TZfkTdlx6uiLkQZtP7KuHZzlEzanhpUb5W32RC3BAWN81B/20btWx4LnfWSSgmbL4vl8THCigBG6RLeWu/kxktdLHw1FZFC5DzMDqs2KtfW4JXnFEHoi8i+VzEpgDHfSNz5b6zDrLke7fHcIVSpKjmrc35htJyK/b70gMMhyUjLqYACA+pZ8UdUpMDccLI3HXAuHx5PICwRPlbJ/bEKgr/e3Z7N4L3VFalFGr8+gffJKDZYAS/eUco2FX8qqxk2SN8PhB2ozl0u0ufwhvTfjREgkZtJ+9b9GRMWya7Bu4paWEKhJgqMZ8SFZIgfQD0R3EsjEgSuu3PQ6pkSscKf1SDs1QG0FWSVOiDHaqpnEmOBG6c/AcTxujgTMVxWTvhFuiSmGr06FjcG6wlUdSnInolXw8qOkYq4/B9A20eKAtzmyaHwmwb54td6y/TOdpgmdcStJZFz3dHI+v5db5mmajvD5jokBlibmsG/LIJqa/Z76Y/G+hHqWTDEMgcGRBbG9kKV7kc520yIWlBAds4YBLI9PJSN2yPK1tjnshJOVmRJvDpWF+rvZx26OH/GuRCVyaIh1IJo04lcorrbMHR8rPTTZOYrlh3zdP2ov13oTPyTG1qfTQoGV4IXPnwOuovvnCboStSBKr5LyveYzwxm8E+CN3CQB4Z1+E5f+AIOq9molqJWsbUKsvPBGrkdF+G6uAPkRXahLxrk0u9bdQTjHrFYHyTCd8i7kY0wkvTGZeEHq+m11SmYHUFHyYL5zI1yD3DhsykKqYGxkZyPdwlK3ZzYYCPDsx1dokSo2JpKjfaOqelZQGPlU97X2EL8z3c0YP/GTsO8nllU52KZFmJ1PLjK/wh7HaRgrRkg5FJP7uyJS3zeE0VEZ1XB05/gIgJAig5HOvpKNWZEBYpTppr2wHBafdBzBoUvx6/UryG2AUipt3CvoqoNKpMTVAp4vyW/VefjR268+nQvFwhD3gzY8beHJp02v+XwTxQXiUOq5WmvuHVMRSl1SR5he6L+0zRRHspNbPTX0MvG6nsDQfM+1gDUZy81CcG8WIG2FuKRz7KzzNeGJpCF5n2stGsFTiKNoMWAEWJw9nhMK2M4xz/5HwAdCOLxtf3PGZzUAtccUxKYvAC2ng8J2yfIZOFj3UBLb456NVYKT0glTjQbFNOO65jy6MeKjG/dvX++RLx7tAmqcKyL1OL4bWmS1BWcSmP3g6DarruwlmWp86OgF72jnnj2duqiDQiWYBUTzXJ+EnPy8IpH7P+sxaO+A2bheB8b3x/hoqhWduUHq6BDB4mWOHPwwEq10ZzcVlbTKcduxZ+ql9wmgW+cdCODlplzScdAr9mDuTwRfjGGdx7XZT6kvbyJnKGg7Iw9L4IcXFN3exmQd/LHhagOcSwx7+VHUjPXDTaIahG3zj1my5CSNSYSiov6S5z/0bCMmL478q2eqWZIMGMdKpOKbemtLf9V9nU0O1lk+kvFNTiu/wq6EbYytfRN/CuOJb7zYUAtb+nQiMM+bI9tieJFtVQKeWDUw+C1YD+WpJESAhCtPQ48gXfoWGS4f+mH7Tx7GwbmGAPr/qPN5/HYUBHqyf8uNO3fmkF1RjwPxpeXCm9Kf69GeMYrzFaBKNjgT5nssm32RuCUzkQxZF/rZdgQB5wOpHZ4kkPJu3NzgE44S9GsHy1Tote6E34X1Jky3q+DSCzh7nw7qoJpPqABeC5V9SSTF0bBBjqpzua3k8SNPMK0IU/BtThBubHMvMEd86a4jHKL3ihebqSMXj3nHto0Lq09uFDcmEEQhhBuW9I2Z6DcnQ9o6DtNxYzdHjTJGfZULRAIXJyeZVQduLk3J6nOQ9WNQjlPpOjbbS1rea003S/fR5dzzGtnXoikjQaJXJ8+vmnUnLX5HkdCbKtIlQVuyaJOIwjm7c+BULeNwFuOPAyolpdfIjNry+MDyO0R5Cxh6yFTxD8/eUbSZNjaIi8X5AZ0+5wItDgKxQER/tlsuE+7mvnLWI7RTFdjD2uUBqGlAEapZaLlP5WJQ8C18+zU90bWSSQFabN95g0UwjUiQjJlTWaxB2H07RinXyCGuY7pyi2StCWSnYxBgBQYSXFcpifubs95K/e+IbOSDUwonMPgmVas430UfClWC/SBoOKF9R/mNhPxjxs78h0f7ntsSBNZyfyy0QPKBba47Oj+MVvQsmz5BDzsKs56sV9e17mSgE7etXQdvAFf3oxi6P8NIYh/esYvOL4LX5pSpj+HQr0ipvOtGg0XECKvaapcgo1de1xbEr5fN92vmWb4c/5dbfFh6xTAHyunSH573O9ztiRgEV5DGxuSKGulp9jSYFLmpf8UI1LgWsx1seSYddV2YmsTHu9vBOc1q9q3YG2Pkbv6CbvpZgAQBVAqfr7N41e6ILA7fGUQK0SdBdONv/pwZFiE29P7lRZ+rY1317Rt2XjWWatB48TFj+RB1FcCxpP78EYWBWdZBtgpIWDNyVjnVUWz7tfcEnaOvHWYQzOLZCZk30aq75/QAqOhjOYwjpZeX8gD5H1jVznRcg4FgYOOTHiZMYn0h4JFv1Ww9DZfHT8UljkAElogxLuLqAoaXDZW+9MCPt3oLZFUVaugc+AaxQlP/npq1kMyGvPRV5rzWFqem9KF8zGGZpPlIWKrq/w2J0yzfeXoVhP5GjG4NUjXn/XCEafrxY4mfxdfaFq21iHUVENmlDeYbZyRgQB4J7TfqU/uocOpTusuTxGVraHQT3CpDpfGd9LIRZW0nrc9FDHgxOK/l9aSkAY4jEcasJKXau14LhvAbWNyRhbvp9p6SUM5WT+sso5jYUPQlJ4kOmxZUklRtPfDYxf/Kdcft95fuQM3hiPuwmY2yzWXICEQaXzYa0JBwiSfCSbsbCMHuYkcOi5pyUtBIarBE6wszGFomm1NHSCsHZP9SdIA3ZThHrtO2KKtGKRLcgq7JO7OwRyCoXeePVHxzeGT4mtx8OPUUd9s7kVwAXOy2LsESW1VVciZwBp5vwHfneJH54A/nZo8QoERIABTKwECed6JcJbf+yb1y/FfXU0XmwBFFtvI8UmiNZk8wMUOxTIPkj05kKwxqZ0DbMyp6vC6fhvFxE5+V9BDrWJn8kg2YrnFSU7/uwBdIHsS/BXVzbxDTsLNgpfmTQR3OQBHMb9nfSaHpKCxLuD4FrSxoc3STRd3qZYPKhG7icedt5wj/j7d7RT2bQA/GcdaBTWK5D7n2XfR+H9MCSE1S/oflFTtcLBDIUix6V2wfgWHz4WdQiEiVFJGqxIxU7LX7vaQ1g9T4PpfK/0WKIpnUb+D9dL06HVhHudZ0p95bN5KpBaIOC/ErK62eLEInR/GeXa081BeZMcg5DE1RzBe5sNh1tYk5acE9LVL9aFGNC+j+0kogcXgDh0a/roHA9lVNzuKIqSMVlhl2voALIDRDgeop9gbobn++VM4n3jQQtEkXbap0/i700N6addXzXm2K0i5+d6FJzsPOxFmRDgN4Q92JEMe+ph5kimii5QEXhsjVhpQc14/C58IXAvhN9KTc/8TyHZQX1s3YR+F3kGAWYbJ/PXbj7JWnyLnzdHI4Vtl+l8R893JwTnJtg31tcCmPKT+A+YzzrpxZQ4eVDBPxIzoKy6pWSPKoLpw/TqSh6pfkWgzJDK6Ju1/zMX9/ZJNFcZl0B5hRiBelwm04KtaxczrxJv+X0Bt8yJVzNPaUJFNIteWhbvz0tA/YB0VskcMoulmxNWekcwvS0jZNqON9ZIPxdtA+qyHOsru1mSDTnRP2tTcEygvvZatS2h1ZlwB4sZJCUiGzjHF6UxpWSrazs/yw6yaeBwLrydwFZfum2lM/GZyz/svFlOIV8czvqFBDJdFRx/Ujpgj7T+jnsdxWr681i9WBg/wgLmNQs0U+jv7mEY9DmPHi1M3/iUrwrFFhJLlYffgj38/XHWuKfq0O0jYlLyJYTMWMW/59wAfe6fcIec7lxIBS56Cq1d1kBEXwLlowmIW+mZnhmW7HeUivn+llfrg8ZkmBNPCzoXCMCvy8h39yYYZyovt/rBCKX74GzVPnr32lKhhT1iaL23vwHbDalRSKDKSBMd4pa1bQLbFYtVPaOW5yBZRXyJOiIaEVjFBmKc3mHUCQGeOuiYKwiJ7IqlBpSXuQi0O8oVlhAl8Vp6+RalLt/TEc0TNbp2I9s9JcFXAP+UKfwtR4/eqJNrRXt+6fGDbY47Zgdvs0pcYJBp6QOzJpJ1RIUuJOTFmKHue3Nam5BtOy0MQcE5kQFBzzfKcrO8fW2rAfVDNifO4b/doPlTQpXlNbMf4GqUOLKOlgMXyySkGJCtj0YS7CyFAZXEiICa44GmcBYC2bx/mwbsR+QJxt8Mdcqy0zEz6jvx0PqS1W7T8lC7/LVnjuNwM26i5MPYJkXt2rz/rfRKxJdxEkxrBVoGBP6g1zR7TK8VC+fLbNYKeonBAXTfRB+YJNkkpbiXbpJulGAJvQrEIj+E7l7ojUARBscpvP0xpOru5lD15mD67Fowl9/hNdnsNb0mueu1VN4wUac5u2ow6oO2xA8dm5tADkbfncHz2B3fgKXebJwX1WPB/T58DN2oNhY6LMdoa9G08r7m9UFcedXhgYyW800IsgJpD07LBXyJIx4TeRry7YyTNOcssUDz8enk2kiKT/A7o3j3uBRHMYQ+KraE4AehoFOWuF4NZPHisEyzvC7LeMaFAbRSRl6c1pKXtnVfKTDDXfsOyYZ/yGRKJIaANvN3lw3J9Lfs/d5Dmj+QfcLC9zFViDNsgd6N85CxrGoqYw3WOZKeAAAAARVhJRroAAABFeGlmAABJSSoACAAAAAYAEgEDAAEAAAABAAAAGgEFAAEAAABWAAAAGwEFAAEAAABeAAAAKAEDAAEAAAACAAAAEwIDAAEAAAABAAAAaYcEAAEAAABmAAAAAAAAAEgAAAABAAAASAAAAAEAAAAGAACQBwAEAAAAMDIxMAGRBwAEAAAAAQIDAACgBwAEAAAAMDEwMAGgAwABAAAA//8AAAKgBAABAAAAzAEAAAOgBAABAAAAzAEAAAAAAAA=;" vertex="1" parent="1">
          <mxGeometry x="240" y="309.75" width="110" height="110" as="geometry" />
        </mxCell>
        <mxCell id="5C5vTIJOmwcPiypYMRpX-5" style="edgeStyle=orthogonalEdgeStyle;rounded=0;orthogonalLoop=1;jettySize=auto;html=1;exitX=0.5;exitY=1;exitDx=0;exitDy=0;" edge="1" parent="1">
          <mxGeometry relative="1" as="geometry">
            <mxPoint x="295" y="404.88" as="sourcePoint" />
            <mxPoint x="295" y="404.88" as="targetPoint" />
          </mxGeometry>
        </mxCell>
        <mxCell id="5C5vTIJOmwcPiypYMRpX-22" value="" style="verticalLabelPosition=bottom;verticalAlign=top;html=1;shape=mxgraph.basic.rect;fillColor2=none;strokeWidth=1;size=20;indent=5;" vertex="1" parent="1">
          <mxGeometry x="-60" y="140" width="270" height="85" as="geometry" />
        </mxCell>
        <mxCell id="5C5vTIJOmwcPiypYMRpX-25" value="" style="shape=image;verticalLabelPosition=bottom;labelBackgroundColor=default;verticalAlign=top;aspect=fixed;imageAspect=0;image=data:image/png,iVBORw0KGgoAAAANSUhEUgAABLAAAAQsCAYAAACBhWX3AAAABGdBTUEAALGPC/xhBQAAACBjSFJNAAB6JgAAgIQAAPoAAACA6AAAdTAAAOpgAAA6mAAAF3CculE8AAAABmJLR0QA/wD/AP+gvaeTAAAAB3RJTUUH6AcSASMY0vT1SwAAgABJREFUeNrs3Xl8VNX5P/DPc5dJAgHEuqKCQGYSQMUFrbu1tVXbunSJrVAgE2isVm1rW7W/LqbLt9XuarVtCpkBXKpptS6tXbTUBbeKdQskMwGM1KVuKASSzF2e3x+ARYsKZLv33M/79fLrq1815HzOmXvOeebecwVERLRD5hZ1b1/8/STEAaK6n4pMATAZQHlEf2UF8CyADlVZYVnaEUJW2Ag7hsFddmVaetmrREQUNecVtWwDvMkBrCoJtUohE0W0CsBEAHsBkIj+6j0AlkH0KVF5SgVP2HBa56Xl3+xVIqLtJ4yAiOjdzWnVnYNUcBRUjxHgcAD7A9jJoCb6ANoAfUJFnoDgcct3nmiukefY+0RENFjq23QMJJgaWnqAqE4F5AAA1QAcgzZga0LgSQAPQeReu2QvmT9FXmXvExG96/WTiIjeKtuh+4gGx6riKECPATAlodfMl0SxNLTwIBT3e+I8dG1a1nKEEBFRX80o6sgy+IcjxJEqOBzAIQB2SWAUIYBlgNyrwH2O2PfwLi0iov/FAhYREYBaVbtyhf9eCXGqAqdg46OA9L8CBVoBud9SPCC2f//8qvIOxkJERO+mbkVP2vKdI1RwJESPhGIKAIvJbFWrKm6zLNw6tsp5qFEkZCRElHQsYBFRYtWu1orhPcEJovioQk8RYE+mskP+I8A9gN6plntHrkpWMxIiIprZobvZGhwnihOA8CRAxjKVHfKKqP4ptKzbPNh/4Z3QRJRULGARUaLUqtoji8FJCp296U6rcqbS71oB3AnInRLadzfXyDpGQkRkvhlFHekiOE5UTwBwAng380DogeqtCmvB+oz9lxaRgJEQUVKwgEVEiVDX3ltjwfq0QusgMo6JDJpABA+GwG1WEPyhuaa8nZEQERk0vy7v3tey7Q8p5BQAHwKQYiqDQ4HnBWgR1ebm6tTjTISITMcCFhEZ65xWrexOeTNVpU6Aw5hIJGadJ6G41VK9dZ+M+wjP9CAiipdGVWt1wZumlpymwClQ7M9UIuEhgebLPfeaq6dIF+MgIjO3EkREhqlv0zGw/PMVOAvATkwkmjZ+cyy3IdQbuqqdu/kYBBFRNNWq2sMK/vsskTN4ZmTkN3drVPAr13OubJoszzMRIjLsGkdEZIa65b37i22fC+gs8GyruHlFVP8EkYVj087feWcWEdHQalS1nin4R6qgVoFaFq1ipySqN4itP5xfVfYU4yAiE7CARUSxV9/hHa8hLsLGszd4XYu/f4vgRgn1hvnVqYcZBxHRIFGVbNE7DCqfgqAWwN4MJf69Koq/hBYuy6fdfzAOIoozbvSIKLZmd5QOsUK5FBvfdERmTlMdgC6A5SzIVclq5kFE1P9mrdCxTuDPVshsQCcyETMp8FcR/VounXqUaRBRLHcGjICI4qZuefe+YrtfA3QuAIuJJEIoggegutDrdq9dNFXWMxIioj7Mpau0HH5wiqjOAnAyAJupJIIK8LvQDr6en1heZBxEFCcsYBFRbGSLuquo/2UFvgigjIkk1uuieitEFjannbsgooyEiGjbbLp7eRaAGQDew0QSywMkJ6H97eYaeY5xEFEcsIBFRJFX26qp4Y7/FRH8PwDDmQhtMYs9CegvJXCvaa6RdQyEiOh/zSjqyLLQm6kiZwOYwkRoC+tV8f3UOudHTdPEYxxEFO2lPxFRhNW3e0er4FdccNO7WAfI9aLh1c3VqccZBxERUNfeW2OJVafAWQB2YiL0Doqh4uwF1e5djIKIoooFLCKKpOmdOrqs128EcC54zhVt38S2FNCm0HUX5sdLDxMhoiSpbdXU8FRwmqg2APgA1/u0HVRUr3HgXtBULS8zDiKK4DqfiChKSyeV+kIwU0V/DGBXBkI7PpbwggC/9mzn6kVV8iIDISKT1a3SPcTzPw+gAcBuTIT64EWIfDmXdq5hFEQUJSxgEVFkzF2pu4een1fBSUyD+lEPRK4Bgp/l0mXLGAcRmWROR+9+YWhfAOh08AUn1L/+5FtOll8CEVFUsIBFRJFQV/A+CGCBAHsyDRqwSU+wJIRclq+yb+fbC4kozjadEXkRgI9wTU8D6CVA6nMZ53ZGQURDvpZnBEQ0lOpWabnlBT9U6Lm8JtFgUeAJUflpl29f3zJFSkyEiOLgvKKWdak3HSJfgmJ/JkKDNW0qcPkIcS6+Mi29jIOIhgo3i0Q0ZOYWeicFsK4DcCDToCHyHxX8LDXcubJpjGxgHEQURTMf1+F2hTdXIF8BsDcToSHSGoTh9IU1ZU8wCiIaCixgEdGQqC+W5qjKlQAqmAZFwItQ/LxkOVddm5a1jIOIoqBhhY7yAv9cAF8AX2xC0dAN6OdzmVSOURDRYGMBi4gGVa2qPaLo/58CFzENiqB1AHLqOj/Ij5cXGAcRDYWGdt3Fh38uBOcrMJqJUAS3kU3uWvvcpmniMQsiGrQrDyMgosEyp1V3Vte/UYEPMA2KuPUi+LXjOT9umizPMw4iGgz1bTomtPyvCvBZAMOZCEWZAn8tlTmfvm6crGEaRDQYWMAiokExa3lPxrbtWwDUMA2KkV5AFqhrX8I7sohooDS06y6++F9R4Hzw0XqK13ayAxKclkuXLWMWRDTgVxxGQEQDra7DO0lCXA9gJ6ZBMbVegF/0lDmX8ZtmIuovc1p1Z3X881XwJQAjmQjF1DoR+Uxz2rmVURDRQGIBi4gGVLZQOguQqwFYTIMM8BoEPyvB+TkPeyeiHdWwQkf5vv8lFq7IIAFUP5erTs1jFEQ0UFjAIqIBky14FwK4lNcaMtArKvhRsMH5xaKpsp5xENG2mPm4DnfK/fMh+AqAnZkIGUZF8dXmavcnjIKIBgI3lUQ0IOqK3kWiuJRJkOFeUuj/7fuse1Xj8eIzDiLamsbF6jyzl1cfQhoF2JOJkOEbzMuaM+7FTIKIBuD6QkTUj1Slruj/VIAvMgxKkHYV+Wa+yv4dRJRxENFm9QXvBAV+BmA/pkEJ2mb+clzaPrdRJGQWRNRvVxZGQET9pVbVHl4M5gm0jmlQQj1kARfOz7j3MAqiZKsrlg4XlR8COIZpUDLpde5at65pmnjMgoj6AwtYRNQvalXtyqL/WwCfZBpEuEnC4P8115S3MwqiZMkWeycjtL4PwWlMg7jb1Bu6qtwZLSIBwyCiPl9SGAER9Zmq1BWDZt55RfQmvqg0ObAvaaqWlxkHkdmyRd0VGnwX0DkAHCZCtHnHKfNyVXYDH7Enoj5fThgBEfV90e79GIovMwmirXpNBZeOgPPzK9PSyziIzNLwiLqlkd45AmkEsBMTIdraplOubM445zMJIurbtYSIqA+yBe97AL7OJIjeZcIVFELIN/Jpp4VpEJlh0wHtPwcwhWkQvTMVNObT7reZBBHt8HqaERDRjsoWvAsBXMYkiLZr5r1Dw/CCfHVZG8Mgiqe5hd5JAayfATiRaRBtzxyoF+TSqZ8xCCLasWU0EdEOyLaX5kKkidcRoh3iAbi6t8z59nXjZA3jIIqH6Z06uqzXbwRwNgCXiRBtN4VKNlftLGAURLS9uPEkou1W1+4dI4I7AaSYBlGfvKrQ7+ybdq9sFAkZB1FUt9wq9YVgpor+CMBuDISoTzwVfCifdv/BKIhoe7CARUTbZW5b9/jAch4GsAvTIOq32fgRDfWcfHXqnwyDKFrq20tTFXI1BEcyDaJ+84plBYfPryrvYBREtO1LZiKibTSjqCNT6t8PHlZLNBBCQOa5tn1h00R5nXEQDa2GFTrKC/zvAPg8AJuJEPW75eo6R+bHy2uMgoi2hcUIiGhb1KrarvrXgcUrogGck7XB8/22+nZ/FlT5JRPREKkr+rVe4LcDOB8sXhENlEni+b9tXKwOoyCibcHFMRFtk2zRvxKq5zIJokHzj1DCcxeky1oZBdHgqFveu7/Y1lUAjmEaRINDgZ/nM+6XmAQRvRsWsIjoXWXb/dkQzTMJokHnAbhMXef/8uOlh3EQDYza1VpR2eN/E4qvgG8XJBr8TanIZ5rTzrVMgoje8VrBCIjondSt6ElLYC8FMIJpEA3ZdL1CoJ9rzrh3Mgui/jWn4B0bAr8GUMM0iIZMl2p4aL66rI1RENHbrogZARG9nbpVWi6e/wCAA5kG0ZBTUb3GgXtBU7W8zDiI+mZ6p44u6w0uBfSzXBMTRWJn+mRXufPeln2km2EQ0dbwEHcievt1hBf8HCxeEUXmI6kiMz3xn6pv92cxDqIdV1f0a8t6/TZAG8DiFVE0KPav7Al+yCCI6G0Xw4yAiN5ucS+qNzIJosjO4Heo75+Tn1TxNMMg2jZz27rHB5bzSwAnMg2iaFKVM/PVzm+ZBBH97/KXiOgtZhd7JlpqLwUwimkQRdp6hX5t37R7VaNIyDiItq5R1XqmwztfVf4PwDAmQhRpr2ngH8QvaIjorVjAIqL/WeR3Fv27ARzNNIhiQnG/aFDfXFPezjCI3mzTlzLzALyPaRDFZ14bl3GO4ZczRLQlFrCI6E3qCqUvCOTnTGJI9AJYB8jarazkygQYpsBOvHbT29ggol8fW+VewQU/EVCralcW/S8B+A6ACiZCWxEK8LoC6wEpbWXuHQFgJIAyRjUEG1XVc5urU1cxCSJ647rACIhos/pCzwSF/QSA4Uyj370owJMK6QB0tYo8Y6t2BnbwvIRlr1UCa69MS+82bcpWa8XoDRjuWaXdFNZuUBljSbgbVPZQ0X0BmQhFFTYWuyhpE7tgie8H9QsnlReYBiXV3ELvpABWM4DDmUYiNzhrFOgQ6ApAOiH6QqjWixB9ThC+6IapF0spdOXHS8+2/LzzilrWBYwM/N7RtmPvKaGMU9GxgOwt0CoF9gewG5Pvd10a+PvzUUIi2uL6TkQEQFWyBf8uCI5nGH32kgiWhCHuFcVjsJ0nc2l5abB/iVnL9T227VWJWtVq6QFQTAUwFcCu7CLjdYvim+syzs9bRALGQUnRuFidp/f2vyyKRgDlTMR4LwJ4AsBjKvKEHYbt8N2O+VPk1cH+RWZ26G5W4O9vCQ4CcAyAIwHswi7q82b1rua080GIKNMgIhawiAgAUF8ofU4hv2QSO6RXFItDS29zVBfPS6faorzQqm/TMZBgamjpYaI4AhvvUOCB/WZ6QMIgy7OxKAmyxd7JUCsP4FCmYaTXRfGAWnhABQ+nSs7jTZPl+cj+tqqS7ShNklCOV5FTsPEMNj6KuENRakO+OvUbJkFELGAREWat0LF24D8FYATT2GbdgN6ssH4/zLP/evUU6YprQxpVrdUrSpODQI4QwVGAfADA3uxiY2wQ1QubM+7V/AabDN3dSn2H9wVV+QF415VJHbsawN+huC+09IHxVanlcT7f75xWrexxgxOB8JMKOZ1jdbusheXsl6uS1YyCKNlYwCIiZAvebQA+yiS2yYOA5l3b/W3TRHnd1EbWtffWCOQEseQDqjgevEMr/ltB4K+hOvULq+VZpkGmmLVCx9qhn4Pi/Uwj9l4DsFhF77SC8C6T7xytW6U7WZ73aYXUAXgvu36b3JrLuKcxBqJkYwGLKOHq2v0Pi+gfmcQ78gX6O4T4SXNN6pGkNb5W1a5c4b9XA5wiglMBTOaQiO2kv0Yhn89lnOuZBsV+/ir6M0X1SrDAHmdPQXCbQm9dX+X+M4ln9tW1lw4V4CsQ+TgAh0PiHSexk3Jp9y8MgijRa1kiSqraVk2NSPlPqiLDNLaqF8CvLd/56fzJ0sk4NprT0VOlgX2aCk4BcDQAm6nEbfbXG6ySe85QHHRM1FcN7bpLSfxfCfAJphE7PhT3wtLbRMNbmjPlKxnJRnXLu/cVx/0yVBsApJjIVrW5a50DmqaJxyiIErqEZQREyZUteBcCuIxJ/I8QqtdpGHyTr25+942kJ94noPIpCI4Fi1lx8pxamJOvcv/MKCg281bROxGK+QD2YhrxmVNF8ECo2uI47m/nTZD/MJK3t/Fc0uDrgM7hnLqVzaviK83V7k+YBFFCrwGMgCiZGpbpnp7jt4MHt7+JAvdYquc3V6ceZxrbp26V7gHPq7VEPqWKIznHxGPIq8jV68vtr7bsI92MgyI7Zz2nw0pdwU8EehavLbEQArgfqjfYrtvCotX2q28vTVWRKwEcwzTe5HXbcao5poiSiQsAooTKFksLoDKLSbzhFRW9MF/l5vimtr7b9GbLmYDUAVrFRCKvVYPwzPyksicZBUV0I389gElMI+IbC0EhDLHAsZyF89LybybSR6pS1+FlReWHAN7DQN4Yac25jDOHORAl8NPPCIiSp65YOlxU7uc14I0V4vWuuuc3VcvLzGIAFt8F/2gRyQL6SfCOvyjrUeiF+bT7CxZxKSrXj/oO7wuqcimAMgYSWWtVpUVVcwtq3CWMo/9li7or4F0JlU8xDQBAKKG+N4kv1iFKOm5eiZK4ECp4iwG8j0lgrYqcm087ixjFwJv5uA53yoNPiqWfVcVRTCSiNQPgj4Hl1C+qkheZBg2VuSt199Dz8yo4iWlE1r2iMs/rsX+/aKqsZxyDsH5r92dD9ErwyyAAuDOXcT/IGIiShQUsooSpL3gnKPA3JoGHBMF0vgFpiMZhe2mqinU2oDMAVDKRiFG8IBZmN6fdvzIMGmx17f6HRTQHYDemETnrALlGg+CXfOR4aMwu9ky01L4ewKGJn6oEx+fT7j84KoiSgwUsooTJFrwHABye8CXPdV0V7lweWj306tt0BCzvTBU5F4r9mUi0PigArqwU58Ir09LLOGig1a3ScsvzGxX4KgCLiURKuwpypZTTdN04WcM4htZ5RS1bp8GvBFqX6I2sYElz2j2aI4IoQZ97RkCUoGJB0T9VVW9JcASBKi7MV7s/5WiIGFXJtvvHw8KXAHyYm9dIeVTt4NP5ieVFRkEDpa69twZi3SDAAUwjMkIoblMLP+ddLhFd1xW8ryrwAwB2gpcPH8lXO3/iaCBKBhawiBKiUdV6uuj/K8Gbgw0W5Iz5GeePHA0RX5C39VSr5XwJ0FkAKphIJKxVlbPy1c5vGQX1t2zR/wxUfwk+ThyZ+RKQBWr7P2PhOgZz5sYvJ3+b4Pny0VzamcaXjxAlAwtYRAlR1+5/WkSvT2jzuxDitFyN+3eOhPhoaNddSpY/RxTnAdiLiURg0aC6yBnhfq5pjGxgGtTneWmVlovnXwbgfKYRCS+K4pcOnF/wrbzxMqfgHRsCtwEYmcT2K+QT+YxzE0cCUQLWooyAyHyNqlZn0W8FUJPA5r8E0ZNy6dSjHAnxdF5Ry9aF3iwR6yJAJzKRod4o4AkrDM5orilvZxq0o7LF3slQ6wYA+zGNId8OdIiElw6Hew3Pu4uv+rbSNLXkDgC7JLD5T+XSzgG8C4soATMWIyAyX13B/7hAf5/Apr9mib5/fjr1L46C+GtUtZ7uCD4iqo0ADmYiQ6obqufnqlPzGAVtr2y7PxuiVwEYzjSGdBfwJFR+0JW2b2wRCRhI/NW3l6ZCZLECoxM4oE/JZZzbOQqITJ+6iMj8zULBux/AEQlr9jpV/UC+OvVPjgDDqEpdR/BRUf06gPcykCFcRKgu8nrcsxdNlfVMg95N7WqtqOz2LwUfGRxqj6nI9/NV9u94x4qJa77SewG5Ewk7U06Be/IZ9ziOACLD156MgMhs9e3e0Sq4N2HN7obg5FzavZsjwPCFetE7EYpLkLwCbZS0qoafzFeXtTEKevvPau9kqNUCYDLTGDL3CfDt5ox7J6Mw2+x27wOW4HYA5clquR6ey6Qe4gggMhdfU05k+lQuuDBhTQ5FZQaLV8mQS7t/yWXcIy3IRwVYykSGxBQR6+H6on8Go6CtyRb8M6HWQ2DxamjWAcDDEJyUy7jHsHiVDAuq3btEZPbG7k/SWJevsveJzMY7sIgMVtfeWyNitSJBxWpVfD1f7X6fvZ9M9QXvBAUuA8/IGqplRVOXZ5/XMkVKzIIaF6vzzF7+9xS4iGkMiadU5Dt8VDDBc2K716iCSxLU5FDtoCY/sbzI3icyE+/AIjJ5Kyn2hUn6nAvQks84P2DPJ1dzxr0zl3amqcipCjzBRAabNlS6/n1zluk4ZpFss9p1r84x/t0sXg2J5aIye1zamZpPOy0sXiV5TnS+Deh1SdrbSuB8mT1PZPR+j4hMNLNDd3NC/xkAZQm5mC0NXefo/HjpYe8TANSq2pUFLwuRRgB7MZFB9SJCnJmrcf/OKJJn052Q1wHYlWkMJl0N4JKutLuQbxWkN+bCjS9PuB/AgQlpck8QOHsvnCSvsPeJzMM7sIgM5apfj4QUrwB0IQxmsHhFW2oRCXLVqXlupZNRwcUAXmMqg2Y3WPhrfbvX2KjKtUZSqEpd0btIgT+DxatBnQNF8e2uCrc6l0nlWLyiN82F+0i3ZQW1ANYmpMnljuXXseeJzMQ7sIgM1KhqdRaDIqATErJnOjNf7fyWPU/vpKFdd/HE/waAswGkmMiguVVdZ3Z+vLzGKMw1p1V3Dlx/oQAfYRqDplcEV/m+833ebULvJlv0PwPVRYnY4AoKzVVODR+fJTLw880IiExcpHgnQvHnZCxS5DfNaaeBvU7bqr7QMwGw/k8hn+I8OGif1I5QgtMXpMtamYV56pb37i+2fTOgE5nGoFCFXocg+EZ+UsXTjIO2eX1Y8JsBzSahraHihAXV7l3sdSKz8LZ+IiOXtjgrIQ19urxkX8AOp+3RnClf2ZxJnamq74XifiYyKJ/VKkutB7NF/5PMwiz1Rf8Msa0HWLwaNP+EhaPzmdRnWLyi7eV32+cBsjIZm1zll5tEBuI3z0SGaVime3qO3wnANX1HrMCJ+Yz7N/Y69WEUSV1H8EnR8MeAjGUgA5+4AD9cl3a+znN64v/ZqS/4l6jgW1xPDornBPrtsWl3XqNIyDhoR2XbvPfDwp0J+Nx6Ejr7NtfIc+x1InPwDiwi02Zr1/8szC9eQSG/ZvGK+kxE82mnxa10J4ni2wC6GcrAJq7ARSMK/u3TO3U044inGUUdmS36f1DBJWDxaqB1C3CZhE5NcybVxOIV9VWuxv27qjQnoKluKDzMnci4hSQjIDLHxsPbvVXm30miq0vi7ndtWtay16k/1S3v3lds50cA+KjbwCuGEn6M52LF7TPC864Gb6rTG63AvXD+ZOlkGNSvn+NVupN4fiuAMYZ/iJ7Opd0JPMydyBwsYBEZpL7DO15D/N34C5fIp5rTzo3scRoo2aJ3HBRXAZjCNAZUF0SyubTzO0YRgzmm6J+qG99iNpJpDOQchwKA85rT7l+ZBg2UuoI/XaDXGv95UhzTXO3exx4nMgMfISQySBjIjAQ0824Wr2ig5dLu3V2ec7AIvgZgPRMZMJVQvTFb8L7XqMo1SUQ1qlrZovd9Vf0DWLwaSF0CXOi87uzH4hUNtHzavh6A8YUdFfkMe5vIHLwDi8gQdau0XDz/eQA7GdzMQFQPaa5OPc4ep8Eyq133cuD9QEVmMo0B9SfXdqY3TZTXGUV0nNOqlT0pf5EqTmcaA+p2y3fO5eOCNJjmFEsHhSr/BGAb3MxXuzxnz5YpUmKPE8Ufv+0kMuXD7AUfgdnFK6jIr1i8osG2sFqeba5OzVILJwPSwUQGzIe90L93blv3eEYRDfWFngndrv8gi1cDRwQFBT6Uy7insHhFg21+OvUvEeMPdN95RCo4ib1NZMielxEQmUGhpj8+2CWwv82epqGSr3L/rK69/6a3FfKb3IG5kO0fWM7D2aJ3HMMYWvUd3vEK+2HwHLiB0ivAt4bDOYBv1KWh5Hj2JQA2GD21hOEM9jSRGfgIIZEBpnfq6LJe/3kAZQY383u5jPtN9jZFQd2KnrSE9q+geD/TGBA+VL+Uq079glEMvvpCqUEhvwDgMo0BcZ+NsGFepmw5o6BIzGkF74cCfNXgJva4trMHH1Enij/egUVkgFSP90kYXLwSYI26zk/Y0xQV+YnlxVyVcwKgnwPwGhPpdw5ErswW/SsbF6vDOAZHwyPqZgv+1Qr5NVi8GpC5DKqfzaWdY1m8oigJA+cyAGsNbmK55wens6eJ4o8FLCIjVsXySaMXVoof58cLiwQUtc+d5jKpX6vrTBLVRQxkAKie+/Re/l3Zou7KMAbWnFbd2R/p3wHo2UxjQNzuq7N/rjo1DyLKOChKFk6SV0TxM7PnbP0Ee5rIgI8yIyCKt4YVOsoL/BcBpAxt4qsVnjPu6inSxd6mKKsv+qeq6lUA9mYa/a6oGp6ary5rYxT9L1vsnQy1bwV0ItPob/qMBeuc+Rnnj8yCYrCe7AQwytAmdvvdzq6Lpsp69jZRfPEOLKKY84LgwzC3eAUFrmLxiuKgOe3cWhJnCiBNG4cu9aO0Jdb92TaPZ471s/qCdwLUWsLi1UBMX9Ikobsfi1cUB5vOh/q1wU2scCv4NkKiuGMBiyjuJDzN4Nb1wHWuZidTXFyblrW5jHOWBbwPkA4m0q/VgNGw8JdsscRH3PpJfbE0R4E/AdiJafTraH1agA/lMs5ZzTWyjnlQbEau6/wMQI+5DTR6zUyUCCxgEcXYeUUtg8rJ5m5YJZ8fLy+wpylu5mfce9xKe6oAlwEImUi/caBydbbgXd6oyjXMDl9cVerbvUZVmQce1t6/09bGu64OaM64dzIOipuNay653tgPqMgpDY8or3lEMcbFH1GMrQ+D9wMYaWjzQtj+T9nLFFdNY2RDc8a9WBTHASgykX51fmfRb2l4Tocxiu0z83EdXt/h36SCS5hGP26MIasQ4gTedUWxH8sa/BDmfvGyk1fpH8NeJoovFrCIYiwUnGpw8/6Un1jOTT/FXnO1e1+F5xysIleBZ2P1p497Xf4/6lbpHoxi29S36Ri3wr9bFaczjf6bigFcnqq098vVuH9nHBR3m16WcZep7RNLeP0jijEWsIjiPAlDTzG4db9mD5Mprp4iXfm0c64AHwLwbybSbw4Vz3uobnnv/ozindW3l6aq5T+kwCFMo5+odqrgA7mM+8WmMbKBgZAxQxvyK3PbFp7CHiaKLxawiGJqdrF3CoC9DF1ePNOVtu9gL5NpmjPuneo6+wN6HdPoLzJWbGtJfbt/MrPYumzB/6iK3Adgb6bRb/PUAtdxp+bT7j+YBZlm32ftWwE8Z+icse+s5T0Z9jJRPLGARRRTNuSDxm5HIfNaRAL2MpkoP15ey2VSMyBSC+BlJtIvRqjobXxD4f+qL5bmAHozgEqm0S9eUsgncplUXdNEeZ1xkIkajxdfgfnGboAd6wT2MlFMP7+MgCieVI0tYPm+Os3sYTJdLu38znac/QDcxjT6hc03FL55ktjiTYMOh0e/+IuEzoH5jHMToyDTieX8BoCRXyZaBn8JTGT8tYkREMVPbaumKl3/FRj4jboCf8xn3I+ylykxVKW+6J2lkB8DGM5A+mFxo7pone/ObZkipSS2/7yilnWplwPkTI6GftGlqhfkq1O/YRSUJHUF7y+bzm40zevjnnV2aTxefPYyUbzwG0qiGBqe8o+EqY+DqFzDHqZEEdHmTOpXdujvD+ABBtIflxGZWen4f65bpTslre3TO3V0l/p/ZvGqvz6feETt4GAWryiRG0WVaw1t2qjOffzD2MNEMbwuMQKiWH5wTb31eX3QY/NxKkqkeTUVq8Y96xwrim8DCJlIHwmOF8+/b9YKHZuUJs9q173Kev3FAN7HAdBnCuCKrpJzVH5ieZFxUBJ5PfbvAaw38gOu4GOERPHcBxMRJ92obDj194umynr2MCVV4/HiN1e7jQjxQQDPMpE+m2IF/oNziqWDTG9o3fLe/W3xHwQwld3eZ/+B4ORcxv1CUh9DJQKARVNlvUCN/GLR4C+DiYzGAhZRzMwo6kgAB5vYNoGxt6oTbZdcjft3V50DAdzKNPp6XcGeoco/6gqesZuVug7vJLGt+wHszR7vs5uDwJmSS7t/YRREgMIycm2misNmPq48d5IoZljAIoqZMviHA7ANbNqL66qcu9jDRBs1VcvLubRzuop+HkA3E+mTkQL8sa7ozzStYdlCKSshboOp5yIOng0CPSuXcT++cJK8wjiINnLX2n8RYI2JTXPK/Peyh4nihQUsopjREEeZ2TK5vUUkYA8TbfmxEM2nU1eHEh4KoJWB9G2zIqoLsgXvK6Y0KNvufQ2Q+QAcdm8f5lXgCRvhtOZMqolpEL1Z0zTxVPWPRk6xlqlraiJzsYBFFL9P7dFGbiAEf2DnEm3dgnRZq7rONABXMI2+7VcA/Chb8C5vVI3vGkhVsgXvRxB8f1ObaEcHhOqiVKVzxLxM2XKmQfR2a0/rFiPXnmABiyiOCzkiionGxep07uWvgXmPimxwK51dm8bIBvYy0TvLFv3PQPWX4CNjfdy46LWptW62aZp4cfq9a1s1Vel6eUDOZC/2yTqFfC6fca5jFETv7JxWrex2/ZcAlBvWtLVdaWdnPgFAFB+8A4soRlbt4001dNP6ZxaviLZNLu1cI2EwDcDjTGPHCWSGP9K/Y9OLMWKziRzh+LeweNVnraGER7B4RbRtrp4iXQqYeE7pyOFFb3/2MFF8sIBFFKcNV4gjjWyYCt+0RrQdmmvK27sqnCNE5DdMow+XHuADKfXvzBZ116j/rnNX6u7drn+3Ck5iz/VpJv2lus60BekynilHtD2fHNU/GLkZVj5GSBSrzywjIIrT4sHI869UUzZfV060nVr2ke7mtNOgkE8AeI2J7LBDocGDczp6qqL6C85t6x4fBv49AA5md+2wdapyZi7jnJMfLz2Mg2j7BHDvMLFdKixgEcUJC1hEcSI4zMBWPZEfLy+wc4l2TD7j3CRhcDiAp5jGDm9hJgShfU99e2lq1H6zOcXSQYHlPKCKDPtpB3sXeMKygoPz1c5vmQbRjllYLc8CWGbe9cE6nL1LFB8sYBHFxKzl+h5A9jVwY/FX9i5R32x6pPAwQJqZxo4RYE8Vubu+3YvMna5zCt6xocpiALuzh3Z0ktFrgm7nyPlV5R0Mg6jP/mbetV/3ndOqO7NrieKBBSyimHAc/xAuhojo7bTsI925jDNHoGcBKDGRHTJKBXfWtfunD/Uvki34Hw2BPwMYxW7ZIb0K/WKuOjVz0VRZzziI+mPjKCau2cR3/IPYu0RxuQ4RUSxoCBMLWD3rK5z72LtE/ac5k2oKLT1SIauYxg4pE9GWbLs/e6h+gbqCPx3QmwBUsDt2aMZcraLvy2dSlzMLov5T6rb/AaDXtHbZwvMFieKCBSyimBCBid8O3deyj3Szd4n614Kq1NKU2ofxEd0d5kC0OVssnT3Yf3BdoXSeQBcBcNkNOzBXKv4cBO5B+XTqQaZB1L823c1o3GdLobwDiygmWMAiis3kKsZ9OyTAPexZooHRVC0vr087H1bguwBCJrIDaySVq7MF7+uD9QfWFb1LBHIF12c7JFRB49iM85GFk+QVxkE0UOtRE9duwjuwiGKzOCOiyJveqaMBnWDgFYiPDxINoBaRIJ9xv6UqpwB4jYnskO/VF/wrGlUHbs2kKvVF7yeiaGTcO2Stqnwin3a/3SjCYi3RABLBEgObla5v0xHsXaI4bB+JKPLcHv9gAGJYs/zyXuef7F2igZevdv6kdnAYgFamsf0Uel5nwVvQuFid/v7Ztap2thjMU8UFTHqHtNsID89XO39gFEQDrwTnAQCBaXviUPwD2btEMfiwMgKiGHxQLT3AtDYJ8PjVU6SLvUs0OPITy4slcY4UATf6O3TRks907uXfeF5Ry/rrR9at0vLKon8ToPUMeIfcLKFz6LxM2XJGQTQ4rk3LWgBPmrcu1ansXaIY7IsZAVEsPqqTTWuRgo8PEg3FxqO5yvm4Ci4Gz8XaER/rUv/P57RqZV9/0MzHdbh4/q0ATmWs2z+FCHDZuLTzyeYaWcc4iAb7AyjGPUYosCaxZ4lisCtmBERxmFTVuElVRO5nzxINyYdP82n3MkBOA/A6A9lu79vg+n+cUdSRO/oDGlboKKfc/yuADzLO7fa6BTmlOeNezPOuiIZoGlHzzsFS0cnsWaLoYwGLKA6TqsK8ApZnP8SeJRo6uYxzu2UF0wA8xTS28/oFHFum/t8b2nWX7f1vp3fq6FLg/xWCI5nkduYuKNgIj5ifcf7INIiGTij+wwY2iwUsohhgAYso4hqW6Z4AdjasWa/On4Rn2LtEQ2t+VXmHhM6RAG5jGttHgUNK4t81s0N329b/pm6V7lHW698rwGFMcLvdhsCZxvOuiIbegqqylTDvzba77ciXEkQ0uFjAIoq4Xts38RuhpRBR9i7R0GuukXW5tHOaKL4NgJ/L7SDAAU7o3zO3qHu/2787a4WOFc+/B8AUJrfdrhiXdk7neVdEUbn4iULxL9OaVYLPc7CIIo4FLKLorxHMO8BdsZQ9SxStC01ztdsIlTMBdDOQ7VIdhN59czp6qt7uX5jb1j3eDoLFANKMa7v0isrsXMb9As+7IorcLvJRrrmJaPAvPUQU7cnUxLeiWPIoe5YoenLVzg2W6FGArmYa27XrGRcG9r1zOnr3e+s/qmvvrQks515AJzCobafA84Ae11ztLGQaRBH8jKqJaznhHVhEUd9GMgKiyK8Qakxrki3+v9ixRNE0P536V6DuERA8wjS2Z9+DPcLQumtWW+8Bm/9fc4qlg0SsewHsxYC2yz9DdQ7NZVJ82QdRZNengXEFLAVYwCKKOBawiCK/KdKJhrVo7fyJZSvYsUTRtbBanu0qd46F6A1MY7vsZlvW4myxdHBde+lQVbkLAA8F3r4t5HVdFc5xC6vlWWZBFF37ZlIFAOuNWnJDJrJniaKNBSyiCKtt1RQgpn1zv4wHuBNFX8s+0p2rcs8E8E3wcPftsbOEuFtE/q7AaMaxzRSK/5dLu59p2Ud4DhtRxDWKhAK0GXYZGtu4WB32LlF0sYBFFGEVVu++AGyzWiXL2LNEcfm4iuYy7vcgcgZ4uPu2b4FEKgFUMolt1qOQz+Sq3R/wCw6iGF3rVJcb1iT36T169mbPEkUXC1hEUf6AuraBh/4at9ghMl4u7fwO0OMB/IdpUD97WRQfzGec6xgFUcxWdBDj1nQiDl+4QRTl/TEjIIryysC8t1ap8g4sojjKZVIP2eJMA/AY06B+8pQG/qHN1e59jIIojsxb04mt49mvRNHFAhZRlCdRFeMmUUc93oFFFFPz0vJvCZ1jFfgj06A++ptrO0fnJ1U8zSiIYrqRVN+4NZ0auPYmMuq6wwiIIs20O7A27F1d3sluJYqv5hpZtz7tnKYiVzEN2hEi8ht3rfORponyOtMgiq+xz5etANBrVquUjxASRRgLWETRZtokWmwUCdmtRPHWIhLk0865ovgKAH6maVsFCv1ic9ppaJomHuMgirfG48UHsMKkNilkInuWKLpYwCKKtn0Ma89KdimROZqr3Z+oyicAbGAa9C7Wq8jH8pnU5YyCiGu7qBLFWHYpUXSxgEUUUbWrtQLAewxr1gr2LJFZ8tXOHyzV4wG8yDTobbwCCx/Kp53bGAWRWQSyyrAG7da4WB32LFE0sYBFFFHDenrHmNYmFV3FniUyz/zq1MOC4AgA7UyD3rIbXKF2cESuyr2fWRCZRyU0bW1n/Xtv7MGeJYroB5QREEV0yR/aY8xrlPARQiJDNWfKV1qecySAe5kGbfIgxD4iP7G8yCiIjN1OGre2C9Tbi/1KFNErDiMgiiaBGFfACr2ABSwig82fIq9WivNBiN7ANBLvpq4K5/25tLzEKIjMpb55aztRawx7liiaWMAiiuqCAGratz/hKKeskz1LZLYr09Kbq3LPFOAyppFYV4xLO7Ut+0g3oyAyW1BKrQSgZq3BQ96BRRRRLGARRZQI9jSsSS9cmZZe9ixRIi5g2pxxL4boBQBCBpKcvaxCz89l3C80irDfiRJg0VRZD+AVs3bIwjuwiKL68WQERFGlZk2egufYp0TJkkunfqYinwbA4rX5ehRyRj6TupJRECXOs2YtwZUFLKKIYgGLKLIM+/YnNGxxQ0TbJJ92WsTCyQDWMg1jvWYBJ+Yzzk2MgiiJS1bTvqQUPkJIFFEsYBFF125mrW2EBSyihGquchdbVngUwEK2cRQvKPT4+Rn3HoZBlFTGrfF2ZZ8SRRMLWETR9R6j9jiiz7NLiZJrflXZUxr4R4ugwDSM2bSusOzgmHwm9RizIEqwUE07JuI97FSiaGIBiyiKVAXAzoY1indeECVcflLF077vHAnggUhepdhF2+OfEPuI+VXlHYyCKOGEBSwiGhwsYBFFUN3TGAXANWtxIzzEnYiwcJK84nc7HxTFnyN3mWL3bGtOd0nofCCXlpeYBhEBlmlfUlY0PKfD2K9EEbzaMAKi6FG/17hvfiTUF9izRARsfO36Ot85DdDrmUbMruWqi5y1zsnNNbKOaRARAIRWaNwxET3d2IU9SxQ9LGARRfGDqZZxk6Zlua+wZ4los5YpUhqXdj8D4Ioh/2X47OA2EcFPmzPu7KZp4jENInrj2uAFxq3x3NDjY4REUdxTMgKiKH4wzStg+Q5eZs8S0ZYaRcJcxv2CCi4e2t0X+2IbIrqsOe1+GSIs9xHRmwwLy41b46kKC1hEkdwnE1HkhGrcbctd+fHSw54loq3Jp93LVPTzAEKmEb19nIh+qTnjXswoiGhrrp4iXQB6jbrwsYBFFEksYBFFkFjhaLO2P8rHB4noHeXTqashMhuAzzQiw1OV6c3p1M8ZBRG9C6PWemqFLGARRRALWEQRFEJGmdQeEeHjg0T0rnJp5xpAPgagm2kMuQ2iclq+2vktoyCid1/swbAvK2UEO5UoeljAIorilKmoNKk9Cp5/RUTbJpdxbreAkwC8zjSGzGuiOLG52rmDURDRNgnNWuuJggUsoghiAYsoghRSaViLXmWvEtG2mp9x74Ho+wG8xDQG3X8UenxztXsfoyCibWbcHVgsYBFFEQtYRJEUGjVpKizeSUFE2yWXTj0qYXAMoKuZxqBdrZ9WOzgmn0k9xiyIaLuuHiqGrfX4CCFRFLGARRTFKdO4SVPXsVeJaHs115S3B7Z7NIAi0xjgeUdQgOUem59YzqyJaAeuIdpl1lpcK9mrRNHDAhZRFBn23L0IutipRLQjFk6UZ9R1joXgSaYxYJYjcI7PVQnvdiOiHWXWWo9nYBFFEgtYRFEkMO0MLN6BRUQ7LD9eXrBKzvsUeJhp9LtHXXWOba6R5xgFEe3wSk9g1lrPYgGLKJofTSKKIrMmzRAsYBFRn8yfIq/CdU6E4n6m0T9EsMS1nfc3VQvfFEtEfdtUhmY9QhjyDiyiaF5rGAFRFOlwo1oDi48QElGf5cfLaxW+cyKAfzCNvhHgLm+Dc2LTROFLNoioz0LLWmvWNVJ4BhZRBLGARRTNabPCpNbYwjuwiKh/XD1FuirFOQmKW5jGDvvTugrnlEVTZT2jIKJ+2VSGpp13quXsVaIIXmsYAVEkuSY1JhDlJomI+s2Vaent8p0zANzENLaPAC1dnvOxln2km2kQUX8JDXsLIYAUe5UoeljAIoqmMsMuNL3sUiLqTy1TpDTuWedTCr2WaWwbUV20Lu2c2TJFSkyDiPqVoodrcSIahH0lEXHSHOBNE7SHXUpE/a3xePHXp93ZqsLHCd/1Qiy3jM24dS0iAcMgov6/xKhphXHegUUUQSxgEUVMwyPqAhCT2uRD+W0/EQ2IYR29+4ro4UziXageubKtt4pBENGAbCoF5hWwVIU9SxSxaw0jIIoWp8K8W5YdUT5CSET9rr5Nx4g6fwOwO9N4V7vatnNH3Srdg1EQUX8LYdxaT2qXmXUmLZEJWMAiipheA29Z9qSMd2ARUb+aUdSRavl/FOh4prGtdIL4/l+nd+poZkFE/bqpNO8RQuzKxwiJonetYQRE0WKLeXdgpYSHuBNR/6ldrRWu+rcBOJBpbCfF/mW9/s11q/iKeCLqPyHKjFvrdVk8yJ0oaljAIoqYwMBvezbY4B1YRNQvGherU7nBv16AY5nGDjtOPP+6WlWbURBRf/ANfOO0IyxgEUUNC1hEESNWj3Gfy5264LFniajPVKVzr+DXEJzGMPrsYyM6gl/ykGIi6g+Ba95az7K5VyaK3OeSERBFS2iJcZsJfzRC9iwR9VVdwf8+oPVMon+o6mezRf+7TIKI+qrSN2+tFwhY4CeKGBawiGjArQmgTIGI+qK+vfR5EVzMJPrd17PF0pcYAxEREUUdC1hEEcNve4iI3qyu4E9XkSuYxABR+Um23Z/NIIhoR60P+WUlEQ08FrCIaMAN97moIaIdU1/wThBojmuWASUQ/U19u38yoyAi2ohfKhNFDxeDRBHjcLIkIgIAzGkvHabAzTDw7awR5Kro77Id3pGMgoi2VxmPiyCiQcACFhENuBG8A4uItlO22Ds5FLkDQCXTGDTDEOLWuYXeSYyCiJLO7eWXykRRwwIWUcTwdmUiSrq5Rd0bKncA2JlpDLr3BLD+OmeZjmMURLStynkHFhENAhawiIiIKDIa2nWXQP2/ATKWaQyZvUPH/9OcVmUBkYi2yToD77YXq4d7ZaKI4YeSKGI0RGham17bAIc9S0Tvpna1Vnji3waghmkMucmh499Wu1orGAURvZuKSvPWehqWh+xZomhhAYsoapOlVeZxUUNESdOoalV2+9cAOJxpRITgyMpuf2GjKteLRPSOvNC8l23YQIk9SxQtXJAQRUx5L4wrYMGHy54lonfSWfR/CuDjTCJyPtlZ9C9jDET0TiQwcK1nG7gmJ4o5FrCIOFkOvIAFLCJ6e/WF0ucAfIFJRNZX6gql8xgDEb0dCQ1c6zksYBFFDQtYRJwsB1xPGQtYRLR12YL/UYX8gklEfHMK+Vldu386kyCirUr1mrfWq2ABiyhqWMAi4mQ58BufsJcFLCL6H/VtpWmA/haAzTQizxbR6+qKJZ5RRkRbWeuJcWu9Me08A4soaljAIoqa50wsYAkLWET0JnPbuserJbcDGM40YqNCVG6d09FTxSiIaEuhimmHuGvj+xCwZ4mihQUsoohpOgQ+ADVrVcNHCInov+a06s6B5dwBYHemETu7hqF96/ROHc0oiOgNatxaz4eIsmOJooUFLKKo2ThZ+mZdaaScHUtEAHBeUctC1/8DgGqm8db9X2xMKuv1bzqvqGXsNSICgABi2vWAjw8SRXFbyQiIIsmoxwjFkmHsUiKCqqxXLw/gGIaxlWtlvH7d961Tbz5UhT1HRGLBtLUeD3AniiAWsIiiqduoRU3IAhYRAfVF/wcK+TST2IoYPqgikBnZov9ddh4RQcWo8wzVsLU4kSlYwCKK5rS5wajWWDykmSjpsu2luQpcxCTeRnzvY/p6tlg6mx1IlPBNpWFrPYGsZ68SRfBawwiIIjltGjVpSgjegUWUYPXt/skQ+SWTMJTKFdmidyKDIErydSA07MtKZQGLKIJYwCKKJsPuwAp5BxZRQtUt791fRa8H4DANYzlQtNQVSgcyCqKEEuO+rNzATiWKHhawiKLJrG99DDsXgYi2zax23Uts608ARjEN440QyB9nrdCxjIIoedS8tR7vwCKKIBawiCJI1LBJU/gIIVHSzCjqSEv8PwHYm2kkxhg78P9Ut0p3YhRECVu78g4sIhoELGARRVAopt2BxUPciZKk4RF1y9S/SYADmEbiTIHn39DwiLqMgihBa1c1rYDFM7CIoogFLKIofjDVsLcQQkayV4kSQlW8kd5vFPgAw0gmAT7kjQx+xSSIkvS5F6MeFVe1eAcWURT3yYyAKIKTppg1aVoId2KvEiVDfcG/BJDZTCLxM1l9tuB9gzkQJeYzb9RaT4R3YBFFc19JRBGcNbXLrDWN7MROJTJftt2frYJvMQna5Dv1RX8GYyBKwtrVsJd1CA9xJ4oiFrCIojhnKl43qT0qfAMZkelmt3lHQfTXAIRp0BvTmWpztugdxyiIDKcYbVh7XmOnEkUPC1hEkZwz9XXDmrQTe5XIXHOW6TjLwk0AypgGvUUKit/VF3omMAoik9euZt1tL9DX2KtE0cMCFlEUJ021jJo0lQUsImOd06qVgePfCmA3pkFvYxeFfduMovKFHkTGbirNOgMLYtZanMicaw0RRfGTadSkKSxgERmpUdXqdv1rBTiAabzpmvcwgAeYxJtMTql/fa2qzSiIDKMqChhVoDbwaQgiQ7bJRMRJc+BVnFdUPlpEZJini/6lAE5lEm/SKp5zsms7JyvwBON4kw9XdvjfZQxEZmlYiZEAzCpOKx8hJIoiFrCIIkhC8ybNbpt3YRGZJNvuzxbgq0ziTTuepwN1Tpw/RV5tmiivO+J8BNBnmMuWEeFrdUV/JoMgMkcPzHtZjyrvwCKKIhawiCJIAvc109oUBKX3sGeJzJDt8I7c9MZB+q+XVfXkhdXy7Ob/x7y0/Fvt8AQALzKeLeY41XlzCt6xTILIlM+0t6tpbXLc1Br2LFH0sIBFFEFBBQz81sfalT1LFH9zluk4hLgZfOPgljaI4NR8dVnbW/9BfmJ5UVU/CqCLMb0hFQI3zlqhYxkFUfwJxLg1XkVg1nm0RMbsKBkBUfTsuy/WAggNW96wgEUUc3zj4FZ5EHy8Oe2+7aHt+erUP0PF6QB6GdcbdrcD/9ZzWrWSURDFfIWnsothTeq5Mi28XhNFEAtYRBHUKBIKTLsLK2QBiyjO1yW+cXCrFzaozMyl3b+827+4oNq9SyH1MO7LiT6Z2pPyFzWqcj1KFGOC0KgClgJ8fJAoorhgIIru5PmyYcsbFrCIYqyz6P8AfOPgW67TekGu2rlhW//9fMa5TkXPY3JbZKg4vbPD/x6TIOIaL0JeYp8SRRMLWETR3RkZNXkaeHs5UWJsemvchUxiy2savp3PpC7f3v8un05dDeD/mOCb5ruvZYv+ZxgEUUw/woat8URM+xKZyBwsYBFFl2Hf/vARQqI4ynZ4R4rqb5jEm7Y3v26udht39L/OpZ1viggzffMO+Df1Re8IBkEUyw+wYWs85R1YRBHFAhZRVKdOCB8hJKIhtemNgzeBbxzc8uJ8S1fa/nzfLoei66rsswH8joG+oVwVN/PNhESxZNgZWBbvwCKKKBawiKI7fRr17U8IsIBFFCPntGpl6Pi3ANidaWwi+Hul5XyqRSTo649qEQnUdWYCuJvBvmF3O/Bvmfm4DmcURLFiVAHLCpUFLKKofj4ZAVFkmXUGFrAnu5QoHhpVrW7HvwbAVKbxhmXqOJ/oz1er58dLT0mcUxV4gvG+4UB3mH8N30xIFCtjzGoOHyEkiiouDogi++kU0ybPXWpbNcWOJYq+Z4r+9yE4jUls2soAzwe2c3J+vLzW3z/72rSsDdX5MIB/M+lNeStOf6bD/y6TIIq+hud0GIBRZl3z+QghUWS3yIyAKKLEuG9/pLKMjyIRRV1d0Z+pwEVM4g3rbNGPLJwozwzUH7CwWp6F6GkAuhj3pg0k30xIFAvBht4xxjVKeQcWUVSxgEUU1bnTxNuXQ28Me5YouuqL3hF84+Cb92Yi8pn56dS/BvoPyqVTj4rKGQB8xg4AEL6ZkCgGF8nANu6ICNWQBSyiiGIBiyiqk6e4xk2eqhbPwSKKqFkrdKwqbgbfOLjFNUvPbk47tw7Wn9dc7dwh0POY/BvKNcRN2Q7dh1EQRXQzaYlxa7uUpvgIIVFUrzmMgCiaunvwAgA164oT8g4sogiqW6Xlduj/Hnzj4BtE8P18dWrQ70ZrzqR+pcCP2AObOwJ7IPRv3XTODhFFjnFru2DNJLzIfiWK6HaSERBFU8sUKQEw6hsgUeEdWERR/Gx6wdVQTGMSb1ysbmiucr4xVH98Pu1cpNBr2RFvOLDU5TUxBqLoUfPWdi+0iATsWaJoYgGLKMqLAuB5LnKIaCDVF0tfBDTLJN5wbyXc2RAZujtgRXS959ZDsZjdsSkSyIxsoXQ+kyCK3OLOrDuwxKy1N5FpWMAiivIHVPGcUWsCS/kIIVGE1BW996kKH1f7r7beMue0K9PSO9S/SMsUKQWhUyuCArvljVnkx3MK3rHMgShCn0ox7MtJZQGLKNL7Y0ZAFOE5VMSwO7CwF3uVKBqyHbqPKG4A4DANAMDLlhWcct04WROVX2jhJHnFCvyTAPyH3QMAcEOghYe6E0VobQfsbVZ75Fn2KlF0sYBFFO1p1Kw7sIB92adEQ69ulZZj46HtuzENAEC3ip4yv6q8I2q/2LyailUS6kcBrGc3AQB2Q+jfUrtaKxgFUSQYVVAWUd6BRRRhLGARRXkSVeMm0ZENK3QUe5ZoiK8tXnAVgEOZBAAgFJUZ+XTqwaj+gs01qUcA+TQAHiy80UEjNni/ZgxEQytb1F0BGPWGUA1ZwCKKMhawiCK9q7KMm0RLpdJY9izR0KkrlM4DtJ5JvLFd+VJztXNz1H/LXMa5XUS/wv7a1GsiM+uKpXOYBNFQrlM949Z0tljPsWeJoosFLKIok9C4SdS2bRawiIZItsM7UiA/ZhKbr7H4SS6TuiIuv25zOvVzAJez4zZ1n8rPs0XvOCZBNERrusAyb01n4NqbyCQsYBFFWGi5xk2ioYQsYBENgblF3RshbgKQYhqAAr8fV+VcGLffe1zauUAEf2APAgBchPjtrHblC0KIuKbrF4Hj8hFCoghjAYsowiY8g+cA+Ga1Svj2KKJBdl5Ry3z1fw9gd6YBAPhnqtKZ1SgSxu0XbxQJ15U70wE8wG4EINjDFv/35xW1jGEQDfJGUsS0AlZvfl++9ZUo0tcdRkAU4Y3K8eIDZh0mqaq8A4tokHUh+IUAhzEJAJCVvuV8tGmMbIhrC1r2kW5XnVMBFNmfAID3dsFrYgxEg72mg2FrOlkNEWXPEkUXC1hEUZ9KRZ4xqj0QFrCIBlFdsXQOVOcyCQDAK0Hgn7yoSl6Me0OaquXlUIKTAbzEbgWgMitbKJ3FIIgG8WMHwwpYos+wV4mijQUsoqgvDlQ7DWvRvuxVosExu807SlR+xiQAAL1hiNMWTiovmNKgBenyFRbwSQAldi8AyBX1Re8I5kA0SJ840+7AUl3NXiWKNhawiKK+OIAYNpnKXjyrhGjg1a3SPSwLN4KHtm+88oh+fkGNu8S0ds3PuPdApYE9DABIaYibeKg70cA7p1UrIYadq6jSyZ4lijYWsIgiLjTvdmZrfdC7L3uWaOA0PKKueH4LgDFMA1DFpc3p1HxT25erdhZA8BP2NDYf6t7CL0qIBlaXXZoAQAybLXgHFlHUN5KMgCjia3G1jHsePxRnInuWaOD4o4KrABzNJAAI7lifcb5hejPHVTkXAriVHQ4AOKJLAz46SzSQm0ixJxg3XVjCM7CIon7tYQRE0RaEgXmTqYQsYBENkGyhdJaqfpZJAACWleB8ukUkML2hjSKhhM5nIHiS3Q4Aena2vcSXFxAN2CZSjVvLhWHIAhZR5K89RBTtD2lZysDJVCawZ4n6X12xdDgglzMJAMDLguCUa9OyNikNbq6Rder7pwJ4kd0PQOTq2W3eUQyCiGu5bRH0pPgIIVHU98aMgCja8uPlNQCvG7XkAXgHFlE/a1ime4rK7wHw7B+gFxZOa86Ur0zcnDGp4mlVvplwE9ey8Nu5K3V3RkHU39S0AtbLi6bKevYrUbSxgEUUD08b1h4WsIj6UW2rpnyXh7b/d18lZ+Wq3PuT2vx8tXsv30z4hr0Dz7+ptlX5Nk6ifr3MGraWE+PW2kRGYgGLKB5WGNaeCVAVditR/6hMBT9RBR+VAiDAZblqZ0HSc+CbCd80KI6sdPxLGQRR/6hVtQGMM6tVuoI9SxR9LGARxYNpj8GUzyrwThGi/lBf9M+A6rlMAgBw69i08/8Yw0ZdVc5FCvyRSQAQfLG+4H+CQRD13fC2nn0AGHZXo6xkzxJFHwtYRLGYU9W4SdW2/Cp2LFHf1K3oSavqb5gEAGCZazuzGkVCRrFRi0hghc6ZfDPhppkUmqtr761hFER9XcQ5aeMuELwDiygWWMAiisWkKsZNqqJazZ4l2nG1q7VCAvtGACOZBl4JJTi1aaK8zijejG8mfJMRYlk3NjynwxgFEddwWwoNXGsTmYgFLKI4LBQkWGlgo1jAIuqD4d3B1QAOZBLwIPjEgnQ5Nx9vIz+p4ukwxMcB9CY+DMX+pXXBFRwVRH1ZwlkZ09oUWg4fISSKARawiGJgn9VlTwPwjVooKFjAItpB2fbSXIHWMQlAVT+fS7t3M4l3tqDGXQKVs5gEIKJzsoVSlkkQ7eAaDsbdgdXbPQHPsmeJoo8FLKIYaDxefIWsNmoDAd6BRbQjZrX1HgCRy5kEoMCP8tUpngG2jXLVzgIR/JRJAIBcPadYOog5EO3Ap8e8RwifbhEJ2LNE0ccCFlFcFgvGHS6p488rahl7lmjb1bfpCNuybgSQ+DN8RPHn9WnnaxwV22dslfNVALcxCZSHKjfMKCrPkCPaDrWrtQIi+xjWLD6CThQTLGARxWe7Ztqz+Xa3liawX4m2kaqElp8D+PgtgOWO43ya35hvv0aRUEJnBt9MCABIp0KPd/ARbYeK9aW0cXtIEZ5/RRQTLGARxWVuhXaY1qZQbb7OnGgbZTu8LwrwCSaBl+zQ/wjfOLjjmmtknR34pwF4mZOrnFFXKJ3HUUG0bWzbNu4Ad0HIO7CIYoIFLKKYUJGCaW0KLc2wZ4neXV2xdDhULmUS8FRwxryailWMom/m1VSsEsXHwDcTQiA/md3mHcVRQbQtC1I17y7g0GpnxxLFAwtYRHFZYAd+m3mLIOEdWETvIlvUXUWlBUAq8fsm0c/l0+4/OCr6R3O1e5+KnsMk4Fqi185aru9hFETvtiA178vHwPIL7FiieGABiygmnK6ylQA8w7ajk9mzRG+vUdWC+osA7M00cHk+nWpmDP0rn041C+RKbsplnO34ixpVuTYmeqePisoUw5pU2lBV9jR7ligeOEkTxUTTNPFEYNRjMwJMhqqwd4m27pmC/y0AJyZ+wyRY0uU5F3JEDIyxz9oXALg78UEoTu4s+nyzJdHbaFS1FDDt7vkiXwhCFB8sYBHFaW2tMO0Z/co5yzGWPUv0v7Jt3vtV8I3EX/eA5x3PqW2ZIiWOigHalB4vvu04nwLwb6aB79QVvA8yBqL/taqjdzyA4YY1i48PEsUIC1hE8WLcIZOBHUxhtxK92dyi7g0LvwVgJzyKHlv19KbJ8jxHxcCaN0H+Y4meCqA76WtjAa6pb9MxHBVEb2bDMW7NZuCXw0RmT9KMgChWs6xxk6wlygIW0RYaF6sTqH89gF2TnoWInju/OvUwR8XgmJ9O/UtFzmIS2E0t/3cNj6jLKIi2WIaG5q3ZLFEWsIji9JllBEQxWjhA2s1rEwtYRFvqHOP/EMDRiQ9C5BfN6dR8jojBlU87iwD5JZPAEf5I/7uMgWiLNZuBXzqqJXyEkChGWMAiipHAdsz7lkiEBSyiTeqL/qkQfJG7JNzfVbK/zBExNNy19hcUuIfDEBfWt/sf44gg2rRkg+xn3Nrac3gHFlGMsIBFFCOLquRFAK8atkOYzNeWEwFzOnqqVHUhgES/mVOB50V5aPtQapomnuM4ZwB4Nun7dRVtri/0TOCooKSrVbUBZAxr1qsLJ8kr7F2i+OCmkSh+TPumaNi/23vGsVspyepWaXkY2jcAGJXwKDwNUdtcI89xVAyteRPkPyr6SQC9CY9iJ4V9U+1qreCooCQb0d5bBcC0z8Ey9ixRvLCARRQzIvKUaW3ybXc/9iwlejL2gysAHJz4IFTPWVDjLuGIiIZ8OvWgQM9nEpg6YkPwY8ZASRZajoFHPkgre5YoZmtmRkAUuyWEcd8WieoB7FdKqrqiX6uqn2US8stcdWoec4iW5kyqSUR+k/QcVPScunb/0xwRlNgrtOpU8z7Y4VPsWaJ4YQGLKGZCNe/bIgGmsmcpieoLPRNE9TdMAg9Uiv0lxhBNzuv25wHcl/gNvOgv65Z378sRQQll3FpNbN6BRRQ3LGARxe1DGzrmTbbCAhYlT8Mj6irsa5D0c68ULwTq1F6Zll6Oimhqmiaeuk4tgKSfTbYTbOeGhkfU5aigxBHz7sDy4LCARRS3vTAjIIqXTYcbG/UmQlVUndOqlexdShJvpP99AEckPQYFzlhYLc9yRERbfry8IIJPAkj02yEFOMwb6V/CEUFJMqOoIwEx7YU7L296uzcRxQgLWERxXEALlpt2Lep2vSnsWUqKbNE7EcAFib+WQc/NV7v3ckTEQ3PafUBUL2AS+Fp9wTuBMVBSuKE/FYAY1iyef0UUx00jIyCKH+U5WESxNbNDd0OIPOdgXdCcSTVxRMRLc3XqKlWZn/T1swLX1K3SPTgiKAkEBh7gbuBbvYkSMQEzAqI4Cs17Zl8tFrDIeI2qlhP610CQ9I3vg5XinsUREVMp+1wFHk54CrtbJT8HVeGAIPN3jOat0URDnn9FFMfLESMgiqHQwG+NLGUBi4z3TId/IYAPJjyG/wTqfJKHtsdXfrz0pHzndAWeT3IOKjipruDz7ZmUgMFu3hrNxLd6EyUBC1hEMWSnzHtriir25zfZZLK6YulwVXwn4TGUwhCf4KHt8dc0WZ4XwZkAvCTnIIIf1LeVpnFEkKlqVW0Axp1TGobOMvYuUfywgEUUQ/MmyH8A/MewZo2sL/aOZ++SiRpW6CiodR0AN9FBiH5xQY27hCPCDLm0ezegX0l4DCm1rOvr23QERwSZaHihlAYwzLBm/XvhJHmFvUsUPyxgEcXXE6Y1SMU5mN1KJvJ8r0mgyS7Qii7MpVO/5GgwSy6TugLQ65KdglaFlsexTWZeusU+iGtoIooKFrCI4utx47YAoR7CbiXT1LWXPguRMxIew1PucPdsjgYz+d1uA4BEP44jkBnZdn82RwMZN7ZFp5nXJjzGniWKJxawiOI7+z5uXpPAAhYZJVvsnSwiP094DF02wjOaxsgGjggzLZoq6yUMPg5gXbLnZb2qrr23hiOCTKJq4trMvDU0UVKwgEUU1wWFH5g4+R7Cg9zJFHWrtHzTuVfDEh2EyNnzMmXLOSLM1lxT3q4qDQmPYbhY1o21q7WCI4LMWGyqADjQuHYFPgtYRDHFAhZRTO37Qmo5gB7DmrVzXVvPOPYuGcELfgZgapIjEMiVubRzDQdDMuSrnd8C8utkb/ixf2W3fylHA5mgvr03A2CUYc3asK66rIO9SxRPLGARxVTj8eIDMO6uBst2+RghxV5dwf+4QD+X8Bj+OVzsr3I0JEul2F8QYGnCYzgvW/RP42iguAstx8Q12ZMtIgF7lyime0VGQBRfauAz/Co8yJ3iLduh+wi0KckZCLDGDv1PXZmWXo6IZLkyLb3iO58AkORX1Iuo5mat0LEcERTrjaKRazKef0UU6+sSIyCK88IiNK+ApTzIneKrcbE6ov71AN6T4BhURbLzaipWcUQk0/zJ0glIHQBN7IcAGG0H/jW1qjZHBHFNFqE2Gbh2JkrU/pcREMWYiW8iBKbxIHeKq869/EZVHJXsyxJ+kEs7t3A0JFsu49yuwI8THsMxlR3+1zkaKJYMPcBdA96BRRRnLGARxXmj2OuYOAnzIHeKpfoO73gAX0t4DP9YV+V8i6OBAGDfZ53/B+DeZBcB8K26du8YjgaKm1ltvWmYd4C7lrnOU+xdovhiAYsoxuZPkVcBfdq4hjnuoexdipNsUXfVENckel5VvKCucyYPx6XNGo8XX0Ln0wBeTHAMtoheO6dVd+aIoFhtEm1nmoHN6miaKK+zd4lifG1iBERx3zOKcW97EtXD2LMUnw+hCtSfB2BMglMIRDAzP15e4ICgLTXXyHNi4dMAElzYlH0C11/Ix+MpZpvEww2csB9hzxLFm8MIiGK+LFYsheAThjXrvexZiou6onc+IKcmOgTFN5ur3Tuj8uucV9SyV1IY5myA5di9W30EJrRhq1ojt7o4CmCryMitX3RhhZCt/kwJYYmEb/pnqtbraiHc+gZRX4du/Z+J6lrf3nrRRyRcawVb/2d+UPa6Pwzhe0rYEJW3QDZXuYvrC963FfhOYudq4CN1Hd7ZeeBqXjUpHpd1NfBueHmUPUsU+/mUiOKsvuh9SBV/MaxZG8Y964xqPF589jBFWbbYOxlqPQKgIrmbHPxx37RzaqPImwoxdat0J6sXw0K3d7iqNdKGjEQIGyLDQqAMCtdCWAkAochoABBFpQBuCJQJZBgElqiO2vTnjARgi6ACinIFHEBGbPotdhJAFBgOIMWR+SYlAdYroIC8timvdQL4EPSoohtAIMBaAFCR16EIFbrBAnoV8FTQBQCW6hoACGF1QeAB6LFUu0OBr6LrRMK1lle2PizDhvz4zX/WRo2qVmeHfzsUJye4L3osKzx0flUZz+ChSKtt1VSl668FUGbUfCU4Pp92/8EeJoovFrCIYm7Wcn2Pbfsvm7cp1oPymdRj7GGKqvOKWtal/kMApiY4hm4AD4vAUcVoQMoVWiHAbgBsjpLE6xGgO9z49zVQeBCtAaQswZk82uU5R7RMkRKHB0XVnPbSYaHIQ6YtLdV1dn5rcZ2I4oVnYBHF3MJJ8gpUO01rl/AxQoq4dep/F8kuXgEb7zw7ThVHAZgM6AQB9gSLV7RRuQKjN42JyRBMTXjxCgAOHpHyL+HQoCgLxLw1mAiKLF4RxR8LWERmzMpLzWuUxQIWRVZdu3eMABcwCSLaXqq4OFv0jmMSFGHvNe9zp0vZrUQG7BAZAZERi2EDJ2VlAYsiqWGFjhLoIvAuIyLawfW3quRmFHUko6AoEgO/RBQVFrCITJhAGQGRAZOyZWIBC5PqVulO7F2KkvOKWuYHfg4i45gGEe14gUDHuwgWsIhFUTOnVXcGdKJp7QrNXCsTJY7DCIjizw2dpZ55L+wTLfmHALiLPUwDqVHVem45di/Z3t5iWWMkDPcGZFdAdlXRPQHsuumvPbvU52aTiPppktPTU/Bfzxa8tQCeB/ASgJdE5XlAXwL0JbWsf2sYPpcK3H+PmYT/vPVtn0T9TZ3gvTDvRV8Kx3mMvUsUfyxgERmgqVpezraXOk27K8QSHA4WsKgPGh5R16/EroHj7SlqjbE03BOQCVAdoyJ7AjKhs+jvAweuQABVqMgb610iokEwctNf1QCgsvnas/GaJCLwHB+dRaC+4K0BsFKB5wF5TkVXWqE8D9HnAgmfDzeknl40VdYzUtpRoaWHiXnTXwcPcCcyAwtYRIYQkYcVMKqApcAR7Fl6O+cVtWy99u4FtceEluwJDcdYkD0BTIBgjKrs6cEfB8C2QgGg0M1fKrNIRUTxnBdHAzhk8/8S/W/By1ILVoWP+oK3ZmOBC88BslJUn4foc6FYz6uEz/nqFq9Ny1qmSVtdT258q6xhHxx9iD1LZAYWsIjMWdU+BEGtSU2ygCMbVS0+MpE8DY+o2zuqd6yt9niIjgshewtkb6iOATAWwJgu9XcGbEAAUQUg/y1H6Rv/h4goYcsBjMbGvyYDChUAEIgqRAUp+MgWvFcBPAfgGRF5NoQ+C+hqDaXTlmCVs7ZsddM08ZhmsjSqWp1F/zDjPhOCh9m7RGZgAYvIECHwsHkHFmB0Z0epBsAy9rB5pnfqaNfzJohaEwCdICoTAJ0AyAQP/lhLbUc3rTxl84ggIqL+sPOmv/ZT3XxvqkAEUNjwRvpvPK743790JSArgWDl2HTZ0/xyyTzPFLz9ITLKtHbZCt6BRWQIFrCIDJEa4Sz1unzfuM91KEeCBaxYmt6po91SaYyt1p6bC1MAJgCYoEA1ev3KjefEbi5MvfXvREQ0VLZ4XHHTI4ubvyaz0Vn0S9mC/+/NRS2VzX8PV9q++3xzjTzHBGO45LJwlIHnX/UOs9zH2btEZmABi8gQTWNkQ7bgPQXgQKMW0GIdBWAeezh63jiDCvaErRSoJqLX3wmwNpWjhIEREZkjtfG6jwmbz+La+HeBWj6yBa8HkOfepsBVaK6RdYwweow8/wp47Mq09LJ3iczAAhaRWUuPhwA90KQWWaJHsl+HTm2rpka5pYmh2jWhpRmEkhbRaiiqutTfA7A3jz2GRUREm5W/U4GrruA9L0CHqhREtKAqBSBoW++nVrZMkRLjGyKKo0ybzgXC86+IjPpME5ExsoVSFpBm05ZTvuXssahKXmQPD5zpnTq6vMefAtHJm++kUmAKgAz4ZQcREQ3WpA88L0ArICsV4TIL0spztwZefZuOUct/1rjNrshnmtPOtexhIjNwU0Jk1CytD2163ZBRrXI0OALALezgvjmvqGVrUaoS2JM3H5ouolNUcQB6/RGb31RFREQ0ZJM+sCeAPQGFvPF2WRudRb83W/BWbCxubTpUXmVZr+U8cW1a1jK5vgntwMTzrxBaPu/AIjIIC1hEBslVpZZni/5rAHYyqmGqR4IFrG3SuFidZ/bqHbv5XCqFTAEwGZAJXeqPt2DJloelK89LJyKieCgDMFmByRv/pwACpHSLNyaqLgstad183pbYbmt+vPQwuncnqiaef/VqfkJZB3uXyBwsYBEZtfoQlYK3VIEPmNUsIw8V7ZPGxer8e69S2hd7Pwl1PxVMsQT7d6o/HrDdNxb3b2ClioiIzPTGGxNFDtnyvC2EvpcteCsAPCWKVrXkKQ2Dp/Z9LtXReLz4TG7LxRaOMm2pIIqHIcIFEJFBWMAiMm8B8hDUrAKWKg6pW6XlSf0Wtb5Nx8DyJ4fQKQJrsohO6VT/IMAaJqqbv4Tm3VRERERv5gKoAVCjgk9CFSIWOvfyvWzBKwrQCsWy0JJWRbBsfFVqeRLP2Zr5uA6H+lNNa5cCfHyQyDAsYBGZNlmrPGDg3TbltucfBuAek/tuy4PUFTJFBIeo4gCFPwIAZGOZioUqIiKivnGx+XFEAUQVAgudRX9dfcErbPEo4jJL/dbmTPlKk8OwK/wjN2ViFgv3c6gTmYUFLCLD9JbZS8p6/RCAZVK7QuBYGFLAmlHUkY54aTuwNhWrMEWBQ6TX33PLg9RZqCIiImDj11J8xcagGKFveRRRYW88Y0uwTFVaN78ZUcV5PJeWl0xotGxcY5kmdC3nQQ5pIrOwgEVkmOvGyZpswWsHMMmwpsVucdW4WJ3V+5RqArUPEtX9INgfqlOg/lioQLc4loEbE24OiYjeDq9PQz5HjIbiKECPeuPNiOoj217qhEgrgKcg8mSI4F8bqlJtLSJBzNp3rJjXZ081TZTXOXqJOB8SUcTVtfvzRHSOYc3qctc6OzdNEy+Kv1zjYnVW7V2qtkP7EBU9ZNPjfwcBGMYRSURElBgegKKoLg0FSy2VpWHKeSSq53jWrdJy8fw1AMpN6gSF/Cqfcc7mcCQyC+/AIjKQSLgEENMKWJXeSO9gAA8N9S/S8Ii6vaNKmS2LVZ3qH2KpVb75rio+/kdERJRIG8/XEpkswEwVQDzfzxa8wpZFLWeE82jTGNkw1L+s7fmHhYYVrwDAEtzHoUhkHhawiAwUBOES27aNa5dAjsUgF7DOadXKHsc/cMuD1T31p1lqlbFYRURERNu453pTUcvr8oNswWsX1aWbD4y3S/aS+VPk1cH8xRQ4zsTArcDjAe5EBuIjhEQmUpVs0f8PgF0Na9ntuYx7ykD98OmdOtrt8Q+2BQcr9CBADgaQhmEH4hMREVEkhQAKgP4LkEcR4lEtcx7Nj5fXBuoPzBa8vwL4oFnrYLyQq3b35HAiMg8LWESGyha8WwCcalizXu9KO+/pj8NRZxR1ZJn6h4WKwyA4GJCDBTqeI4eIiIgitmVbCeijUDwaAg/7lvPPa9Oytq8/tXGxOp17+a8CGGFYYL/LZdxajhsi8/ARQiJzLYF5BaxRw4ve/gAe297/sL7QMwHqHK2ihwhwlKp/kAKWvFHG53OAREREFEU6AcAECD5pAUipj2zBXykaLgkFS9XCfeMnuv9qFAm356c+vbc3TVRMK15BRJdwzBCZiQUsIkOJ4n418B5LAY7FuxSwNt9dBcXRKjgEwJEK7IzNZ1ZxeBAREVGs6QQVmSDATAmBzqK/rr7oPQHFfaHIEoH9YC4tL73TT7BUjjFxTSQheP4VkaFYwCIyVJhyHhHP7wVQZtZ6Td4P4IrN/7NW1R7WUarZ+EZAHAXo0VB/kgLCh6SJiIgoIUao4igAR4kqAB91Be95C7gvhC6xVJau852HW6ZI6b9rKrzfwLXSBnud+y8OByIzcXtHZLBsu7cEgiONapRirQWZrdADN91ddTSAndjbRESUPMrlPG2P9SJ4TBVLNZTHLVuvVMUww9r4j1zGPZ5dTWQm3oFFZPay9h6BYQUswcgQejN7l4iItpjvElrGYfGKtsvwN+7SshRq4PODorib3UxkLr4ansjoD7jcwxSIiOe+kelYxiEiAFAF175ERu9vichYvZa9BEDAJIi4uSciIjKc5450HmQMROZiAYvIYNemZa28yxv7iIiIiIhiT/HPpjGygUEQmYsFLCLT53LeSk1EREREpq95wTUvkelYwCIyfjLnOVhEREREZDq5lxkQmY0FLCLD2b59D4CQSRARERGRoQKk7PsZA5HZWMAiMtz8KfIqgGVMgoiIiIgM9Xh+vLzGGIjMxgIWUQKI8jFCIiIiIjKU4m6GQGQ+FrCIEjGn81BLIiIiIjKT8PwrokRgAYsoATRl3w1AmQQRERERmbbUdWCzgEWUACxgESVAfry8AGA5kyAiIiIiwzzeVC0vMwYi87GARZQA9YWeCRC8wCSIiIiIyCQKrJ3dUTqESRCZTxgBkXlqV2vFyO7g/SHwESA8GZB9mQoRERERGby1XamCO6wQf1w3zP5Hyz7SzUyIDPuUMwIiM8xZpuPU8U4E5AQFTgIwgqkQERERUQJ1A1ii0NtD27154UR5hpEQxR8LWEQxVatqD1vhHWgHcgoEH1XgYH6miYiIiIj+Z9u7EtDbBbjNWevc3TRNPGZCFMNPMiMgio/pnTq6vBR8WMPwVIh8CMBOTIWIiIiIaJs3wGsA/YvCulVd+478eHmNqRDF5vNLRFG2+dFAhZwC4EMAUkyFiIioD5SrYCICAAQieDAEbgv94OaFk8oLjIQoujh1E0XQ7GLvFIH1UQs4RRVH8rNKRERERDTglglwGxS3N2ecJRBRRkIUHdwUE0VAbaumRqT89yGU01T0VAB7MxUiIiIioqGiq1WsW6F6S2qt8w+em0U09FjAIhoitau1YviG4EQL4cdV5BTwPCsioqFeFK15220M5O3+mQr0tW3aCkF2eru1l0BHv/1/h9HsHSKioZ0fVPQ2wLqpq9z+a8s+0s1UiIbks0hEg2VGUUemNPgIoB8HcDKA4Uylf/A4E6LICwRYq9B1gOUDukGAXgU8AF2bNwgbP8/SBcAToBfQDSoIFXh947+ja0URhGJ1A+ixQvgQXQcACPW1wIFKoOst0ZIlZaUNKazf8pe4btzbFqJieOFTmf7Mm7/8KPNQKWGva0HKPEuGSQDLEhkFACFkJAS2FaICEpaHAgeQERuzw06WQFRkOBQpBVIWdLhuvLRu/jMqBXAVKAekAggdgYxQYCQAm0OciBKiS4A7VOX3ovafmmtkHSMhGhzc7xENsOmdOrq8JzgFoh9V4MNg0WoAN3O8qhH1ox4BusONf18jQDcEPapYI6prVKxuQHtEsSYUXWMB3VCrJ7SwxlLthqInsMI1dpBa01OB7uvG4jWeJWK22tVaMWI9Rgd2aTREyu1AKkJLRgMot0JUhBKOtlRGQ1CuQIWojlbZ+M9FUKGK0YCUK7RCgF0BOEyViKI+VwK4T6G3B5Z7/aIqeZGREA0cbvWIBkBDu+7ii/dxhdQCeB8X4UQ0yHwAa0SwRhWvQrBGVV8Vsdao6hpL9FUNrTVq4VWBrg1Fu6Dha2Ve2Yb1LtZfm5a1jJCG2oyijhzuYXiQ6h3uwxplqVQKZJSGGC1WODpU2VlERkPDnSEyGorRIth5YyEMO4N3hb0rfu9D1O9z72JVbQlD96aFk+QVRkLUvzhnEfWTulW6k1UKTlXRWgAnAnCZChH1wwZTBbpSRF74791PsuaNO5/UWhNaWGOFumbzHU9jq/FCo0jI9CjJtrwjzA6t0aElo60QozffCaaC0W/cBSYYg1APggjXxkTUHwIRPBiqtoi41+XS8hIjIeo7TtJEfdCwQkf5fnBaKHqGAB8EkIrNlpgff6J4fFoVX85Xuz9lEkQDK1vwLgRwGZMg4lK2n5UA/BUiN5Rg38q7nIl2HHewRNupdrVWDO8JTrDCsFZFPg6eaUVEA+eBrrRzTItIwCiIBlajqtVZ9O8GcDTTIKIB0gvgb6LSArVv5gHwRNuHBSyibdDwiLqlUcFJlobTFXIqgGFMhYgG2Aa1gwPzE8uLjIJocNS39VSrZf8LQAXTIKIBth7QWyxY19lr7b82TROPkRC9MxawiN7B7I7SIVYoswB8GsBuTISIBo9+IZdJXcEciAZXXbt3gQh+wiTIgHmE2734bMrXQPV2iCxsTjt38a29RG/7WSGiLc0t9E4K1fqUiswAtIqJENGgT86CJWOrnGN5EDvR4GtUtZ4u+osFOJZpENHg09WA3GyJ5uenU/9iHkRbrJEZARFQ36Zj1PKnA5gB4EAmQkRDaL1lBQfOryrvYBREQ2NuW/f4wHKeAFDJNIhoCP1LFNc6gXNd02R5nnFQ0rGARYl1XlHL1iH4kKU6U4GPAXCYCtGQ8gBZDehKqL4KkY8igefNqejn8+nU1RwOREMrWyidD8jlCWz6elG5DqI7AZigwCTw7E+ioRYC+LuoLHJG2L9rGiMbGAklEQtYlDhbnGs1HcAuTIRoUCedNQBW/vcvXQnISiBYuS5d1rn5bXvZ9tIiiHwmgQH9PVflnMCzL4iG3qa3Et4F4H1Ja7tC8vmMk938v6d36mjX8yaIWhMAnSAqEwCdAMgEQMcBsDliiAbN66J6K8/LooTuJYjMN7eoewehPxOC2QCqmQjRwC2qICiKYpUCqwS6SkVWBX6wapRT1nllWnrf7QfUdXgnSYg7EpjdOg38A/KTKp7mMCKKhvpCzwSF/TiS9yihKnBiPuP+7d3+xfOKWrY+6N03dOzxojpeVcYLMF6A8QqkAYzkSCIaMG0iWGDBuWZeWv7NOMh0LGCRsc4ratm6MPgYRLMCnADAYipE/cLDxjuo2hVoF9UCLCnattM2b4L8py8/eObjOtypCJ7Y+M1+0naL2pCvTv2Gw4soWuqKpXNE5arENVy1s8J397t6inT1Kb9Vuof4frWGmhGRDIBqEVSrYjwAlyOMqF+ECtwJldwIy755W74wJIojFrDIOHMLvZNCWLMVqAewKxMh2uEJYuPjfqrLQktaAVmpEq4U223Nj5eegfgzswXvcgDnJzDuO3Np50N8DIAoglQlW/TvAHBi4uYBwU+b0+6XB+JnNy5W55m9escC9gRAJyhkCoDJmx5LHM99CtEOew2QGxXhL/OZ1GOMgwzbnxDFX32bjoAEH1PRmdh4txURbZteACsEaMXmM6lUlvVazhPXpmXtYP4i2ULpvYAsQfLOUnk9sJ0DFk6UZzgciaJpzjIdFzr+E0je43ChCI5uTrsPDOYfel5Ry9aiVCWwJ28+c0tEp6hif/CRRKLt2ewvBbQJoXt9c42sYyJkwJgmiq9sh3ckQpkL6BkAhjMRorejz4jKMlhYpqoFsaTgB05hYbU8G4XfrrZVU5Wu/yiAKQnsm/pcJpXjGCWKtvpCqUEhv07gbuHJrpIzrWWKlKLw68xq171s9athaVpEMggxWUUnAzKWo5TobXWpyg2wwnn5dOpBxkHxnZKIYmZ6p44uK3l1UPksNr7amYj+62UonoQlraLhk0EorWWu81TTRHk90hvDdq9RBZcksL/+lks7J/LRQaIYUJVsh/9HKE5OYOu/mcu434vyL9iwQkf1ev5+lqX7Qaz9EOoUCPYH3zhN9FatgDap6y7Mj5fXGAfFCQtYFBuzO0qHWKHVAOgM8G4roo2P/qku3XQ+1TJL/dbmTPnKuDWkrr23RsR6DEBZwvrwdVuc/fjWIKL4mNWuezniP6nA6MTNORIenEuXLYvbLz69U0eX9/hTIDpZIVNEcIgqDgAwgiOaEq5HgNuCEJcvqHGXMA6KAxawKNob21VaDj84xYJ+QRVHMRFKIA9AUYBWKJaFlrQqgmXjq1LLG0XCuDeuUdXqLPj3QnBk4iZgldnN1c5CDnGieMkWSllAmhPY9Htzaec4U+4YrW/TMbD8ySF0isCavOmMrYMBVHCUUwKLAksBbfK63WsXTZX1TIQiPFaJomfTHRlnA5gFYCcmQgkQiGBFqHhSFK1qyVOOBk/t/Wyq2Hi8+OZ+1kufFZGmBPb3bbmMeyqHPVE81Re9m1VxevJabvaZfY2L1fn3XqW0L/Z+UN1fNp7LuD+ACUjeC0YomcWBNSGwwAqDXzXXlLczEYrgGCWKhlpVe0QxOF1VPw/B+zg+yWAegFZAHoWG/4Itj/rrnceT9o1Xtqi7Qv02ADsnrP9fUdfZLz9eXuBHgSieNt2981QCHyV8OQicmoWT5JUkNXrm4zrcKvMPFEsPFlgHAXowgMkAXH4ayFAKwWIJ5RfrMvatLSIBI6EoYIGAhlzDCh1VCrw6Ab4IyL5MhAyz8RFA1aWhYKmlsnTdMGdpyz7SnfRgsoVSHpDZCZx6p+cyzvX8aBDFW327P0tFFyRuV6syP1/tzE38+vURdXtHlTJ2aB+ioodsOluLjyCSiZ4TxW/80LkyacVriuAqmhHQkC382nqq1bLPATAHPJSdzNAlQDtUl20uVg23nH9emZZeRvNm2aJ3HBSLkzYPieAPzWn3YxwBRIZcywrebQA+mrBmqyiOba527+MIeLPGxeqs2rtU/Zai1oFc55IhekX1xjDUH+UnlT3JOGhI1tKMgAZ1Yle1nin671fgCwA+wjFIMbZWBE+qYqmoLA2sYOmGqlQbb7F+d7Wtmqp0/X9h4+MXiRoztjhT+NZBInPUt+kYtfxWJO+8zlZ3rXNQ0zTxOAq2bZyEdnCIFeohKjgEwOEAdmEyFNsigmBJCLl833/bN5t8VitFcOwxAhoMDSt0lBf4nwX083xMkGJoLYCHVfEILHlU4T+6oKpspSlvYhps2YL3dQDfS1q7VbUhX536DUcAkVnqiqVzROWqxF3TBBfn0+5lHAE7NCHInBW9E1Wdg6F6MIBpChwKYCTDoZiVE1ZCwl+U4M6/Ni1rmQcN+IhjBDSQGpbpnr7tnwXB+Qk86JRiPBmLhktCwVK1cN/4ie6/GkVC5tJ3c5bpuNDxW5G8xynuzqWd41n0JDJPo6rVWfT/AeCYhDV9gx36+82rqVjFUdA/6gs9E6DO0Sp6iABHKXAQAIvJUAysA5ALbOcnCyfKM4yDBmyXxghoINQVSgdaigtU5NPgG1oo2tYCeFgUS0JLltole8n8KfIqYxkYCT0vptdGeNC8TNlyjgAiM81a3pOxbftxAOUJ20nckUu7H+YIGBjntGplj+MfGIoeYkGOUuB9AHZlMhRhngB/ENUfz69OPcw4qP+nHaJ+VN/uHa2Ci8DzrSiSNASkTVSXQnBfILpkQVVqGe+KGRzZov9JqLYkbtTxMRuiZFzjCt43AHw3cdc4lY/lq50/cAQM0lp743laR4nq0ZsOiT8M/LKYolho2HhO1mX5Kvt2rrWp38YVI6C+qm3V1PCU9xlRuQDAFCZCEb7ifSeXdi9hEEOy4B6hlr8MwN4Ja/rj7lrnUB50TGS+xsXqdO7lP4yNj30liK6u8NzJV0+RLo6CwZdt974PwdeYBEXYUwL9yTrPva5lipQYB/UFn6mmHXZOq1Zmi6UvVbr+SlGZDxavKPJr7MQ9uhYZoeV/B8krXvmhpXNYvCJKhsbjxVfVswAk7G20sk+36/PLoSGLH6cwBIq4/RSSq3S9jrpC6QszH9fhjIR2/JJHtJ1mFHWkC/9sUXwVwHuYCMWJHfoTeODs4JrV1nuAbVlLATgJm2Ava864F3MEECVLfdH7iSouSFizfYUems+kHuMIGDxzOnqqwtAuMgmKmZdFcZX4zhU8d5a2F+/Aom02d6XuXt/uNabUf0YUl4LFK4qh0LZPYwqDp1HVsi3rV0hY8Uohq7xu57scAUTJ4wx3vgnIiqQ1G5BfN6pybzGYa5rQ/jhToBjaRQWXhK7fmS14l89q170YCW0rTjL0rua2dY/PFrzLA99fpYJLAIxiKhTbxZ7Kx5jC4Hm6w/scgCMS1my1oA2Lpsp6jgCi5GkaIxvE0s8CSNShxQIc9kzRm8sRMKi4pqE4qwRwvi3+yvr20sJZy3syjIS2Ya4h2rr6tp7q0LK+KZBPA7CZCBkiVNfZKz9eXmAUA2vuSt099P3lCoxO1MQq8pvmtNPAEUCUbHUFPyfQuoRtLNZ4llOzqEpe5AgY4PG1SvcQz38WvCGBzOFD9Dq1wu/lJ5bz0VjaKl7w6H/UF3omZAv+r9WynxLIDLB4RYZd96Tk8TD3QRD43k+TVrxS4PmelH0Re5+IUrb9RQDPJewaONoJvR+y9wee+N7HuJcjwzhQmSWB3VZf8G6sb+upZiT0Pxs5RkCbzS30TsoWStcq7CKgDUjYmTWUpFUfHyMcaLPbvQ8AMj1xk6rK568bJ2s4AoioaaK8riJfTOAkO6uu6L2PI2BgqcrpTIGMXU4BtWrZrdn20iIWsuhNMwwjoLmF3kmhytdUZDp4txUlQ29JnN2uTctaRtH/als1Ven6jwOoSdRmAvh9PuN+kiOAiLaULXg3IWFnFYmgMBzOAVempZcjoP/VrdKdxPP/AyDFNCgBQgF+H2r4rXx1WRvjSDbegZVg9W091fWF0vUBrKdUZCZYvKLkKHPD4MOMYWAMT/lfQ8KKVwBeD9X5AnufiN7K9Z3PC5CoOzNVkelS/yvs/QHiB6eAxStKDkuBWhHrqbpC6Zq6FT1pRpLgwcAIkifboftsPuNKNx7QznFAiSMI+RjhAJjT0VMliouT1m4VvWBhtTzLEUBEb9U0WZ5X6NcS2PSvzy72TOQIGIA1jCrXMJREtkBmbD4ja25b93hGksQ9HCVGQ7vu4ov/FQW+AKCciVDCdanr7JofLz2Mov9kC94fASTt7rZ/5NLO+yGiHAFEtFWqUl/0/6bABxLW8r/kMu5JHAD9uJ5/Tod5Xf6LAIYzDUq4EiB5de1L+Hbx5OCdNwlQ36Yj6oreRZ74KxS4CCxe0fZ5xdB2VYoXnMDu7T/Zgn8mkle86ras4LMsXhHROxLR0A7OBtCdsJafmC36PBuwH/nrghNhavFK9BkAnE9pW6UAbRDP76gveJfWrdKdGIn5WMAy2MzHdXi23fsaLL9TFJcCGMlUaBusA3CTiM61xdnH8p1DDF5M8Bb8fjKjqCMB/XECm/6t+VXlHRwBRPRu8hPLiyL4TtLarapXNKzQURwB/cXYIxDUhnsULGccVD8L4GYAXexv2gbDFbhIPH9FtuBd2PCcDmMk5uIjhAZqVLWeKQSfCUUvFWBPJkLbcClYCeBOFdw+AvZf3/rWoGzBWwrgYAMb/sq4Z509Go8Xn2Ogb+qK/i9E9fMJa/Zj7lrnsKZp4nEEENE2rdEWq/PMXv6DChySpHYr8PN8xv0SR0DfNDyirjfSfwHAzgY278Fcxj3ifz4vY/zDIfioAqcAmMxRQNvgOYF+e13and8iEjAOw3atjMAs9QXvhBD4iQAHMA16B74IHgqB2wThbbl02bJ3+pezBe8bAL5rYhCh4oQF1e5dHBI7bnZH6RArlIeQrDeZeqJ6aHN16nGOACLaHtli6WCoPATASVCzA4VOy2dSj3EE9GXseCdC8WcT26aCi/Np97J33uf0TACsExRyCoAPAijjqKB3sFxFLsmnnRZGYQ6HERi0GIL8SBXvZ1WS3saLgNyuituG+fadV0+Rbb4tO5TwZkstIwtYtiWfAsAC1g6vOFWsov8zJKt4BRH8qDnD4hURbb9cOvVotuD9FMCFCWq2LSpXQfVonhnYpyn302LoqQ5WEPzh3f6d5kz5SgBNAJrq23REaAUfBHCKQD8KYBeOEHqLSaJ6Y7bg3anQr7KAbsganBHE29yi7h1o8E1A5yRtA0nb9BFfCejtAtw29lnnH315VK6+6LWrImNgSK+4a509+RjYjsm2+7Mhmk/Up0pQCB1nKt9gSUQ7qna1VlR2B08AWpWsZYnMzKWdazgCtt95RS3rUv8FADsZ2LzWXMbdb0f/40ZVa9UK7yA7kFNUUAs+akj/SwX4nRX6F82rqVjFOGI8jTCCeJpR1JEp9b8O4HzwrYL0X6EIHlDFrRIGtzTXlLf31w+uL3iXbnqLpXkzmspH8tXOnzh8tnNMtOmI0PLbE3fWXogP5Grcv3MEEFFfZIvecVAsTtR6XPFCyXKqr03LWo6A7VPX7p8uojebOSzw3XzG/VZ//by5hd5JvliniuI0AO8FX1xG/9Wtisstdb7fXCPrGEf88MMcM42qVl2xVJ9Sv4CNt56zeEU9AG4T0bm+5ezZnHaPzmXcH/Zn8Wrj4sLMRRMAiBV+isNoB9h+Y+KKV6ILWbwiov6QS7t3A3p9sq6h2GPTF7C0vZs2MXetYvdzYW5epmx5Pu1elsu4R9qOM2bTWw1vB9DLkZR4FSK4OLT89vpCqa5RlfWQ2E0jFBt17aVDReRyAEcwjcTrBnCXqLT0WvYfBuWbTFXJFr1OQPYxMM91XRXO7i37SDeH1raZW+idFMB6HICboAlzjWc5NYuq5EWOACLql2vpSt099P3lCoxOULNLquHUfHVZG0fAtml4Tod5Xf5/AFQa1zjVzlzGHT8YZ6M1PKfDSuuDD1hhWKsipwMYwdGVbAIsDUJ8YUGNu4RpxAMrjjFQ36Zj6ttLC0XkIbB4lWSvCdAiKrMrPGe3XMY9pbnaWThot+GLqIp1q6HZjhjeHZzMIbbtQrV+igQVrwBAoV9j8YqI+tO8CfKfUPQbCWt2SsS6kr2/7bx1wSkwsXgFQEVuHqyD/ZvGyIZ82rmtuTo1S11nNxU5VVQXAXiNoyyZFDjEsnBvfcG7cdYKHctEoo93YEXYxgM+/S8DuBjAcCaSSC8C8geI3uS+7vx9qA8an93ufcAS3GnmDKY35qpTfJRwG9QV/I8L9PcJa/Y/x6WdwxtFQo4AIupPjapWZ9FfAuDwZO1C5PRc2rmFI+DdZQveTQA+ZmLbLOC4+Rn3niHdc7VqaoQTfEAtfByqp4NvNEyqLii+rynnZ3xRT4SnDkYQ0Ymq6J8GDX8OyL5MI3FeEZGboHrjurSzuEUkiMwie7E6nXv5zxs6sW+o8Jzdr54iXRyC77DIW60Vw7uDVoGOT1CzfUv0sPnp1L84AohoIMxq6z3AtqylAJzktFqfcSvdSU1jZANHwNvb9OKmFwBUGNi8l7vSzh5RW+s+s7f//jCUM0T0YwB25ihMGllpAefPzzh/ZBbRw0cIo7aAade9sgWvBap/YPEqUV4T1UUqcmqX54xpTjsNzRn3zihN6ADQeLz4gJp6MR/W7QancCi+sxEb/IsSVrwCBJezeEVEA2lhTdkTAK5K2CZxrN/lf5m9/85SYfAxmFm8AkT+EMW1bnPa/Wu+2pnblXZ2E8UxAK4A8DJHY1LohBB6e7bg3TZnmY5jHlFbllMkNDyibmmkd45AvgdDn3Gn/7EBwN9VZOH6kn1LyxQpxeGX3nh3oP7BzPkKt+Sq3dM5NLdu1godawf+cgDDErSIWV3huZN5Zx4RDbT6Nh2hlr8cwF4Jana3Bv7k/KSKpzkC3m7d5f0JCiPP6VSVj+SrnT/F4Xc9r6hl6xB8aNMB8KcBGMnRmYz9mih+tM53vh+XvZrpWMCKgLqi9z5RXA1gEtMwXo8Cf7RUrg1T9h1xfL5609lsL8HMc9lKlufsOX+KvMqhupVFtMFncLztJKny8eZq52b2PhENzprQrxXVGxPW7N/lMm4te/9/zWnVnUPXfx5AysDmrVPX2S2ua+ER3cGHFToDwIcBlHG0Gu8pVZyTr3bvZRRDvDZnBEM9KQU/APSz7AujhSJ4IFRtSal7bVO1xP4W5LqC9zsBPmFmd2l9LpPKcdi+mdEH+L/9DHlHLu1+mL1PRIMpW/BuA/DRhF1vT8ql3b+w99+svlBqUMivzexy/W1zJnVm3NvRsEJH+X5wmorWAjgJiTrHLnFUVK/xbPcrfCv10OEZWEMy9FXqi6U56vodgDaAxStTPaqKL0vo7NOcdo/OZ1KXm1C8AgBLxOA7UoRvInyLxsXqWIKfJ6zZ3Xbgf569T0SDPsf6zrkA1idrbYyfNTyiLnv/rbtlg9ckYhmxlmyaKK83VzsLcxn3FFuc8QC+CuAxjl4zR62KzHRCf3l9oVQHVe7hh6ITGMHgml3smWjBboLi/UzDxPWXrBLotTbC6+Zlypab2s6GFTrKC/wXYeYt7b5vOXvxm5X/qm/3vqyCHydqchR8rTntXsreJ6KhkC14XwfwvYRtDS/IpVM/Y+9vVLdK9xDP/zcA28Dm9ZbE2e3atKw1d8/XO8WGNV1VPwPIWI5oI/3NDv2z5tVUrGIUgzhVMILB0ahqPVP05irkJ+Ah7abpFuB2AE3NaecuiGhCFtd/BnCimRdGPbs5k/oVhzYwd6XuHvh+O4BRCWp2q7vWOahpmngcAUQ0FGpbNVXp+o8hWeejrnN9p7ppsjzPEQBkC6XzAbnc0Obdnsu4iXjzc6Oq9UzBP1JFZgI6nftA8/aBKvj2+irnx1F7o6ap+AjhIKhb3rv/00X/gU3PsPOiZYZQBEsEepaEzu7NGfeM5ox7Z1KKVwAg0JtMbZtCPs0hvlEQeD9EsopXqoqzWbwioqHUMkVKKjgHgCao2SM8x/sBe3/TOkvkDGMnWtHEvBylUSRsrnbvy2Wcs7oqnN10Y7/embDPtskqRHFpZdH/Z7ZYOphxDMYelAZMwyPqlkb5F4jiOzDzUasE0tUCuS6Q4DcL0uUrEj2+23UXT/znAJh4ZkUYqDN2YbU8m+Q+ri96R6hiSbLmCmnOZZw5vNYRURRki6UFUJmVpIWWKo5L+pu+sh26D0K/09D5l2983tTHqv50UZkLaBWvdkbwBPjpcHEuuTItvYxjYPAOrAEyu6N0iDfSf0wUl4LFq7jbANGFFnBcLu2Oa864Fye9eAUATdXysijuMvXa6Fheol/p3ahqqeJyJOuLjlch9sW85BFRVAS+ewGAlxPUZBHBz2tV7UR3fOifafD8+5ekF68AIFclq/Np97Jc2s5A8D5RXQSgm1e9WHMVuKgL/j/rCqUDGccAbdIYQT9v+harU1f0LrJCuR/AZCYSa8tUcHEQOGNz6dTs+Rn3niQ9Irhty0y9wdSmqSb7bYSdRe+zAA5NUptV9Ku5tLzEDzYRRcXCSfKKQL+esGYfPLzg1Se8641dg4jIDfxkvykQzaXdu5urU7Nc29lToGcJsJTBxHlBif0F8s/6gncp3646AB8ZRtB/5hZ6JwViLYRiGtOIrdcBuSG0wqYFVSlOHu9iRlFHptT/D4ByE6cfDfwJ+UkVTyetX6d36uiyXr8AYJcENfu+XNo5lkVqIoqaRlWrs+DfC8GRCWr2q0HgZBZOkleS1t+ziz0TLbU7DG1eT0mc3U1++2D/jYPeKbZaMxWYC+A9TCSmmwngYWg4O19d1sY0+gfvwOqnhUVdu3dBAOtRFq/ieW1R4B4VmdVV4eyZyzhnsXi1ba5Ny1oR/NnQ5gkcJ5F3YZX3BN9DsopXvqiey+IVEUVynSkSWnZ4FoAkvVxiZ/v/s3fn4XGVZRsYODsXAACAAElEQVTA7+csk6QLq4iUpZRmJmnLviibC5sKsioBBdvOTEtQlFVZRJGwqCAgArKFdmbaskcFAdkR/GRTAVlM28yklAItIDtNm2TO8nx/tChLl6RNMmfec/+u61usaTrvfd59znmPE7TE8Xrbah9latkEuJObV30zI1nTnku5Z7gjnC1EZTKAvzGVqqzznxexnkkXyydClTcPDUymtDamzNbRoe3nIdiLaVSdDwC5WYPgd4VxNS8wjjWT7vC/LaI3GVq8f+VTbqzeKDKls3frMLT+BcCJ0UB4YS7l8uwrIoq0TNG7CMCPY1TkQFR3yjUknovZdf43gAlmjrdyeC7l/IGtec1MmtOTcmw7q8AxADZgIlVW/wWPBQgm8yzltcM7sNZmgCn53w0d/3luXlXdYvVpqB7jdzuj8innWG5ereXssse+E8BSQ4u3Q7qjtzE2F1NVgtC6EjHavILqAq/bOY8tmYiirs5zzgH05RgV2Q5FLo/TXQvpOb3bwNDNKwCLF9fZd7Mlr7mZ42qLuZR7ht/tbKGqzQD+xVSqacqJPSy1n84U/e8wjbVay1N/ZefqSIh3pYpMZBpVo1eAOwC05lLug4xjYGVK5Zth6KHnIvhlLunG4gDddNE/SqA3xGoQFDkkl3TuYCsmoqqYg3b4h6noH2O2XDkqn3JuikNJjb7LTvX6fEOCa6cBNrmzvJMVWs2AfhfAMCZSJb2a6qxa3z3uqgnSxTT6mR0j6J8pHeXPh2LdCOhYplEVVbwTEl7Vm3ALN46Wd5kHJ9RrYGFX0hndJhKYfA2bF+kwr8ubA8gWMaq6t+VT7jfZgomommSK3p8AHByjIi+s85xG0xd6LarWgpL/MoBNDZ2TH5RPOXexBQ/SGrVdN1DHz6jIcYBuxUSqQklCPSrXmHiKUfQdHyHsK1VJF8snhiJ/4+ZVFQyRgsdU5IiupN2YTyYu5ebV4AoT9j0ATD2Uc9MRHf6XTb+G/hL/pzHbvOqC5ZzI1ktEVTd5950TACyJUZE37Un4PzG9kAs6/f1g6OaVAO92efb9bL2DZ/oEeSfX4F4yOmknBdgPwF0A+HKaaEuqJU9kO7yWFlXuy/S9P6HVmfqibhx6fkEFX2caEV+QQm60rOCK6fU1/2YcQytTKs+AyiQzS6cz8qlE2tRrN2W2jg4dfy6A2hgNfqflUu5FbLlEVI2yJe8MVfwqRkXusXyncfp4WWDsPKpYvgEQQ99AKLl8ypnClju00vN6khLYPwQwBcBwJhLpielfJHAm5hplEcNYNe70rX6C8NXA91/g5lWkW/yLqviRazub5VPOsdy8qgwNrVsMrmOHH9euI0wtXeh6FyJGm1cASsPFuZytloiq1eKy8xsAHTEqcm3oeMZu2B1d0nUAOdTctbnexFY79Apja0v5lHtib42zOYBTFTKfqUR1IYW91fL/NbnD24dhrBo3sFaiRdVKl7yzVXEPgI2YSBTbOf4PIoeOTtrJQoP7m9ax8j5TqZzEYvsBAG8bWrzhSxPBYSYWLF0q7wqVI+JUV0XlxCuS0stWS0TVqm2ClBU4Pl6llm9nO7w9TSyZC+9wmHsA95tbLHQeYautnBtHy7v5lHvxkqSdFJVvAniUqUTSZy3BfZmi99M4vX213yMBI/i0SXN0Q9vxZ0GxP9OInBDA3cvfDPcE44iWbMlvVdVjDC3eA/mU+1WjSqQq2U7/b6rYIzaDnuD2XNI9jK2ViEyQKXp3ADgoRkX+ez7p7AYRNew6PgzgKyZeMBW5spB0fsjWGrE6VyrvKCFOUpHvAHCYSOTcbXnOxOkT5B1G8XG8A+sTJneWd7Ls4J/cvIqcLkBagyAYl0+5B3HzKpqCUA1+jBD7ZDp1c5MKlC4F34nT5hWAHivwT2FLJSJTCIKTAPTEqMhfSBeDI00q0JTZOhrAl4y9YmbPDatWPpl4JteQmGSHfgrA5YjXiyGqwQGh6z2bLpV3ZRQfxw2sj8gWy81WKI8LdAzTiIw3RHGO5Tmj8ynn2JnjaouMJLrGpJyHAZh6+KCl6htzuGp6vtaKhr+MVQVV/HpaYx3PfyAiY+RStS8CuCROZRbRi5oXqTGP24WOP9HgNdmiLVPOY2yp0TWtsW5+PuWeWBZnlEJPAvAqU4lMb7e5qDySLpb51uyPLsgYAdD0itali+XrFXItgAQTiYSSiE7t8pwtcg1uC2+frA4tIqFA/mDsMKKYbExZPP9HEBkdn9qpr/g9zq/ZSonINF11zi+guiBGRd7MW+ybtKD7rrHzJsHNLSIhW2n03ZCUDwqpxGUjxKlX1WZAOplKJNQI5LeZUnlGer7WMg5uYGFSh246vNt/RCBHszpEYIkJPC8qk0cvdMbnkonpbROkzFSqi+GPEY7Lzi3vXO2FmNipnwVwWpzqpcA6edZ2wtvjicg4bZtLt1hWrPp0CM5snq2bVHsxsiVvNwANxl4mPj5Yda5ISm+hIXHd6KTdoCIHQ/AUU4nCIlkmiec/PmmebhH3KGK9gZUtebvZ8J8S4PNsFRUe4ASPqcjBhaSzfa7Bmdmyl/hMpTrNaHAeN/mbYLVkYrWXwQ6CXwJYJ0YLnb/kUs4f2DqJyFS5pHMrBH+JUZFHeE7QUvVzCq3+OcUqBt8Xp6fcf7J1VqcWkbCQdO7MJ91dRPFFAR5iKhW3gxX4T2aK5S/EOYTYbmBlS/7RqngIgs+xLVRwaBM8Fir2zSXdPQtJ507T3ioT04uqEGkzuIRHN7Vr1T5qnO0obyei6RjVSF/98CQ2TCIyX3g8AC8+5dUpk+b2blutn37ZXEKPMHg6eDPn9WbINbiP5lLuvqL4IoC7APC6VqpdAZsA8tdssZyOawax28BqUrWzRe8CVb0eQB2bQcU8qKqfzyXdPWc0uNzRN61zNfuW8Q1HJIKqfUupilwEwI7P+gZXFMbVvMBWSUSmyydrZgO4KkZFtm3burRaP/xINzgIwIamXhw/CPn4oGFyDe6j+ZR7UBCG2wvQBm5kVUqNQvKZon9ty8PqxK3wsdrAOmqBrj+i5N+rwOms95VaO+N2he6QT7n7FRoSvK3Y1AGuMfEUgJKxFVm1Km/5z5b8gwHsF6Oq+B9NOOeyRRJRXJTF+bkCr8VnZom9pxT9b3AuETlzZzbWPM8WaaaZjTXP51LuEaGluwC4A9zIqlQv0vzyKP/O5nm6bpxKHZsNrPSc7i1rev3HAOzLyl6B6QVwV2jpLrmke1ghlXiWkcTCraYWTIADp7TrBtX0mZufUldVY/UWPoGeXhgj77EpElFc3JCUDwT60ziVOYRe3PyUulU1JnfoZyDY39RrooKb2RrNN6M+8XQ+5R6iQbgd78iqWFv7uhf4j02ZrbF5s3gsNrAmd5Z3Est5AsA4VvOhbVMA/iiqO+RT7kEz6hNPM5IYXXyzbx2vCRPekdX0gb11vO/D4DcdrcCTuaQ7gy2RiOJm9LK+7+8xKnKjN9I7tpo+cFm87wBIGHtFQj4+GCeFcTUv5FLuEZboTiK4HdzIGmoTQsd/PF0sbx+HworpBcyWvK+qog1xeuNWNDwYWnoGN63iLVP0ngWwnaHFezKfcnerhg961AJdv6bXL8HgszY+OXW2VHeb3pD4B1shDZWjS7qOJmDXdUHU7V0PAMSrea97BLS2G36uURYzJRoqkzvLO1mh/AMx+bJagHfFc+qnT5B3qmJ+VPL+CcXOhl6Of+ZTLt/wHmPpOb3bWLZ1lgJNTGNIdVmQb09POX82vL83uPGUyllRuRaAw/o8ZJ5QwZmFpPsIo6Bsh/cjFVxsavlUw3GFhpq5kZ8oF73fAjgxLvVORK7LJZ1mtkBaGy0Pq/PS53o2g+NsKapjoLIlRDaD6oYQbAh87H/6+mKEAMDb//0fxdsQeRuqr4ro/FDkJfj+S1u+Xvtqy17i8yrQWs2DO/xpIjolPn0/fpNLuj+K+uecWuwdF8CabezcCHpCIZW4gi2QMp3e7gjxCwBfYRpDJoDo8flk4mpj+3pDV5WSLfpnq+Bs1uEhq0kvKOS8QtJpYxj030nai7px4PuvwtxN5PPzKfesKH/AyaWesZbas2HyowofH9TeVXEa8kl5ky2Q+qJF1Xrpxd6xEjrbIdRtINgGkG0BHV3BvssHZAGgz4niBYi8IJb/3OZja15sEQl51agvJnbqZ53Q7wCwXkyKXFY72LowtjbSL5FJd3i/EsEZhl4DD+JsyjGYPipb9PYFcIECOzGNIXP56KRzsolzBuM2sFoeVuflUV5ORSay3g6JOQI5K5e0/wgRPu9Mn5IpeXdDDT2oVHXB6JS7VZQHh0zR+xOAg2NT4VSPzzckfseWRyvTPE/XLau/G0LsLoI9oPg8gBFV8vG7BPi7Kh6DhcfLcJ64ISkf8KrSyseA8gmAXBajIt+WT7nfjOw6RdVaUPJeAmRzM8dg/Cnf4B7KlkcrmJ9JtjNoUtVzEa8zWSsZ+ozRC92ppt3RbdQG1vElrelS/0YA32SFHXRvKfT8LRe6V/IxB1qVdIf/bRG9ydihQbBXVB+ZzXZ6e2mIv8SourWPXuhszz6JPjk3WKL+F1XwdVXsJ8DWMOdcoADAvwE8gBD3dAXOo20TpMyrTh9qUrWHl/xnBNg2LmUOFfvOaHAfiuS4XPT2VeABY+dEkG8VUs4f2fJoZVpUrZeLwXcVeiEEn2Mig+5OdZ0jCmOkx5QCGbOBNfE5He7U+bcB2I/1dFAtFeCKXnF+yW99qS/S87VWPP81GPsIg+TzKScbyQlCyf9HnG7XjvJmIg3xInGujlLbOwQq+wPYG8DwmBS9C4qHRPRex3f/1DpeXmNtoGyHt6cK/g8xeHnTcs+OTjo7RfHu6EypPAMqkwzN/Z0R4oy6Iim9bHXUl7W7Pcz/oSh+CmAkExlUj0joHGzKy2SMGMiWv2HrbgC7sn4OmlBUb3AC93ROiKn/Ezb/OqhONXXBKKEzKmqDwvKXWEyPTSUTvSWfTHybrS2+Js3RDR0r+IaKNgH4OvgCl1AET4SqbXDdWwpj5HXWkjiPw+WboXJkbAqsks43ODOi9JGOLuk6CfUXwdgNdbk6n3KOY2uj/sjO1VFqBWcDmuW4PZjNE0+5obN/a4O8Vf1FqXLNs3UTz/Xvg2Ib1sxB82AQhj+a2VjzPKOgNZHu8L4oy779NXSirMfkGxLTovJxjmvXEUtdvyjAJjGpYkst3xk/fbwsYGuLWd8yX2vFDw4HNAPFl9H3twHGTQDgYYXk4dp/NOlRAuqbqSXdLFB/LuJzN+Iiv9tJzdpOlkRmoV4sf08hxr4ZTEV3KyQTT7K10ZqtFXobLbHOVaCJaQya2YE6X53ZIAuruRBVfQbE5FLPWM/xHufm1aBpF2C/fMrdj5tXtDYKKedRQOYZW0CRSN1d1u36Z8Ro8wpQnM/Nq/hNdLNF7wLx/FegOguKvcHNq1WxAewr0BvE81/PFP1rsx3l7RhLfExLyqsAfhWjIo9ya/1TIzZZmGpw3qVCvft3tjRa47VCQ83cXMo9QgRfAzCHiQyK8bYEf506t3tMNReiajewpszW0ZZaDwKyJeviAA+vwLsqOKPLc3bMpdwHmQitfaUSFdXrDS7hF9LF8vZR+CBTS7oZgJNjVLnmacK5lI3MfE2qdrrkN2U6vMdErDkKnA7gM0ym39YFtFlFns2WvEczJf/wJlVu/sVAl+dcJIJiXMqrgtMmzdMtovBZJs3t3dbwMyln8G3kNBBySff+0QudbQV6LIC3mMiA94xjA8v+a7bYs1W1lqAqN7CmzNbRoeM9ws2rAReK6izPchoLSfdCvsmIBrSzUX8GAGMnNwLJROFzBOpdCGBYbOoVcCIfhzLbce06IlssN4/s9GeL6q0Q7M5UBmgaq9gDqm3DS0EpXfJOb56n6zIVc7VNkLKq/ChGRa6zQ++8KHwQR+xjTe5K7NC/kS2MBkrLXuLnUolWy3MaAFyOZY/B08CtWjZXWA9X6yZW1Z2Bxc2rQfOIqJ6Ua0g8xyhosGSK3t8A7GnkUAC8G7rOqEpupqQ7yruIyN8RlzdNCe7JJ90D2LLMNKVdNwhd/xQBjlNgfSYyJN5R4MpyjXPpjaPlXcZh6Fhc8u6GYv+YFDeE6C75ZOKZSn2A5kU6zOvyF8LYtzHjkXzK3YstiwbL1GLvuADWpQC+xjQGkr4sCPfKpWpfrKZPXVV3YE2d2z0mdLz/4+bVgFooIkfmU+5e3Lyiwd9v0FnGDgHA+pYffKui+VpyAeLzmnQ/RHgqW5V5jmvXEemSd3ro+vMA/JSbV0NqAwHOqun1F2SL3gXp+boeIzFwvArDUwB4MSmuBZVLKvkBvMVBE8zdvAKgM9mqaDBNS9XMyafcr6vKdxR4jYkM2MphC4X10JTZOrq6OvUqMWmebuFb7kOAbMHKNjCLPwCXl8UZn0s6tzIOGgqO7d4CoNvYKZxqxQ5oTXf4Byw/yDomY65cMyNZ085WZY6Jz+nwdId3ZrfrLxDFBWYv+CJvpAKni+d3ZkveGc2LdBgjMUehoWauqFwXoyJ/JV309qvceKUmH97e7druH9mqaGj6LufmoNtJCnDh8rUsrX0HtWXoeP9XTQe7V8U39ZlO3RyB9zeIjGYlGxBPiOr3eccVVaQ9d5RvgcgRhhZP1Q4aCmNrS0P5j7aoWgtK/lMAdohJNXrPVSfZ2iA83NOMViPpzuBwCcOLOM5H1kJROTOXsmfxoGYzLH9EtwRgg5gU+bnRSWfHFpFwKP/R7NyeBrXsOTD07miF3lBIJb7LFkVD3oeVyjuEKlcD+ALTGIi2LPNDtb84s0EWRv2zRv4OrOYO/QxC/z5OateeAO8q9KTRSWdPbl5RxTodsUy+1VyswJ4y1P/oy8Xgu4jP5hVEcT43r8yQnVveOdvp/23Z4ewc5yNsUxWdkSn5f890ejxE3wDTJ8g7AH4VoyJvt6AUHDnki0LbPgYGP9pvifDxQapMH5ZM/CufdHYTlcng2woHYJ9Ax9ji3zdpjm4Y/c8a6YmtjlTb/wsUO7Nare2CT2c5cE/hoo8qreVhdRaM8l+B4HOGFvEN9wNn89adZUjOF2lq18QIN5gD6FbxqEHy4gixx1+RlF62puo1aY5uaNveJYBMQnzObTNFCEjB8uxTl2+CUJVaNn74/waQjEN5FTJ/pNjjhmr8WJ7vKwA+a2iki7qSzhZtInxDHFVUpqQbqXqXCuRoprHWnvS7nX1nbSdLovoBI3sHVlO7JkLL/z03r9Z+cIHIobmGxCRuXlEUtOwlPoCbDC7ixv7I4MCh+seGO/4P47N5BYjix9y8qm7pkt9k2/5sQCaDm1fVyAI0G7r+7GyHP4lxVK+2CVIWyE9iM35AxyxWr3mo/r2RieBQmLt5BQDXc/OKoiCflDcLqcR3ReUAqC5gImtlV2eYf8fxJa2J8CQkeppU7ZGuf70AX2UdWmMKSKuETmM+6fyJcVCkOh7L3LcRAoAO0YGtzfN0XRGcGaNe7fFcyr6dLag6ZefqqEzR+6Oo3mr4oi4uNlbRGZmi9+dJ85Qv2KlSuZTzBwX+Ly7lFchZR5d0nSEZstTow9uhQXg9WxBFqj9rcO5xR7rjlx/yzs3VNZ9v770E/s1NqnYk15HRC0xlRGdwjQJNrD1rrATBXvmUc2yuURYzDoqa6cnEvxR43uAifn0oXknrh/5pADaMSbUJRfVEHiBdnbLFclotfy6Aw5iGcQ6wA/8F3o1VvWzRkwCEMSnuRonQ/9Fg/yPpOd1bAtjH4ByfKYyreYGth6KmdZQszaXcM2DhSwBmM5E1o4pDR5SCK6P42SK3gZUp+efB8G8sBnM9C8W5XZ6zdT7p/pVxUJQJYPJdWFbg+unB/AeaZ+smqjgxNgMpZGauMfEUW051aZ6n66aL5esVkgcwkokYa53ld2O1TWnXDRhHdZmeTPwLovG5m0bwo/R8HdRzOMV2pqAKXpa15mOy8vB2irR8vfv4CHF2FMEvAfhMZI1a+rGZkvfzyC2yovRhMh3+ZAA/ZWVZI3Mk1N3yDe7ZbROkzDgo6mzHmWXygCKqUwbz1lvPCVoADI9JdekWy/45W011yXR6u5eD4F88VDVWDg9d79lMyfsyo6guQeieCWBJTIo73CoHZw3WL1829utkg/PzHce9ma2Gou6KpPTmku5PLdU9AMxlImtA0ZIp+d+N0keKzAZWtsPbE6LXspasQbWCtLojnJ15dwJVk2lbyRuieNDcEsrmw+f5+w3Gb540pycFaDY2lUVwQb5eXmGrqQ4tqla65J2NEH8T6BgmEjeyORQPZYreT6HKQ/qrxMwGWSiKi2MzeRY9Jj2vZ1Devji8MzgAkM0Nju+eaVvJG2w1VC2mNyT+oa6zw/KzsUIm0s9ZuOp1mU5v96h8oEhsYE2d2z1GBX8EUMM60p/RVxeIhX3yKefY1lGylIFQ9U0gxexb0EMMyuPQtm3/CoATk2qy0F/qXMLWUh2OLuk6C0r+70XRAoMfn6HVd1MAzk+X/DvT83U9xlEdFg9zLgQ0Ll8WuOJb5w/Kas/0w9tFZrG1ULUpjJGeXMo9IwzxJUA6mUi/1CLEHVM6e+qj8GEqPrk8aoGuH1jOPQA2Yt3ox+ChMl3U3SZX7z7MNKhaddXZtwN439TyCXDw1Bd144H8nelSeVfE6CBsUTlz1nayhK0l+tIdvY0J9f8OHtRO/+sDvyFe8M/0nN5tmEb0tW0u3VDrrPhUUGlKd5R3GchfmZ2rowAcYHCbfheOfSdbC1WrGY3uY2Wxd8Kyszmp7zYMQ/tPUfhSqqIbWM1PqVvb67cBaGCd6LP3ATmq0OBM5RsGyYTJskJuMriIbugP7Ju5JJRfLptDxsK/tkjZfE13FUgX/W+KWE8BaGQa9HFaL7b1eKbkH8Isom90yp4FQVyOpBARuWggf2EofhpG3yEt1xfGSA9bClWzG5LyQT7lZBXyLQDvMJE+Gy+ef1tTuyYq+SEquoHlrRNcpma/Ynag/S2wnW3zKecmRkHGLG2scJrZ02NMHahzYDJF/0AI9opN3VCc2CLCswoiLl0snyjQNsTnpQLUfyOgelu2w2thFNHWIhJCcCIAjUmRv5zu9L4+QIOWiEjG5LBChDm2EjJFIeX80fKdHUXwGNPos6+MSAQVPdqjYhtY2ZJ/NKDfZx3ok0CAC90PnH1mjpWXGQeZZEZ94mkAz5haPlWkppT8L671okLVAvS8GFWN3xca3L+xhURXk6qdKflXCOS34HlXtHqigrMzRf/alofVYRzRla93HwdwW2wKHOLCZWPsWq9t9gG03tSYFPhHIZV4li2ETDJ9vCxYXO98WQVnAPCYSJ8WNz/MdPgVe9NqRSac6WJ5e1W9jle/TxVkgSi+kku5Z7TuLGxUZGY1F51udjNe+wNdXy55kwBsH5MqUbas4CdsGdHVvEiHjSj5t0P1h0yD+tkjNi8Y5f++6RWtYxbRJQhOBdAbj7Ji2wWdwVEDMJeZanbT1WlsGWSiNpGgkHQvVMU+MXqRxVp2nHpVpc63HPINrKMW6PoC6/cAOHFZ3TgB/Nny3R1zDe6jTINMlrDcGwAY+yZNFTn8qAW6/pr+/fR8rVXgnBj1fZdNr6/lG2IiauJzOtxb4t8J4ECmQWu4Y3DI8G7/3qNLug7DiKZcqvZFCH4Xn0l3eN7xJV3jt6FPmqMbQuVQgxPq8iz3FrYMMlmhwf1bELg7QHAP01itYWLbf6zEoe5DuoHVomolev1ZgI7lNV+lQBTnbJl0Dp4+QXiwHBmvday8j2Vn6JiqLtHrrfFh7lbZ/wEgW8SkOryZsJ1fsFVEU3q+rufU+Q9CsTfToLUhwJcS8B+aNEc3ZBrRpI5zPoC3YlIjt1ys3vfW9G87lp8GUGNsXVC55YakfMBWQaabOU7eztc731j+SGHARFbZM9SL588cqLN++7wuGsp/7KVO/ywBvsGLvUpvieCAXIPbwsOLKVaLGRWjb00XWD9ckw4+PV/XU8FPYlQRzl62oUlRM7FTPyue/wiAXZkGDczcFzvbtv/X5tm6CcOInsIYeQ+qsbn7VyA/a56n6/a/Hquo4Fijs5GQR79QjBYlooWke6EK9oXidQaySgdliv4ZQ/kPDtkG1uQObx9R/JzXeFVtBY8F6myfS7r3Mw2Km+WPys42eKVWv+yA134q+6cDiMsdCnNGv+pykhxBmZJu5IT+wwC2Yxo0wCZ4jv9ApqQbMYroGb3IvQZAe0yK+xkv8H/c37+ULgb7A0ganMu/86nE39kaKG4KSfcR23J2AfAE01gFwXmZkvflofrnhmQDa0q7bmAJZoBvKVrFdZcrnPedvWY2yEKmQbFtB4qc4Q39B/358excHSWCE+Jy/dXCKS17ic+WEC3N83RdUf8eAOOZBg2SCVD/gSntugGjiJaWvcS3IKfHqMg/mlrSzfo1tIv+wOxI+OItiq9pSXnV/cD5sqhcxTRWyobqzKE6D2tINpTChHcVgE15bVeoDNVjcinnBL5lkOLOD50CDH7rkSoOSs/p3rLPfacE5wIYFouLL7inUO/ey1YQLROf0+Fe4N+lwE5MgwbZdqHr/zk7V0cyimiZnnL+DOC+mBS3ztfgp3394SmzdTSArxmcR6+r7o1sBRRnrTuLl2twfqCqzQDKTGSFE/ktxPOHZLN70Dew0qVyFipH8qKu0Fsq+Fq+IcHX0hJh2cGJAtxhcBFty3GO6csPZuf2NIjo5Jhc+sCS8DS2gGhpekXrnDr/LgB7Mg0aIruq7d+enq+1jCJqa5PwFACxuENWoMdMLfaO69Pg5fg/AGCbmoVCf9/aIG+xARABhYbEdWGIvQG8wTRW6PBMyf/uYP8jg7qBlS32bCUqv+W1XKHnLN/ZuZB0H2EURP8TAkbfqq6KKU3tmljtD9r2BQCcOFxzhVw3vb7m36z90dGiao3o9q8H8BWmQUPcIewtnj+rRZXHTkRIPlkzG5BcTIpr+7DOW90PpedrrQBZk4OwLJnO2k/0PzMa3cdscXaG4CmmscKFztVTOnvqB7VfGrTJ78PqKOwbAfBW8E9f2FvdEc7u08fLAoZB9HFbJp2HFDLf4CJuPNwNDl/VD2RL3m6qODQml7wLrn0Oa360LCj6FwP4JpOgCjl8Qcn/FWOIFte3WwAsiUNZBfjmlI7y51f5M+XgSBj9khXpzI11HmHNJ/q4aUl51V/qfEWBPzCNTxmhaheaVAftztRB28B6aTP/pwC+wGv4cQpclE+5324dJUuZBtGntYiEFjRv9MRYV33gqwLnx+V6i+KSwhjhK4ojJFssN0NwMpOgCjst21H+AWOIjtbx8hqA38ZleApFzl3NAGZ0/VTRaRBR1nyiT5u1nSzZMukcIYLfMI1P9B2KPYYX/UF7+YcMxi9Nd/Q2iljPAqjhJfyvQFRPzDUkrmQURKs2qUM3tcVfAIPPlQgt3XlGfeLpT/ef3hdF8H8xudRvlsWpvyEpH7DWR0O65B8kqreZ3PaoqviqckihwbmbUURDdq6OVMvvBPDZWBRY8JV80v3rJ/94Skf586HI301ue67vbLF805KIVjV36igfIyJXISZHf/RRr41wh2mpmjkD/YsH/A6sFlXLsqxp4ObVRy1RkcO4eUXUNzMbZCGAe0wuo63WsSuZLMfm7iuFnsfNq+iYNKcnJaqzwM0rig5HRG/u64HaNPhyjbIYohfEpsC64jE5FBxneMnv5OYVUd8UGhLXQXAggMVM479qfFjXQHXAb5ga8A2sBUXvOFXswWv2X2+o6l6FpHMnoyDqBxGj386pqkdPadcNPvpn2Q5/fwG+FI81gcwfKW4rK3o0HNeuI2zbvg3AukyDImZkAOuP2bnKM1UjoqvsXgnIizEp7p7ZorfvR/9g0hzdEDD7Deuich1rOlHf5ZPufZbqvgD+wzSW9yPAlzIlr3mgf++AbmBl5+ooiJzPy/XfFeoCtYMvFhoS/2QYRP0z+lX7zwAWGVzEYZrwJn30D0LRlhgNaj+9Iim9rOmRGKukx/VzAMYzDIqoRlgeN7wjom2ClFUQm/FKgV9+9C4C2/anAKg1uMivLk7Z97OmE/XP9IbEP+zQ3xWQeUzjvzP+X0/q0E0H8jcO6AaWin8V+O3th+bYlrtnYWxtiVEQ9V/LXuJDMMPsfQPrBx++Kj7b4R8mwOdjcnmfG520b2Etj4Zsyf+xAk1MgqK9iSDfzpbKJzGJaNiy3r4BwL9iUtxdMqXgG8Cyo1IU8j2jl5uK6W0iAWs5Uf9Na6yb7/r2FyF4gWkAANaxxb98IH/hgG1gZUv+ERAcwmsEAPinq86XpiXlVUZBtObswL8OQGjwkqz+5U5/X6iKip4dn4UoTm0RCVnDKy87t7yzAr9gElQVfYfKr6d0lD/PJCqvRSQUlZ/GpsCiv2xRtRaUggMEOsbgkoYSOHnWcKI1t+z8OGcfAZ5mGgCAb2Y7/MMGrDseiF/S9IrWjej25gKyBa8P/loW52AeTEw0MDIl7yEo9jZ3RYY/KeRmEb0pJpf0kXzK3Ys1u/ImPqfD3WH+M6pIMQ2qop2EzjrP3uGqCdLFLCovW/QeVGCfWNQ8yOEqOgWK/Y0to+LeXIO7P2s20do7rl1HdLv+bQD2ZRr6ijvCbWwdJUvX9jcNyB1Yw3v807h5BUBwj7rO17l5RTSQ/Z3Zh7lDcKAIzovL1Qwt/TErdTQ4dcHl3LyiKuxG6rvd4GLmEA2h6k8AaCxqHsJfQfE1s+ckhs+5iIbQVROkq6vOORjAA0xDNve6/JMH4jet9QbWpA7dVBSnxn46BdyvjvPNwhjpYQUlGjhdnv0HAG8aXEQb0PqY9JQ3z6hP8HbqCFh2K7dmmQRVaV9ybLrk89y2CCg0JP4J1baYLMCSGIQ3uEfIG84H9h2s1UQDp21z6e6qcw4B8CDTwBnZuTpqbX/JWnfCNrwLAAyP9TQKuH9JnXMoN6+IBqHjnyBlBW5gElXPs6zw54yh8po79DMqei2ToKreSlC9KlPSjZhEBK6FhD8BUGYSVW9G687iMQaiAV7LLNvEOhjcxBqhVnD+2v6StdrAypTKO0LkqJhfiAeW1DmHtm0u3WyeRINDJeQt7dW/wrl2en1tJ4OoPE+8ywFw4U/V7jNQ7yLGUHm5VO2LgExnEtU91QqCgNeQaJB8uIklwEMx72ompzvKu6zNb1jzDSxVEcjlMPtW2lWvx4CHuuqcQ7h5RTS4ZiRr2gH8lUlUrS7bts9nDJWX7fD3B+Q7TIIMmYlNzpa8rzKHyvMtuwXAYiZRtR6cOa62yBiIBk/b5tLtjHAOjvmaxhKRS6C6xi8TXOPNp0xn8C1V7BHX5BX4R63HO6+IhmyZInIVU6jS/lJw8bSt5A0mUVkTn9PhoeBKJkFG9S+hth7XriOYRGXNqpf/QHEpk6jSdqScYxENhdZRsrQszsEAnolxDF9Ml4LD1vQvr9EGVouqpapnxTj0UmA5B/EVzkRDZ4tX7T8CWMgkqs6bVuD8hjFUnl3nny/QMUyCjCIyutv1z2IQlVfnOxcB4JcVVUdf2XKRfRdzIBoaNyTlA1edrwGYG9uhG3pui+oa7UWt0V9aUAyaBNg2pnm/avnOfrPq5T9sfkRDp2Uv8UXBs7CqbYBSPSfXKHyspMLSHb2NAvyASZChTpo0pyfFGCpr2Re7+ksmUV1U5ZqWvcRnEkRDp7VB3rLF2Q+qC2IawYSX1/AurH5vYLWoWhCN65uk3gyCYJ/p42UBmx1RJWZZTisAviGnakins9htZQ4RuBKW9RsALpMgQyVs2+aB7hHQ5bnXAPIik6gaZcd1eHg7UQVMS8qrsPQAAG/Hclknevaa3IXV77+woBQcCWB8DDPuEcEhPOCQqHJyjbIIwJ+YRLWMTPgZX8ldeekO/wAo9mcSZLiDMyXva4yhstomSFkBPtJZNcO0tvGMSqLKySdrZoviUAC9MeyAtlnQGXyzv3+tXxtYTao2EMuzr1REpuaS7hNsZkSVbow8hLoqCJ7Kp+xbGURlNT+lrohewiQoJpPhi1seVodBVFYhad8kwNNMogqGaouHtxNVWq7BfRQqkwFo/MZtbenvXVj9+uHhy+6+Ghe/dRjOziWdG9i8iKIwMXYfgeAFJhHxflPxE4gok6gsfx0vA6CRSVBMbP3ypt53GUOlBwBRCM5kEJH3XL7efZwxEFVevsG5RYHzY1j0CS91Bt/qz1/o1waWQE+L4SrsllzSOZ/Niig6FHoNU4i0+3Ip90HGUFlN7ZpQ4CdMgmI1Pihamto1wSQqK5d07wfAcSDajeV3DIEoOgpJ52yoXh+3covqGf35+T5vYKVL3lcAbBezPP85Au5k3kVAFC3Dyu5MAB8wiWhOiSHKb94jYITjNQOyJZOgeM2EZfRI10sziEgsSn4MIGQSkfSe3+PexBiIIjV+qSbcY2L4CPaOk+d6e/T1h/u8gSUhTopZkO/YoX/kFUnpZWsiiparJkiXqFzPJKJHoTfmk4lnmERlpedrLUTOYBIUz34IPzu+pDVMorJyDYnnBHprVdYg89tIYdZ2soS1lChaCmOkx7edbwJ4K07lti2c2Nef7dMGVnpO95YQHBijDEMIjprWWDefzYgomgIr4MGj0VO2EP6cMUSA5x0LYFMGQfEkmy+GN4U5RGCslvBnAKrsbbRi+mXRMAiuZu0kiqaZY+VlAb4DIIhLmRX45tS53WP68rN92sASyzkBgB2bABVn5ZPufWw+RNE1I1nTDuARJhGhvlPkulyq9kUmUVnL3hhsncgkKN4dkvXjZW2BKjtW184DJMckIrVQfGDmuNoikyCKrlzKfVAF58WoyHZgOd/ryw+udgPruHYdAUEmRuHdXUg5v2KzIaqCSZjw9c8R0h2GNvvOCBheDJoEOoZJUJwJdMyIzuAwJhGBVYnY5wPoYRIRaRucOxFVhS3rnfMUuD9GRZ7avEiHre6HVruBtTThTQKwXkxCe8O3nAwPbSeqko79Vfs2AAuZRBQmxLh6ZoPwWkTiWuhJTIEIgMbw7dkRNC0prwJoZRKRaBQvd9XbdzEHouhrEQkTvpNGfM7D2sDr8iau7odWu4ElKnE5Q0BV5JhZ9fIfNheiKunY9xJfBdcxiYpbYtnOrxlD5WVK3pcBfIFJEAEAdsl2eHsyhghMsl3nVwCWMolKXwi5pk0kYBBE1aF1vLwGkamx6aIg2dX9jLXqiXDveAA7xqM/l6sKSedONhOi6pLwnFZU3QGxZhHBZdO2kjeYRATGMsXxTIHoox0UTmAIlVcYI68D+B2TqKiy7To8j4yoyuSTzp9EJBZf2Avw+XRHb+OqfmbVd2CpNTkm9WLuklr7VDYPourTOl5eg+ptTKJi3peycwljqLypL+rGAhzMJIg+MpUFDpnYqZ9lEpUXBM6vAXzAJCrVGPRWftlEVJ28pfbJAEpxKKtlWat8jHClG1gtqhaAo2KQUSiKY9o2l242DaJq7el4IGnF5sOCS6dPkHeYRAQGs8DPAHCZBNHHJJzQn8QYKm/mOHlbgcuYRGUI50pEVWvWdrIEgmMAGH9Wt6p+d/le1IqXfSv7L17u9PcFsJn5iy+5OtfgPspmQVS98kn3rxC8wCSG3NsenEsZQyRGe1FFlkEQrWDhLjgGqsIkKi9hO5cA4JceQ+/ZXNJ9gjEQVfd6R0SmxWDU3uLlef6XV/bfrnQDS0OdGIN6sAiO/TM2ByIjVvBXM4MhTlxw0Q1J4eMgETC56O8NIMkkiFbQVylS6aLPw9wjoHWsvA/gN0xiiJeDojx/jMgAjmWfihi8gV1DWele1Ao3sCY+p8Mhcpj5nbl8vzBG3mNTIKp+dWV3FoD3mcSQeXNY2bmSMUSDZSkfkSJa9axvMjOIBr/b+S0AvvV76LznLXVvZgxE1a91rLwvkBPNL6ke3vSK1q1wzruiP3Rrg68CGG54Knfnks4dbAZEZrhqgnRBZBaTGKJhBfqLqyZIF5OovONLWgOVQ5gE0cpZot9satcEk6i8WdvJEgAXMYmhIYLc8syJyAC5lPMHAPcZXsyRI7qDfVY4nq9wYSI40PBA/FDC01j9icxia3AVYnC4YQQsWlLntjKGaOhC8HUA6zIJopVTYP3hTrAvk4jI9XCd3yEGj8FEIWrfD65lDESGkfAUAL7hpVzhntSnNrBaVC2oHmD09YZcPSNZ086aT2SWaamaOVA8wiQGuw/V8/jm1igtT8IjGAJRH/ouYVuJisIY6YHqBUxikIcH4IGZ42qLTILILPlkzWxArjO8BztoRS9g+dQG1ktFbycIPmfuwgvv+oF9Dqs9kamTNbmcKQxmwLpgsefmGEQ0pOdrLSAHMgmiPs0CD1vWZigKuny3VSHzmcRgjtlyGUMgMpOr9s8BvGdwEUdlOr0dPvmHn36EUOQgs+cu+PXMcfI2qzyRmbZM2XcAMo9JDFIXKmhpmyBlJhENthfsA2AdJkHUJ+tYvv8lxhANbROkDA1/xSQGbbwubpmy72USRGZqbZC3AFxichkVn96b+tQGlgAmb2C9jYBvzSIyWYtICIS8C2twlLZY6F7PGKIjEOzPFIj6LlS2mShZknJzIuAjboOy8tNLl82JiMhUdZ7zWwBvmVo+WcE5WB/bwJrUoZsC2M7YflxwUa5RFrOqE5lNQjcP4H0mMeDJnt2yl/jMIUJXRPF1pkDUr8kwN7AipE0kCCHnM4kB944zwp3JGIjMdtUE6VLFpcYWULFT82zd5KN/9LENLMcKvrJsbDfSW1bgXMVqTmS+XKMshmAakxhQ7aOT9i2MITomzelJATqWSRD1S0O22LMVY4iOJfX2jQDmMIkBJLi2dZQsZRBE5hvmO5cDeNPU3qxsB1/+6B98/BHCELsbfG0v491XRPFhec4VMP/1skM3eqicxUcRosW2Ld59RbQGVKyvMYXoaBMJRKSFSQwYzwa/tCeKi6smSJcojG3zYmGPj63xPjagW/pFQ8vdazvOdazeRPExfbwsEOA2JjEgnsml7NsZQ+SG9H2YAdEaUNmXIURLrt5uA/AskxiA6g29dVpSXmUSRPHh2c5VAHrM7NR0xRtY6fm6HhQTDJ3k3zhtK3mDVZsobuv7QX4mXGMyGVY5CyLKChWtiwJgNwZBtEb2YARRG69FwbuwBoSt4ItsiGJmVr38R1TbDC3ets3zdN0P/8P/7sAqB7tjBW8lNEFohXzzIFEM5ZLuEwCeHLwJdwxCVDxeaHDuZm2KlnSx3ABgIyZBtEY2ntLZU88YoiWfdP4E4O9MYq38bXpD4h+MgSh+1MJvDS2aXQ78z3/4H/67YSWipp5/9eSM+sTTrNJEce3N5bcMYW3yw1kMIXosS3gHCdFaCAOHbSiKBGczhLWIT+VSpkAUT/lk4hkA/zRy3qv/u3P6o3dc7WloT85XyBLF2OhF9h8AfZlJrJG/5RvdvzCG6FG1dmcKRGsxPbT4GGE0F2DufQD+yiTWaGR4aXHKvoM5EMW4F4DOMnPQ/t9e1Uc3sLYzsKjlwHdvZVUmiq+WvcQXyO+YRP+FIX7CFCI7RfkCMyBaq0n+rkwhsgsV3oW1JrEJLmsTCZgEUYzn7oF7I4CyeWM2tv/w/7cAYFKHbgpgPQOv4V0zx8nbrMpEMe/MXec6AF1Mol8emNHoPsYYouf4ktYAaGASRGs1G25satcEg4iefNL9K4BHmES/LHYsN88YiOJt+d7HvQYWbcOpL+rGwPINLEv88SZeQBG5hdWYiApj5D2IFJhE31nA+UwhmpbCGw/AYRJEa8Wts8uNjCGiQpzHEPqz5sF1rWPlfSZBRAoz90CCsj9h+RoFsEQnGFhGL3Ts+1mFiWhZP+dfBiBkEn3y1+kp9/8YQ0TXdaG1LVMgWnuObW/DFKIp3+j+RQS8C7iP67rQ969gDEQEAAnb/jMAz7iCiY4Hlm9gqVrjTFyAFcbIe6zCRAQA0+trOwHcxST6IMS5DCHCLOWim2ggKNtSpIci4Z3AfXRbYVzdS4yBiABg+d2Y5n0BINb/NrAANe4RQoVyoUpEH+8XBHy99Oo9yTcPRn6A25ohEA1EUwI3sCKsUO/eq8A/mMRqWJzbENEnxjfFnQaW6qMbWDBvA0v0QVZdIvrYZDjpPgLBU0xiFX2nhXOYQuRtxQiI2JZiQYR3Ya0yHzyVr3cfZxBE9DFh+ICBpVp2BtaUdt0AwAaGFe6dGfWJ2ay5RPSpuV4oPCdi5Z4pjHXuYwzR1aJqAdiCSRANiC2hKowhugpJ505+8bRyGsolTIGIPjW4NSbaAbxnWLE+k56v61moKY8y8Jo9ChFl1SWiT3IW2zcBWMgkVjARFmlh3xltr3ZiFIAaJkE0IGrTL2FjxhDxsUnlV0xhhRYmFtt/YAxE9EktIiEETxi3jvPKm1iqlokbWHxrCRGtUOvO4gG4hkl8yrOFeptnB0ZcGPpbMgWigWP5/himEG2FpH2bAs8ziU+5fPmchojo09S8PRFPrVEWQvmccRN8xdOssUS00gWL51wFYCmT+OgYJ+fx7qsquE6WbMkUiAZyzijcwIo6ERWVXzKIj1kaBM50xkBEK+87zXv82rJkE0uhmxp3rRJOO2ssEa3M9AnyjojcwCT+a/aWSft2xlAFVEcxBKIBnAyrbsIUom90ym4D8O8+dpTmDwUi+Znj5G3WDCJaGRsG7omojrJExKiBW4B3C2PkdVZZIlqlwL8kFrPcvs2Ez20RCRlEVdiQERANYPdnsU1Vg2XnuciFfV4NGF5tEQa/Y60golWZlpRXYdhB7gpsYikM++ZJwLcPEtFq5RprOwDczyRQ6krZv2cMVTJwq3CxTTSgjYptqlp01ds3iaDIJHBXoaFmLmMgoj6YY1JhRHQTS4HPGjUPCXU+6ykR9a0XxKVcu8l5bSIBK0O1VFn9DFMgGtBekG2qSrSJBKp6QezHAYtzFyLq8xhn1t6IysaWCIYZ1amLLGRFJaK+yCfd+wA8E+Np8LwtX7VvYk2opkvGx52IBhjbVBVxP3CvV0icv6z+Z67efZg1gYj6OHFcZFJpFBhmQVFnUqFC6GusqETUj4794riWXCX8Zcte4rMOVJX1GAHRgE6G12cK1aN1Z/EE4YXxra9yAWsBEfW5z1CYtjdSawFSY9RSVC0e4E5EfTZ6od0GyIsxHNEWJN53Z7EGVJ0aRkA0gPNGIMEUqkuX5+YBfSWGRS/xjcFE1K8xTsSoDSwB6ixAjboDC5a+x6pKRH3Vspf4KuElMVy1/ap1Z/FYA6qMKhfbRAPZpAz7IjcO2iZIGYpfx7D//zXfGExE/es28L5hJaq1ANQadp16WFWJqF8cNwdFnO7efHWEuAVe+CoctkW4gUU0gATKDaxq7AsT7jQAcTr39g1NuNfzyhNRf1i2dhs2atdZgFlnYFmhaReJiAZbYYz0QHBlbCb+0F9fkZReXvlqXGzzcSeiAcY2VbXjtsbp7unfFMYIv6Qnon4J1bi9kVoLhp2noQAXZUTUb701zpUA4nCgefeSOncarzgX20QEgOfKVS13uHstYvDkhSh8dZ1WXnEi6i8rhGkbWHUWAKOepRYLFqsqEfVXbY+3BRRODIqaWHdJz+d4xasWzz8hGlgBI6hOvUt6N4GYv6mvgGMH5c14xYmo3/2HBdu0MduCYd9cKKSWVZWI+k1wBiQWJbUDyz2DF7xqlRkBEdsUAZY6Z0Jj8MW1AKHKqbziRNRfYSB1hhWpxwLMuq1MA9SxqhJRf0yd2z1GIYfHp8SamTJbR/PKc7FNRMqjJ6rQpHm6BaDfjU81le9w3Cai/rIt4/ZGui1AjboDy7KEG1hE1C+huD8GYvH44IfcwA34bW41rmEg3MAiGtiZI9tUNS7KguBMxOtMQDdw/JN45Ymof2scw/ZGVHssEbPeaBEqPsOqSkR9NbFTP6uimbiVW1SnTurQTVkDquy6QbnYJhrY2TDvwKoyU0u6GaDp+PX/OKa5Q7nOIaI+sxB+1qyOULotVdNOptdRrKpE1FdO6J8AxPLR4xob/o9YA6rOUkZANKCbAt1MoboECE5HPN8eOdyz/ONYA4ior1RlE8OK1G3cIe4ixl0kIhokE5/T4QC+F+OV2/ebZyv7zOryNiMgGsDJPfAWU6ge6fn6OahOiXGFPWH53IWIaPVTffM2sHosBd43qUQh78Aioj5yh3nHANgwFku0FastO/7JrAlVNRPhBhbRwPaPbFNVxPL9U4FYv7BpQ3uYN5k1gYj6NMKJcV9Uf2AJ9DWj5vaCFKsqEa1Ok6qtah0fj9LKqv6b4zIl3Yg1okomIrB4twjRwPaPbFNVorlDP6OK5tjXWJWTWlQt1ggi6oNGw3rARZaqGLWBBUVDy8PqsK4S0aqMLAWHAroVk8BwqH8iY6iSYTvk3SJEA9uo+FhutfDEPxXACCaB5IJScABjIKJVaX5KXQD1Rg3Zoq9ZImbdgQUg8fImvWNZZYlo1T2g8tG5/zn+qAW6PmOIPhXl3SJEAzkUcFO4Kkxp1w0AfJ9JcA5DRH3Tu245BcA1ah4c6muWivWacVfLcrZmlSWilZncWd5JFXswif9aJ1H2T2AMVTC8qfUqUyAayEZlvcIQoi90/ZMBjGQSH67isHe6WN6eQRDRSoe30DZuT0TEes3SQBeZ16frrqyyRLTyDh0/YgqfGBAUJ6fn63pMIuLXyQpfYgpEAyf0g/lMIdqa5+m6AH7IJD41m+Hj/0S0qsn9bsaN2RIutGwreM3Ay7UnaywRrUh2ro4C5HAm8SnrouwfxxiizbbcF5kC0QBuAUjiJaYQbeXQPwnAekziE2tT6HfS8/VzTIKIVtJJGPe0ie25r1mL62peAxAaVrYdm17ROtZaIvqkUPzjYdjz4AM2zglOyc5VPqIRYa1j5X0A7zEJogHxVq5RFjOG6Dq6pOuIgo+4r1iNlH2eC0ZEnzLxOR0OxXamLeOGuXjdattcuhWywLDCJUb2+nyMkIg+pnmRDhPBMUxipTaE5X+PMUTeS4yAaAAI21LUuaH/QwAbMImV1uHv80t7Ivokq9bfFcZ9YS/zr0hKr7XsP+hs0y6ahuDrZYnoY7wl3mQAGzKJVfSdwI+aF+kwJhHl8Vs7GALRQHR4WmQI0TXxOR0ugpOYxCptNLLHO4oxENHHpoqCAw0ctNsBYPkGFmYbeN0OYtUloo8sVAQqxzOI1drYX+I1M4Yo12V5gSEQDURTkueZQnQ5df73AWzEJFY7vTkZqsIkiOhDAnzDvL5u2Z6Vtex/qYkbWA2T5vSkWH2JCACmlIIDAIxjEn2aDJ+anq+1TCKikxLhBhbRgAjZlqKq6RWtg/KNwX00IV3y92UMRAQAU4u94wAkjZv/WvK/O7BEjbwDC45l8y4sIgIAKPRkptBno+B7WcYQ0TW37/GuEaKBmSeyLUXU8G6vGQK+Ya+vCzsB5zhEBADwxTrY0Bnw/+7AqvHd2QDUuAWr4GhWYSJKz+ndRoG9mUQ/JsOKM5raNcEkoqfQWLsAfBMh0dp6b1o9FjKGCI7Z87VWIKfGoaw6cL/o6+mO3kbWHiISGLkHEvpL3Q5g+QbWVROkC6ovG1jQHdJzerdhNSaKeUdu2ycv68+pH6ltPjzhTWUOUbw0ogrwzhGitfMsRJQxRJDnHQtg05gsNAduZBD7JFYeonibUirvAIWB+x8yf9Z2sgT43yHuAPB3I6+ibU1kVSaKr4md+llAv8Mk1oDKz/hGwqheGzzOEIjWymOMIHqaXtE6gZzGJNZoYJjU3KGfYQ5E8RWGYuTehyJ88sP//38bWGLsQP7d5qfUZXUmiic38I8DwAPJ14AAm5QX+99jEhG8NiJcfBOtTRtStqEoGt7jnwBgFJNYI3Vl+HyLMFFMNbVrAoKjDF2U/PeL249uYD1q7AJsZPAtVmmi+Dm+pDUKHMsk1qIPFfwkO1dHMolo6a2xHwMQMgmiNRL21NpPMoZoOa5dRwjfPLi2Y/YPeH4lUTwNTwRHAtjYyEE70P/uVf13A6ur3n0OwGIzO3M9kVWaKH4WwzuabzFaa59R8X/IGKLlxtHyLoAOJkHUfwr8e3kbogjpTvinANiISayVUSMSwRGMgSh+RPV4Q4v2QXdDov3D//DfDaw2kQCAqd9G7Zoplr/Aak0Ut45cTmAKAxEkTjtqga7PICJ2WUQeZQpEa9Kl8fHBqEnP1/VEcRKTGACqJzMEonjJdnh7AtjFzPUcHl++VwXg44e4Q809BwsCDopEserIi96+ALZjEgNivdoen3eyRm2NAtzPFIjWaFJ4H0OIFsv3T1WAX5QMjB2nFL0vMQaiGM0JBebO0+XjLy762AaWpeZuYCmkKd3R28jqTRQPITetB3pgPHnSHN2QSURHGfb9ADwmQdS/piOB/RfGEB2Zkm6kCt4xPcBjNlMgiofJpd4JAL5pbH8WfnyP6mMbWIvrnMcALDW07LaInMUqTmS+SXN6UgLszyQG1DqW5f+YMUTHDUn5AOY++k80OASP5hplMYOIEv90ACOYwwAu+BQHTy71jGUSROazQvk5PrGvY5AlWuOs/A6sts2lG8BDBs9avj2ls3drVnMiwzty2znZ4I68cj2o4PipL+rGTCJSi5R7mQJRP/oxtplIaZ6tm0DxfSYx8FMhS23e1UZkuEypdzxEDjd47fFAYYz0fKxz+9QPQe8yuTMPVX7Gqk5krqMW6PoCncgkBsVw3/fPYAyRWo3fzRCI+tFkrPAephAdnhucCWAYkxictW16vq7HGIhMngZaLTD6S/tP7019urChexcANTcDOWLyXG8PVnciM9WW/WMBDGcSgzRQAt+bWtLNmEQ0FFKJZwGUmARRn3RMr6/5N2OIhknzdAuoHsMkBs1Iq+xPYQxEZsqWvN0UONzgIoah4/75k3/4qQ2sXKMsAvAvk9dfloWLoSqs9kRmaVK1VfVYJjGoagMNzmQMERrUBG1MgagPbUVxM1OIDjsMzgJQwyQGj4oc16LKIxWIjGvcKqHitwCM3dNQ4KnCGHn9k39ureSn7zL8ku+aLgXfYc0nMsvwYnAQIFsyiUEfUqZmiz1bMYeICPVWhkDUh57LCtlWIiI9p3tLqE5iEoNe67d6qRh8nTkQmSVTDCYJ8HmTy2hhxXtSK9zAUrPPwQIACMILmhcpn7knMqldi/6AKQwJV+HwPMGIyDUkngMwh0kQrXLi90I+WTObQURkYWLZ5wJIMImhqPt6HEMgMsdx7ToCor+Mwbqu7xtYhZT7FCDzDI9kc6/LP5tNgMgMUzp76gHswySGik5Kd/Q2MoeorE/AO0uIVtllsY1ExaQ5PSkV4ZMQQzU+AAek5/UkmQSRGZa6/nkARhnec3VOr3efXdF/s+JHCEVUVK+PwfU/ZXJneSc2A6LqF4b2D2Hwc+ARZIvIWYwhGnzHyQEImATRioeIwHZmMoaIDB6WdR4Ah0kM3UoQgc3D8okMkO4o7yLA8eZ3WjoTIit8seBKD/ULrGAWTH4b4TKOFcr05qfUZXMgql7Ni3SYADxLY+iHl29nO8rbMYfKmzlWXlbgISZB9GkK3DNzrLzMJCKw+JrTuw1EDmcSQ8sCpvLoFKLq1vKwOiJyLQDb/GE7uGEV/dmKzUjWzoPiiRjUhe38dfyT2CSIqpff5X1XgfWZxNDPiVXk54whGkTkOqZAtKKpsExjCBHpp2zr/FWtP2jQVoPr+13eEUyCqHq9NMo/DcAOMSjq/+VStS+udPGx6smwzopJp35uek7vNmwWRNXahuVYplAxh6U7yrswhspz37f/BMXrTILoYwPE64nF9p8ZROUtP7bjICZRsbnS8UyBqEr7z1LvBBHE4gVKq9uDWuUGlmO7NwHojkFOtWJbN6bnay2bB1GVdehzvT0A7MgkKjfOQIQvxIiA1p3FU6DAJIg+0kFZyLXuLB6TqDwrlF+AZ1VW0o78womo+hxf0hpR60YAdTEobk/ouH9Y5ViyysnwWHkfQFy+tdpafP98NhGiKpsQW/oDplDhBSLwjWzJ241JRKA9qHMFgDKTIAIA9Dqe8zvGUHnLv2z6GpOo8Hgt4JyJqMp0qf9rAbaNRyelfyqMkfdWOddd3e8IFdfEpnYoTs4WvX3ZTIiqQ6akGwHyTSYRge5TcS5TqLxcoyyC6M1MgggA5IbW8fIac6g8ywK/JI5Gm/j2srkTEVWDbMn7KmLw1sGP9FFXr3Y8Wd0PzEg5fwHw77iMrwrMmPqibszmQlQF1G8GUMMgImHfdMn7CmOIQrPQi2H+W4SJVtsUQgl+wxgqb3KHtw8Ajg/RUCPqpxkDUfQ1z9ZNNMQMxOfR6+fySfevq/uh1b8FRERV9fIY1ZVRgef/sfkpddlsiKKr5WF1AOXh7REiivOYQuUVxtW8AOBBJkFxpsDdM5I17Uyi8izh2BAlIeT7Lap8EyRRxNc5nuPfAsHnYrOOgP62T2NKX35oyTD3egBvx2cVht29dfxfsukQRdfLo4KDANmcSUTKnpmifyBjiMQK5QKGQLGmuJAhVF66wz8UAM9IjNYiccwrpWB/JkEUXQs29S8G8MUYFfnN0HX7dARGnzaw2jaXbghaY1ZvfpQu+U1sPkRRnYHx8PaIrhp/1aRqM4fKyje6fwHwCJOgmHqg0OD+jTFUVpOqLaI8+yqCQs6hiCIr0+EfCeDEeC0fcHVhjPT05Uf7fPuoDecqAH6clseiOj1T6h3PZkQULel5PUkF9mYSkbT1yJI3kTFEYIES4mdMgeJIRX/OFCpvRNHLAJjAJCK5WPx6el5PkkEQRcuUzt6tITotZsUuu4HT5xcH9nkDa1pSXhXo72MW5kiofSff1kEULVbgHI/4HGhYhfNiOb/pFa1jEpU1o9F9DMADTILi1f/gz4Vk4kkmUVnp+VoLATcSo0sksJsZA1F0TH1RNw4DuQvAiFh1Rqq39OeNwf06wC9YdhtwGLOp0FZQ/8/Ni3QYmxVR5R3XriMUOolJRNqmI7p9Pp4QjTHsLPCNhBSjCq+Wns0YKs/y/ZN4TmXEF43AFK5viKKh6RWtC3z/doiMjlnRgxDar7PH+7WBNSNZ0y7AH2JYp3bxu/wCVHnHB1GFdbve0QDWNXoFZsbE+Mwp7boBa2xl5VOJv0P0ViZBsViQq14/oz7xNJOorKMW6PqqOJVJRH6usb7X5R3JJIgq3RhVRnR70wHsGr9+SG8uNNTM7c/f6fcrVMUKz0Xs7sICFGjKFP0WtjCiSrdFOc74RZghE+PA8bmAiQAb7o8BLGUSZLilvuPy3LcIqOn1zwTALzCqY8ZxPDMgqqxMp/8LQL4Tw6IH0P6/6KPfG1jT62v+DY3dWVgfrip/ni6WT2QzI6qMbIe3pwDbMokq6TIFJ07q0E2ZRGVNS8qrClzCJMhwv5w5Vl5mDJVeiOnmAH7IJKrGDpli+QuMgagy0qXycVD8JI5lX5O7r4A12MBa9rf0HMTwLiwAEMhvlr/akoiGuqOz1OxJsXknFdXZVtDCmlt5S+qcXwHKxT2Z2nm+4o5wLmUOEbgSYXAugFomUVWLm+MYAtHQSxf9o0TlipgWf43uvgLWcAMrn6yZDdG2mIZtQXRWutP7Opsd0RB28vP1c1A5zPBJpIGrGc1MLvXyNeoV1ra5dEOt05gEGdl1qnVi6yjhY7IVNqWzd2uBTmQS1TZOy5ETO/WzDIJoCNc1RW8/geaxpjcUVXu3s4Z3X2FtAtNQWwB4Ma1zroRo4y23REPH8vxjACSYRNWxbVjnM4bKyzc4t0DxJyZBhrkr1+DcxhgqLwytXwGwmUTVqbHVzzAGoqGR6fR2F+D2GK9rvDAIz13jNeGa/sVCQ81cgVwT47o3ApC7p5TKO7AZEg2ulofVUaCZSVQnVRw6ea63B5OoPFHnOADvMwkyxAeBOt9jDJWX7vC+COBAJlGtY4Me16TKzUeiQZadW94ZIf4MYFiMY7hq5rja4pr+5bW6Za2nxj4bwNsxDn+DUOUv2bnlndkciQbPgs2CbwDYjElUL8vCxVAVJlFZuUZZBFW+qY3MWHRDT53ZIAuZRBSuBS5gClV9BbcYWQy+yhyIBs+UUnkHteQ+AOvFOIZ3gsA5b63WFGvzl28cLe8Cem7M6+J6sOT+yZ3lndgsiQaJ6lSGUPV2zXYGBzGGyhudcq8C8CiToCr311zSvY4xVF666H8Tgt2ZRJVPtYRzLaLB6yfL24cqDwDYIOb9zFkzx8la3QC11oeGjV7oXgWgPdYXAljfDuUBbmIRDbxJHbopgP3NLqVoHK6lql7Y8rA6rNWV1SIS2qE/CcAHTIOq1Psa+GlIPPrOKGtStQV6XkyKa3p9O7h5tm7CWk00sNLF8vYCeRDAhjGPYs6Wr7qta/tL1noDq2Uv8VUl9m82UmB9K5R7eSYW0cByxM/C7ENh34bqHTG5nI0vbeZNYq2uvGmNdfNF5XgmQdU555LjCuPqXmISlTey5E0BMD4WhRX8AcA7Jk+5yq7PMZpoAGXnlncWyEPg5hUgOLllL/HX9tcMyGsbCw3O3QDuYxXFZ0KVh7Md3p6MgmggVikqCplseCmnh1b4UwBhLMYulXObF+kwVu7KyzU4MwG9iUlQlXUiMwsp50YGUXlNr2idQs6KSXEDW8OfQzHD8DH6GJ5XSTQwMiXvy2rJQ4j5Y4PL3ZVPugOyX2QN1CeyQ//7AJbw2mBdFdyX7fD3ZxREayfb6e8H6FiDixjaoX/NjGRNO6A3x+Sybup1+T9k7Y4Gdd3joLqASVCVLK9fLMPlnYMRMXypfzJi84IVvX5aqmaOZQdXwegvnHRsutP/Mms30dqZUvS/AcU9ANZhGlgqCE4cqF82YBtY0xrr5qvgPF4fAMAwFb090+EfySiI1mYeBdMPFL17WmPdfABQO2wB4Mfkyv5kSrvy26gIKIyR91RwKIBupkER1xNa4RE3JIVnt0XAUQt0fUvw45gU1wslPA8AptfXdirwoNlzLx7mTrQ20h3+t0PobQDqmAYA0Z/lUrUvDtSvswbys235qnMJgGd5lQAACYjekC2WmxkFUf9NmqMbKnCw0XNEC1f+dyNhbG0JkFkxubzrha5/Omt5NBRSiWdV5FgmQRHvMY+bUZ94mjlEQ23Z/5kC68dk9ZWfkayd99/Fk8iVRpcW8i1+yUS0ZjLF8rEiegMAl2kAEDzVVe9ePpC/ckA3sFr2El9U04jPXQSrYyvk2kzRu4zPkxP1j2P5aQA1Bvfo87Yc69z/sQ7Zt88BUI7JJT5h0jzdgjU9GgpJZxZEpjEJimh/eXU+lcgzh2iYMltHq+IHMSluWQPvVx/9gy3q7bsUMt/gMtcGrnc0azpRP6hKtsNrAeQaDPAeSxXzAT22TSQYyF864OHmGhLPieByXq+PL9SyJf+W9HytZRREfRwHBFmjl2OqV7eIfOwcjenjZQEg02NyiWvtIDibNT1Cbc6xjwfwTyZBEfNkl2efxBiiI3S9c2H0F0wfGash137yjZctIqEl2mp0uUWOYU0n6pumdk1kit5MFXBe+9F5peLifDLxzED/3kHZHXSGO2cBMo+X7SMXEGiSsn93er6uxzSIVm35mzxNfi13tx86hRX9F65vn4fYnEekkyeXeiewxkdDYYz0uL5zCA91pwj1ES+p6xzWNkHKzCIa0nN6t4HKd2NS3B5f7QtXuNYJnWkAegxeuGyTKZa/wBpPtGpHLdD1R7j+fZDY9It9VVoyzDl3MH7xoGxgtY6SpWLpMYjJa+H7TLCXeP6jfGyGaDXzJjH9AFG5aeY4eXuF/ed4eU2Ba2NyqW1LrV+yxkdH63h5DZYeAOA9pkEV9oEGenBhjLzOKCI0etnWBYjP4zG/m9kgC1fYVzbIW1D9vdkX2+Jh7kSrkJ7TvWVNr/8YgK8wjY8JVDGlbXMZlC/kB20AytW7DytwCa/fp0ywAv/JbMnbjVEQfVrzPF0XkCaj54RhePUqe33L+RWAxTG55Acvv+OOIiKfrJmtgsMQn/PYKHo8Ab5VGFfzAqOIjkzJ+zKAA2JS3A9cdS5c1Q989EUsRlL9dnaujmTNJ/q0bIe3p9jOkwDGMY1PrHMEFxYa3L8N1u8f1G9QEh84PwXP0/j0RQU2UcXD6VI5yzSIPrFqCb2jAAwzuIh/zzUmnlrVD8yql/+oxOcLABVcxBddREsh6T6iot8HoEyDhrxLUJmaS7kPMoooXRUVKC6KUYkvam2Qt1bdTyaeBPCMwRmMUPGOZOUn+rhMR3mqCh4CsDHT+DgBnl5cds4ZzH9jUDewWncWz0Y4GcBSXs5PqRGV6Zmif23zU8rXbBL9b+ky1ezi9e3128PKziVQxOXRmV0zpeDbrPzRUkgmcgo9mUnQEDst1+DMZAzRku4Mvgtgl1hMQ4DX/G7n0r6N6Wr2XVgifIyQaLmWh9XJFr0LIHIdgAQT+ZQlCIOjB/vcykF/hn1aqmaOip7K67nSoa+5vI7/YKakGzELirvJneWdAOxocBHfgmO39eUHr5ogXQI9P0Z94a+bF+kwtoJoKaQSl4niHCZBQ+SsfMq9mDFES9MrWicaxmY8Eug5s7aTJX1ardW6NwF4x+A4vpAulrdnK6C4m9KuG7y8qX+vAqczjZVN5fWkXGNtx2D/M0NyCGOh3r0awF28qisbKPElaPD4pLm92zINijMrtKaY3a9jWmGM9PmtRc5itxVAKSaXfzOvy+fdPhGUa3BbBLiQSdCg9o/Ab/Mp93wmET0jevxTAYnFC4hEUHQ/cHN9/fm2zaVbBAWz1ymSYSugOEsXy9uHbvBPBfZhGivtO2/PNySmDcl6cYhKpL7lTAGwiJd3pVO3etuynsh0+JOZBcVR0ytaB+h3DC5i6Kjf2p+/0LqzeFA5K0bV4Izm2boJW0P05JLOTyDyOyZBg7RAvqKQdE5hEtEz9UXdGIofx2c6Lme27ixef/5KgOAqmP3m9Um8Q5riKl0qZwXyOKBbMY2VdpyvOKFzzFD9a0P2GtxlhxLrt8C3Gq3KMIgWsh3lmRwoKG5GdntHAljP4CLeNa2xbn5//1I+Zd8K4MmYVIMRnhucy9YQxR0G0XzSOR4KXh8a2KoFXJhLOSdAhC8MiKDAD34FIBZvolPgH7mk/cf+/r0Zydp5orjf4GjW85cEh7E1UJyk52ttpuhfKyrTAdQxkZXywlC+s7qXXgwkayhLt+xtHTwPa7UDqMhEr8t/dHKpZyzToNjUe4jZjw9auHpNNw4Q4qfxqQiayXaUt2OLiKZ8g3u2Cs5gEjQQlm1euaxPETWlVN4B0Ng8GSCC09Z0IzW05Cqzh2blYe4Un75vto4Wz/8/QJuZxurGcT1hRqP72FD+m9ZQFzKfSlwO6E283Ku1g6X2U5mSfwijINNl5/Y0ANjD4KnfK0vGOg+scb/Z6P4FwH0xqQ62Qi5lq4iuQtK9UFR/CIB3zNAad4oiejI3r6ItVPl1JdYKFamQwJ/zSfeva/r3l9TbdwP6isERfTk9ryfJVkGmSxf9b4aO/xxi8tbVtSGqs3KpxDVD/e9WZFDqqnOnAPgXL/tqrQfV2/lIIRnPtpsBiLk9vExrEwnW5lcEYXgazD5j4yN5Ya90yT+IDSO6cg2JK1XkSAA9TIP6qVdEJuaSid8yiggv4jr8QwHsG5PihoD+bG1+wbIxXmaYPDJbgT2FLYOM7fPma22m6F0m0N8DWJeJrHau/oIz0v1eJf7pimxgtW0u3WoHRwJ4n1d/9ZY/UvhPvqWQTNTUrglVTDR5YhxYTmFtf8nMxprnNUZ3r4ri0qZ2TbCFRFch6bTBwj4A3mIa1EfvQPC1XNK5gVFEV/NT6lqWxujNozqrkEo8u9a/JfCnw+AvmhRINz+lLlsImSZT6h0Pz/87gBNg8hfqA2exhuERraNkaSX+8YrdFlwYW1uCyGTE5Y6CtTfetqwns8Xy9xgFmWRkIjgUwEYGF/HemWPl5QH5TUHwMwC9MVlQjB3uet9nC4m2fL37uGUFuwEoMQ1aNXlRNdxjbR7ToqHhrev9UBWpmBS3x/LdswdkbTOu7iUADxmc1cbldQLeHU1GSZfKx0GtpwTgjSJ9E6rI0YWGmrmV+gAVfa49n3T+JOBhsP1Qp5CrM0Xvj1PadQPGQSYw/WBQUZk2UL+rMK7uJcUaHgZfhSzI2ZPm6IZsJdE2vb6203acLwL4G9OglfgrxN61khNe6pujFuj6UPlpjIr8u+njZcGAjfkycGN+JOc0wsPcyQyT5uiGmQ7vdlG5EnzLYD/WbTi1kHTurOz6oMJyKfcihVzD6tAvh4WuPztb8g9mFFTVg8c83QLAPub28njdWWzfNbCTR+eXAD6IxSAJrG/Z/s/YUqJv2lbyxuiFzt4CXMg06BO9Vqv7gbNfPilvMovoq+n1WwDE5YuD94LAuWAgf+Hisn07AHPruuKrkzp0U7YUqmaZkvc12/afg4AvS+tP81eZXmhwf1PpzxGJN4skPrBPAPAgq0W/bKyqf8p2lGdm5+pIxkHVyA78iTD4DUcKFFp3Fm8gf+fyReBFsVn6Aj+YNKcnxdYSfS17ib/srXJyFIAlTCT2uqDy7XzKOXag+0EaHMvfCBybR7dFcOHMcfL2QP7OtglShmCmyVM3W/yj2VqoGh1d0nUyRf9aKO4BwI3Y/q1p7t9ykR2Jo4wisXBs3Vm8sjjfAvBvVo9+ViaRiWp5z2c7vb2YBlWh7xrd1ztBblBWhXXOJQBejUkdcW3L/jWbSvXIp5ybgjDcHQAfF4uv2aGEu+YbnFsYRRUNWpZ9MYC4HNK9yBnuXD4Yv1iC4Lpl6z1jTWZroaqrtHO9PRIaPA2o2W8+Hxxz4DpHtuwlfhQ+TGTufLghKR/YoX8wgP+wjvR7qNxSQzyUKfrXNi/SYcyDqkGmWP4CgEZzVwJ4pDC2dlAOtm7bXLoF+ov4dHE4JF309mOrqR4zG2ue76pzdgRwueELOfpkc1Wd5Xc7n5+RrGlnGtVj+RehB8amwKpnD9YbtHKNtR0AHjM4vfGTO8s7sdVQNWh6ReuyRe8Cy8L/AVrPRPrtrVCCgwpj5L2ofKBIPbozrbFufhjimwC6WVfWYIkHbfa6/Kcnz/X2YBwU/UWONcno8lkyfTB//+Kkex2AOTHq4C5qUrXZcqpH2+bSnU+5J0KwPxSvMxHjvSkih+QaEpNmbSd8hLSKtKhaGuLiGBW5Y/QitzCo/4KafZi7FcpEthyKuilF70sje/xnFTgdBh9ZMoiWAHrgjGTtvEj1P1FLaUaj+xggRwDgeQlrptGy8LdM0b+WZ2NRVDW1a0JFjzC4iO85w+3bBnVzQCSAyM9jVG22G9nppdl6qk8+6d7nBs6OCvyZaRjrLnWdbXNJ5w5GUX1eKnpTAOwYl/KqyhmD/ShM1zD7VgDvGRzjUc1PqcvWQ1E08Tkdni16F4TAw6rgOaprxhOVpnwq8feofbBI7kTmU85dIpIBELLurBEBtFktf266wz+UcVDUDHeDAwF8xuAizhysRxM+vjHg/B7AEzFadPzi6JKuwxZUfVrHy2uFlHugihwBHhVgkjdEZXI+5R5UGCO8y64KHdeuIyByToyK/PdCyv7TYP8jbZtLNyA3GZzjRuV1g6+zBVHUZDv8/Z06bzbvulorIVQm5hqce6L44SJ7UXNJ5wYVPZ71Z62MEtHbskXv1kxJN2IcFBWiavTjgwrND2EnfkaMqs7GCfVPZQuqXoWk09Zb4zQC0gqejVXd/TjQ5qqzda7Bmck0qldPwv+JAJvEpbwqOAMiQ9L3BGFwDedyREPjqAW6fqboX6uidwOyBRNZq3XMKVF+CUvkT+DPFL3zAPyMVWmt/QciP8rX2zcM1cBNtCKT5uiGtu0vApAwtIh/z6fcXYe4n/wzgANiUoW6Ld8ZN328LGBrqm7ZorevApcBGM80qmnVihdEcGKu3n2YYVS3qSXdLFC/A0BcXgB0Rz7lHjLE4/PTMPfxzHIQOKNmjpO32ZqoYlQlWwwmqujFAHjDxloP8fh5LuWeF+XPGPnb6vIp9ywsm+DS2vksVGelS/4jk0u9ExgHVazTsb2jYO7mFaA65Ae3ahCegfg8cl0XON4v2JKqXy7lPjh6obOdQI8F8CYTibx3FHrS6FedHbl5ZYZAvV8jPptXQSjhmUO/GlSTD3NPOLbXxJZElTJpTk8qU/LvV9EZ4ObVAHRXclXUN6+AKnkudHTSOUVUZ7FaDUDFBL5kqfVMpuT9snmRDmMiNPR10Og313SJukN+y21hXM0LEL0+RnXoKL5t1Qwte4mfSyVaLc9phMjvwBe4RJEH4LLeGqe+kEpcNtiHX9PQyBTLXwDk2zGafcyYkaxpH+p/1bXcGwEY+1ZOVb6NkIbeh4e027b9bwD7MpEB6SPzW6Tsqji+qSo2sFpEwsUpN8NNrAGTgOInXpdfzJT8wxkHDZWpxd5xAHYxt++Xm3ONsrginbnn/hxAb1xGWcvCxVAVtiozTJ8g7+STzvGW7ySXn4/FTZLKCwVos6xgfD7lnnTjaHmXkZiz6wDIxaiCo0QGSE9g2xU5qL51rLyvkDZzR2Psnp3b08BGRUMlXfIPcuq8fy8/pJ1vwhyIIQFSGJ20p7aIVMXTHFVzMn+bSLA45WYUegOr2YDZFKptmQ7v9qlzu8cwDhpsvlpmH/ipYcUeFZg+XhaI4MoYVaddM8XgCLYqs0wfLwvyKedYO/RTyzeyAqYy5EIB2iQMxudS7hHT62s7GYlhC8BicCSAPWNU5MtnjpWXKzc1MPoxQoSWfTRbFQ22yaWesZmid6eo3gHIlkxkwHqoGVsm7SnVsnkFVOE3L02q9oiiV4DId1nhBlQZwDUSOj+r1B0kZLYWVWtByXsJkM2NLKDghXzS3baSH2HSHN3Qsf2SAuvHZNB9qavOHb/sdeVk5oS1d4Ko/WOBmn12XjT0AnKjjeCiaamaOYzDTE2vaN2Ibm92jBaA7/TWOPWVvoMwU/TaYewLK/SlfNLdii+JosHQvEiH+Yv901RwOoBaJjKQaxe9pavePbpNpKq+LLSqLec2kaAr5aah8TnvZYgkAJyglj83Wyw3t6hajIQG0sslf29jN6+Aihze/kkzx8nbKnpefGqVbDm8xz+NrctcM5I17YWUk7EdZwtRnAPgHaYy4D4AcLktTn0+5WS5eWW2kUv90+N194KeE4XHX1Ux3eSxONPpf4mtiwa40Ui65Dd5Xd4cFZwNbl4NcLPVW0a/6n632javgCp+9r1J1R5Z8q7XWB1AOZSdBh4X1RNzjYmnGAYNhGxHeaaKsYd99rrqbNbaIG9V+oM0P6Wuv67/b1WkYlK1uu3QnzCtsW4+W5n5jmvXEd2Ol4YlzVBsw0TWZpjH85Zqa63vzrhqgnQxEfNNmqdb2IE/B/F582CH+4GzTevOUvGXQ0yaoxvatr8QQI2hq+FcPuVMYSujgTClo/z5UOQyALsyjcEY//WGJUl3cjVuXgFVfnhjk6o9ohRcB2iGVXFQhIAUXN/+Wet4eY1x0Jqa+JwOd+r81wGMMHQouDGfSkTmDIh0h3+oiN4Woyr2x3zK/RZbWrxM7izvZIVWM6DfATCSifTJYlG9HSIzcyn3QcYRL5mi90cAh8VmkSZycCHp3BmZ/Evlm6FypKFxf+COcDZpHSVL2dJoTWXn6qjQCn4h0EmowifFqoGIXLe43v5+tW5eASa8fURVMiX/1wB+zCo5aJYKcEWvOL+8ISkfMA7q96Stw58M0YKxg4GFvXP17sMRW6g8gBi9Wlgt7F+od+9la4vlhHekWt7hgBwJYB8ADlP5GA+CBxHKLXW+/QfebRVPkzu8fSxBfDYtFQ/nG9y9I9VXFb19FXjA3Mjl6ELKuZGtjfpr4nM63B7m/1AUPwW/kBpMl+eTzknVfl6dMa/PTZe800VxAevloHpLoedvudC9smUv4SvOqT+Ttgd12cLSQDIvn7STURsMMqXyjlD5J+LzDdYc9wNnuyg8KkKVc9QCXb+2JzhIRZsAfA3xfcV2IIInQ9W2wHJvmlUv/2HtiK/mp9T11vGfAzAuLvVfoTsXUolno/ShWlStl0pBp0BNffP3ffmU+3W2OOpzm3hYnZc39bKqcg4En2Mig7haAS7MpdwzDCmLOdKl8nGicgV4y+Fg61CRswpJp41R0OpM6tBNbfEXALANHRHOzifdc6P40TJFPxenR6xV8aNCg/sbtjoClp2XtTQR7CWKAwE9AMBmhhf5TQEegcpdPbX2nVE4uJqiMhZ4PwZwUXxWajItn3SOieJHy3Z4LcsPpDZRaIszelpSXmWro9W2haK3rwp+w/MsB396LKKn5JKJ35qz9DJMuuRPFNUc+AjBUHhEVU8rNCT+yShopW2ywztTBL8wdlBAUJ9L1b4YxQ839UXdOPD9EuJzO/Zi13caeGYffbqlqmQ6vR2gsi+APQHsDmDDKi/VWwAeF+DREPpAIek+x9fY00rGgQ4A68akyF2u76SiOg5MLvWMtdQumbgGW76wPC2Xci9iy6OVr9XLu4rKrwF8kWkMOk9EMrmkc4Nh/Yx5siX/YFW9CfF5y0pFlwUAbg8lPGtGsqadcdAnZYreHACNhhbvr/mU+5VI51/yfg7FOTHqkmbkU4k0Wx6tupqoTC2VGwOVPSDWbgLdToHxAOoi+om7IWjXUJ6zrPCJMNTHCqlEBzesaLVzYrPfALwiP8un3Eh/aZYteY+qYg9D82/Pp9yt2fLok9JzercR2zofwMFMY0gsBeTIfMq5y7SCialXbPnrN+8E8FnW3yERCvAHsYIzp9fXdjIO+kg7/Lup5RPRqblkYnqUP2PTK1o3otubC8gWsdmaUHy50OD+jS2Q+tVWVO2RHb31oe1sC9VtBDoWkDEKbCnAJkNSeYHXRDEfoi9BpROWvBD4/vPdjTXzqvmNQVQZ2ZK3myoeM3m+/wmvuiOchqi/CS9TLB8LyDWmXgRLdMfpycS/2AIJAKbM1tGhE5wJ6BSYepxI9LwdhjhkRqP7mJHrL5Ov3NS53WMCy7kb5t79EUUeIHkJ7XNyjbKIccRbuuT/TlR/YGjxutV1RhXGyHtVcB0miurMGFW9Z7qSzue54KcBa0PztdbxymM8tUYJZCML4YZqyYZQbKjQDS1IQhUJCIYv/ysjlv/fZW/8UywRQTmElgXyNgRvS6hvK6y3oPqmSrgIicRLhTHSw7RpILSoWgtK/pMAdolLmavlLXjN83RdL/BfQ3Tv+FzbC3FpvsE9ha0w3pafgXsagGMB1DCRoSKdavsHFMbWlowtofGNZ45u6Dj+nwy+VTe6i3vgdwl1ft3aIG8xjvhpatfECNdfhOo/Z2ZlM7Sb8qnEUdXxUVUyJf/vcVrICPTYXCrRypZIRHFk+l0+nxrmgH8Uks6u1fJYbaajfAtEjjD0cvxn9EJnU76xPJ4mdupnXfVPV8VxAGqZyJD2g/9ne85h0yfIOyaX0/i39c0cJ28Ph7MPoDexWg+pOgFO9cR/KVP0LkvPV74aNWaGJ4KvwdjNK0AtqZ47mkRUBCcuG9viMojLrybN0Q3ZEokobo5aoOsDcn6cymwpflRVZ8KJNcvgy/HZlzb392VLjJfmDv1MtsNrcUK/pIpTwM2rofb7JXXO103fvAJisIEFAFckpXd00v0uBJewbg+54QBOEM/vTBe9X0/sVJ5JFhMShqZ+swgFXlsy1nmgmj5zLuk+AeAPMaqCG1hOcA5bIhHFTU1v8AsAn4lNgVVvzTW4j1bTRx690L4XwBvGXpNQjmRLjIepL+rGmZJ3sSf+AhWcDWAdpjLUXSAuyCedI9o2l+5YrDHjdoGzJf9oVZ0G7gpXyhIA013fuYCvujdXer7Wiue/YeogpsBFhZR7WtVNMpadCzgH8TmLIBDVnXINiefYKokoDqZ09m4dhta/ADgxKXI5lGD8jGTtvKqbKxW9SwU4ydDr8oG6zsY8189cmZJuJOr/SIHjAQxjIhXRC+j386lEPk6FtuJ2lXNJ54YwxL4w+VuPaBsO4ATP8TszJe/i5tm6CSMxj/jBgTD4G5gwDK+vxs89rbFuvgKXx6gq2rDkSqgKWyURGU9VwtD6HeKzeQVV/KYaN68AQERNfoxwHfGDr7FRmic7V0dlOrzfQP2XFDgd3LyqTN8HvKaiX4nb5hUQww0sAJjR6D4WqLMTgH+y+lfMMCh+5Dn+S9mO8sxJc3pSjMSoGaXJt47/a2ZjzfNV2+mHznmI0Qa+KvbIlIJvs1ESkekyncHRAL4coyK/mXCcC6r1w+eTiWcUeN7Yq6MhHyM0yNS53WMyRe8ytfxOCE4GN64q6dnQdnYtJBNPxrHwVlyv+swGWaiu8yVRo7/9qAYJFZlo2/acTNG7c3JneSdGUt2yc3UkgG+YWj4RnVnNnz/XKIshGq+zoVR/c3RJeSYDEZk99qpeGK9S61mtY+X9Kl+IXW/u9ZFDJj6nw9k6q9uUzt6tsx3lmYHlFAGcAKCOqVSyWekt7ghnj5lj5eW4RmDF+foXxkhPLuVOVsEZAEK2iIrXxQOtUP6ZKXp3ZkveboykSqeTdnCIwYObHzruzdVeiK56txXAv+Mz2ONzbuj/hK2TiEwVWv5ZAEbFqMhzRi90p1f/hXNuABAYeo2GucOCb7B1VqdMqbxjtujdGobW8yoyETF6NDmqSyxRnJOvd7/TOkqWxn3TIN5EtJB0L7QgBwvwLttGBJaawIGqeDxT8h7KlLyv8fyaautejX588N7CGHm92gvRJhKEauzBsSvp6nFKdm5PAxsoEZlmSmdPvSy7MyJOs8WTW/YSv9qLkWuURQAeNHdKqHyMsLoumGQ7/P0zRe9hqDytQBNi+NK3CHpbVL6Ra3BbIKJxD4MbWMtNTzl/9m1newB/ZxpR6USxNxT3Zjv9ueli+cT0fOWbIyMuPV/XA/BVY6ukyExTyjKjwX1IFPfGqHomQsu+nK2UiEwTqn054vN2WUBwTz7p3mdMcURMPs7kgOZ5ui5babQ1tWsi2+FPypT851X0bgBfYSqR8Ywd+rvkGpx7GMUy3MD6iJlj5eUR4nwZ8XpLV/Q3DRQpgfxWPP+lbIfXMqVdN2AqEe1QfO9bABKGFu/9JbX2XUZdLwlPAeDHpX4K8NVM0T+QLZWITJHu8A+FYv8YFTmwJDzNpAItrrX/COB9Q69Xre8Hh7ClRtPRJV0nXSyfOML156noDABbM5UIzVtVZ3XVOXtOa6ybzzQ+sn5hBB93RVJ68yn3RCx71ncJE4mUjVVwduj6CzJF/1o+DhQ9qmLwreJyc9vm0m1SiaalauYAcl3MqulveTcnEZkgPV9rIfhNvBZ0cu30+hqjznBcNreQPxg7NxQ+Rhg1H75RMKH+IoH8FsBmTCVSulV0Sq4hMcm0tcdA4AbWSuSTzvUahLuJoMg0ImcEoM1q2e3ZondrtsPbk5FUXqakGwHYy9zeUmcaWS6xz4a53/yuaCo9FmX/FLZYIqr67tv3TxPomBgVebHl2ucaOTKJ0W9F32/SHN2QLbbyphS9L6WL3u8Dyylh2bl5fEtk9MwNJdylkEzkGMVKxj5GsGpHl3SdROhdB5EjmEakPQOVy0dY9s1XJKWXcQy9dKl8nKhcaWhX2ZlP2ilTD07MFL3TAMTp9etLLd8ZP328LGDLJaKq7Lc7dXOE/pw4LUAFOC2Xci8ysnCqki4F80zdkFTV5kJD4jq23ArMz+drrXjedwA5AcD2TCTSLeUmCd1jc42ymFmsHO/AWo0bkvJBviFxpKhMBtDFRCJrR4gWutR/OVv0Lsh06uaMZKj7XIMfHxSdZfJbP0aIcxkgL8aotg5Tx7+IjZaIqlbo/xaxuntCXhwujrln1IqoQG8wdsEpwscIh1h6vn4u2+G1iOe/DEgO3LyKsm6FnpRPJY7i5lUfuktG0HfZuT0Natk3AtiRaUSeJ8DtAFpzKfdBxjG4JnXoprb4L8PMTXG1Q3+s6QcoZkr+4VBti1O9VQv7F+rde9mCiaiaTCn63wihd8WpzAI5PJdy/mByGSfN6UnZtt1haPECdZ3NCmPkdbbgwTW5s7yTHeBEFfk2AJeJRL1vw9N+EBw1c1wtjy3qe2bUH8eXtKYr9H8FwUnMr2pq+VMKvTox3L25dZQsZSADL93hnSKCSwwt3l/zKfcrcbiOmaJ3L4Cvxabiqi7we9wJs7YTvrCDiKpC0ytaN6I7+DegW8VoHveXfNLdJybj8BMAdjVyyIWeUEglrmArHngTn9PhTq33HRH5ngI7MZEqaRLAJV2e89O2CVJmHH3HRwj76Yqk9OYb3FME+KoCrzGRqugedhaV6V6X/1qm6F+bntO7DUMZ8MmlsbeGi9kHq36isOEpALz4lFdGO3X+GWzARFQthi/1fx6rzSvAVz88KT7jkqEvjAEfIxwMk+b0pLJF7wKnzn8ZItdx86pq/EdVDsyn3FO5ebUmy05aY1Nf1I1Dzy+o4OtMo6ooBA8r5JrE+/btrTuLx0jWoh3M7R4TWM48Q/uTHtd2Ptc6VmLzlr500btUgJNiVIXLquF2hYaauWzNRBRlk0u9Eyy1ngGQiNGM7dJ8gxubN8dOadcNQtd/zdBrrIHtbDlzrLzM1rzmmto1McIJDoPo9wB8hYlUW5eGPweWk51VL/9hGmuGd2CthWlbyRu5lHMAoN8DD3ivJgLF3qJ6a3kdf0Gm6J03aZ5uwVjWTCDOt2HuZvjdcdq8AgBPnLNjdndpAmJdC1V+oUNEEV71qFihdQXitHkF/EcTzrlxuszTJ8g7AO43df5tBz7f6r6G0nO6t8yWvF+McP2XIXozuHlVbRZD9ZhCyj2Qm1drhxtYa90Vi+ZTiWs18LcB8AgDqbLLB2wC4Gd24M/PFL0H0iW/qaldE0ymXyEa/Pig3BK3y3lDUj4Q6E9j1g98Kd0ZfJeNmYiiKlPy0hDsFa++WU8vjJH3Yri2uMXgi8rHCPuhqV0T6ZJ/ULbo3Sq206mKMwFszGSqjOJxywp2zDckpjGMAZm308BVTpVsyTtGIZcCGMZAqrZRvKuQNg2C3xXG1bzARFYu3dHbKGLNMbR4S/xuZ+NYHvCtKpmS/zgMPUh2Jd5y1RnX2iBvsWUTUZQsf6xsLoCNYjQZe2p0vfOFFpEwbtc7O1dHquW/AaDOyCmGHaQKY2tLbNkrN2lOT8qx7awCGQCfZSJVq0cFLVvWOxfFsS8bLLwDa0AHW9FcKtEKCXeB4CkGUqUDK7A+oM1iW89ni95T2WK5eeJzOpzJrKgDsb5tcE34U2zfTieioaU/BBCnwfYzngTns1UTUdQETvBrxGnzCgitUH8Q1wVfrlEWK3C3sVOMwOZdWCuQnq+16ZLflCl6D9i2PVeB08HNq2peT/5DNdyhkHQv5ObVQK8/acDlkzWz3fed3UVxDuL0Ri8zO5+dFHKtU+cvzBT9qzLF8heYykfyERh7loGIdUucr+2M+sTTqpKPWY0+JtPp7c6WTURRke3w9hTRbJzKLCLTpzck/hHrC2/2EQbcwPqIdKm8a7roXy2e/7qo3gpgX/ApqWrWC+CsLRc6e/AFQYPUPTKCwTWls3frMLSmAeDGhzk6RHFzGPqFwri6l2I74BbL2wvkX4YW770R4nzuiqT0xrmiT5qjG9q23wFgwxiNii+47zs78e2kRFRpLQ+rs2BT/ykA28VoYfKuitOQT8qbcb726flaK57/BoB1TCxfKOHWM5I17XG9vtm5Oiq0vCZAsgJsy97OGE+EEh4T57o9FHgH1iCbXl/z79FJZ3eBHgu+qdAUDSo4W2xnXrbkPRrXRwwFcripZVPI7XHfvAKAmePkbYWeE6tCK7bxR/onsJsjokpbsKl/CmK0eQUAqvrzuG9eAUBhjPQo9E5Ty2eHVlPcrulHHhG8Uy1/gUB+y80rYyxVwRldSeeL3LwaijUoDZlssWcrwG5VYB+mYZz3ReTWINAZMxqcxyGiphc4U/TmAGg0tGf8ej7p3sdqDTSp2sNL/jMxm2Qt1cCfEOc7LImosibN0y3swG8HMCJGxW4fvdDZvmUv8VkDgHTJP0hU7zB0nvVCPumaP69QlXTR3xOQySLaBEPvqIszBe5H4B/LOeNQdh9UiQGpSVSvRpwey4lXV/YyILcrNF9IJZ41cmI9pydl23aHoRfwrdELnU04gf6fbIe3pwr+L2Zjxm35lPtNXn0iqoRM0fsTgINjNXsS7FVIuo/w6i/T/JS63jr+6wA2MLF8QRA0zBxXWzSxbFOLveNCtY5UkaMBrWdtNtJ7Aj09l3Svi8ONC1HCDaxKDUqzdRPf8S9ToIlpGO0ZVdxgqXNzrlEWmVKodId3pgh+YeQEGnJNIeV8n1X3E4upUvlmqMTq4FUVObiQdO7k1SeioR1j/UNF9LZ4lVpvyqcSR/Hqf2LsLfrTATMP8RfgtFzKvciU8kwt6WaB+t8GcDSA7Vl7DSZ6i227J07bSt5gGBXpO6iSsp3eXhriKpj6KBZ9KBTBE6FqW0LdG1ob5K2qnlCVvH9CsbORU2h+A7yqidkcxOpxFn3Z73bHz9pOlrAGENFQaF6kw7wurx2QLWNU7KWB7YybOVZeZg34xDqh5H1VFaYeafBEPuVW9Zt/m+fpur4fHKLLHg/8OgCHtdZkMk8t/WGh3r2XWVTwKjCCykvP11op+z+B4DQAtUzEeD0K/FlEbnaH23e3jpKl1fThJ3Xoprb4r5jYfyjw2pKks3mbSMBquoK+yuA771ZaJxQXFBrcn/DqE9FQyBS9iwD8OFaLEcFPckn3Al79T2tStUeU/IUANjaweKGEzubV9oRC8yId5i8JDlTVbwM4AEANa6r5azcIfjUCzoV8yVMExgxGEB2TSz1j7dD+nQq+zjRioxvAQ6LS5vXYf6iGOz0yxfIJgFxm4sVQ4LeFlHsyq+VKJtLtmhiZ8F9QRSpGxfZFdedcQ+I51gAiGkxTOnu3DkPrGQBujJYinSPE3pqLwpXLdvhXquhxZi5E9fu5VOKaqH/O9HythR/sZ4Vhk4ocCmAka2Zcuij8RcPwB4WGmrkMIyqXhKLXSZb8g0TD3wGyBdOIlaUA/qIiM0fCviOqk7lM0XsYwFdMvAAqulshmXiSVXFV198/EAa/2nslHs0nnS/xkE4iGiwtqtaCov83CHaPU7lV5RuFBudu1oCVm1L0vhQCfzXy+gP3F1Lu16L42Y4vac1iBF9dvml1CPgGwbhZJCo/yTU4MxlFtHADK6KOLuk6NfDPVsXxiNU3cbTcewq5HZbesqTX+UvbBClH4UNNmqMb2rb/Oox8xl9fzifdLblJsXrponeXAN+I1SJLdEohmcjx6hPRYMgWy80KuTZmxb4zn3IP5tVf3QCkkil5Lxn6xbbXW+NsfONoeTcKH6apXRPDnWBfkfAIQA4BsB4rYOyUAfy2znPOu2qCdDGO6OEGVtQXivN6khLYvwFwINOIrfcEeAAqd9X69h8r2ZlmiuUMIEYu4gW4MJdyz2B1W73JpZ6xltrtiNe5D+9AnMZ8Ut5kDSCigbT8y6G5AD4Tp0ViEATbzBxXW2QNWL1sybtEFaeYuRqVifmkc33F1loffzzwIHDTKs4ehIQn5pM1sxlFdFmMINoKY2tL+ZR7kAD7AWhnIrG0ngJNKjqj2/X/kyl6d2Y7/ElHl7QCtzLLYaaGLKK3sKr1zYxk7TxVXBqzYm8ADXjIMBENONvxfoN4bV4BwEXcvOrHHCU0eI6iOuRzy+ZFOixd8g/KdpRniuf/R1TvUJGJ4OZVPNuXoGhBDsyn3P24eVUF14sRVI/mp9Qtr+MdJ5BzAKzLRGKvB8CjCr0rsNybZtXLfwbzHzuuXUd0u/6bMPNNmR35lNvIKtW/yZ/X5c2J2Vl9qoK9C0n3EdYAIhoI6Q7viyL4a8zm5K/63U5jNby4JkoyRb8EaL2BRVvqdzufHez6cNQCXb+2JzgIogfqsrcHDmetir0uUVwy3HJ+xRdJVA9uYFWhqS/qxoEf/BLQNHgXHS3jCfB/Cr1Dg+COwri6lwZ8kl3ym0T1ViM7QsU5uQa3hdWo35Pp7wB6Y8yK3e5+4OzQurN4rAFEtDaa2jUxwvX/BWB8nMqtIkcUkk4ba0A/x9yS90sofmJknVA5rNDg3D7ga6a53WNC2z5EIQdB8SUYeYYrrYEQIjlf7J8O9g0ANAjrNkZQzQNZeUdR+bUC+zAN+oTnANwpof4p1+A+PRAHk2eK5RsAOcrMnjCcwFuG12zGmSn5DwP4crwWXzijkHQvZAUgorWR7vDOFMEv4jVu4OF8g7s3r37/ZTvK26nIs2bOw3RmPpmYPBDzkilFb5dQ5GAIDoZiG9Yc+oQHFXpqIZV4llFUaXfBCAwY0IrevgpcDGA7pkEr8Kao3htaVttI2PevyS2yzU+p663j/wcGng2gwPOFlMu2s4Yml3onWGo9i3h9q9ltWcG20+trO1kDiGhNTJrTk7Jt+1kAdTEqth+E4U4zG2ueZw1YM5mi1w4z79h7z/3A+eya3N2cnq+1lufvqcBBAL4FYFPWFFqBOSpyNu/+rH58/MwAuZT7YFfS2UlEpwJYxEToEzZSkYmiekeX+m+mi97v06VyNj1fP9fnGefIYF+YerClgoe3r4UZyZp2ldi9+r0uDO1pUOWXQES0BuOOiu3YVyNem1cAcCU3r9ay6ghuNbRo6/nr+H2+mzs7V0dlOspTM0Xvj+L5bynwAIATwM0r+rSFgGZHJ52tuXllBk6+DdO8SIeVl/jHy7Jn5HnQO63ObAHuhOKuLVLO4y0i4Yp+KFP0rwW02cQALCtI8k6atXPUAl2/ptefC+CzMVuEHpNvSExjDSCi/sgWy99TyNXx6i/xuiaccYUx8h5rwJpLd/Q2ilhzjFyUqlyVa3B+sKL/rkXVmj/P20FU9rWAg1SxO9extBpLBPgdQucXuUZZzDgM6isYgZmWH/R+NqBTAbhMhPrgDYXcI4I/u5b9QOtYef/DScOCor8Qgs8ZWObn8il3e176AViQdfiTVHRGzIr9fqDOhJkNspA1gIj6onm2buI5/myYelfzSijk6ELKuZE1YO0Z/BjhonzS2ezDc1vT83U9yw++qgi/AZX9AWzEq099UFaR6wKxz+UB7WbiBpbhJpd6xlqh1QKRo8BHRqnvPCgeheBehPomLMkZOaEWtBSS7jm83AM0qS55D0ERt8N578yn3IN59YmoL7Il7zZVHBqzYv81n3T2GogXyhCQKXrnA/ipiWWzRCYpdFNVfA3AnuBbA6nvAojeYAdBy7TGuvmMw1zcwIrNwrJ3vKjVosDhvO5Ey2gQblsYV/MCkxgYyw8lfh5ATazqEeRbhZTzR9YAIlqVbMk/QlXjdu5ir2q4faGhZi5rwMCY3FneyQrlKSZB9F8PiuqPcw2J5xiF+biRETNTOsqfD0XOAnAg06A4U8j8QsrZikkMrEzROw/Az2JWmV7vrXXG3zha3mUNIKIVzr/adYPQ9WcD2DhWCw3FObkGt4U1YGCli/6LAh3DJCjmHlTVMwsNiX8yivjgI2UxM70h8Y98yj0IIfYB8CQTofjS3zODgddV5/wSkHmxKrTgczXl4Ne8+kS0MqHr/QYx27wCpDNMOBfw6g/GsKN3MAWK7xQej6tgr3zK3Y+bV/HDDayYyje6f8mn3N0AOQgC3oZM8ev8BLcxhYHXtrl0i+hx8ZtM6ZRs0duXNYCIPikz19sbkElxK7coTiiMkR7WgMEIl3MYih8F/qEq38g3uHsUku4jTCSu3R8RgGzR2zcEfiHA55kGxfqLsT4AAG7eSURBVMAbo5POqBaRkFEMWp9yqwJN8ZpYyfyg295m1nayhDWAiACgeZEO87qC5wEdG7Ol5k35VOIo1oDB0aRqjyj5iwB8lmlQDDyrIr8s1Nu/58sgiHdgEQAgl3IfLKTcL6jKNxT4BxMhs8nt3LwaZKFzEoAPYlWroGPsOv9sXnwi+pC32D8/fptXeF9d9xRe/cHTJhKoyp1Mggz3hFrYP59ydygknTZuXhHADSz6hEKDc3ch5X5BgP0A/J2JkIkU+gemMLhyjbJIoT+PW7kFOCU7t7wzawARpTvKu0BwQuz6QdWfFsbI66wBg8vmY4RkridU5OB8yt29UO/eyzjoo7iBRStefKbcB/Mpd1e1sL8IHmMiZJD3lnjOXxnD4Nsy6V4Rwzs67dCS6c1PqcsaQBRfLQ+rIyLXArBjVXDBU4tT7jWsAYNvmNgPImZ3OpPx/qbAV/Mpd/dC0uEdhrRC3MCiVSrUu/fmku6eovgigLsA8NZNqu65teqdbROkzCSGYAEnElqh/gBAEK/1G7b1Rvo/Zg0giq+XN/V/AmCHmBU7tEL9QZtIwBow+K5ISi9E72ESVPXzJsFjoWLffMr9UiHlPsBEaFW4gUV9kmtwH82n3IOCMNxeVGfFbUFKRnV7vOV+KPuOxsRTKhK/b+MFZ08t9o5jDSCKn+zcngYFzoxh0a+Y3pDgOapDKeSchqq39gK4S1U/n0u6e85ocB9iJNSnlRwjoP6Y2VjzfK4hMUnCYAIgeQC8k4WqSbfXY9/PGIaWB/tMAItiVuwaH9Y1UOXbfolipEXVUsueBqA2VgVXvO7aDl9iMcTqfPvPAHqYBFWRsqpMVztozKfcgwoNiX8yEuoPbmDRGsk11nbkU04WllMP4HIAS5mKURNRI4ngvlnbyRJe4KF1Q1I+ACR2j9QJ8KVMyWtmDSCKjwVF7zgAe8Zu2mDJCa1j5X3WgKF11QTpUoB3rlA1WKLAb21xxhYanKmFsbUlRkJrOL8mWnvN83TdcuClBXIqgE2ZCEWzw5MbAiu8dMxY918tIiETGVqZovdnAAfErNgf2OJMmJaUV1kDiMw2aZ5uYQf+vwGMjFnR78un3K+zBgy9bLFnK4X1U0CyTIMi6j+iuNoPnStmjpO3GQet/XqOaAA1tWtipBN8W0VPBbA1E6GIWiyC56F4NBR5LBHaT7Q2yFuMZXBN6eypD0P7BcTs0RoF/lxIuQeyBhCZLVP0/gTg4JgVuzuUYJsZydp5rAGD6+iSrlMT+tuGFvYQxZ4AdgOwIZOhiCop9MoldW5r2+bSzThooHADiwZNtsPbUwWnA/gG6xpFnQKvWcCjIfQxS+Xpxb7zD76tcFD6hRYVxO6cFBU5opB02lgDiMyULvpHCfSGGBb9rHzKPZ81YGA1qdrDOsuNdmjvpII9AN0TQCN4/AtFfXNB8FgIubBQb98FEb69nga+jjECGmyZUnlHKH4ESBMAl4lQlegC8JQqnhRLnrRt+8lpW8kbjGXtHF/Smi71n10+EY+Tt1x1xvFOPyLzTJqjG9q2PxvAZ2O2UC0Oh7PtFUnpZS1YO+n5+jnxgy+I6m4K7ApgZwDDmQxVCU9Ubw4FvymkEs8yDhrUsYcR0FDJdOrmGvjHiWAqgM8wEapCrwJ4RgXPAPJMGNrPzGyQhYyln31ByfsyFA/HbQxSSKGQcjKsAURmSRfL1wvk6NgVPMQ++Ub3L6wB/TO1pJuFCHZEqDuqYAcAOwLYbC0HGK7qqBLeFMF1fuhcxfkwDRV2dTTkji9pzZIwOFJFTwGwHROhKveeCNpV8bSoPB1YwdMz6hOzedv0qmWK5RsAOSp2g67ga7mkez9rAJEZsh3+/ip6d/xWEDozn0xMZg1YTf2Yq6NCO9jJCnUnFewExc4QfI7JUJV7VqBXOyPc61tHCd9ET0M7/DACqqTJneWd7AAnqsh3ADhMhAzxgQhe+Oim1pj6xBy++fB/0vP1c+L5cwCsF6dyK2T+MM/e9qoJ0sVaQFTdsnN1pFrevwHZImaLh3c9y2mcVS//YS34WH34+GYV8AUAGzEZMkQI4G4BLsul3AcZB1VwDCKKxqAP8ZtV8EPwjSpkpi4RPKeKpwXaDpXZwy3nn3E+OyRdKh8nKlfGbuBVuSrX4PyATYKoyucuJb9VVY+J3+JBj82lEq1xve4fPWAdouMVmABgdwAbsFWQgd4HMMPynd9MHy8LGAdVfgwiipDmRTqsvNg7WkS+h2VnAhCZrBvAc4D8Cxo+o8BzQY87e9Z2siQOhW9RtV4q+U8I8PmYXXcNFfvNaHAfYhMgqk7ZkvdVVdwbw7n0E6OTzp5xuaN44nM63K71xguwHcTaEdAdAWwLoI6tgAzfJHgaolc7w92b+JggRaxuEkXT5M7yTlZoNQN6NPgmFooRBV4ToB3AbFF5OrDDdrHd9sIY6TGtrJPm9m5rW9bTiNsjxKoLypa77Q1J+YA1nqi6NM/Tdb3Aez5ujw4C8BW6i4lvGWt5WJ2XN+3dIhRnghXqThB8eGdVIwCLtZ5ioleAOwC08jFBiipuYFFVTBT9wDtSIccD2JqJUEz5gLwM6GxRPB1a0q4IZptwtla66F0qwEkxHIJb8ynnWFZtouqSKfrTAc3GcNVwST7p/rjai5Gdq6Ng+eND6ARLsRNEPtysqmXtppgqqWB66DvTZo6TtxkHRXsoIqqmSUeHtycEJyhwKACXiRChDKBTVJ8OLWkHZLalfnsuWTO/Wt6E2LxIh3ldwQuAbhWza6ei8o1cg3MPqzFRdZhS9L8RQu+KX8n1pTrP3aaaXkBx1AJdv7bHn7DsnCqZIIKdVLEdgBGsyUQIANwjwGW5pPMQ355N1YIbWFSVsnN1lFp+BpBsDBe9RH3xNoAXVKRdNHxBVNrDhPPvwhh5L4ofNjPX2xsWHozhuLSwt8bZ5sbR8i6rLFG0LXt00P83gM1it2AQfC2XdO+P4mdLz9f1rLK/tYpOULG2EdUJALYBXwpEtKLWPA+q093AKbSOl9eYB1VdDWYEVNVUJVv091CRiYB+F8AwhkK0yk7/XQAvQnX28ju2XlQJX1xa485u21y6K/nZsh3lmcvacuyuSi6fcqawdhJFW4z7qHw+5VT0kckPz6gC7K0A3UohEwCMB2QrQMdwTUO0Sv8724p3W1H1r2WIzJCer+tZnneEQr4PYHsmQtQvH56x9SIgLyrC2RakHQheHKrHESfN0Q1t228HsHHcwleVwwoNzu2shkQRnWOU/INE9Y7YFVzxuuU7E6ZPkHeG4p87aoGu73reVnZgTYDoeABbAdiKZ1QRrZG5KigInFw+KW8yDjIBN7DISB95g+F3AIxkIkRrpRfAvOVvRnwR0Beh8v/t3XmcHVWZ//HvU7dud4csEFSQCIQkfbsDYVFAVMAFlxkXQEWDyJJ0d2JURnRc+em4NDrjqOO4MaDGpLsJgkpEZHEFQVlFAQFJSPftJIQlLAqBrN331q3n90cCgmxZeqk69/N+vfJyJmSr76mqc85Tp04tHYzi24f6K3ptvckJZv6j+psj6v5CNd5/pCaJALberDv9BYUouUOmF9ffTMFmdpfinw7lH3la2RvXqtJsKuwn+VRzm2rmM9x1gKQJnHHADhkw6VLxJUGE2i0RAULWsczHe1R9t8vaTHo15zww5O6Tq09mfe7eVzDrrdaS8s5x46ozSza4PX9ge1/1EknH1F2H7H5uV2vDLE4pIFva+yrnSXZi3d2TTD/vKhXfuT2/97SyN26oDe6TFuKWKPUWN2uRvMWlVpP24KwChpRLulrycywt/rRruq0jEgTbNxEB6mYA2u97uScnmttcyZtJBBj2DmbzfltP/Nj8eqJUW7Gu1LhqsVntmX7flo80LJG0S/2NQO1dPS3xzzh7gIyMHcrJ2+X+8zo89LUFi2csKNm9z/YLHn/dzzya+vhKqs0f1rGpkk+WVOAMAoZ11HCPyc6vWe0H55SalpMH6mR+AdQfXjEERl1VsnskX2Hu98ts9ZMLXDWL3hK5/V8d5vK3JIr3P7fZHuIUAUbXvF5/YdWSO1SX+/L5vEpT8afPUKCaZNIeLu0rPpwDjIa15n6xzBaxITvqEQUs1PfgdLXvVNlQe1fkPtuloyRFpAJkwobNXZSPrb9D9x91tzScyCkAjK6OvuoFLs2sv1uQNmyZIYzlLAAyIZX0OzM7Jx5buGj+JNtIJKhXFLCALeaWfc+aJydIOlnSQSQCYPR656HfOBnA1mvvTd4j8x+TBIBRdIu7zksV/2RRq91HHAAFLOAZze0b3Df16D1udhL7ZQEYBX8vxPH+C6bag0QBjKz2sr9IntwhaTfSADCy/B7JLnJ5d09Lw63kATwVBSzgeWzeL8tmSTqBwSyAkRvD6uLu1uI7CAIYWW191Z+a9C6SADBCE/I1cr+Mfa2ArbpeAGyNeTd5sbJz7c3m6XslO1bsDQFguLmd0N0a/4QggJHRUU5OcvcfkgSAYbZe8ksiRecX1hZ+O/9QqxIJ8PwoYAHboW2lNympvSlK05lu9k5J40gFwDB42Ivx/j1T7AGiAIbXvKW+RzVO7pC0K2kAGAYDkq4wt8VNSeFnZ8+w9UQCbBsKWMAOOnWJj9tYrB1r7sfL9GZJjaQCYAhdY2ntfdW4cc2YR7WGp7TA0Jl3kxc37aKJhVplV4ui78n1WlIBMIQGJP3K3S6oDRQuPfcg20AkwPajgAUM5UB4te9U2VB7m7nPkvQvkhpIBcBQD4ZdWmPSGjOtcdcac1/jZmvMtSY1XxN5tCaNtCZKfU0tStcUag1r9r5fD3UeZQnxIUQz7/Ex4zdoYq1QmVhIo4lpZBOjVBNTSydGbhPdNNHcJ7rZRDNNdNdElyaatLukiAQBDKGapKvM7dzBqPDz80q2lkiAoUEBCxgmJ67yiY2D1XdIdpykN4mVWQBGl0t6RLI1kq+R9IjJ17iitZI/6qaN5tpg8rWpR2sVaYOnvlEFf7SQpOujQuOGjQ3acP7eepQNZjE0Z6TbiXdrl8aqxlkyuFMtjsapZrsUIhubptopsnSCyya4aaxcY022symdkMp2NWmiZBMl31XSRMa0AEbZgKTL5XahNxQu7plijxIJMPTo7IERcFLZJzR47W2SHyfpLWIDeAD5tlHSBsnWSb7WTBtS14ZIesxl62XaYO4bUtMauW+UaYMUrYvkj5lrIIl8Q+Ry8/RRSXJrXDfYoKQaaWDxXraJeLNj5j0+ppiqqbGi2Hxw/Ob2inZJTRanNjY1jXHZBCkdL9fYyGysXLv45v8da/JxLu1ipp3cNVayCZJPkLTTlh8AkFfrbfPrgReaF37ZNd3WEQkwvChgAaMwGRi/sfZmV3qczI6WtAupAMBT1ExaK0kuf0yKUsk3mjToUlXS+i2DmDWbf42tl1Q1aVDyjW5KXXps86/xteaqPfkPd4s2ujT4zAOjp//6J/5Rka95pp8v1JTI0ueeuHg0vlZQ/Iy/P7WJz/hbTIXNxaFnHMA1mqc7PduvN2lnc0WS7eSbVwAXTT5uc156/O8bZ1Jx83+3naQ0MtnOW37NBEkFTkUAeMq9d43cL/MounB9U+G3PHQBRvwaBDBaZi7xhvFx7Q0e6Ti5HytpN1IBAAAAMuMhM7vY5RcWH4uv5GMqwOihgAVkRKd7tHJ59WWFmh0j09EuHTI8f5Nz6QMAAADPPk1eIfllJl26933x7/kICpCRK5MIgGzq6BuYmio6xmRHS3qd9MyvnkDU5AAAALAjUpP+ItdlHqUXdJcalxIJkD1M+YAcmHWnvyCKa6+P0vQYN3uHpPGkAgAAAGy3TZJ+Z/JL02Lxkp4p9gCRANlGAQvImZn3+JgJm2qvr0lHm9K3SrY3qQAAAADPx+8yj36ZSr9QQ+HKnik2QCZAflDAAnLun141fK2kIqkAAAAAqpl0q1yX1Qp+6TnTirfIzIkFyCcKWEBA5izxXWsNtTeY640uP8akPUgFAAAAdeRhk66U22UDTYVLz59sa4gECAMFLCBQM90L4/uTw9z1Npn+1V2HGNc8AAAAAuLubmY3ufRrk/9icqn4506zlGSA8DCZBepER1/1UpeOJgkAAACEwl0/72ktvpMkgPBFRACEr9M9cumVJAEAAICQmOlVcmdhBlAHKGABdeDuvuoBkl5IEgAAAAjM7nPLlenEAISPAhZQB1LTa0gBAAAAIarJGOsCdYACFlAHjE4dAAAAgXLp1aQAhI8CFhB8j+4mOnXU41AWAADUBZO9lhSA8FHAAgK3ZU+A3UkC9TaUBQAAdWPPjr6BqcQAhI0CFhA49gQAAABAHUxtGfMCoV/lRACEjT0BAAAAEP6YlwIWEDoKWEDgjAIWAAAAwkcBCwgcBSwgYJv3ArC9SQIAAABh82nt/b4XOQDhooAFhH2J8yQKAAAAdcHTGm8eACHPbokACLgTD7SA5aZHaV0AAIDtHk1tDPTAKGABAaOABYQtxE68d0Nz/MLU0v3Nbbak75h0s6SU5gYAAHgmtsLcz3X5v6eRHzq5VBzvspXBHaX8tbQ1EPCdjAiAMM1d4bvXkuSB0I7LZd/raYk/+M8/37HMx8uSg9JIR5jrSEmvkPQizgQAAFBn1kr6k7muSyO7uVApXLdwhj3yz7+ovS9ZKHlHaEPFWi1+0aJ97WFOAyA8MREAYUqS2hEhVqjN9ftn+vmu6bZO0rVbfnxVkjqW+aS0UDvC3I800yHuermkBs4OAAAQiJqkXnO/WaZra+bXndPcsFRm/ry/03W1TKEVsKxQqL1K0mWcGkB4KGABgTLzw+UBHpcXrtnaX9s13VZLWrzlh065zccWm5KXpeaHRK5DXHqNzCZztgAAgFxwPSDTTea6OY3sZsWFa3qm2KPb9Uel1T9YIbzpoLsfIQpYQJhzXCIAwtTeV71B0isDO6xyd0uxZSj/wFnLfe8oqR0s84MlHSzpYJP24AwCAACjbLWkW+S6xWV/SePCLYum2d1DO16srJJs75BCc+nqnpYie2EBAWIFFhCgmff4GG1KDg7tuNzt6qH+M7cMBO+W9PPHf+7EVT6xaSCZ8cRKLbNDJO0riv4AAGA4xjjS/Sbd/PjKqoZq4ab5+9n9I/AXXy3TySFladLLZy7xhsUzrMKZBYSFAhYQoLEbk0Nl4e31FElXj8Tfc/5kW6N/7KclSZq33HdOkuSAfypqTRdfcwUAANvgn4tVNSvceG6zPTQa/xYzXeMKq4Alacy4YvVlkm7kbAPCQgELCFGkIPe/StPq1aP1d8+fZo/pn4paT3z5cEtRS2b7uXSA2CgeAAA8vsG6tESupWlkN6dJ4fpMfSEvTf+gqBBc8O52hChgAcHhdRggQO191YslHRvYUOTu7paGzG+4PnOJN+zUUCkV0sIhbn7Ilq8fHiKpiTMTAIBgJZL6zP3m1HRz5HZzdSD+y7kH2YZsD6/c2vuS1TK9OLD2+Fl3S/FdnJZAWFiBBYTG3VROXhXecenqPPwzt+y3sGTLj0WSNO8mLw7uXGkxFfaLUp8h034uzRCvIAIAkMMhie63zf38UnO7uVZIl2xsLC5dvJdtyt3BmLn1Va9xaWZgzXQEZyoQHgpYQGA6egdbPCq8KMDB4tV5/bfPP9Sq+kdRa/HjP//k1Voy31LUsv0kn8qZDADA6DJpjUxL3W2JK10aud3clMS3nj3D1od0nKn8GpOFVsDavaNvYGpXS9MKzmQgHBSwgMB4FB0e4nFFnl4d2jH902qtJzz+FcTNRS2bIWk/SQdJehFnOAAAQ26tSWW5L00jWyLZUsWFP3dPsQfq4eDT1P9QiMLbWSa1+AhJFLCAgFDAAoITvVLh7eD+YFdrY1+9tOAzfQVRkjqW+SRFyX6pfIYp2s/MZ7jrZZJ24rwHAOB5VSWVn7Sp+hJXbek5zQ1LZeb1GsrU1oY77i4na1yaGNSIONUrJZ3LaQ+EgwIWEBiXvzLArzNcV88Dy8d1TbfVklZLuuLxn+u8yuO7JlWaLSrs7/IZkft0yUoutUgazxUBAKhDa00qu7xPZsvMbUlSS/66aXrj8sVmNeJ5qk6ztL2veoOktwZ1YOavoHWBsFDAAgJyym0+1pTsF9pxmet6WvdZBp1HWSJp2ZYfP33yfztxlU8sVqtTC7Vohsz3kzRV0tQtG8jzVUQAQJ4lkt0t+QrJVrjSpZFsiVRb0VVqXMmDr23jruvMwipguXTgzHt8TC431wfwjChgASFd0Dslh8rDu67TyK+jdbfdllcRb97y4wmdV3l890sG95YKUyWf+o99tmyq5FMkGekBALLApDWSVjxpf6oVbumK3H71L6s5R7ouvB0oVBw/kLxU0g20MBDIfJcIgIC4QlwqPThexb/QuENny6qtFXqGjU1PK3vjWlWaTYX9JJ9qblO37LV1oHglEQAwTH29pOW2+aMmKyRfIbelg1F8+3klW0s8w299U/yncZuSiqSGwAbHrxAFLCAYFLCAsIRYwPrzmSUbpGlHxpasn/ZlREmaW/Y9a7WkxSJvcbNmuaZIT/zYhfQAAM/hUUkrJa2UaaW593tqfYVC3LegZPcSz+havJdtauur3mrSYUEdWJgPd4G6RQELCEtwnbRJvD6YEVsmGPdKuvKf/9vMe3zM+E2Dezz+WuLm1xGf2HOrVdI4EgSAoFUku/eJPans8f9NVxSS4v1bPkSCbLtegRWwXNFhNCsQDgpYQCA6lvkkV/KS4A7MjA3cc2DLPiTP+Fqi9I8N5c2jqY+/mviPQpfvTX8EADnokh/fj+qJH5uLVFJtxd6lxrs6zVJSyvOQy66T+7+HdVQ+9ZR+3+3cZnuIFgbyjwkDEIg0qr0ywJ233VVg34IAPNuG8pI07yYvJuP0olpc3eNZClz7SIpIEQCG17MVqGqW3r+xqWEFm6aHzePCtVZNgjuuhrT2ckm/oIWB/KOABQQikh8W2sdjzFTuKtnfaN2wzT/UqpJWb/nxtALXaWVv3FDTC54ocHk6KZLtIWmqTJPcbQ/JJ0sqkCYAPEufKq1x6f7N91pbYe73y3z14wWqQq3h7q7pto6k6lfPFHugrS9ZaZu/SByM1P0wUcACgkABCwiEuw5TYEuwUuf1QTyxsfyzFrge96TXFCdFnu4h2VS5T3KzPSRNkjRZ0lgSBRCYiksPR9LqzQUqW+3mK6LUthSoaivitY33bHlYADzf6Ot6yYIqYMnYyB0IBQUsIACd7tGqcnJIaMcVKeX1QWy153pN8XEnrvKJxUplUsGjPSSfKrctBS6fZNIeLjVL2pk0AWTEgGSrzfx++eYCldvmFVRR6vfLaqvXlRpXLTarERWGZOzlusFNJwV2WIfSskAYKGABAbi7d7CkqDAhtONKUv8jrYuhtKXItUbSkmf7NTPv8THjN2jillcWJ0WpJqaR72GuSSbt5fJjJeN1RQA7yFO5/mDSvTJbncrvjzxaI/PVW17pW9PVqvtl5mSFkTstdaPC21T1BW13btqnZ98xd9HAQL5RwAICkEbxIabgxrcbpt7fsJTWxUjbsknxJj3LK4vtvZW5Mv2ApADsCPOovas1XkQSyNTkcH3xtuqEZJOkMSEdV1QoHiLpLloYyPm1TARAABey+SEBHtZNnUdZQusia7pbGxZI+mldh8B6EGBHXUTxClm0Za+0W4PrtsIcKwP1N+8lAiCATtkVYqd8Iy2LrCp6/EG5HqjbAIxzANgBq2u1+H3EgMyOK0Mcgzn7YAEhoIAF5L5DdpP00vDGGUYBC5k1v9X+rkhtYi0SgG3s3sxt7qJ97WGiQIbP0hDHYIdsGTMDyDH2wAJyrqN3sMWjQnBfTUu9QAELmdZdKv6mvS/5nuQfrNsQTDVJ33Lpb+YaL9dOMhtr8okujZW0k0njXbaz5E0mjfXN67d24QwKwqMmuUsbJBsw+WMurXNpQyRtdNkauW+QaYOb1kfSbi59RK66/QiCS9/ubo1/xamDTE8QvXpjzYKbJu7atmxgcg/7YAH5vj8RAZBvgW7gvnpRq91H6yLriuMKn6iuT46SNL1OZ+MFuU5qqMUHz9/P7t/W396xzMcPjFHctEljFA02JTXFVozGS5JqtkvBZG421qWGSGqQp2NdMjfbRZLMNd6k2KUmyca4qxCZT5CkVNrZ/rHSfLw9y5hnc3Ht6SvSXbJIvsuzFCFiSeN3ML11Jj3jPn+p7FF75tV9qckfe5Z/U1XS+i3/dxpJj0lS6rbWTDXJN5k04FLipnWb8/PNf49FG1KpYlLF3DfUXK6CPypJZunaqKZanDRuWj9WA02blHRNt3XberBzV/jutSS5RVI9f8Fz6YYx8We4cyLrFkwfs7K9r/qQpN1COi42cgfyjwIWkHNmfnCALzGx+gq5MH+SbZzdXzk5Su16SQ31eRPSi6txsmim+5sXm9W25bc+qRCyJpQ4Tit748MN2kmSXlDRxjNLNljv18lM90KtL/mRTJPqOIZBl5+05SunQOa59GeT3hbUMW3eyP1CWhfIL/bAAvI/wghxU8o/0rDIi3OaG242V72vqnjjuL7k85wN0pklGzx/sq05f7KtoXi12bj+5EsyHVXffbV/oqel4VbOBuRoknhjeJeh+BIhkP97E4Ac98RBbuBukf5M4yJPulrib8hU3/vamD7bXq7+K2cDnqytN3mrXKfXeQyXdLcUz+JsQK6GmKY/hddNUcAC8o4CFpBjc5YPTpMU2gbuHlt8C62LfI2KzaV4tqTVdT2mcJ3fduemfTghIEnt/b6XmZ9T5+PN+4oez9l8jwBydEOvxH9WeF/afcGs5b43rQvkebAJILc8jQ8Krw6g8vxp9hiti7zpLtnfZDpRUq2OY9hVhfgnM5d4A2dEfZt3kxdVS34s6YV1HEOqVLPmt9rfOSOQNwtn2COSrwpu8pvWDqJ1gRxfw0QA5Hlk7MF1wu5+My2LvOouFf8g09fqOQOTDhtbTL7K2VDfKjvXvinT4XV9Lbi+1D29eCVnA3I7JpPdHN516RSwgByjgAXke6IY3gosNwpYyLXJ98afl+v6Or83/Xt7OXk3Z0N96ignx5v7v9V5DNesa4m/xNmAfI/JFOKYjAIWkGMUsIA8C/ApUhqJAhZyrfMoS1SIT5D0SJ3fn7rbegenc0bUl7blAyV3/0FdT/qlNVESn7LYrMYZgVyfyxEFLADZQgELyOskYaXvIrPQNqJ0xfGttC7yrrvZ7jHZvDqPYZxF0QXzVvtOnBH1YeY9PsZqhQskTajnHFK3joX72SrOCORdksQhFrCmnbrEx9G6QD5RwAJyqlBNDpRkIR2Tmco9U+xRWhch6GqJL5Rsfl2H4Dqgur52JmdDfRi7qXa2pJfWcwYmO7OnNf45ZwNCsGhfe1ge3Ebu0caG6v60LpDTC5gIgHxK5cFNEtjAHcGd08XCR1y6vc5T6Gjvq7RzNoStrbfyPpO31XkMd6wbUzidswFBsfD2Jo28vgvtQK6vXyIAcnv5soE7kHE9U2zALT1R0sY6nwGdPadceRlnRJhmLRs80My+XecxbCgoPX7xXraJMwIh8QA3ck8DHEMDdTMDJgIgt0OKAwIcJP2FdkVozik1LpH8Y3UeQ5PLfnxS2SdwRoSlbaXvUogKP5M0ps775NMWtDTeyRmB0IS4kbu5H0jLAvlEAQvIoZnuBUnBvb8f1djAHWHqbmn4vqSf1vX03tXS4Mm5ne6MPQLR6R6pmvxQ8mn1nYT/qLuloZszAiFKLA7v4aLpQPoiIKfzRSIA8md872Czgnva7XcvnGGP0LoIdopbjN8n+V11HsOxd/Unn+NsCMOqcnKGSW+r7xRsRbFQ/CBnA0J1brM9JNcDgR3WuHt7BybTukD+UMACciiN4hkBTgJuo2URsp4p9mjkeo+kal1P911faOtLjuOMyLf2cvJ2Sf9R5zFU3dKT5k+zxzgjEPaNW8GN0WpRcQYNC+QPBSwglxeuh9jpUsBC8Ba2NvzJXZ31PhUyeU97eXA/zoh86lg20Cr3cyRZnUfxmZ5Swx85I1AHghujmfn+NCuQx3kwgNxxC7CAZazAQn3YpyX+iqQr6jyG8fLoZ/OW+86cEfnSsczH++ZN2+u97X4zuRR/gzMCdTHuDHCVvKfOCiwghyhgAbnsdS24TtejhAIW6kKnWVqI45MD3FNkW7VWk+QcuRtnRV5u1G5plHRLqvfVcw95MW7rNEs5KVAfw85aeGM0MwpYQA5RwALyNvm9ymNJpcAOa8M+UxuX07qoFwum2oNeULskr+sgTG9vLyf/wRmRD239yedNeledx5C6dHLPFHuAMwL1Ysq9Db2SBgI7rH23fNUbQI5QwAJy5t6XVEqSGgM7rL/yJBv1pqe5+GszfZMkdMacvuRtxJBt7X3J0eb6fL3n4K6v9bQUL+eMQD3pPMoSSUsDO6ymsSsGp9K6QL5QwAJypmYFvkAIBCJ+LP5/km6s97FIKv/hnP6BZs6IbGpbPlCS/FzGjfrzhiT+AmcE6lOAY7Uk5jVCIG+DRiIA8saD23vELb2ddkU9mn+oVaOodrKkdXUexS5pWrjo1CU+jrMiWzqW+XirFX4uaZc6j+KxQpq8Z/EMq3BWoC5Hn0r5EiGAUUcBC8ibAL+aEqVGAQt1a2FzU7+ZzSUJ7T/QkJzLpu5ZmrG6KUoWik3b3WRzFkwfs5KTAvXKUvtrgJf2frQskLN5IxEAeRtBWHCdbZLGd9KwqGddpfgCk51Z7zm46x0d/cnpnBHZ0NaXfNqlmXS7+mZXS3whZwTqWaEhXhLgxc0KLCBnKGABObLlaylBfYHQpfsX7WsP07qod/Hawsflur7ec3DXf3X0Jm/hjBhdbX3VN5npiyShP66rxJ8mBtS7BVPtQUl/D6vDUYkvEQL5QgELyJGd+gf3UWBfIDRpCS0LbN4PS4X4hOAmCNszNjE/b3Z5YBpnxehou3PTPib9SFK9T+weiZL4BPa9Ap4Q2pitaeyygb1oViBPg0QAuWFp3MpgCAhXd7PdY26zJKX1nINLE80LPzvlNh/LWTGyTrnNx1ocXyLpBXUeRSrTiQv3s1WcFcCWcahbcGM2i4McWwPBooAF5KmTjdLgOll3p4AFPElXa/wrSf9d9/c76cB4TLKITd1H9IZs8U7VhXIdUPdRmL7YXSr+hpMC+Ic0SsMbs7lTwAJyhAIWkKtONgquk7WCUcAC/snkUvx5SZeThI7rKCefIIaR0daffEpu76n7IExXbmiO/5MzAvjnSyPAFVgBjq2BkFHAAnLFp4d2RINFvkAI/LNOszSJ4pMlra77u570lbb+6ps5K4bX7N7qG8z1XyShe6X4hMVmNaIAnqqWxHcE18eYt9CyQH5QwALyNZML7SnRfedPtjU0LPB05zbbQ2Z6t6RqvY9VLNV5HX0DUzkrhsecpT45Mv1YbNqemOu93SX7G2cF8HRbvhr9YGCDa1ZgAXkaFBIBkA8nlX2CTC8O7LCW0rLAs+sqFW9w0+dIQru6ChfOW+07EcXQmrfad0rj5OeSXljvWbjr9K7W4rWcFcCzMymwVVi2Jx8MAfKDAhaQE8W0GuITIl4fBJ5HT3P8NUkXkYReWl2fnMum7kPI3ZL11YWSXkoYuqSnJf4mMQDPLTVbFtghWWFMtUTLAvlAAQvIS+8ahbfJpJv30rLA81385l6MOyRbQRg6rqMv+QIxDI22cnKGy04gCesvFuJZMnOyAJ7navG0L7xjYiN3IC8oYAF5kXpwT4c8NQpYwFbomWKPWpq+R9JgvWfhps+39yZ8KW8HtfUmJ5j0WZLQgCudOX+aPUYUwPOz8FZgydjIHcgNClhAbiZtPi24Y1K8jJYFtk7X9IabZP5RkpDJvKe9r/IKotg+7eXKwWa+UBKvY7qf1tPScCtnBbB10iQJbgVWKuMjIUBOUMAC8jNjC62AtWFRi1bTssDW6y41fFfmi0hCTS67aG7Z9ySKbTNvqe8ht4slsSG+/Pzu1oYF5ABsvX2mN90taVNYY+zwHhIDoaKABeRHaJ1rL/uNANsu2Vg8VXzBUybtUfPkEr4etfVm3uNjKpu/OEjhT7qjOK74PmIAtk2nWSpTf2CHxQosICcoYAE5cOoSHyfpRWEdFRu4A9vj3INsg6W14yStIw29rDAmOYcvE27NLddt/KZql0mHEYbWF5QeP3+SbSQKYHvuJwptDDdp3mpnVSqQAxSwgBwYiKvh7X9lbOAObK+u6U297jaPJCST3tXWn3yeJJ4bXxx88kljH1zQ0ngnQQDbewkptH2wrLqhsg8tC2QfBSwgB1KLpgV4UBSwgB3Q0xr/2GXfIwnJXF9o70veSxLPrL2cvJsvDm45V2RndpfiH5IEwBjuyVwF9sECcoACFpCLAbcH925+IUopYAE7qlj4qEk3E4RM8oUdyyqHEsVTzemtHCb3ReKLg3LpT2Ot8EnOCmAHryULbwwXKaWABeTiWgWQg0F3cF8g1ICKy2lZYMf0TLEBS+J3SXqYNDQmjewSvkz4Dx3LfFJqdqGkMfWehUlr4jQ54cySDXJmADum6OGN4dxtCi0LZB8FLCAf3WpoK7D+dl7J1tKuwI5buJ+tMrMOSXX/VU+T9qgpuWjmPV73BZt5q30nj5JLxRcHJSk12SkLpo9ZSRTAjpvfan+X9FhQI+3wvvYNBIkCFpCLSVlwK7BW0KrA0OkqxZe49J8kIcl16LiN1Z66/jKhu1XXJ+dIOpgTQnLTFxe2xL8gCYCx3LOPtSlgAXlAAQvIuE73SPK9AptO8PogMMT2KcWdki4jCUlmx9fzlwnby8kXJb2bE0GSdMk+zfGXiAEY4pFceA8jJ9f1gw8gJyhgARm3ok97SGoIa9BjFLCAIdZplloanyjpTtKo3y8TtpeTd0v6D84AyUx9xUI8q9MsJQ1giK8vKbSx3Jj2fr2QlgWyjQIWkHFxlOwd3o3HeYUQGAZd022de3qcJPaY2/Jlwjm9lcPq5YBn91cOkfs54ouDkrSupvS4+dPsMaIAhuMGG95q+tSqe9OyQNbnkQAyzVMLrjM1GQUsYJj0tDYuc7fZYlN3SRpTM/t5PXyZsGOZT4pSu1jSTjS7XGYd55QalxAFMGyjueDGcoVaRAELyDgKWEDWhwfmwXWmVY95hRAYRj2t8c9l+gpJbPkyoScXz1vtwRZ2Zt7jYzxKfi7pJbS4JNeXukvxTwkCGMZJZJoEuAIrpYAFZP3eQwRAxsfhFtwKrIGpLbqflgWG1+Tm+LOSfkkSkqSDK+uTRUFu0Otu4zdVuyS9nGaWXPrt+pb4iyQBDK/HWpvullQJ6ZjMbC9aFsg2ClhA1qWhfYFQd7GhLjD8Os3Swcb4ZPHRhM0TE+ldbeXkjNCOq70/+S+XnUALS5LKKsbvWWxWIwpgeG2+zuzuoPoJFyuwgIyjgAVkf9Y1ObAjWkWjAiPj/Mm2pqDaMWJT9y23U32uo6/ygVCOp6NcmSPXp2lZSdL6KEqP65lijxIFMELc7wnqcEQBC8g6ClhA9gXVmZqF9bQOyLoFLY13mlub2NR9ywTFvtNRrv5L3o+jrb/6Znf7Hi26uVnNbM7C5sY7iAIYyUGdBzWmo4AFZB8FLCDDTl3i4yTtGtTgwJ0CFjDCulrjiyT9D0lIkoru+mlHb+WgvB7AnP7B/S3VjyXFNKck01e6SvEFBAGM8JgutFcIpRefVvZGWhbILgpYQIZtjCvhffrd7R5aFhh560vxZyRdThKSpPFudtmsXs/dV/va+32vNI1+LWlnmlGS9Jv1zfHniAEYeRbeQ0nb4IN8zRXIMApYQKYHBtGk0I7JI2cPLGAULDarRdX4BDZ1f8KeBUt+PW+556YQ1LHMxytNLpXEBGtzj3JX0eOT2bQdGKVxahTethC1tLAHLQtkFwUsIMsKFlwBK/IarxACo2ThDHukltaOk7SBNCRJ+1dryU86r/LMv4o37yYvplHyU0kH0WySpE0yvWt+q/2dKIDRkaZpcGM6C3DsDQQ1lyQCIMOdqHtoT4HSddXGe2lZYPQsmt54u2TvI4kn/Otdk2qZ3wy9MqH2HZP+hebazN06uksNt5AEMHoaxjeE91DSUwpYQIZRwAIyPUBXaAWsBxbPsAotC4yu7pb4R2b6BklsZuZz2nqrn8nqv6+9XP28yT9AS23pG6X/6WmNf0wSwOiaP8k2SgpqFWQk4xVCINPXKIAsT6pC60R5fRDIiL3vjU+X6UqSePx+q/9s60tOzNq/q6M3mSVXJy20pZ2k3+1zX/wZkgAY2w0HD2/sDQSFAhaQYamCew+f1weBjOg8ypKoEs902UrSkCSZyXtm91bfkJV/UHu5+lo3ny/JaB5J7qvc4vd2HmUJYQCZcV9Y9xn2wAKyjAIWkOXZVGAFLJPdT6sC2bFwhj0ipcdJ2kgakqRiZLqw7c7BA0b7H9JeHtzPXBdJaqRZJEkDaUHv6i7Z34gCyNTobnVgB8QKLCDDKGABmeYvDupo3ClgARnT09Jwq5nNI4kn7GwFu6Rt5ejdf+ct9T2U2i9dmkhzbJkiyz94TnPDzSQBZGxsZ2GN7UxiBRaQYRSwgIzqWObjJY0LalBgFLCALOoqxedJ+g5JPHG32seqySWn3OZjR/pvPnWJj6vGyWUym0w7bJkgS9/qamnoIQkgg5PJwB5OujRx5j0+hpYFMnrPIQIgmxIfDG4JsxuvEAJZNfm++OOSLieJJ7w8HpOcP9O9MFJ/4Uz3wsZi8mNJBxP/E5PJ3+5zX/xJkgCyeo1Gob1CqJ03DLyYlgWyiQIWkFFmhRcFd8Ox9D5aFsimzqMsqVj8bklLSOMJx44r184eqb9sXH/tWya9jdif0Kti/B42bQeyPGBNgytgJVZ4IQ0LZHQ+SQRARscDZsEVsDTYsJqWBbLrvJKtNdWOlfR30nicz2vrrX5suP+W9r7qp+T+IfJ+wiNeqB3TM8UeJQogu4rVYoCr66MX0bJARq9OIgCyKg2t8xxcuJ/W0K5AtnW1NK2IpHdJqpDGZmb6eltfcuJw/flt5WSmpP8m6SdUU9fxPdOaykQBZNukffWgpKBWSUYSK7CA7F6fADI5YZKF1Xm6PyAzp2WB7FvYUrxa5v9OEv+4JZt8QXt/9fCh/oM7eqtHmvsixmRP6TBOO6e1+DtyALKv0yyV9FBg9yBWYAEZxWAJyGrXadotsOnfA7QqkB/dpYbvutlZJPGEMUr1y47eykFD9QfOLg/OcNPFkpqI9wnf6W5p+D4xALnyYEgHk7ICC8gsClhAZgX39OdvtCmQLxuaCx+R9EuSeMLObvaLtjs37bOjf1B7v+8Vuf1K0q7E+oTLt3wNE0CeRqzBjfGMFVhARlHAAug8R+p4KGABObPYrFax+L2SlpLGE15iheLlc1f47tv7B8zr9RcqTX4r2V7E+YReL8bH88VBIIcjPPnfAzseVmABGUUBC8hs5xna8mWngAXk0JYvEx4jvkz45PtZcy1JLj11iY/b1t/ZsczHJ5b8WtJ0cnwCXxwE8j1qDW2MxwosIKMoYAHZnSAF1Xkak18gt/gy4TN6+aaG5OLTyt64tb9h5hJv8ChZ7NIhxPcEvjgI5F9YK7Ai9sACsooCFpDd7vMFIR2NB7a8HKg3C1uKV7v5R0niKTe216/3anen+/OOpzrdo3Fx9VxJ/0pwTwmRLw4CeR+xBjbGc6eABWQVBSwgg2Yu8QZJO4V1s4keomWBfOspNZxtbmeTxFOmbu9dVa793/P9qlXl5BsyO568noIvDgJhjPJCe4VwZ7kb7QpkcU4JIHOaGrVLcAflKXtgAQFY11L4sEy/Iomn3OA+2N5X/eyz/deO3mqnpI+Q01PwxUEglDugBbfKvnBSv8bTskD2UMACMsiqg7sEd0xeo4AFBGCxWW2wIT7JTH2k8RRfauurnPbPP9nRV/mAm75APE/BFweBoIT3kLIQBfgwGQgABSwgixdmFO0c2jEljU1raFkgDOdPtjVJUjvGJK7rJzHZN9v6kuMe///byslMl51FMk/xSBTVjuaLg0A4PG54JLixeKWyMy0LZPDaJAIgi7Mg2yWwI0r32UdraVggHIv2beqTdLwkVtH8Q8HkP2rrq76po796lLmfy1jrKaqp6/iFzU39RAGEY3wS4MOMKNqFlgUyeGkSAZBB4RWw1naapTQsEJauluIV5v7vJPEUDeZ+kae6RFIjcTy5b/OP8MVBIDxnlmxQ0kBYs+TgxuJAGJcmEQAZlKaBdZr+KI0KhKmrteEsvkz4T8zGShpHEE/xne5Sw3eJAQiUK7Sx3i40KpA9FLCATM59LLD37tnrBAjZ3qsLHzGJlTVbZnF4Gr44CAQ/eA2sgOWhPUwGwkABC8im0DaOfIwmBcLVeZQlA43xTL5MuHkWh6fgi4NAfXg0rEkyrxAC2bw2AWTRhMCOhwIWELjzJ9uaNKodLenvpIEt/pZa7W18cRCoC0GN9Ty8sTgQBApYQBY7TbexgR3RGloVCF/PtKZy5P42SRtJo+5tMtPbzyk1LScKIHwW2FjP3HaiVYHsoYAFZLHTtDSoTtMUraVVgfqwsLXhTzKbLYkvj9av1NxO6ioVbyAKoD64orBWYFk6llYFsocCFpBJYa3AcjkFLKCOdJfin0o6nSTqdSLrH+tqjS8iCaCurvx1QY3ExQosIIsoYAHZFFSn6c7rREC96W4pft1kZ5JEnU1hZd/raWn4NkkAdXfxBzXWSwMbiwOhoIAFZFNQK7CiyClgAXVoXanwUTP9nCTqxmUbSoUPEQNQfzwKq4BlgY3FgWDmlUQAZHAQEFinmabaQKsC9WexWW1dU3yipD+SRuBMNyWb4hMWm9UIA6jDW0DqoY31KGABGUQBC8jkPCCs9+6jKGIFFlCnFu9lm2TxsZL1k0aYXLayUIiPPvcg42EFUK/3gSi47SJ4hRDI4rySCIAsTgacFVgAgtFdsr8VVDvWpDWkEZxHojR5y4Kp9iBRAPXL0iiwsZ6zAgvIIApYQBYHAYE99WEPLAALWhrvTE3HSRokjWAMuusdXdObeokCqPvBa2AFLKOABWRxXkkEQCY1hXQwtRorsABIPaXi7+U2W5KTRu65zOb2tBavIQoASoN7WNlIowLZQwELyKY4qBtNwTfRpAAkqbs1/omkz5FEvrnp092l+IckAUCSvBBcAatIqwIZnFcSAZAtne6RpEJIx5TKeWUIwBO6W4r/Jdl3SSKnzBb0lIpfJQgAT9wWpEpgh0QBC8ggClhAxjzcH16H6YlXaVkAT7a+VDhN0qUkkbtZ6q8m31v4IEEACHysF295qAwgQ7gogYypVcIrYDUYBSwAT7XYrGZpfJKkW0kjN24ZU4mP7zzKEqIA8E+zyuDGekuWhrWlBxDGrQZApjw6LsAly4UmClgAnqZruq2zNH6b5HeTRubdV7D47WfPsPVEAeBpk0rz0F4hVFPCa4RA5u41RABkS6EaYgFLFLAAPKOu6bY6NX+rpEdH/R/DtxGfzdpamr51QcnuJQoAz3j7jBqDG+vVdlEDLQtkCwUsIGOsFuAeWJsoYAF4dueUGpe46Z0a7U2AjbZ4BlWX3r1oeuPtRAHgWcd6AT6sDPKhMpBzFLCArF2U6UB4BSxWYAF4Hj2l4u8l/wBJZOv2Lbf39bQULycKAM8lHQhvrBfiQ2Ug93NlIgCypVC04DaMXDdWbPgL4Hl1tzR0m+sMksjI5E36QndrfA5JAHg+sSm4PbBCfKgM5P66JAIgW2oW3kssLx5QSssC2BpdrcVOSd8hidFm3+1qKX6JHABsjaYauwgCGH4UsICMKTgDAAD1bXIp/qjcLyCJUXPR+lLhNGIAUN9j8ibG5EDGUMACMOzWxWyNDGDrdZql65PiKS79ljRGmOnKcRa/d7FZjTAAbK2BAmM9AMOPAhYAAMicxTOsEqXxu026mTRGiOmmMZX47WeWbJAwANS7aiNvRQBZQwELyJiEVwgBQJLUNd3WxR6/WVIvaQw36y8U4qPPnmHryQLAthpkBRaAEUABC8Cw28ArhAC20/xW+7ui+E2S30Maw2a116pvWjDVHiQKANtjbBTeWI99aYHsoYAF0FkCQKZ1N9s9UeRvNWkNaQy5x8z9rT37jrmLKACAMTmQZRSwAAy7iSwrB7CDFjY33pG63i5pE2kMmU3mOrqrteE2ogCwIyoBrsCqGeNXIGsoYAFZuyhTD+5pT7JWBVoWwI7qaS1eY2YnSEpIY8dvzZFsZldr8VqiALCjChvDm1eyAgvI4FyZCIBsqcVNwU3MElcDLQtgKHSV4ktk1i4xsdgBLvm8hS3xL4gCwFAomBrDOyhVaVkgWyhgARmTSMF9vjwOcVADYNR0l+IfuunTJLHdPtXd0tBNDACGSsUGghvrJRbemBzIOwpYQMYUCqqEdkypD7ACC8CQ6ikVvyrT/5LEtjHpq90txa+TBIAhHevJghvrNTSGNyYH8o4CFpAxG+LwnvZEZqzAAjDkupvjT0rGSqKt5f7DrlLMyjUAwzCpDG+st2YPVmAB2bvXAMiWPUNcgWWswAIw9Mx8fanwPkm/IYzn4bpy8upiu8zYOwzA0N9iisGN9dLFZjVaFsgWClhAxmzpLIPqMFmBBWC4TLhTe7qslSSeZ3Jp1nz3Swb3JgkAwzOpDG6sx+orIJP3GgB0msOsJgpYAIberDsHWtK4eo3J9yGN52byvd2jK2eXB6aRBoCh5uF9cZr9r4AMooAFZHKiEVYBqxBpDK0KYCjN6R/cvxAV/iDZXqTxrFPKf+pcbHLkhavby4P7kQ2AIZ1UphbaWI8VWEAW7zVEAGRyyhHUU5/UbRytCmCotJcrB6dpdJVMLyaN52LP9JOT5NE1c3orh5EPgCGcVY4PbDROAQvI5K0GQPa6TNlGBjUA8HQdvdUj5XalpBeSxnbbNTX7TVu58kqiADAUUqVBPaw0s020KpDFaSWADHaavj6o4wlsUANgdLSVq69z0y8l7UwaO2wXc7uio6/6RqIAsMM8sIeVrnU0KpA9FLCAbHaaYRWweIUQwA6a05e8zVy/kljROYTGunRZezl5O1EA2KGxniyoe7OLAhaQRRSwADrNYZcy4QSwAzrKyfGp/CJJTaQx5BrlfkF7OXk3UQDYXiaF9rByPa0KZA8FLCCbQnvqQwELwHZp76u0u/v5koqkMWwa5P6j9nJyMlEA2B6phbba3lmBBWQQBSwgkyyoTtOMVwgBbLu2vspHJFsoqUAawy6W+zlt5cqpRAFgm8d6SgN7WBlRwAKyeGUSAZDBQYCFtWzZ3SfSqgC2RVu5errJviXJSGPkxoXmdlZHX/UrRAFg2wZ7tmtYg3FWYAGZHKgQAZDJUUBYK7D43D2Arb79ubX3Vr9hLoooo9UE0unt5eTMTnfGiQC2VlBjPTZxB7KJgQmQRWlwneYLaFQAz2eme6G9XFso00dJY7Rnb/6hVX3Vczqv8pgwANTdWC+lgAVkEQUsIJNXpj8a1kSIFVgAnlvbSm8aV04ukrydNDLC7ORVL0kuOK3sjYQB4HkE9QphFPljNCmQwWuTCIAMzhkUPRzYAb1A7uxjA+AZnbrEx1k1uVTSMaSROe9c78mvTyr7BKIA8ExmuhckBbXfqSv6Oy0LZA8FLCCLnWbNQ+s0i/NWiMkPgKeZs8R33VRMLpf0RtLIrNc1KPndvF5nNS2Ap5nYp4mhzSst9YdpWSB7KGABWew0LbxOM6kNsg8WgKeYtdz3TovJdZJeSRoZ5zq0askf5pZ9T8IA8JQxnoc3xvMofYSWBbKHAhaQxYGAisEtW04t2o2WBfC4Of2D+xdqyfWSppNGbuxX8+r17eXB/YgCwBOs8KLgxuLWwCuEQAZRwAKyeGE2KLxlyx5NomUBSFJbufLKNI1+L+klpJG7mepe5tG1Hb3VI8kCgCS5LLR7uU+7R6zAArI4TyYCIHt6ptiApA1BTXk8pYAFQB3l5Fhzu1KhfXK9riarmuimKzr6kneRBgBFYY3xTHq08yhLaFggg7cbIgCyOkMIayN3i2wPGhWobx19lTZ3v1DSGNLIvUaX/6SjrzKPKIB6H7NaUAUsl7GBO5BRFLCAjDKzoApY7s6rQkAday9XP++ybkkxaQSj4LLvtfdV/4MogHrmga2y5wuEQFYxiASy2nVKD4Z1RMYrhEAdmuleGFeunSn3D5JGkEzSf7aVkz32aS58uNMsJRKg7m4DYT2kdD1AmwLZxAosILNjAVsd2BFRwALqzMx7fMy4cnKBRPEq+C7L/d/uLic/blvpTaQB1J2wXiE0u58mBbKJAhaQVamHVsDiFUKgjsy6018wbmNyhaTjSKM+uDTTqslv5yzxXUkDqCtBFbAiBTcGBwK6PgFkkwXXee7SttJ3oWGB8M1dtmlKoZBcJ9PhpFF3Xp0Waze2LR8oEQVQB/f7Fb67pLEhHZPL76VlgWyigAVktfO0KLinP5ZUp9KyQNjaeisvr0XxDZJaSaNue7BmSwpXdyyrHEoWQNjSWhLe2C68bTyAYFDAArI6/Lc0wM4zooAFBKyjnBxrZr+XtDtp1DnTiz2y37f3JUcTBhD0xR7c2C6y9D7aFcjo9UkEQEaHA4VieJ2nOwUsIFDtvZW57n6hpJ1IA1uMlfznbeXKqUQBBCrEsd1gAyuwgIyigAVk1D776CFJSVBjHNkUWhYIbvJiHb3VTpn9QFJMIPgnBXM7q72v+u1Od8adQGhdQHhju00LZ9gjtCyQTQwkgIzqNEslD+ozviafRssC4Whb6U0d5er5bvoCaeB5fPiucnXRaWVvJAogJB5YAYv9r4Aso4AFZLsTvSuw46GABQTilH7fzSrJ71x2Amlgq3oA2UnrPbliXq+/kDSAUIT1cNLkd9GmQHZRwAKyPShYEdjx7DPzHh9DuwL51rZ8oFT05BqZDicNbKMjq1a7cW7f4L5EAeTbqUt8nGR7BnVQZitoWSC7KGABGeZmK0O754zdVG2lZYH8mt1bfYPVCn9yVwtpYDt7t6mpouval1VfTxZAfg3G1f0kWVB3p9RX0rJAhieTRABk+AJNgytgyRTx1B3IqbZypSMy/UrSLqSBHZokShMV6TcdfZUPkAaQT2mQYzpWYAGZnh8TAZDpIX5wnajLKWABubtwN39p0NwWSioSCIZI7LLv8oVCIJ/MwhvTuVIKWECGMVgAMt2LxiF2ovvRsEB+8KVBjIAPryoni+et9p2IAsjRMDXAMV2DirxCCGQYBSwgw7padb+kjSEdk1HAAnJjbtn3tGpyHV8a3OZZ3ZUuXU0Q2+S46vrk97N6/SVEAeRmVBfaCqy181vt77QrkF0UsIBMjwvMJd0V2FE1t630JhoXyLa2cuWViSd/knQwaWyT36zfKT66YVz8FklXEMc2eXnBkj/N6a0cRhRAtp1ym4+VfEpgh8XqKyDjKGABWecqB3ZERVWqB9CwQHa1l5OTze0qk/YgjW26X188zuK3L97LNs2fZBu9GB8j6TKC2SaTUrM/tPUlJxIFkF3x2OQgSYXADqtMywLZRgELyPx8SHcGd+MxHULLAlm84WzerF3uiySxUnJbmP+kuC6eeWbJBh//qZ4pNjD5vvidcv8hAW2TJpOfx+buQIa7i9TDG8u5ltKyQMbnkUQAZP0iteAKWLKIV5KAjDl1iY/r6E9+tmWzdiORbZn0+A8n31s8ef6hVv3n/9R5lCXrW4ptknUR1Db78Kr+5LJ5y31nogAyNpRT9LLgbuUhjrmB4ObGADLem6bBPQ1yd1ZgARnS3u97bSomV7vrHaSxzdO4705uKc7uPMqSZ/sVi81q3aXCXEnfJq9tnlG+pVpLrp27bNMUwgAydXEG9zAy9RorsICMo4AFZFx1sHinJA/ssPafucQbaF1g9LWVq69Tmtwi6WWksY3TN9dXulviUzvN0uf9xWbeXYo/6tL/kNy29xm1KP5TW7n6OqIARt9pZW9UeF+VrkWNDX20LpBtFLCAjDv3INsg+arADqthXEN1f1oXGF1tfZWPmOtySS8kjW322Z7W4qe36XeYeU9L8VNu6iS+bfZCc13e1lf5CFEAo2tDrXqApGJgh7WiZ4oN0LpAtlHAAvLAwnsn31K9ioYFRkfbSm9q70u6TPYtSTGJbBOX+ce6W4r/tb1/QE+peIa5f0jhra4dbrHJvtXeVzl/3mrfiTiAUboJRjo8wDs7rw8COUABC8iH8PbBMh1BswIjb85Sn2zV5DrJ20ljm6Xu/v7uUsM3d/QP6mptOEvm/yYpJdZtZe9N1idXz1rue5MFMBqXYHgFrBC/+g2EiAIWkIte1ZcEeFQUsIAR1r6s+vo0Tm6SxJdAt13F3U7qaW34wVD9gd2lhu+a2SxJVeLd5snmIYVachP7YgGjcQHakaEdkkW2hIYFso8CFpCHTtV1S4BHtXd7v+9F6wIjo6OvMk+Rfi32u9oeG83tHT2t8Y+H+g/uKsXnRbJ3StpEzNvsRea6oq1cPZ0ogJGx5YugLwnvyGq30LpA9lHAAnIgXldcKim8jSVrtcNpXWB4nXKbj23vq5zvsu8rvE13R8Kj5vrXrtb4V8P1FyxsiX8RSW+W9Bhxb7OCub7S3ls5l32xgBEYuhWKIa6g37i+uaGX1gWyjwIWkAPzD7WqpL+GdlzGPljAsJp150BLvFNyg2TvJY3t8qC5v66rtXjtcP9FC1uKV8v89ZIeIvbt6lBOrq5Prp/TP9BMGMDwcQ9y7HbbYrMarQtkHwUsID+j8+CWNrv8KNoVGB4d5eTYQqFwo1wHkMZ2zdJW1Wq113S1Ntw2Un9ld6nhFlPtVZKtoAG2y0FpWri5vZy8myiAYZo8bi60BzbEtptpWSAn9yAiAHLStyoN8d38/eeWfU9aFxg6nVd53NFb7XT3n0vahUS2yzIViq9etG9T30j/xV0tTSssLbxa0h00w3aZIPcL2vuq3553k/PKLDCE5iz1ye5qCe24XOlfaF0gHyhgAXmRKsjNJdO09noaFxga7WV/0d0vSX7tpi9IMhLZdibdLItf091s94zWv6Fruq2OqvFrJd1Ii2xvM+rDlQnJFfOW+h7EAQzRmK1QfVOQE+JUrMAC8nK9EgGQD2MLxb9KqgQ3GLL0X2hdYMfN6au+xj25zaU3kMZ2Ml2pND6qu2R/G+1/ysIZ9kjF4n+R9HsaZnubU6+pxslNHb3VI0kDGBIhFrAGt3wsCUAOUMACcuLMkg0qwFdKTPZGubNSBNhe7tbeV/1EKv3OJFabbPe9SIvHKX5r13Rbl5V/03klW+vF+C2SfkYLbbdJbrqyvVz5KH0NsP063SOZhfeAxPTXLR9LApADFLCAPM1TzW4I8LB27+irHkjrAttu1p3+gvZycomk/5EUk8j2TmDs//YuxSdseVCQKT1TbGB9KT7eZd+jobZbUW7faO9LLjpxlU8kDmDb3d1bPVjSC8IbXOt6WhfIDwpYQJ7mWK7rQjwuNzuG1gW2zZzeymFRofZnSUeTxg7cflxndJfi0zrN0qz+Ixeb1Xpa4g+66f/RZDvSiertjYPV22Yvqx5BGABjtS3HdS2tC+QHBSwgRwpWuCbUSQWtC2ztaNutra/ykdTsWpNPIZDtVjP5B7pai515+Qf3lIpfNXm7pITm2+4OZ68o0u87equdne6Mg4Gt7XpM7wjxuNK0wAosIFfTRgC50t5XuVuyvUIbFymKJ4/mV7+APJjX6y+sWnKOpLeSxg4ZNNlJXS3xhbnsB8rJ2+X+I0ljaModclmtFrct2tceJgrg2bXduWkfK8QrA5wKr+huiafRwkB+8OQJyFtXqyBfIzSrVY+ldYFnN6ev+pqqJbeK4tWO3kPXmOuNeS1eSVJ3Kb7YzV8vicLLjjm6UEhu5SuFwPPcN+PCO4M8Lk+vo3WBfKGABeSMh7sPFq8RAs9gpnuhvVz9fCpdKeklJLJDd5p73NIju1qLud/zpKfU8EevpUdJWk277pA93XRVe2/107xSCDzrIC3MMZqxgTuQN3TUQN4u2kihPi163ZwlvistDPzDrOW+97hycpVcZ0gqkMgOuaNgxcO7S41LQzmgnn0b/xol8eGS7qR5d0gs05dXlZPfzS37nsQB/MMp/b6bpCA/fGCRs4E7kLe5MBEA+bK2uXi7pLUBHloxLVZn0sLAZh3l5PhCLblN0qtJY0dnKbqyWIiPXFCye0M7tIX72arBxvgIl66moXfY62qe3NbWlxxHFMBmhbT6HklxgIf2yF7TGpbSwkC+UMACcmaxWU3S7wOdZZ5EC6PezbzHx7T3Vb/t7j+RtAuJ7OBdRVrscfy2+dPssVCP8fzJtmZDNX6T5OfT4jtsV5Nf2NFbWXTqEh9HHOAeGuzY7MpOs5QWBvKFAhaQR+6XB3pkR85dtmkKDYx6Nbu/csj4geRWSR8mjSHxnb1L8Qk9U2wg9ANdPMMq3aXiybb5dVPsaDdrdsqmYnJTe7lyMGmgbvuk8sA0SYeFeGymYMfSQNAoYAE5VEvT3wZ6aFaz+ARaGPWm0z1q76t+Kkrtene1kMgOSyT/QHdL8SN19YTdzLtai53m/iFJNU6DHdYqt+s7eqsfZ4N31OdEsXCSJAvz6NIraGEgj/clALmzaN+mPrmvCnMCppNpYdSTucs2TbmrnFwl6auSGkhkh22Q7J3dLQ3fr9cAulobzpLZuyRt5HTYYY1u+vqqvuSKOUt9MnGgbribSYG+PmjLu1qaVtDIQP5QwALyOq5QFOqTo/1mL6seQQujHrSVk5lpFN9s0mtIY0g8aKm/rrslvqzeg+guxRe7++skPcRpMRTzXR2VxsntHX2VeYSBetCxPHldwCuCf0sLA/lEAQvI7Vhawb67H5l/gBZGyOau8N3b+6oXm/sFLk0kkSHRW0iTV3VNb7iJKDbraW34c2q1wyWVSWNITHDZ99v7qj9rL/uLiAMhc/f3B3tsEq8PAnmdJxIBkE+1tHCFpDD3djGbyeQAoWrrTd6aJMlfJB1LGkN1y9B1svjVC6aPWUkaT3VOqWl5VI1fqWC/Xjsq3ilP7mgvJ28nCoSovewvkts7Qh1CVxoLV9HKQD5RwAJyatG+9rBLoa40aPQ0OYVWRkjmLfed2/sqPWb+C5P2IJGhYt3rKvHru0v2N7J4Zgtn2CPjLH6zzBeRxpDZTe4/by8nP+hY5uOJA0HdVZXMkdQY5LGZ/nj+ZFtDKwP5RAELyDPXxcHenCK9n68+IRRt/dU3V2vVv0o2mzSG8A7o+kx3S9yxeIZViOO5nVmywe7mYpukz0lyEhmqs9DnulX/2tZXfRNhIAQz3QupW7h7vQU8dgbqAZNDIM99cJQG2wm7q+Xu/trRtDLybPOqq+T7luqXku1FIkNm0GUnd7cW/5sotoGZd7cU/1Nmx0vaRCBDlutkk37b0Ve94MRVzp52yLWx/bXjTD4l1ONLajUKWECOUcACcuycUuMSM/WFenzu/klaGXn1j1VXPk+SkciQ+bu53tjTEp9PFNunuxT/1M1fL+lB0hjCPkua2TCYLOkoJ+xvh9wy948FfHhLFu3b1EcrA/lFAQvI+4DZdUnAh3dke3/1cFoZefKkVVe/YtXVkLvDa8nLu1qL1xLFjukpNfyxkCavkrSUNIZw8i/t4e4Xd/RVL5izxHclEeRJe7n6WkmvDPgQf04rA/lGAQvI+2A59Hf5U32CVkZedJSTYyu15M4tq64wtPe6X1csPqJn3zF3kcbQWDB9zEovxkdIupw0hpZLM9Nicltbb/JW0kCOTtygx1zuzuuDQN7Hg0QA5NtM98K4crJa0m6BHmIqSw/oLjWySgCZNW+p75HEybddmkkaw+I7k++LP955lCVEMfQ6r/L4rj1r3zL3fyONYZk2/6gQFz+6YKrxyiYyq+3OwQOsEN0W8Pzwvu5SvJfM+IgFkGOswAJybrFZzd0uDfo+5dEZtDSyOS916+irzKvGyVKKV8Oi4u7zuluKH6F4NXw6j7KkpxR/yOQflFQlkaFm760lydK2cqVD7jw8RjYHW3H0RQW8uMHcLqZ4BQRwLRMBkH9tfdU3mfTbkMsEkfkhC0sNf6G1kRVz+geaUy98X67Xk8aweNgizexqLl5FFCOno7d6pJsuVLirekfbNQWl71/Q0ngnUSAz1/2yyqEe2Z9CnhtG0msXthSvprWB3F/LAPJun1L8O0n3BXyIVnP7Ei2NLJh3kxfbytXT07RwB8WrYXNHIU1eTvFq5HW1Fq811V4laQlpDItX1xTd1tFX/cppZW8kDmSBR/ZlBb2wwe/eqxTz8Q8gABSwgAB0mqVm+knIx2jS22Yvqx5Ba2M0dfRXj6pOSG4311ckMfkcHpdYGh++YPqYlUQxOrpamlZULD5c0mWkMSyKLp2+3pOb23qrryYOjKYtXx58U9hjSPtRp1lKawP5RwELCITLzwv9GAuRvt3pzn0LI65tpb+4o7eyyFP9TtJ0Ehk235lcit/ZNd3WEcXoOq9ka7tL8bHmYg/C4TPDTFd39FUvmLvCdycOjLRO90iu/wn9ONNaeh6tDYSBPbCAgLT3Ve+QNCPso/SO7paGblobIzW4v7tcneuyr0namUSGzaDc3t/dGp9DFNnT1pucYOZdksaQxrB51OWdG0rF/1tsViMOjMy1XXmfmc0PetQo3d7TUjyI1gbCwEoGICw/Cv8Q7SvzljuFBAy72f2VQ1aVkz+67PuieDWc7pP8tRSvsqunNf5xZH6E3FeRxrDZxWTfGldObuooV19FHBhuJ5V9gsm+GPyoUWL1FRAQClhAQAppcr6k0D8RvFs1TT5Ha2O4tJf9RW29yYIotT9LejmJDB+Xrk6i+ODuloYbSSPbFpYa/lIoFl8h6RrSGFYvdde1HeVk/rxefyFxYLgUPTlDphcHfpipovhHtDYQDl4hBEKbfPdVfy/ptYEfZjUyf8XCUsNfaHEMlZlLvGFsnHzITJ+TtAuJDPcAxM6M1xY+Pv9Qq5JGfsy7yYuVnWvfNPd/I41hH6SvSeVnNKwtns11gqHUsaxyqEd2g6Q48Gvod10txTfS4kA4WIEFhNddf78ODrJYc+uZd5MXaW8MyWC+r/rGccXkFjP9ryheDbdBN5/T1RJ/mEl5/sw/1Ko9pfhDZnaypE0kMnxcmmiybyU7J3e0lZOZJIKhMHOJN3jBuhR48UqSUquLMTFQVyhgAYFZXy1cKOmh0I/TpAOTCcn/o8WxIzqWDbS29VUvc+lyBf8BhEy4N3J/TU+poYso8q2rFJ/Hvlgjw10t5n5Be1/18jn9g/uTCHbEuGLyObkOCP/C0QMNjxV+TosDwc0BAYSmva/6VUmfqoNDrXgtPbRn38a/0urYFrPu9BdEce0Mc3+/6uApdEb8IYni489ttoeIIhxzV/jutSRZLOnVpDEiqpLOjqrxFxfOsEeIA9tiTrnystTtRknBr2A305e7SsX/oNWBsLACCwhQarX5Cn8zd0lqsEL0o3mrfSdaHVtj5j0+pq1cPb1QSPq37OFD8WpkfHvyffEbKV6FZ8FUe7C4Nn6DzP6PNEZEUdJHvJj0d/RVP9m20puIBFvjlNt8bOp2vuqgeCUpTZPkB7Q6EB5WYAGBau+r/lbSm+rjTmYLukvx+2h1PJtO9+iu/tq7zNOvSbYPiYyY9e72vp7W+MdEEb62vuREk8+XNJY0Rsy9Jv/SulJx4WKzGnHgWceF5co5cptVD8fq0i96WopH0+pAeFiBBQTKVEcbV7rPbS8nJ9PqeCYdfdU3rionN5v7BRSvRvAeZOqLovRVFK/qR09LfL57eqikpaQxYvZ02ffHlZPb2egdz6atNzmhXopXWzogNm8Hgp3jAgjSvJu8WJ2QrJC0Z50c8rrU0ledU2pcQutDktr7Kq+Q23/LdBRpjDD3C8yLc7um2zrCqD8nlX1C0ZMuk95FGiM+sP9d6v7pntaGP5MGJGnWssEDC1F0naRxddH9yFZuKBVKrEgEgu3nAISqo7f6cTd9vY5mzXclUfEV7LNT3+b0D+7vafR5l95NPzfiEjd9tqc5/prMnDjqvA/qq8xz2f+pPvbcyZorZH56d6nhFqKoX/N6/YVVq90o+dT6GQr6ad2tDezJBwSKgT0Q8uRhmY/3KLlb0i51dNjXjrP4jWeWbJAzoL60lwf3s9T+n5udJF6RHw33panec8704nVEgSf6od7qkW76iaRJpDHyU3lJvzD3z3a1NtxGHPVl5hJvGFdMfivptXV02I+MqcaTz55h6zkDgDAxwAcC1jXd1rnre3V22Eeu89r35E6Bvl4myMsGWtv7KufLo7+62Sn0baPAdGUSxQdTvMLT+qHW4rVejA+R9AfSGIUrUzrazW5p762cO6d/oJlI6oS7jS1Wu1RfxSu5dBbFKyD8jg1AwOYt9T2qcbJSUmNd3dxM3+gqFT/OGRCu9vLgfkrt0zJ7r6QCiYyKVNKX15fiTvYbwXPpvMrjVXsmX5TrdFFkHi2J5Oe5+1d6WhuXEUfA/WNf9duSPlxnh70pieJ92EYCCHyORwRA+Np6kwVmPqcO73Bf6C4Vv8gZEJZZywYPjM0+4WYnisLVaPqbR5rV01z8NVFgqyfWy6qvl+k8mV5MGqMmlfRLd/8im70HeI31Vb8k6bN1N+RzO7urNf43zgAg9OkdgODN7Rvct6boDtXhU29zfaKrtfi/nAX519FbPdIjfUaut5DGqI8erixW45Pn72f3Ewa2+Vpe5pM8Ss5Xnb3elEHu0i8t0pe7m4vXE0f+tZWrp5vrK3V46LUoqk1f2NzUz1kAhD4EBVAX2vuqF0o6ri5H6KbOnlLxDM6CXE6vbE659tZU/kkmu9mYJLjpSxua4//klUHsiJnuhbHl5Asm/Yd4pTAD91pdZbL/6Wop/JoviOZ2nFeXK682T2j9x10tDe/lLADq4XoHUBdmlwdnRB7dXq8TBTc7a5/mwoc7zVLOhuw7reyNG9Lae9z8U5JmkEgmPGSmU7pKxd8SBYZKR3/1qDTVeSbtQRqZUHb5WQ3jij+YP8k2EkceBjhu7X3J/8r00TpNoOae7s++bkB9oIAF1JH23sq5Mju5jgd5PxwXFeeeWbJBzoZsmrvCd69Vk1Nl+qCkF5FIRi4d6be1KD6FzXExHNpW+oujavJDl95AGpnxkJvOrln8Xa77TF87TVatdklWx6uPrLu7Je7gbADq5IonAqB+zOkfaE7TwlJJxTqO4QYvxsf1TLEHOCOyY3Z/5ZAojU6V/CTV2RczM65qps/v3Rx/jdWLGE6d7tHd5eQ/XPq8pJhEMmNAZj+MlJ69sNTwF+LIji1fmb5I0ivqOIaK15LWnn3H3MUZAdQHClhAnekoJ/Pd/X11HsO9aeTvOKe54WbOiNHTttKbokrteDc/tc4H4FkdIiyPPD1xYWvDn8gCI9dHVV+Vup1n8imkkTk3uNl3x6twASuZR/k6WVY51CP7uaSX1HUvxZcHgfq77okAqLdBj0/yKOmXNKbOoxh00xf2aY7/h5UlI2t2eWBawQvvc2mOpBeSSCYHB4vTYjyvZ4o9ShoYaSeVfUJjWv0/NzuFNDLpUUmLTLVvd7U0rSCOEeRubeXqh032VbFaeaDmcfOiVruPEwOoqzEqgHrT3lf9lqSPkIQk068Khbh9wVR7kDCGz8x7fMz4gdpx7t4m6fXiq2NZ9ZhkH+xuiX9EFBhtbeXkFHP/P0kTSCOTUpeuMFmPFwsX9UyxASIZPvOW+h6VOOkx6V9IQ5L09e6W4ieJAai3qRuA+hsE9foLE0v6XJpIGpKkh8zsY12l+DyiGOoJaOWV5lGb5CdI2plEMsx1vafJSewlgiyZXR6YFnnhPPGacdY96rIfm9Ke7paGG4ljaLWXk5Pl/g3xcZPH/X2wMW45f7KtIQqgvlDAAupUW1/lNJN9hySe4vIoqp26sLmpnyh24Ny6c9M+URyf4K5ZkvYlkcyrufTlfe6Lv9h5lCXEgazpvMrju/dMznDX6ZIKJJJ5S920qFCNf7xwP1tFHNtvy8d3vivpjaTx5Amsf7CrpeF7JAHU4/UPoG4nBKv2TG6R6wDSeIoBM30jjuKvzZ9mjxHH1ulY5pNUqB7vbu/R5pUS9C854LKVcp/d01q8hjSQde3l6muV+jkym0waObnFSH90+U8akuIF8/ez+4lk67St9F2iJPmkuz4mqYlEnuLW9aX40MVmNaIA6g8TDKCeJwPLqq9XpN+RxDN62Fz/nTbEZ7GvxzOb1esvKUTVY7W5aPVqsa9VvmaWbgsjL3y0a7qtIw3kxUlln1D02rdN3kYauZJKutrkP1FavKRruq0mkqebeY+PGbcp+TdJn5a0K4k8veuKpNctbCleTRRAfaKABdS59r7qYknvJolndZ+k73gxns8X2aQ55crLUtkx5jrWpYPpR3LpQTd7X08pvpQokFcdvck73fz7Yk+gPHJJN0m6xNwv7WptuK3eA2lb6bsoSd5vrg9LmsQp8mwTV/9xV0vDe0kCqOf7AIC6NmepT07j5E5JY0jjOa1zaWEhqp1VT3tkzVvuO1eS2lGR9Ca39BjJ9uJUyLWLZPH7u0v2N6JA3s1d4bvXkuQHko4hjRxzX+VRdFkk/XZQhd+fV7K19XLobcsHSlYr/JukOZLGcTI8p42K4undzXYPUQD1iwIWAHX0VT/n0hdJYuuG2pKudfOeqFZcHNrrVzOXeMPYhuRwc71BmzeNfbnYNDkEj5nbh7ta40VEgeD6sHJljrt9U9J40si9RNKfXbqiIF2xthr/cfEMq4R0gPOW+87VpDrTImtz1+HMx7Zy8OX6j57W4pdJAqhv3DABaN5NXqxOSP4s6SDS2CYbJf1G8ktlxcvyuKrllH7frei1V8r9cJcOl3SIpJ1o2qB6+itrUdy+aJrdTRgI1dxlm6bUovgcbd6PDwH1sy7dJNf1UWQ3uAo35LWvLXj16Eh2jLv+Vax631Z/Ka6NXzH/UKsSBVDvw1oA0Ja9jdz+JCkmje1Sk+tGma70SNdVPb4+a69BtK30F0dJcqC7Xir5QVJ0mOTNNF2wNrj80/uUimd1mqXEgdB1ukd39SX/bqYviUJ8yMou/5PJbjfTrVEhvm3BVHswS//Ak8o+oTGtHeHmR0h6vTZ/nZcPnWyfqrm/nL3SAEgUsAA8SXtf9T8l/QdJDImapL9K9hdzX5Kabo/SeMlwf3nptLI3bvLK1JoK08zSZlc0Te6tkg6UtDvNUidcV5nV5na1NK0gDNSbLfsKLRSrserJgy7dZmZ97mm/KVpeUG35GGtYcWbJBofzL+5Y5pNUSPZXqgPcbIbkB0vaX7x+P1T92Re7W4tfIAgAEgUsAE9yWtkb13tys6QZpDFsNklaJekeye51+b2R6zGXP+ZR9JjcH40277O1WeqPmilyswmp2zhJTZGlE1K3cRbphe62h8l3kzTJpd1tc5GKp7z1a72bn97TXPyuzJw4UK863aNV5eqHJPuypLEkUrdSlx406UFJq132kJnf76n+HpmvTz1aa5E2mfuG1P2xyOWKbJen/AFmEy1NdzbZzqlpZ5PtKflekvaUNFm8DjicM9W/rq/Eh4a2DxqAHbktAMCTbHmV8EZJRdIAcuWaKKp11NNXMoHnM3fZpilpFP/ApTeQBpAriaX+qq7pDTcRBYDHUcAC8DQdfdWvuHQ6SQC5sE7yT3aXivNZdQU8A3dr669+0Ny+KmkcgQA5mKSavtxVKrKtBYCn4DUTAE+fDVfjz7v0J5IAMu83URIf0N3S8H2KV8CzzoS9p9RwtteSAyRdTiBA5t0QPxZ3EgOAp3XpRADgmcxa7nsXaslfJO1KGkDmPGLyT3e1NMwnCmDbtJWTmeZ+lqQXkQaQOY96LXlZz75j7iIKAP+MFVgAntGiaXa3yeaRBJAtJi0uetxK8QrYPj2lePFgY9wq2Xw9+aMZAEa/j3ProHgF4DnGwQDw7Nr7krMl/yBJAKPeZa9w+Qd6Woq8AgUMVR9Xrr5Wru9LaiUNYNR9p7ul+BFiAPBsWIEF4DmNs8JHJf2FJIBRk0j6TrKpcCDFK2BodZeKf1g/Jn6Zuc6QVCERYHS4dLsXYz4gBOA5sQILwPPqWDbQ6lHhT5ImkAYwom7wWvr+nn0b/0oUwPCatWzwwEIUzZf0CtIARtSjXqgd1jOtqUwUAJ4LBSwAW6W9XP1XuS6TFJMGMOyd85pUfsY+peKZnWYpiQAjxN06+mqnuPnXxSbvwEioRbK3L2yJf0EUALZijAwAW6e9XPmo3L5BEsDwTZ/N/YceFT/eXbK/EQcwOk5c5RMbB5NOSR8SW24AwzcZdf9QV2vDWSQBYKvuGUQAYFu09SXfNfkHSAIYcrea6dSuUvEGogCyYXZ/5RBL7WyTDiMNYGi528Ke1nguSQDYWjxRArBNGtYWPizTlSQBDJlHXf7v60vxoRSvgGw5p7nh5n1K8avMbbakh0kEGDKX77O6wANRANuEFVgAttmsO/0FhULtj5I3kwaw3Vzm5xYKxU8tmGoPEgeQbW0r/cVRpfo1NzuZMTSwQ3oHG+NXnT/Z1hAFgG1B5wtgu8y6c6ClUChcI2k30gC22R8l//fuloYbiQLIl7Zy5ZXm9i3xtUJgm7l0v1vt1eeUmpaTBoBtRQELwHbb8snxqyTtShrAVrnP5F/cu1RcwNcFgTzPwt3a+mvvtjT9H5lNJhBgqzzq8qN6WhpuJQoA24MCFoAd0t5XeYVkV0gaRxrAs9pk0neUxv/VNd3WEQcQhnmrfadkXfIpN31K0hgSAZ7VhjTVv54zvXgdUQDYXhSwAOyw9mXV1yvSLyQ1kQbwNJd5LTmtZ98xdxEFEKa5Zd8zTatfZn8s4BltctNbe0rF3xMFgB1BBwtgSHSUk2Pd/aeSiqQBSJJuUKRPdDcXrycKoD609VZfLdPXTTqMNABJUlWy47pb4suIAsCOooAFYMi09yXvlXyRpJg0UMd6XfaZnlLhIpk5cQB15vH9sVxf5mu9qHOJ3E7ubo1/QhQAhgIFLABDqr0vOVryxeJ1QtSfv7vp6xsq8TcXz7AKcQD1bd5NXkwmVNvd7QyZXkwiqDODLjuxpyX+GVEAGCoUsAAMubZy9XXmuljSBNJAHdhg0v8NWvzl80q2ljgAPNkpt/nYwk7Jh8z1GfpF1Eu/6NI7e1qKlxMFgKFEAQvAsNjydcJfStqVNBCoqrn9ICoWvrhgqj1IHACey7ylvkc1rnVK3iFetUe4Hnb3t/S0NvyZKAAMNQpYAIbN3L7BfWuKLpf0EtJAQFKTLrSo9pmFzU39xAFgW8xZ6pPTuPYZClkIjuuBmqf/umh64+2EAWA4UMACMKxmlwemRV74laQSaSDnUsl/XKulZyzat6mPOADsiLl9g/vWzL4gt5mSIhJBzvUW0uQtC6aPWUkUAIYLBSwAw+7EVT6xcTC5QNIbSQM55JJ+4fLP9bQ03EocAIbS7PLgjIJHX3Dp3YzNkdNO8reVxviE8yfbGtIAMJzoJAGMiM6rPF71kuR/JX2YNJAjl0Xmn19YavgLUQAYTh3LKod6ZGdIeitpIDdc31zfEn9ysVmNMAAMNwpYAEZUe29lrszOktRAGsioVNIv3f2LbEILYKR19FYOkvRxNztRUoFEkFEVN/9gT6mhiygAjBQKWABGXHt/9XCl+pmk3UkDGZKadKFb2tldalxKHABG0+zy4IxCaqe72XvFZu/Ilr/L9O7uUvEPRAFgJFHAAjAqZi33veM0Od9dR5AGRtmgZD2FtPpVNp8FkDWzywPTCopPd/fZYvUyRt81iuKTupvtHqIAMNIoYAEYNTPdC2P7k8+a67Pi6TJG3nq5fmAef71ruq0mDgBZNrfse9Y8+YSkuZLGkghGWGLSF9eV4i+z3xWA0UIBC8Com9NbOSy16HzJp5EGhp3rAZO+b0n8nYUz7BECAZAnJ5V9QtGr7SZ9XLK9SATD32/6KpOd3NVavJYwAIwmClgAMjMgb0irZ8nsZNLAMLnV5N9Ni8VFPVNsgDgA5Nm8m7xY2bn2Drl/wqTDSATDNFlcPNAYv//8ybaGNABk4J4EANnRVk5OMfdvSdqVNDAEUkm/cNM3ekrF3xMHgBDN7q2+ITJ9TNJbGN9jiDwss3/vLsU/JAoAWUEHByBzTun33eJa9X9ZjYUd8Jikc2q12lmL9m3qIw4A9WBu3+C+iRX+zdxPkTSBRLAdXObnSsVPdJfsb8QBIEsoYAHIrDl91dek0vck7Usa2Ep3uvz7O1WLC8+eYeuJA0A9alvpTVGldrybf1TSS0kEWzk1XG7mp3aVir8lCwCZvEsRAYAs27zHR/Ixc50hqZFE8AwqJl0saX5XS/EK4gCAf5jdXzkkSqN5kp8iaQyJ4BlUTfpGWow72SMSQJZRwAKQC229g9Mtir4h11tIA5Jkpr5U6jLFXbzmAADP7ZR+363oSYe7zZG8mUSwxS/d04/3tDYuIwoAmR//EwGAPOkoV1+Vur5i0mtIoy6tNfeLZbaoqxT/TmZOJACwbZ60Kuu9ksaTSF260SJ9uqu5eBVRAMgLClgAcqmjr/pGl74u6SDSqIvO6mbJ5zdVi+eztxUADI22ld6kpHaMuc+T9AbmBnXhTjf7Qk9z4ac8BAKQwzkBAOTTTPfC+HL1FJfOkGxvEgmsgzL1KdWPIk/OWTB9zEoSAYDhM7s8MC1KC7NkdiKvGAbIfZUUfWF9S+GHi81qBAIgl/MDIgCQd5s3eq+9Q+6fMOkwEsn1CPseyS4y1+Kulvg6ng4DwMibXR6cUUijmW52EsWs3LvN3L4Rryv8aP6hViUOAHlGAQtAUDp6q0e66XRJb+MelxsPS3ahuZ9L0QoAsmV2eXBGwaNTXDpF0iQSyckkz3RdKvtqT3PhMvpVAMHc24gAQIhmLRs8sBDZxyR7r6QGEslc97Pc5ZfKdPE+zfHVnWYpmQBAdnW6R3f1J6+xVMfK7FjJp5FK5lRcdn4hqv3vwubGO4gDQHAzCCIAELITV/nEpsHqTJnNctcRJDJqUpP+ItdltYJfek5zw81EAgD51dE3MDVVdIzJjpb0OkkxqYyapW5aVLO4+9xme4g4AISKAhaAujFr2eCBBYvaZDpJ0m4kMuwekXSlyX/hVvxFd8n+RiQAEJ5T+n23glePNre3mXSUSxNJZdg9KNf5nqbdPfs2/pU4ANQDClgA6s68m7yY7Fx7izx9r8veLGkXUhkSAyZdJ9MVqvkV61qLf+FLRwBQX2a6Fyb0VQ9JZW9QpDfKdbikJpIZkonbGpf/yi368T73Fn7VeZQlpAKgzu6DAFC/5t3kxcHxyWsi07EuO8bkU0hlq1Uk3WLSHyRdsW5MfN3ivWwTsQAAHjfzHh8zdlNypElvlPRaSQdLKpLMVk/XVrj8Ekt16eT746spWgGo6zsiEQDAP7TdOXiAougYM71Z0svFU+N/cD0g0w2Srk9T3WCN8c09U2yAYAAAW2vmPT5m/MbkEJle5a4jZHqlpN1J5gkDLv3JXL+OCumlbMYOAP9AAQsAnsVpZW9cW0sOtYKONNeRJh1RR/t6/F3SrWa6XbJbolr1+gXTx6zkrAAADLXZ5YFppvhwS/1lZjrQpZdKekGdHP4jkq5307Ve07Uba/GfF8+wCmcFADwdBSwA2Eqd7tFdyyozFNkrI4sOcPf9ZTow54PsAUn9Jr8jNbtVptuiJL69a7qtpsUBAKNlVq+/JFLtoCjyA13+UrntL2ma8r0y+u8y3S7XHe5+R6HgN+w1rWFpp1lKiwPA86OABQA7qG2lv1jV5AC5DpBsPzOfLGkvSXtLGpOBf+LfJN0j935Fttzky1PZ8lhx/4Jm3SczpxUBAJnnbu3Ltad7Ms1Sb3bZtMg0zaXmLX1uFh4obZK0StK97rbKonSJuf01LcZ39EyxB2hEANh+/x8PXB+DIxWO8gAAACV0RVh0ZGF0ZTpjcmVhdGUAMjAyNC0wNy0xOFQwMTozNToyNCswMDowMPqBfRsAAAAldEVYdGRhdGU6bW9kaWZ5ADIwMjQtMDctMThUMDE6MzU6MjQrMDA6MDCL3MWnAAAAAElFTkSuQmCC;" vertex="1" parent="1">
          <mxGeometry x="-50" y="150" width="44.94" height="40" as="geometry" />
        </mxCell>
        <mxCell id="5C5vTIJOmwcPiypYMRpX-6" value="" style="dashed=0;outlineConnect=0;html=1;align=center;labelPosition=center;verticalLabelPosition=bottom;verticalAlign=top;shape=mxgraph.webicons.mongodb;gradientColor=#DFDEDE" vertex="1" parent="1">
          <mxGeometry x="140" y="140" width="70" height="60" as="geometry" />
        </mxCell>
        <mxCell id="5C5vTIJOmwcPiypYMRpX-29" value="" style="shape=image;verticalLabelPosition=bottom;labelBackgroundColor=default;verticalAlign=top;aspect=fixed;imageAspect=0;image=data:image/png,iVBORw0KGgoAAAANSUhEUgAAAW0AAADJCAIAAABnmfQ5AAAACXBIWXMAAAsTAAALEwEAmpwYAAAgAElEQVR4nOxdd3xUxfY/M7uppJBAEkggIWCAUARCExBQRIhSDEhVVFREkR8oj6I+LFQRxYfKkyYdBJQqTbqE3jsGCKGEFCCkkkZ2d+b3x+zOzt675SbZFHz3+/GDN3fnzpw7d+Y7Z86cOYMopaBChQoVpQCuaAFUqFDxxEPlERUqVJQWKo+oUKGitFB5RIUKFaWFyiMqVKgoLVQeUaFCRWmh8ogKFSpKC5VHVNiHnv2PUAJAJL8RSvi/ZqgOSf97UHlEhU0QSgC0jCZSU1LnL5i7/689BQX5jFwIJRhhAGD/mh9BFSWvigqDtqIFUFF5gRHmZHHh4pkNG3738PA40HzfyA8/CgoKYvd5AgDChyV2U/hJxT8cKo+osA1q1jWys7KLdIVFusLYg/vPnz/Xu3dMzCv9qlevJjAFlmgoKon870D90iqsQ5yhcAsIpQSAZOdkrly5/ON/jdjx57aMjAz+CNdQyl1YFRUMVR9RYR0iKXDNAiEMQAAIIHL3buLMb6c93bR1nz4xz3bo7OrqyvQR2XxHxT8fKo+osAdrKgZnBwKAL146dfny2Y4dO0d379W+fTsAPWtUqn3kfwoqj6hwCIKtL8EYzauEQuzB/adPn+zQvsuAAQMjIiKMP6sk8j8D9UurcAhst50Yf8rLz929d8u33027dftW+YilovJA5REVzsT169cunD8PqrX1fwwqj6hwJjBGhOoqWgoV5Q2VR1Q4E4QaAABAz+ysFSyNivKCyiMqygKqH9r/FtQvrcKZwEjDr1V95H8HKo+ocD4IBVD1kf8lqF9ahfNhw99ExT8WKo+ocCZMdla1Xf1vQf3eKlSoKC1UHlGhQkVpofKIChUqSguVR1SoUFFaqDyiQoWK0kLlERUqVJQWKo+oUKGitPjn8Ejl88I2HfhCxTsg3KmsAlesEMJ3tPymxFYy+Z/lCL3sjkwSym8SAAJUvOMAFu9FLVsOBQBSSZr9P4FH2BFNwukHJlTwgUwYKDa2MyYJxcZrZEoAILSwMoejNocFkaykpNaOwnI6JHFhBZktTskxfW69/Kny6lp6ACJEFOTDhqQd6gGBUXiKATAgAESK2/UIJYAIIAIUADBQIEAAAIOpUVUonkgekTQUjDChFsO+MUHFemcb+UILCADpTe2JALIa7rQ8PoSdeO6Emkc2Qq3Lg5D9wGhOA6cJaxFe9WDxIha/8vMuyoNKqJZRhqksU+WwVsfHDNCaRhHW8wmAnhEBANjlZSHCNmV8wWiImH4CIysBa2AViSeSR6QHuLE75u/HQpZXcM2ahg49O5XO1J4wsDHEkvjKbTwRyELKxba6bvlrzhJJLAUwjf/UNH7IpkLlFF8asYFBsh2RmOLpg6kFmo7vQOy7Y/YKxLFmJ2SLRKbAhIoaTaWY1zzxcZ7Z4HPq1MmrV681bNigdes2ptObtBUdr5xRmxYbCQVO3Vt/K/ucv3tIl7APsPFXIgwy5aeSgKyvmq7hwIF9hw4ecXd3fyWmd8MGjUDaT8oc4ll84kEWIgoLC+/evWsguqeeqo812PIVyk1ac98RyjXPMgjg65mxDf07AGAAPVCtSUEmwlDnqAOaZ8HmlOY5HdXyZuaMNyo5nkQesTj/MeFGwurVvx4+sr9IV4iRpnXrZ9955+2nnqqvxdoK3rcu2EFu55zbmfB9ZmEKANxE+FLars5hw56u9pJWg81UUl6wOmsoKiq6Hv/3smVLzpw5RagBgOzdt2PgwMH9+73m6+sLABi7sKfLWlTxwAqrDHLh4vn5835KSk4CgIYNmw57d3jjJo0xtkI3ZQ6mRSKTzIAJEAw4u+jejoRZd7LPE0Q1gMOrtukePsrXtQYACOYw7Kj3ETAPNtwQQ4xzIgRAtYB4bhXckRGlFW2iKSZMjYwkJ6f+uXPLxo3r8vJz+Y8AGCPNwIGv9+rZp2ZwzQqnkvv5N44nr4lLjwUADMhADaDRIkIAIKhK3efDRtTxaQFQAaYcccBPTk7euOm39RvWUkqQ2QZMMHKpUTPovWEjmzdruXHTbytXLaWUIEdV+tHocX37DHCWhOKN+PiElasWx8YeYDYCSgEhDBQPHPhazx4xoaHB/FTzcvju0oONKQAi2Y8fnErdeOr+ZkoNiFCMNZRSirEWUIugV1rX7OvrWkPUSoTBxkoJQDEgkqvLTMu/mfc4EwC83AIo6N00XsFekRmFdx/k32zo3xEAgOKKtQY+eTwCANnZ2UeOxq5es+Lu3UQTwUvbTUD1wNdee7NTx+erVw8ofwkBoKAg/8j9ZecfbDeQAkpNChSimJo/OAZUx6/Ns7WGBHtFlqdsnEQy0tP37du3bv2qtIcP2C/iMVeUAkIAgOtHRObmZaekpLCWbT9zZ/GIiMTExN17tv/225oiXaFMJyIA4OtTbfCgIV26dA0KqglWOKhsYGQB1uH1p1I3H0tem6/LYl/ZxzWwrl/r21lnch7fpwgopZ4uVduFDGoRGKPFWkDEfudnCg4gkpJ77XDSqltZJz20vvX9O1x5uJcCjGuzfenF4ffzbn76zN5ymxTbwZPHI4ePHNq8eZ1J/XaAp5u27vfqgM6dO3DFT9LCitHgeKPhc2BkHogAgDCjOiIA+GjSqtP3Nj82PDIQo5AISaua3UGIuGq8I6s916XWSFdXV6EsNnkmpq6L2YlTDqW1/UYmwqUACPQG/d49e7fv2Hrx0ilFr68YCnnE9oewGBiKiop27Nj+xx/rbt6+YSc3piixQ0K7PP+Cc/sVsxzJur25JVzNjD2W9OuD/FuEGChGXlq/RtW7dK3zIWsbh+4uP31v82N9HpOzumdox9C3G/p3NmViOWcRX984fwFAMPvUK8/WeqNFYMyiC0OzHt/rUOv1K2n7MopS/912XwWvSwJA5eQRWz3h77+vrFu37sTJgwUFBYxERDWbXcsVb1cX93bt2r/ad3CzZs3s569ENPaBTWOF6bZpngwAt7JP7b31c0ZhMkaYkYiJL4xVTSnRIA1FBkKAYoSQBgx6DdK4aD3b1uzfvtYQs3g8WyNVEaBaXpA9KR28IDlx8uSGDRtOnTqshIuLC+X6iB05Wdfd/9e+TZs2X7x4xqESxOHq4t6iRds333y9SePmJStaBhOhA5joSW+yTeCCgvzNt75MenSJUGIA4oK0TQOi2wT383erbVpABADIeHz3UOKy65mHDcTA2k2wd+TLT403J7OhVvOBZNbJXm1r9msc0HXXzR/T8m8XkYIanvVS866Nb7MLkKIBpkxRWeysdl0G4OHDtDVrV8bG7jep38C6tEgZ7FpCKwBQpMuPPbj//PlzL77YfUD/wUFBQaUiEauRRxEBwIX6nPVXP0/NuwYAhBgoogCAEAHQAAAjEYQQAKYIKMUIARCCEKEarZ4aQJ9/8O6yKw/3vhj+UR3fpmbzPgVTQ9EKDGLP1C9fuOV3kpOT1/6+KvbA/qzsdMT9oyoIds4AvnPnztKlC06fPpmXn2siEYeiEgAo0hWeOBl782Zci+bPvP/++9WrVyPU7FFSojPMtWZ9BIAAwcwnCPDOm7MvP9xrIEWEGECjDa3S+Nnab9fxbWFpTAUA8HcPeSXii5S8uNjExbezzmo1LndzLi+5+EGT6l2jw8eYHNUsXShNmgj76MRQxH4p1OeE+TSLzzreoFqn1LxrgAAornD3jUqhj8iX+vhPBQX5u3btWr/x17t3E8UnAMBWw6KUgEAoYuLg4OD+/V57+aXe7u7uEgFAqXFOXLc3jk56A+y9M+fyw73EUESAcgpDyNzveT2LExwMiCIDpZjNqCnGYNCDRlvPt/XL9f7lpa0GIHgK8A+lTI+V1GdhYeGmTeu2bNuQkpKi6PmSogT2EVHUgoL8RYvn79mzKzsns/iFWzSMgOqB/fsN6d27t5u7e4kYBADE+axpAkLhambsnwn/4VMVX7caXcLfb+jfQVjcNS/YWU7ZyNWMI/tvLcgpegAABFEPjdeLYSMbBXTFCFsaXHgmhFA4c29jWNWWvq41bmWfDPSs+yD/Zi3vJnEP/2pds5+R5ip0SKgUPMIhfma2wrdq1coLF084XCPgvdrW7MZM9lQbGdnozTfebdGihYeHp63SlZTFGORq+v79iQu5dY1xgaWiZKWSKcZs1QYAECKEAFvH4ZK7aNza1OzXokZvgU2Iyde+WFQChYVFp8+cWrVqadzVy7ynYaQxEJ2Cii02Sjyvyc7OPnbs2PKV80vPdGzhiVJAoI2MbPT228Ofbvo0/9zFYxNqQeUpeXG7bs5+kH+LfVMXjVuzwB5dwj4A4zhkVlpN38jsOSKWe+ju0hOp6w2kwAAIIU0Njzrd644J9mpgYRkRL4wgQgPg9pQKV0cqGY+YQK5eu7ph/ca9+7bzCbyZGqwvGZhrk6e0tUjJ7nd57uWBgwY0bNDQbPJQ1Lb4hILczr5w+O7SuzmXEcIIIQMQDVAAjQGIlrLJixXDKgZEgBJEAUADWExj8hagjIwwBm+XGs/UHhwV0Euw6YLFeGWt9sSGxYxK+//aCUgvr6KygGIeMcupN+gvXriwdNkSbgopjoT2Zz3G5eFuXXv36dOnUaPGrNziUImxth8U3Dp2d9W19IMGakAIa7CmlnfTPvW/dNf4ANKbTFd6wWgql8pC0XhMCv6In3Yn+zSzo2FADap1ah3cL9grUlRhTLYPkTUsjf0VvegLlYFHLL+o/v79tK3bNm/Zsjk7J50NmyYqKTHvWn2QANX6+vpGR/fo2SMmNLSW0swpABi9Qq5nHmbWNUwRQZSRCAAgasXRXdRKJBoKpQRjANBQSplSY2IlI8sEVanbrtbrJgu/5QhpG4mJidu2b962bXNefi5v1rJJn/NRzHkNuXrt6vYdW7dt3cz835iQTKlkopq8WmwyhbhWDSBJaRxyKIWqvtVe6d0/OvqlkJCa3GiigE30ALD39sJLabt0+nz2Zc1fxKx6cHMsYQqIaFUx9XbBZGvq/Cm5cbtuzr5XcBtTPaXYTVulaUD3jrXfdtO4mBwU2VMCQ1FsYVtV1h7KFBXPIyJOnDy+dOnCuLi/BUc9BrGhSMwTNmFjdmPZ5qi2bnjdN958W9FiIQVAcDRp1YnUdQWGXNEThK3CsEZGEEWEchOJpIa5CwlChFIsKikS0wm7w5YS2UJAdN0xdj2XzEJevnL++1nf3rx9w1o3A+P8SPEiSLGgnEcKCvJ/X7du565NKSlJwm0rq7/2YUN5sd5C6kdEDnn9nc6dOypc48h+fG/NlXEZRansq/m4BrYO7tu6Zj8xf4uFYSrMaCxs4ZIpCRBq3GtHKPk7be/hpBVZj++x1/FzDx7QaIa/e20AMUMi7QiVgEEYKl4CEfPn/RR39TI1b7HDMp9xLLuwCT6mWXvclDkiN2/fWLli6f379y0M5lZAAEGhPudE6rrH+jxMEaWEW1IRwlwHwRQJy0ZSmubsw5zTWAL2rJiY3zHO0Qg5f397Sm4cb4W2Xxv0Bv3vv681OVzIXhlMI6RtyOqtTLBr164lS39OSUlhUlGLfcZY9omJcKFEPOst5Hp83MxvJ8fHJ9jZ/Sxi47UvGYloNW4dar3+TrP5rWv2M+7ZNYlhwUfm5V4tgF5QTEXiJgBg2sJLMMJNArsNfXpuh1qvu2mraJAm5/H9DVe/EDLUy2iRU1Kl6MIVL4QYM6KwKB+s938zlDdxwcvbAQqL8vMLCpWI+tiQz/8sn9U2SglCGooMCKHbWWcAmKpssxIIJXqdPjU1VVlnM5ci/mk5vCvst8UDoeRu0i3bhcqkouIGE35ta5pmT+C8/Nz4G3GgzCj2sOAOAHi6VH3n6fkda73trvUBAJOiYdq3LRpWhRhFhPLMCScCQokx5gDfgkABKLhrvTrWevv1Jj/4uAXpEcksSDY9yPQarDz6Ufmj4nnE6oe0M4FXPrdHCCuctGk0Svxo+M56PVNDCLGibjgdmM2FKaaUGqgOgG05t1kJJfOOQUjKTUIflqsGTgBGWFLtImtYseMggpHGqAUgfbEmPnIUPTYAmP1K7MBADJgif/dg4ywDwKgssl7NdvSbHI7NcxCT2viYFBTqc3J1mbm6zFxdeq4+vciQCwgIt6FRU1gAigFBoEdYnaotMUUE6O3scyBu56scUxirqCx+aMpbv3JLvv2UpVmzMPmnluzp4paFKSVsx5cGuQAoOj1Xo9GYdscoh3GRq6pvtYKCgiJdvqyKStV17YAVJPcqBIvPRAyEaLALIaYJAjdhyrJyopDMRGX6A4yVYF41I4X6/MNJq/KK0oO9I1vX7Mf3SaTkXkvIPH41PTa7KI1SPV/+raKtFuId2aB6J2NIAWkjZGY1YgBEZdOZig6FYROVhUeUg7cqAGBLeixcQN26YSkpSceOHS3SFZrbpW1rYslJpNQ5FBcYM49YwvQRJTAYDIpJxNxSq3h6de7UrUfP6Bvxt7bv2Hz9+jUTd8gN3s6EpCZF/jL/RLUI6Qk1UCAhwbXat+uUlvYg9uBeiUhKPoqo+DhctUEUKGNuo4+pEDELAVCcUZh8NnWTHpHkR3Gta/ZlGsTRpFVHU9YUkUIXpDUQAzPD66keIZylu5+T/uB65uHTVRq8Wu8bD3dPAACzmxxr2FiDCLJY3CFAcaU9gL0S8QjXMB1oCgI1IIQjGzbp3TumW7eXtRotADHuyOB7zxxZEyUFKeF7JNsyU9Yw+dTLF61sopj6CAHAbdt0jnklpn37dgC4SePmnTp13rRp49792wSvMCev8mBsXuIVXX7suP9gpOnZ+9UeL/dq2KARUNi5ayffamhpDrNXP5Js7X9xAlRjNmoSAoBZ/YthDQEwRRgZvQRPpa4/fHe5gRoAoyraan4ewX7uISxZTtHD7MLkzIJkHdUn517ekPDpoMj/aDUsHBExBUwDijEQoMwyYjFXqqSoRDyC5UOQNVDQI8AAOKB64Kt9B774YrQQGQB3ef7F5s1aHojdu279aodukdaaqYLRzNoqTFkDWVCCYyGLo4/gunWe6j9gUMdnn/P29iGUYABA4O/v/+67wzo8237Pnp0bN64j1KDcbq0QhPANBFaIQzq1QfrWrdr37/9a2zbPcJ0wOrpbq1YtDx76i39uk5AOqJYo1uwoxmDyPDYuFTNPEGra+w+AMEbGkMCkUJ97KmUjAUoxigrs2TVslFZjmmdRIEAwglOpGw/eXfqYFCY9+vtG9pGG/h1NRihjEEZKDUhCG5XA2cwOKgWPFGvWx5py505dhr37YWhoqPC4sen4+/v37TOgVctn1m1Ys+WPTWXkJQEAhBiY2aKM8mcw2XQN1KzUYof9RKPR8Gs7+h1Gmr59+/ftMzAkJMR0B4t2kIYNGj31VP0O7TvPmfO9zBvFybAlJEK4du3Qd95+v2VUG18fXwBy6t7Gw0kr3XCVLuHvN6zemX3ubds3b9q0vkhXCAqW6urXr6+w1WkB6RlHcH8TxBePMCBgRitkWvS/l5eQp09HiHhp/aPrjjFlY1RhMAAAbl2zX/bjB6fubwZKLj7Y3dCvs6WfO3MdENut6M1cGVEpbDbFNB3h2rVD3x8+ipEIf5xYdufQ0NBBA4bUr9/AWUJy8E+JEC4HxYRSyrxIRLc3ZR/Oin4nWd/19vZ5pXc/TiLCg+ZHtBptVFTL557vrrhcJwMjzYcfjOny/Iu+vr4peXHzz7657/b8x/q8LN39zdemrro8OleXHhoaOnz4h11feJmtsMpIhPBFYl8fv49Gj2vU6GmFpRPOwmKeSNqlufcQ937SIle9QW+RBIBXYFSNXtXdgl00bm7YnRgXdzFPwHwUzWWxCVRlJRGoJPpIceHhXsXHxxssFRl5UJyAgIA6YRHX4+MqRsqKhxXdQcIprq4uouZia4gmlLi6lB+DSBQoDw8P/2p+AHA1I3ZT/HRM9RRrKTVoAFOgiblXfjn/zjtPL/B1C6xRsyZQLd9JZBkmEqp4erVq1Wbkhx8FBQVwVw6nL3/4utXQYvfHekNO0YPtCTNaB/fzcQt0x75ajXGvMFu+9Xev/V7zZdY2muvB5KP4BOGJ5BEGq3EGGNgdrYvW3dOlIkSr1LA7zbHeu8p5rVEuHjFQAMjIvwsGPWANIgQjCmAAwJgiPSks1Of6utUAAOF8BuOuHEqJBmuaNIl6e+g7UVHN5JHxnMsm/u4hId5NbmaeoBj//fCva+kH3V18/d2Da3g19HUL9ND4eLkF+LnX9HULBCAYiZHQGMtotdjNWcKUG55gHrEVUrzSrrFXElhZUjWBn/NQOevQQHUYs/guVEs10s2QfGcSCBcUN6gf+dJLPfr26UuoxXxN1GSLt/3XweQOdw8ftVX/KDXvml6jJYQU6rKTdFnJuXFMchekddN4B3jWqeXduE3wIDfsYbkfh+jJY0kc38qPJ5hHwAZlKNw3oUIOq0fGVBZOMdKEBoAipCGUsLgtGANCbgCi+YBZJXGVKp59+/Z/Kbp3zeCaAFacL+yotKUA8XWtMaTJT5cf7E7IOpGae62IFOYZcoAQDAgBIVSXq88syMlIzDl77v72XhGfhPu0BgAwxrsjwAJKVPhZm8XBk8ojhB0eKdNLy+3YgX8WzGOsWJNc46s8pEyIASFjCChKMcVsFV7PPPT0Oh1f9ej2Yu9X+/Xl8WWswpZKaxeOEpt2/TYJ7NoooGuRITdHl55X9DDvcWaBIadQ/yg178a93GsF+gwAyNdlbbw26f9arnfTeJj0ES1UhGNBKfGk8og4uAhsIlVWK0a4ygp5WGz+k9VT7OycR1VucjJgDQIETwe+dOnBnke6NB4xGwMmlIZWbVqjSgMAEl43rIqnT0hI7beHDo+Kaunu7gqA5a9WttILDRMj4q71cdf6gEc4gNkVutCQcyPj+M7bPxaRQoOh6Er63qjAXiaGIgDS80kqP55UHiFEStjM8cFCNyEqj1hA4uVFKUlPTz98+NArr8SwgLWSniZGhz567HiFyAkABQUFGemZAODrWmN48xXHUlYeT1mrB4oIeLpU7RI63BjcFKDL88+3e6YDQpgxiPgW5UaIf1yfejP7tIfGe3DjWb5uNfh2G8H5lbhrfZoEdkvIOhGXHkuAFhZlGx+mRgf5J4tE4MnlERvAGAkKeZlt7BejFpUbLFxaHbkkGQwGhxo4QphQw9x5P5w6fXTo0HcaNmwiP93y4cO0ffv2/bp6qcKoyxhpwHkmFaaYEGqY8/N3WdnpHdp39vXx7Vj7rRY1eu9I+I+Pa/XoumMs1Q0sibnrVOjtnPvBv06+PvuxPq/AkJuad83XtYaZRMwxh0Q2R5RSF407mH3trUI8xqgy4knlETavsXqWUjmoryZvblIO6/ysL2FApiO1WINzcMS06BUCdtd6AelPnT5+6tTJfv0G9OzZJ7xOGPP+LiwsPHrs0Jo1q27cuF7ciNDO+gTcXz4lJWXmt9PatjkU80rMM+3aeblUG9BgOrNKltv8i7DjHZB1luQWjVreje9knweA3Tfn+DQMrFGlgZAY86Hnfv6NOzkX2FMh3o2N8y9TrCN2MLBYOCCT43ylpJInlUcYbLk5lEV7EhqrFuAxMbqGlmHAZAaMNQYgCFj0DTCNbEo/nHxLvjUQQGT9hrVHjx3s3fPVTp26JCXf3b59s+kkXR4ktXhUolw8JQkw0pw4GXvi5F8vR/fr0TO6SePmPBS73Pzh1IHEqNnxYKjYbmjlpwNfOnd/e74uK1+XtebvcU9VfSbYO9LbzXw47KPHaSmP4m5mny4w5GJAQVXqBnpEgCzIo5GYjBGSuFN8ZSQReHJ5hNtHysibSA5J5uxEq3LY8ksp1SAMYDAXVBz9VgEF8J9ISkrK/IVzdu/+Mz0jPTsnU4jhiBVSiem7OFCXRPFs/WSNAQkA7Phz86nTh7t06TZo4BB/P3/jO9iw7JQelGILzkAEQGv1EzC7vq9bjX4Np26+NvWR7h6h+rj02KsZByVaM9ssDgBV3Wr0bTCFbVU3neuKAUBLsYGtJPDIrGLIgsqHJ5VHJM4AVm3yTrezsoaiJ4UEUUytH0xTFmAbAo1jU/E3aykc8HnHsNyPZ2GaVVBYMWIdcQOWVYaSMBfboUspIETSHj5Y+9uKUyePv/JK/569emk1AKAtu1GEIj6jBHm1gMxZKdirwZtPzzl3b8vV9NjMgmQDMVDEiMNACLBZqo9rUOOAF1rXfNVd68VoFyPzgg47Tc2Un950pl8lndTAk8sjXB+RT4/N6omz7awYAfNTKE83IYQIpUB4/DXHyi0Bo52V/2kvvXxfrKRXF/MoGan7ib3U5pPArKe0vI+N0lIMiCDQ3rx948efvt2+Y/Nbbw175pl2WosojU7rchiQAQnRWAEsg8ILKU0THwLg5eLbsfbb7YLfyNGlFupzc4oepOXdfGwoqOXT2Mc1UKtx93GpZgr1ygO7AQGC+TITRch4fJ8WkB4rnslWCCq1cFZBKdFoNB4eHiAYViVp2H3L3ZZOAdYgF4S0lDxmhs9yCIlGKcYYAdVTwH5uIY4fAKx10fr5BQLE2T5dUAJSbL3DipyEBaDDyEWycKboQccgGLkQarA4WhDB9fi4L76Y0LFj57fffj8sLKyMtJK0gju3s88Zz+6VzS8wwgZqMEYsB8IDGmk1Wn9NbQAIhkjjYTdIXPSxXACigBFOyY27nnGEuc+H+jQDAEB6UokjoTFUUjXJDhDCrVq1dnXVgu1psHGfnkZbL7y+80omQMHXrbqX1s9cULlMWAlClGKtxq2OX0vTPXsUqdVoe/fu7evjx6ME2Q2yz1cizZvrOcQjqcBusH5W1tNPt2zX7hkAkBsO5ahRowYUg7YwDz5E2RoqIuwOoYbYg/uHvj1w6ZIliYmJppdyDur4tdEQWmDIXfv3+N+vTryVfUbyzRG2WBozOkAizhSmf40qjNYcEIcFbDXSIqTkxf1+deLKy6PzijIwRbW8m2JjFLMvZjcAACAASURBVNgynLI5C5pJkyZVtAxmbNi49tGjRwAEAAHFgCgAEZXI2rVDh7z27pAhbyHT5AXZjVdTt249f3//tPsPMrMy7CTz9fXt8nw3v6r+xqKtgxKgCGlCq7ZIy0vI0qcjAASITQwoJRhTAEQQRYAwICYbQiwgjfHgKwDEU4LJ6YBaewuCKJiscRSIn1vN3hGfB3rWNcnigMFCQ8MaNGiUlZWbmpJEgSJEgWqE+qTc1CcAWYmrAZS9gzEFMn4XmcwkoHrQyy/1em/YiJo1gwGAgINPAwC1atV2d/e+/yD50aNHVitBBkEMyzsMFy6eOX3mOEYuNWsGu7u7WzYPYn024ggN/Don5V7OLkqjQLIKkq9lHM55/CDAM9xd68US/P1wX0LmKYSIh9anVc2+RvH48goihJoq0NgSkDAzIgC4UP/oQOLiPbd/Ts+/wzSPMN/mgxvNMieu9Khc5+kNfj1GCIZoPJkVACglXlV8XnqpZ3T3XhEREeIjVpVny5skMTGJn1Ap16IpJaGhdaZO+S68TrgD+YTTmy+n7T6WsvphfiJotJhSdhanVcsrv2l5NKdxhwi/z0KEAxhjYbEw8QhhT5eqLYJ6dKz9tqBRK538FxUVHT4Sy3xACNVZPmWuXklt2FIQTD+JpRvnFy+/FNOjZ3STxk8rP+/SlEYfH39r48YNe/ftKNIV8sxlLvyg4JWNob812KVJk6geL/eKju7mLMXk8oPdx1JWZxQmM5u3h9Y3zKeZm9Yrp+hhYs55AymilDYP6mEKgGY6Oo9BJAJ+Iq/p/tGkVafvbc7VZ2qAEgLVPUObB/VsXaPfE0EfHBXPI+LC7etD+oo8AgCsHXTu1CXmlf5RUS1t5KFoKn75yvk/Nm/bvXeL7CBxUrt2nalTvlMwuxbcCikQIMeTV7Pj9SgloNEiQhAiiGooMrDzesE4eBoN9Ywy2MGdAOwOO52TAABPww731WDXiKrPdAwdKpzPqNSvUayQ5OTkgwf3r1m7SuKTav8cdbDSmfn0BzgHPd209eBBr7Vp21Y0cxZ3Mws7J3zzH+tiD+63IZ5C6jS3GVcX93bt2vPgmyUHNRtWT6WuP5a8tkCfgUxRCxj7Y4rctFVGtFjpqvEyGkotHAX15skjM5EABiC3sy/tTPg+uygFIxcd1XtovNrW7P9MyGuVfxYjR8XzCJgbPRn8el8hWi8GgPoRkW8PHd6iRQur/s72Wyrf+8vzLywsunDx/KJF865dvwLCzLx27VCTPmK/vZptbMY8KWQX3TuWvOZS2k4d1WspZofRM+4QvV15iHnjjlVLJYUgCmwZiBpPCA71atylzohgrwhjxHAAzl8lG6kSExPXbVizZcsGO7v1rN6x9VNA9cB33hneoX1nX19fKzWlmEQ46eTl5p46fWLJ0gWJibftSCjPwMYnIwB44IAhH3zwf1AqjxKLleyMwrtn7239++H+IlKAAAjVa7F7iHeT58KGBXqI+iwP9S7EfDfZWQsNOeuvfp6ad41QnQGMhze3Ce7n715bsE89SWxS8TwiNDgzjwAACwcfE/Oq/R0TJXA/Kyws3Lnzz1W/Lk5Le8isXEwfcTivMXoug4UnGBMgo/DujhvfJeZewRRJ5i9MywCTHz3vGEzvYCeKs+NJAAAD8nIN6BL+/lO+HUwjPD9ByVigQn8kuYee3qC/Gnd1wcJ5ly+fNdksHazvsjmFcISFMa5H7959Bw96Q2SQEniUWt3WUFCQv3nzBkF7sj7/ErORvAiHr4/fp598yU7SsFqiInBDhvnYLVyoz2E/PjbkG6jOVeOZV5Tp6xborvXiy8MsNLzZmZ0CID07NOvMvU28hQRVqdu3wRRft0ALIcvJgu80VDyPMLAPPPj1mHup9729fTq0f/6DD0b4+nrzfd+SxFCMTRxEPFmeP/LoUc6y5YtiY/enPbwXHFxr5oyfHCnAnDt4wxUOH0AEKL6aGbv75px8XRYYLSAaxhQYA6UWOogBCNvTiQFRBHwi07Zmv4613zaWIuULPQDb5eGgkTkKwkJ2/Llt9ZoVd+8mWrVHWHtx9r5QxdOrSZOWI0Z8GF4nXK4ZlXhvvhDxH4BiAiQ1JXXZsqUnTh7KzslUQCUWoJQEBtRo177j22+9V9WvqjOmCcZIZXI+upoReyzp14cFdwzE4Kat8mLYyIbVujC/OMu3A72BXEz/83Di8lx9Jhs8PF2qdqs7qqF/RzNDCbNmlUeKB7HZbdz0+/nzZwcMGNSk8dMmBmG/WGkKCoc+O+EnCCUJNxJWrlpcr17kwAED2d55O5IKnkiCLi2bdOy9PfdS2i5mNJEfTIEBGaiBYqSlmAClGFNqcMXuEVWf6V73I3etp6kJStSQksAqBfNJxG+//7pv/y75KT/W/dAojoxsFPPKgOjorgrdjhwSiiwBWwHlJz+Ry1curljx66lThwk12MpEIrCvj1/LqHYDBw0QIxiVbs+EYN4WTwI1TVp33podl37gsT6PTU5retZrV+v1hn6dxRnN1YzY0ykbEnOvAICWYhetZ9OA7l3rfGj57thyrFLnNcWDGORWsEhJDhNzQilgRbuR5m/3+/HprsWDEsWBAOBcXfqOhP8kP7pcqHtkManBGBFCMcaUAhiYga2mZ73nwt4L920JYhBzsSypYI6nNtZ6jsWrMY6Oj0/4/fff9u7bbr+j1q4d2uOlV3r2fMXb28d2/s7a4qQHwIIKSXb8ue3PP3eZz0i0jc6duvToEdO2zTPWpFK65UcKixYiLMQIX19P9NsTZlzPPMz2ZCOEQn2avRA+MtA9/H7+jePJa/hPGqwJ823VPXyUMSo18HFILOsJIxGoHDzyj8Wt7FNH7q5kAX7ZNEdymmdVtxptag2MCuxVoWKSo0ePbdz026nTx80rrOzIOMBVPL169ox56aVejhfFyxIZGRkHYveuXr0i7eED2TIwAcBPN23dp0/Msx06u7q6lo9IJmXZNAQC3Mo5dTz5NxY0gCDqofEK8AhLK7hTYMhlc9ha3o061H4j3LeFmdGetPmLLag8UmYwLdNeTtt9OGlFRlGqxrQlxwDIQ+PVqkZM65qvmjZZVPAQlJ2dfebsyV8W/ZycnMRMqhi5PNe5u2SCUP4QdZzExMTde7Zv3LguLz+XG00CqgcOe/f/2rRp4+/vzx8Bp275tSMdAFjMcJH+asaRA7d/yShKZdxBENVS7OMW9GytNxsFdOXbZ0xereRJ3Jsih8ojZQnTaFOozzl7bwvzNAGAyGqdTV4hRDgstoKFBYCMjIxNmzaeOn3Uy8srJqZ/q5at3d21ps2m5U0lVu1fhJI7d+4sXbrg2LGjHh4er776Wq+evURjarmKKpjGTPtxtYSSIkPu2XtbTt/brCMFGGktBgxxFvMPgsojZQxLM4pxLZBiy7BaFauMEPujYrlFeJGXKLktGk0AwIGnT5lXqWATFfxTzXeQ+fQ8S5PWk2f+cAiVR8oOokXWZD82G9IYxLCdlRHlTyK2BHB64lLDwp8AAMx+AILRxLgNjwrb88C8wv2PUUxUHikzWFCG0Y/euBAjojKQiKA0yfpGpTkHyxKCy0mFyyazkjCwwUOqqvwzUeHf4J8Lc3gro9OBuTey3eLItCUUQNBQKgImT38AaTCXirKMSC7kvxq35wseInYeKRvoLRnEVK5Z79Aa/zRPZwDA2CrKUc7ygKqPlCkkvonW7Knm4as8BSsGKqU+4sCmU06w4vph+aulV5HpAp5QZzM7UHlEhQoVpcU/hA5VqFBRgVB5RIUKFaWFyiMqVKgoLVQeUaFCRWmh8ogKFSpKC5VHVKhQUVqoPKJChYrSQuURFSpUlBYqj6hQoaK0UHlEhQoVpYXKIypUqCgtVB5RoUJFaaHyiAoVKkoLlUdUqFBRWqg8okKFitJC5REVKlSUFiqPqFChorRQeUSFChWlhcojKlSoKC1UHlGhQkVpofKIChUqSguVR1SoUFFaqDyiQoWK0qJMeISdFVaCE8NKdsiYnVPXnAsn5ukwq9KXVYIj5pxYaGmeKmXLKeuj6oqbv9PlKYt2WMo8y4RH2JmJ4iFsDru65WGL9iBPwAsilPBflWRVXIgFKRfPflYlTmC/ULH+ldcqPxLcVrYOUdxqF8vld+Rng1p9SrwQHynx6X8KX1z+jvZZzOmnEcoztFNFDrNivaaUQpbVvEZS11alFLslT6+wg1mtJowwz6dMT5PkMlhtNEo+qq2Wp+RoW1vyiGkk766kViX1VqwKdPit7ZRr9Y5YD3a4yX6XLi5E5rWap62mpYTFnHgCsX0aFe+ITZRdWx287fQphahc53IqbLtiMlvXynMrgXi8cRdX2mKlsd+lrb6sU165BAxSDoVa1VOsfu6yqARbeRb349pprqURT/4r2NbyymKILSc7q3zotqVQ2PpJnsz+dZlUlqXSZKthSS6UiCG+uPxBcdS1la39uaTCoUbS/hwOoaxEO2q2knIdMpFVqawqBaUkNblWJaltyQeyVZak5pU01+JCom6IFzyBrddRMj0vLspWH0lOTj516uTdu0lxcXH37t1LT08nxCy6m5ubv79/cHBwgwYNwsPDO3fu5OHhWYJS9AZ9Xm5eFa8q/I5WU04n0esNen7NZNBqtPImLibDWNrxrKoSiYmJx44dvX379rVr11NTU3NzcwkhGBsTeHl5BQUFRUQ8FRZWp3nz5k2aNJFnaOtPCRRKa2u0tyq83qDX6/Sp91J9fXz9/f1tFW0LFy5cOH/hfNLdu/HxN+7fv5+bmyv+6uXlVa1atYiIp+qEhzdv1rxZs2YSqUo5hNjRazIyMq5ejWON+e7dpAcPHqSnp+v1eowxa9gYYyZeWFhY3brhYWF1Wrdu7evrK8+89HKKeT7KeXTlyuX4GzeS7t5lgqWlpUmSsTYTEhLCBIuKipJ8mtLIUyY8UlCQv2vXrh07/rx48aJOp7MoDyEAsFqol5fXs88+26PHy+3bd7Cfv+SFCwry33tv+J07d9zc3NidgICAJUsWl4yVHIL3nBlff/3XXwfYzdzc3E6dO3799QyRwljKwsLCYcOG3bt3j9389NNPu3btKs+Nt93du3Zv3Ljx7NmzDj8NQsbPFxYW9vzzz7/Y7YWGDRqJ2ZbgvQBgyJAhXNoxY8b06NHDIXdkZ2efOnUqISEh4eaN27fuZGRkAEBWVlafPjETJ36usPSEGwk7d+7cvXt3SkoKezX+gpL3FVGrVq3o6OgePXrUql3LiRqo5O3++mv/7t17Ll26lJ+fb18eCTw9PSMjI7t169a9ezdvbx955qWBRDCxczmUjQv24osvcqYrsWDO55HlK5avXbP2wYMHoKyi5WjWrNn7Hwxv2+YZq7/KGzGh5Py5c++9N1xM1rZt27lz55bF7IaVuOWPP6ZOnSa+4PoN68PrhMtTFj0u6t69Ox9UJ02a1KNnD6tSbd++ffny5QkJCSWTCiHUvXv3oUOHRkREiAIUtwa6du2amZnJridMGN9/wACrkyZGkQcOHNi+Y+vFC5clWgNDdHT09OnTHZaYmJi4dOmSLVu22k8m1racYnr16jls2HshISEOi3MI/rLZ2dkrVqxYv3691bezKonVOwDg5+c3ePCgt4YOlSukJRDvUc6jFStW/PHHH/xL2e9rVn9lN50imNJ+7tDKBQAnTh7/ftZ/rHYDhFCVKlWCgoK8vLy4Bpibm5uYmKjT6ay+ZM+ePUeN+r/q1QNsFSfB1q1bJ02aBEKVjf5o9FtvvqXk7SRwaFSLj48fPHiwKPOSJUuYgi1HYWFh//79U1JS2J/Tp0/v1r2bRAdJTUn97rvvDh06JD7IXsTFxSU4OLhq1aq83oqKirKzs3mGcgwdOnTk/40scZt45ZVXkpKS2PUXX3weE9NH8voAUFCQv3r16vXrN7ABwxZ69uw5efJk8Y68bhcvXvTLL4uY3sq/Hb8IDAwMCgriEwcASE9PT01Ntdp13d3dh78/XPLRi8uk3Iiwd+/eb775JjMzU1SOxLbq5+cXEBDg4eEhfpr09HTJICo+Ur9+/SlTpohEXwLs3bv3+++/t1Pzfn5+/v7+Yl+TtxmJePXq1Zs06atGjRqXTCRFdgSrM0bJGDVnzpxly5ZJHkQItWrV6vnnn2vcuEmNGkGcFHi2qSmp9+/fi409ePLkyevXr4ufatu2bUeOHJkyZTKb5jhsCr169bp48cLGjZt4Dj/9+FPrVq0kVaNwXcDWKwOA3qAfN26c2KQ+/HBE06ebKsmc5yOWsn/f/q+++qqwsFBMExkZ2aFDh7Zt21SvHhAcEszNLuzfgoL8e/fvJ95JPHDgr7Nnz7Fuz+VZtmzZuXPnZsyYHhRUU/7WJV7X4KVv3759/vz5VomMyeDl5eXi4pKbm+vq6iIpVKzbhw/T/v3viWfOnOGPc+6Iiorq1q1bcHBwrVohkvlpQUF+UlLynTt3du/ZdfbMOTYgs89RWFj4048/Xbxwcdq0qeypEqhjLL3YnplUrIiGDRs2a9asXftnggJrVKtWrapfVUnFMvHS0h4cOXL07Nmz169fF3Wo69evDx48+Pvvv+/YqaNV+7TDVaF58+YtWrQIISQZfSMjI5s1a9amTZvg4OBq1arJbR+PCwvv3b+fmpJy4sRJ1t1AaDMJCQlvvvnWN99807Vr1xJUmmN9xGqmouFXb9B/9eVXO3fuFBO4uLi8/vrr0dHR9qlXzPzwkUMrlq9krYrN9ACAUvrZZ5/169dPycsQSt584824uDh+Jzg4eMOGDa6urkoetyqV/OaET8bv3/cXr7fWrVvPnTfXTr3L9ZHo6Gie5/Zt2ydNmiQODt27dx8wYIAt7UYuVdHjogMHDqxatYq/OO/Ms2f/JyqqpZw47DcUO/oIIWT6tGlbt26TNBs/P7/IRg2aN2vx1FMRAQHVq1Xzd3Fxy83NdXNzCQqqabXcCxcujB07NisrS8yqXr16r702+IUXXmCmBIcG44cP07bv2LFyxUqu3jOEhYXNmTNHMsdR3j1mz569atUqSUft3btXTEyfZs2aKcmHpzl79syGDRt37twpGf//85//dO7c2c6DVsHZTRxxuWAKs2L3uWCSX5lgxaWSYtsvJAUUFRV98MEHFy5cENNER0e///77oaGhVh+xcxMANm/e9P33/xGtWQDAqETJu92/n9q3b7/Hjx/z93qha5dvZ36nsHSH+O23td9+a87Nz89v69Yt9oc+WzwiN7LUr19//PhxUVEtHUprtazfflv7009zuF6DENJqtXPn/swyVL6Iw3iEScV5hM3JP/jgAzaOcTRt2rR///6dOnWs4uWlXNE7cfL4R6M/1uv14lg9avSo119/3eqCl32xHz5MW7BgwaZNm8XGHBgYuGzZElssZifzzZs3TZ06jUtFKW3WrNm4cWNFxVaJ4iDi77+vfP31jLi4OJFN1qxZIxllJaJKctu8edO0adNBsKQ2adJkwoTxJZiM8Jy5YOKva9eutSWYLSjqS8T2gvnYcWMYiTANwsXFZcqUKdOnT+ckAjbWq7Hl+ja/jonps3bt2rZt27I/WbYzZsw4fOQQtu3XyBEUVPO7774V29P+fX/99ttayeuUYMIMAPHx8d9++x0Tif377bczudZdXGI6fuwYa69M2r59+yxfvlxOImDDf0Qu3sCBg37//feWLVtybU6n03344cj4+Hi5eA4rk9chS5aVmfX222+LJBIYGDhlypRly5b16NHD29vH6leWl4gRjo+PH/nh/+l0Ol5Es2bN1q1f98Ybb7DVLuU1ycqqXj1g4sTPf/hxtqeneQb04MGDESNGFhTkK5/EYYTv309lfZWvffTu3WvR4kW8rxIbLirE0rtcUgmNGjVetnxZdHS0qJJ88skncgFEUcVSHj5MmzZtOqWUqSEA0KNHjyVLl1glEeJogxvPmQvGf0IIjRs3jth2gbGeof2fxVLlTXnmzG+OHjnOrimltWrVWrlyJVsmtC+9PFuxWYeEhMydO7dv3z6iYjlu7Pjk5GQlLax9+w7Dh5vXbiil33773d9/XwHbjUACifwsfWFh4ejRo0GYLY/+aDSbNUiest8/DQYDAGRkZHz22b/5zTFjxkyc+LnWxWLNWPwXW+6DkFQdvw4JCZm/YH6PHj24nDqdbsSIEY8e5cglUdhdMcJ6g37YsGF37twBUwd77rnn1q5d+9LLLynPlgmfnZ09YsQIfhMhxDpqeJ1wsRPab0L8V7GsZzt0XLFyRb169Vi2CKE7d+58/vkXUJyRY/78BaLlq2fPnl99NcnW24lfHJv2ZFhtY4QSrUY7ffr0F7p2AdOnuXPnzvIVyyW58W8tKeLnn3/mHAQA0dHRkydPtm9wsKUxSTLHGDPBOHUmJyevXLlSlMdhvRXPzCbmu3Pnzt9/X8d+QgjVqlVr8eJFTB2SV6L9bK1W/cSJnw8cOBBMFafT6eT8bQvvv/9+x44d+Z8IodGjP2JDk0ONRpRE7MwTJ0588OABH+pf6NrljTfekMivhKeYk8s3M2fwpcQxY8YMGTJEbEAStZZfi71I0uB4oRjhyZMn9+zZk5eYlZX174mfScRQUg8IIY1GCwBfffkVIxEAoJQOHz78+++/F50O7GQiaY6fffZZZmYmHx4GDhz41VeTJAyCLfdJyfOUf0f2Z1hY2OLFi4KDg/m4feDAgd9+W6uQRAoK8v/8cyeY+nlYWNhXk76y05HEOgeBTeyk/PrrGcHBwfz+wgULCwryJWnkOXPBmGwhISHTp0+3OoBJeFaSAITdNGBJN998M7NmzZpg0pXmzZ2Xl5sLygcbJYlANgJkZGRMnTqV/1q1atWFC+f7V6tm9UEl+iRYdlqG8ePHP/fcc5yG4+Li1qxZqVDaGTO+DgwMBFO9ZGVlTfhkvJJn5YJhhNesWXngwAF+Pzg4eMrkqZLvAcoqvUaNGvfvp+7bu5/9OWjQoCFDhkhKtCWJRCrJfbHqJk+ezA1vlNKjR45v3rxJTKlEVEppSEhwcnKyaI374ovP3xv+npiJ1bYrSstTrl+//sSJE/yn6Ojo8ePNH0XClSKH2q8QsRRvb5/58+e7u7tzS+R3381KTk52+LIAcPLkKeaFwP7819gxcl5QMlkAa42ZQavRfvbZp/zPwsLCXbt2iU9ZVTGYYOxPhNC//vUvsCQviQBWFX/7r4ARZoKxStPpdLt27bb1plYeV55UlOCbmTOYPY+bCfgSo1w+paJYU8amT5/O6ICxyX//Oz87O1siDFirGg8Pz9k/fA/CNOTokeOLFy+ypQraweXLl2fN+oFds1r+ac5Prm7FWwPirTMvP3f+/AXsOjIycuy4sezaFlMoh6Q/z5o1y93dnf/6/ff/KSjIl88i7ePRo9yFCxfyP0d/NDompo9V8exIy8eeWbNm8ZthYWHioArWasBhzlYFCAkJmTx5Mld52OIIKPjQN27Eg6nBBAcHP9uhozxNsYSxmviZdu0iIyP5nzt37pI8Jc/qxo143n4CAgI6duoIiifptmSTo337Dkww1sj37t1bjDyVly3aePlwSikdNGiQuLjoXLi7u0+a/BW7Zg4CK1as4CKJ4smlbdig0WeffQZCH547d97Zs0ZvBVHDstXCCCVFRUXimAkAkydPFifzCsG1qoOxh/bv/4tdT502VXmXVgieob+//7//bTbB5OfnL1tmnI1L5kR2sH///iNHjrDrvn37lMyvj2Hx4sXc2QwhNHPmTChRN1CCrl27Pvfcc2DqEgcOHLh67W+HZfHdAAihyEYNy0IwVvMxMTH8zpUrV/jUBmwoMhkZ5plgo0aNJJqaE9sPF4xSKhHMPooxr+Gf4b///Zn3TD8/v7HjxpYRiTC0bfMMM3awNvHrr78ylcRO5wdTA+3Xrx8zknOBJ0z4hNWOkhEPIzxhwgTRcbBv3z7MilkCsIXYbdu25eXlAUCvXj2ZH33ZVV2PHj0iIyP5u69evVqc9Copd/v27cw1IzIyUuFOGat4+DBtw4YN3JI3cOBAvrJox6paXIj5TJw40cXFhVtMf1m42OHjWq2WS1i7VqjD9CUQj9W56OuRn5+fkHAThHZrtTfxj1irVi1+s2R6qyiP5E+JYNevxyvMSpEE4ovFx8efPHmSs+MHH3xgy7bkFLBXHTlyJJgsHTqdbseOLWC384sVNHXa1Hr16nF1IDMzc8In4+UN1+pqy/IVy0Vf9fr165emL1FK9Xp9bm4u47Vhw94rcVb2IdbAv/41hhWHEMrPz9+xY4fyfLiJAQC++uqr0oi0bt16vtDr7u7+wQfvi/ZXp7QfiZLl7+/fp08Mb6ixsbH376c6zIS3E63WyVvGxU5Uu3ZtPz8//tO9e/dE4a3YWYiBv4izBJOwFfuTCcY5KzU1FZTpO8WbeQLA5s1mbx8vL6/evXtLhFOSoRKI9BwREdGyZUte7pYtO8Q0cgrAlgsZM7+dyYcmhNDRI8eXLlkieVxutbpw4cJPP/4EgmuMOL0v2SjKX6Fz585O2VFmC7wGoqJaRkZG8vWLzZv/EN/a/itw01LPnj1LsyWkqKhoy5Yt/M/evXtxfxMnTuvkI/ngwa/xa0rpzl27FZZFKeVzHGdBFMzd3T0gIABMTSsrK8u+ZoGxhl9zwUo5qbFq3mKC8cEjOzvLjlQWjxerbL1BL5qX+/XrJ7qcO3d2I+nYvXr1AlO9X79+nftWSezVklVGhrCwsGnTpol+AXPnzrtw4YK85fHr7OzssWPHgrABYdq0aSEhISI9leZl+/Q1TkSdaxwRwStw4MCBXF2/fv06W8G1pT/LgRAS/XFKgGPHjqWlpXH/PbF7QynUchFWjY6hoaEtW7YEU7PZs3uP/bKqV6/OryVuu06HwWDgTSsvP89WMiZwYFAgv8NaPv/J/mKZfVhdOWb+TUwwO7ucpXIWq+AzZ06z2TJ3hhHlcLrJUMyza9cXXFxcdEFkAwAAIABJREFU+Hh++vRxyXqN2JIklYsR7tq169ChQ0U/17Fjx3JnR/EtGJibA5gqdNCgQSxoSGk+G4efn1+b1m25bKXJyg54hXTt+kKVKuYgTwcPHlRYNPvKbdq0qRlcE0rx1gcO/MUVoiZNmoi+zqXJVszB1ru8/PJLYPqIV69etT+1eeopo86FEIqPj+c9tiwwcuTIjz/+eNy4j8eN+7h9u/ZWp9UcdcLq8OubN2+KgpV41cbqTAojPHLkyDFjxjDBOnXqbEskCYpX/NEjx9gFpbRevXpc17U6tXMWWOYeHp6t25h9xk+cOCOOqFjwXJI8yP8cNWoUG50YMjMzmbOjmJ5dzJs378SJE3yW2LRpU7mbQ2laf4cOHVxdXe03ndKDv46Hh2fbZ9rw+6dPn1RYKOt+3bq9WJo5iN6gP378BM/w+S7P25KzxLCTQ1SUeZcApfTcuQu2UgJA8+bNueJGKZ0/f34pBbODzp07DxkyZPDgNwYPfiMiIkLsyVYFc3Ex7pymlP7888/8pxLXni2FlAk2cNDrTDCFRThOITYdcYt3x44dbS3+Ox0s81atjJ0BIXTt2rWioiKrczw7d7777jtu32LLgaJjMsPRo0cWLVoEpl7k6enJvA8keZbmfRs1igTLQaCMqITP8tq3a8+708ULl+VVZwsIoWbNm/M/S/DWV+Ouigte7du1h7KczUkQGhpat25ddo0QunTpkp3Evr6+XV54nic+cOCAQr/Hsoavr2+nzmZnlkOHDq1ataoEdSgfaG2lLO6HVsA0phwLCvJv3LjB77dsGVV2HcAqGjZswC4opWlpadxT2yG4kL6+vj/88AMfcwDgpx9/Onv2DJ8WSba9AMDMmd+UIMKoHSCEGjY0uyGVnR4nKmsiF+Tm5iqf/AcEBMiDvBULog9VYGCg8iHOWWjcuBGY7Fy3bt2ylYx9iPeGGS1BbBY2a9YPYo+VL5Taz62UEG35XDCG2bNnr/51tf0S5YbYsqt2peu+AHDx0kXuR+Ti4hIWVgfKciyVC1ArpLao3TEeUTR5E6qvSZMmY8d+xK5Z+54w4RPmVUEoGTduHLctIYSGDRv2TLt2CktRCK1WW79+BJQlgzCIppzatWuLVgnmuGkfrHKeiqhb3PkXsYxdfuXKFdGHSnk+pQcrqH79emAaNm7dumWrdFZdERERfJsCe2T27NlTp0xhhhWxtXOatlo/tuxuxYI4W4+IiBg6dCi7zz7N7NmzJ0+exC0+ojB2uKOUqzw2RVWUCGEAuJtojG1DKQ0ODma2NxBeoEyXHgglNYNrSlbdoUT9cPDgN8Rtl5mZmZ988ilGeOmSJWIglXbt244YMaL0sxgJwsPDPTw8nbu2ZQu8FK1GGxoayvWCu3eTHD7LBuTQ2nXsT93lkKxkMScrhvr165fPi4Pw7sHBZgLNzMzMysyy2lD5zY8+/kjcRw8AW7ZsHTBg0Jw5c27dviWvDcmFfFm9lGMtz3bUqFFs+6XgALG1X78Bc+bMsbqIIy9XVFFLLI91IRWmI5QwpxTWFmvUqCHn5jJSzo2CIowRriZsBXz06FFxM+H45puZol/gyZMnx44d+8svi/idwMBAefQjp6B2aC1w0rqPHciVnZCQEN7+mOOTw0wopf7+fmBjyHUoAEZYb9DzAxAQQsHBweU2F+YFBQRUFwOypKenW22oop/B1GlT2eDP16pzc3OXLVvWv1//jz/+eOvWrYmJieKzctaQdFdn2ZK/mvQV10oYCgoKli1bNnjwYCbYrdu35E/J37GUwsih1DcOI/zw4UMwcSHbzyNWvXjhRPCvwv6tV68ej92Uk5OtJAdRKjGrWbNmDRo0CEwzZ7adl5tOvvnmGx6gyLnv5esjjfFfRvUmKYXtCmeQH25iC76+VUsmJ6vn9IdpOTnm0CdNmjYpN30ETJXQqFFjDw8PHmGPhWIRW4L8EYzwqFGjIiIipk+fnp+fzz2PKKWHDx8+dOgQQigqKqpevbrNmjVv0LBBWFiYmJXTly9FaZlgM2YY405wX8FDhw5xwcLCQlu2bMUEE78dH++d3vaKEeeZb7QFgKNHjzJaKWtgjAgxO32cP3+eXSCE8vMLRPFs5iDUl1iDERERkyZNmjRpkuhUwq4nTBjPNxo4vd3zYNdOHKzsgGdevXp17viUn59va9lPAq1WUzI5WeY5Obm5ubm8E/53zn+9vLxK9B4lAWs8er1ePH2N7VOXaP5WXy06OrpFi2YrVqzasGED37bP++2ZM2fOnj3LQvCEhYVFRkbWrRveqlXrGjUC2d53hTWs6EUsvaKio6NbtWq5dOmyDRs2iLEpuWBnzpzZuHGTVcEkHcFZbU8Rj7DCsrKy+J3r16/z8O78puRPZ8FqtpRSjJEonn3IWZlQ0qtXrxs3bvz6669i/r179+o/YIDkQSdCdAkrT/j4ePNx9dGjR0VFRcrDX5egP7D0jx7lICEisRjDpdxgq1lKOpJVDSUoqOb48eMHDhy4ffv2nTt38vDXDDzbO3fumFYP57m4uISHhzds2KBOeHj7du3l8e5LBslcqXr1AFGw5ORkau1kDKuC1av3VFRUi/DwcDd393LlEQamoIpSSj5PWZCInWyLinRW79uBZJYEAA8fPpTk/zA9rUwVBAMxlKduz6HT6cFUmUVFRQaDHkApj5RY2kePcvkAXkbDjENIChUtbpLJCNh409DQ0Pc/eH/EiBFHjx45c+bsoUOHbt68aetddDodH2V/+vEnPz+/tm3bRkZGPv/88/bj1ytRq+WCjRgxoriCsT+ZYPUb1H/+ueflIdmL20SLwSNsVzXfw+P0DZHFhY+Pd3EfkZDI4sWLxEhf7O2OHjn+3XffSWKOOBflTyIM4udzOqy2PBch4iyllC/bVyA8Be1A+dSDpWnfvsMz7dqNGjUqMTHx5MmTt27dunLlyq1bt/Ly8mwRZWZm5s6dO3fu3PnDDz+0atWqR48e/DRFuWlGee+VpGzfvkP79h1GjRqVnJx87NixW7duxcXFJSQkMBuKfcHm/DQnKiqqV69ePXr2AEs1Tbk8xeMCPrZMmDD+xRe7FetZp0MMDu4QcvvIiZPH586dx36VVPTatWubNm0qWfz7B6BMlQJxLUBsfJy8qlSpsmz5Ml8fX41GwzaDVQiq+lUV/1TST+RqS2hoKB/D2ZlkCTcS2PnhFy9eZGeMSGqbUnr69OlTp04tXbp0+PDh7ExFW6U47MBW+znzjeAntDDBrl29Fh8fzwWTNwBuUlm6dOm7774rHuesfMBzzCO8ZWg0GjA1C0/PKs718iwB+GKbQyKXt4Ps7OyJ/zZHEqGUjv5oND+WGAAmTZrUqFEjyY4yp6NMl2wkYKoBa0Ourq6obIqTvIVGqxG7U42goDI6vL0EUF75thoYu+nm7h5eJzy8TjjbyVlYWPjgwYOTJ09eunTp7NmzYtelpjDxEydO3Llz52effSJGIxXzV85u8rbNLzw8PJlgbESUCybJ8M6dO19++eXOXTs+n/h5QGBQsfQjxzzCM2I+YKwu7BwuW26QGzvspATL5jJ+/HjxBLZBgwa98cYbIcEhLCQ9Qkiv13/88cfrN6x3otWdISfbvA5abiQCADk5RncbhJC3t7cYurUswF7K19eH96Lc3NykpORSHm3rLEhIROEnkCSzOmi7u7szbaVfv34FBflxcXF79uw5evQYM4XyZIcOHbp8+fIPP/zQpEkTW/nbF0Mutn2NhgvW99W+jwsL4+Li9u3bf/DgQUlfPnrk+Ouvv/HDDz80atxIebMsRvP18PBgFyyylvIHywKi/sxX7+yDJ1uwYIF4+icLtowR7tq1K2Nutkh5586dqVOmOL2Ty91eysdccv/Bfe4dU6wpYcnAatvNzUO8mZ+fXz5OaHYgmXkpV+A549jKU/6nh4dnVFTL8RMmrF27Zvz4ccHBwaJxKisra8SIEcyxvVj+JpLlaonlGBzxEUbYKNj48b///tuECeNFn0wAyMzMHDFiRGqK4/Bx5jyVJ2WujQBAKU29V8H6iNxGpfCps2fPLFy4kPcoFxeXmTNn8scnT5nMjhdhCbZu3bZ923bnSp6dYy+4bNnhwf0H1BQ0kAXjKjsxeCuvXq1a1apVeedJSyvbtTAlKJkAVsd/sNH/5TqCh4fnwIGD1q1b9+6773IfWUppfn7+qFEficoRKPgoEkZzqCKJokqu3dzdBw4c9Ntvvw0dOlTkuPz8/DFjxtgXw+KVlSetUaMGv36Ylq78QeeiZE2fPZWdnT1hwicgrAXOnDlTjHKm1WinTZsmrsNPnjxZ4gRdSqQkp1bIui8/w4VSygN/OV0MYnk8pbe3j4+PD69t0QXpSYS8uhxWoJjA3d19xIgRCxcu8PT05HWSkJCw+tfVROZT7zDP4n47q/YXVqK7u/uoUaMWLlwgegkmJCQsX7FcYXcrhighIWblJzEx8dGjHF5G2Y2uchKVkH2xcuNRzhiGDBnCznwX2b1Zs2ajRo8CYXHq448/lhdU4le+e/euXqcvfT7Fgt6gF7fMBwdbP2yo9MAyF0nRVp2QcEP2RFlByahesgdLiaiolkuWLBGnlr/88svjwkJbU5uyloc3/qiolosWLeKCIYSWLF7y2HTsvINMFBZGKGEnpzJkZmbeuZMomWSWxQtLSPTRoxz2X0ZGht6gF/u//dIxwgsWLDh58iS/07RpU665SRTFt958q32HZ3hKZiixI1ixkJeXx3yBijUlVg65bkwouXXzVlJSEldcy9PYWa9ePV7upUuXobyoU7Q4sjaTnZ0t7u2w1WPLWlUklERERHz6qflUvby8vNjYg6LAYvpykIcXERERMXHiRHZNKWWCKclEkXkJADDC4XXDxW37ly6d4wnKtEtwnD175sUXu7H/BgwYkP4wDSw1NKtPMRw9emThwoVcmRSjnFldLf96+gz2sqwPbNmydevWrSJnlbgzsGg6ZTe1kb8LRvjq1at83cTFxaU8eYRFqwcAhNCNGzcyMjLKeU73/azvWZvp3r27GNpO/JqxsbHz5s37ZeEvCxYsiI2NLVN52Ou/9PJLfGCmlB47dgysEdnhI4cWLFiwYMGCefPmlYVg8nYYHR3Nz1pngilaxHCcwlSMVqMVj8k5dOgYf+0y0kck2R45clRngr+/v/KTQLOzs1mUMz4wTps2jfu/WG3W3t4+3347EwRLyuTJk5PuJoFsX0YJcPHihdLMzhxCnuGhwwe5J2vDhg29vX2cW6IdREZG8kM/dDod6zDlAK6X7dq1S6/Xs2ZTt15d/qu47nvgwF+LFi1auHDhwoULly5dWg6yYYS7dzd7cl6/ft3q3Dn2QOwvv/yycOHCRYsW/fLLL86VQX7NLrp378ZHnevXrytp6kr1EYYWLVrw67Nnz2akp4tadJkOsIQS8UiqdqYwZbaW3MQ/x4wZw3edgmAWsY+oqJYffjgChGACo0aNYpOpUr7RyZOnxD+dXm+iakYoyc7OPnb0OJg4kQe7Lp/5RUhIyFNPPcXpeP/+/eVQKJgq4fy5c1lZWbz01q1ageU0liVjMdMYHj9+XA4mCTAF32BISUnR6/SS0QUjLFadwWBwomCi3irxY2rStAkfdRR6iinSRzhZdHi2A7+v0+n27dsnWpjLovZ50Vfj4hISEthNhFD7Du0keoHV0jHCc+bMYVHO2Pdo2rTpRx9/pKRcQsm77w5j52+xOk1OTv7qy6/ENCV7qaSkpL//vgKyccCJEDvJnj17RH+fTp06iasDzi3XqiQdOpibzZEjR7Kzs8tt2XvPnj18VhUYGNhQiJsjtpyAgJpcV01MTLQVM825CAgwn0qj1+sNBr34K/s61apVB9NIduvWrbQH950ogGSezivE368aH3T1ej0oaJ/F8HvBCIfXCRdJdPXqNSDbkl/st3FUNPt33bp1/GbVqlWbPd1cUpzVxbCjR48sW7aMXbOwsjNnzpCwntVFe85Q33zzDVulYzW7c+fO9evXg0DeJQBCaNOmTaK0zlVJJOPt6tXmgMDBwcHNmjUro3KtAiPMHMYZdDrd+vXrysdEUlCQv2PHn2Ca6nfp0sVquRjhek/Vo6bTSwsLCy9dulQOJKt10XLysrXrtX79+mAaAnU63aVLV5xVuqSRiDXj5ubGrzFWtMas2O/VlFGvXj35zaSkpL179/IEZWc7zMjI2Lp1G/+ze/fuzK3bvr+NJPg7pXTatGncqiKhP1uS+/v7T5s2DYSTX2fMmBEfH1+adkYp3b17DwvMVRYQKXXv3r137tzh7bVbtwrYXRkREdG0aVP+5/r1G/SWY28Z4fd168SgYXbePSwsLDAwkPkxA8D2Hdug7ElWrzOHIBIjLYGgTtaqXSsw0Ky2/Pnnn04UwNZM4vHjx+Y0RFEjV1RT4oj98ssvi0vfc+bMMeflpHqX98958+aKexNiYmLszAi4GJ9++ql4sCA/E0+e2JbkLPPOnTsPGNCf3WFijBs3rpSGktzc3FWrfrWqCjkXc+fOBcFa/Morr5RdWXbAg7ADwIMHD5ablEQos+lwYWHhyhXm02fq1asnrhJIgBGOiorif+7f9xd325MI6cRPJpoeMMbizkmxabVpYz7DLDY2VhSsNGKIOoiETe4/uMcbjMLwIErnNfxfb2+fIUOG8PEtOTl5wYIFxRBfWXHi14qPj2dB4lihHTt2ZOePiSYAeYXyTTQM9evXHztuLLtWXvu8osdPmBAWFsbvJyUl/fvfn0kSOzR2sIkV3yC3fPnyjPR0sRSn08rixYtEZ9wXunZhXmHlZp5gIJR0eaGLuInjl18WJScnO9dMI5nk/vjjD5mZmbyhvvPOO/ZL4doKmwT9+NMPYp4SS6RThsyLFy/y6+DgYKs7JzHCXbp04X9SSsWla+dqTDy3c2fN0UuDgoKcs+4rb9xvvfVWlSpV+CrGwoUL4+PjrRZWLDuiZOmHzzjYHlyOkSNHGkW33JUklnXi5PGFCxfyR9zd3WfNmiWhHoeSiMAI8wO0GPbt3f/bb2slaUBoanIwjo+JiWHexzqd7vPPv7Bq4pGvQxVLWnbz77+vzJ07jw8sCKGPRn8sqYHyIRQ29P3rX//id3Q63SeffOKwxpRA0tUZzp49wyKnstevV6+ew2gyHTt1ZDMI9sj+fX/FxsZKKsop6wm80e7evZvf5Ge8SV4KADo820Hc4HfgwAHRkaTEY4+tZsMFY3waGRnpnHVfycoQALi7u3/xxRfiRGPEiBF5wgxC/mkViWLJ9Kw7TZ0yhZ+bRynt27eP6EMlmjb4g1mZWRPGW1DP119/zTbRKGyvVrtZaGjo558bXf3YR/322+/kR0nbH111Ot0LL3R5+eWXWA6nTp1aMN+KNoetHVcsgbySxfRZmVmjR38EgsvMiBEfhISEWDVOlw86d+4segnHxcVNnz6t9DLIH3/4MI3touL49NNPHBaEEf7www/FTXRffvml5JQpcMZ6Ant85cqVLDQJu/ncc+ZjjyVmC61GO3LkSLG7McEkI24JxAAZDWGEmWBg4tOOHTvazkPIrQRlA0CXF7qwI3lYRWRmZr777rCMjIzSaKryR37+789btmzlpQQGBo4dO05MbLUGuVmEPSVuorFTllVhJONPTEyf6OhoMaLU6NGjC2UbEOy/vkaj/fDDD/la8qJFi8RDZJV3csmvYlXcv586bNgwtpOIFRQZGfnuu8OUZFtGYO81edJUcSfYxo2bZs+eLUlTspz5xaNHOcOHvy8JLhMV1VJJ/r169YqIiBADpgwbNvzhQ/MZHQ6t8gpx/ty5OT/NAVNfDfz/9s49KIrkDOA9K1i4pnywgixZWGQJwqYQ3T0vigUHJ0kZFVByEi28E+8QRFOeaCXxCixdFQsSUVPGo05Jae6wNOehUD6ilga13FXuCkoeZymICrvs8hBzcCDq7s3mj9a2nZkdZmcWtEz//qDYmX58X0/3193f9HT7++MrKhhdKQBg3rx5+HtSKBhavSVFGEYfXFtbAwWD+Pv7xyfEC0pHdPZbtm7RaDSoPbS0tKxcubLlbgsun0A4B9sFBTvgK1v0XIuLd/n4+OCB2W2ppKQEuUWcTmd0dDT8iIZtd4dUkDOwYZtBqXy51qCrqwt9j4CLwZO+zWaDPiZkjIqL/1ZSUgKk9XUox1u3vs/I+Bh/RzNmzJji4lfO9Bp5/wgUz9fXd8+el9N7iqLKysq2bNkCX9+Iaw/45Kitre2TTzKR7hRFRUVFwa12BTb+oqIiJBsAwGq1rlz5MfIxecQ5Ultbs2bNWnyj3E2bNnmN8uJ8KCivnTt34tNqKJhFwLmIAqGdNBIMvFB/48aNXqM852fFM3sZk5J9/vl++LYM5mqxWJYtW4a8BsKdI4wHYzFbVq9eDX2r4IXN3rw5X6v9JWCNEXBuXL9eWvr8TDyKouRy+a5du/As3JrfclYXr1FeuKOLoqjLly9DlTmdNWzg1qS5ubmoh3E6naWlpX/68x/hKiPR1ZR20mVlZR9++BE85gpViJKSEsY3BJ5ybQqUCi92nU7/2WfPXdSw5pw+fTpjRQZcmCcaGSU7d+5ceno6XKwIdffz84MPS6CBpp10cHCwwWAA2Bsuq9Wanp6O1jeILjcYsaysbNWqLHgaDswiNXUxPl7GOzz8b3BwMFx/gLDZbOnp6fhG5VI4/vXXSDAoW3JyUmJiokB9R23dulV4ZoytxuXysQkJCZcuXRoYGEC3jEZTTU2NQuEbHKzmjMXDo0ePDh8+nJ+fbzab8YjrPl239PdLeSQBADx82J2ZuQoVBABg9+7i8PCX7ivaSaNuSqA8nCgUivHjxxmNJnTFZLoeExMDPdvsca/D4Th+/Dg6RTQxMTEsLIx20gkJCVVVVei4ufv37p88WeF00lqtVsRe/FeuXDFsNVRWVsKfUEdvb++9e/fo9e+ww/MUwrFjx5BU770XFxER6SqkEFBG6B+tVjthwnij0YRGmj09PSdOnOzr6wsJCRk3zu1vfxobG3cV/7W09B/40584ceIXB74IVL7clWrI505RFO2kp4ZPVSgURqMRXbfb7RcvXmxqagoICFAGKFFFcovr103bt++A6w9R9JkzZxYWFaKfjPrDEDssLGzyZP+rV6/iglVVVd25cycgIADfHsgtTCZjQcFOfJ0nAECv1xcXFwPBjUX87uFI50c9PevX596+fZuRlF6vT01NjYqKYhzbwWZw8HFTU/OFCxfOnz+Pz2wBABRF5efnLVq02NXUFF3JyMhoaGhAVXPp0qXDenbE+vXr8e99AgMDy8vLOU+WevLkyZIlS9BigYKCAvjugHbSP/z3h8zMTORIhsKrVKrExMS5c9+PEOAqb2trq62tqaiobGxsZJS/v79/YWEhz6IJHLx4U1JS0IFPmzfnw8IHnnasnDp1qqCgALV8qLuPj8/8+b9duDApPPwX/DtC007aZrU1NDScOXvKZLzBuBseHr537264WbE48SoqTu7YUcBuHTFzZv3m1/N0Ot2QtRoA0Nvbazabq6tvXLx4CR0cg5ib+H5hYZG7EvILFh0dLWRz8h9/7GttbXMlWHx8fNFfiuBUS+A7NUmnEKDUnz17tmfPbvim7WXSz3eWl0dFRanVwRpNGNzOz263w3NMuru7zWazxWJpamri/BxIo9Hk5eVFR0fzmA/4//6/78fXv4eGhh771zHg0arPkGFw8HFSUjJu9eLj46EJZ8BpR1C7Hejv375j+6WL/2FH1Gg0IVPUQapg1EvDorPb7d3dtnv3Wltb2+rr6/FOGBcmLy9vwsQJwksAKZiUlGSz2eCkIz8/LzklZZhcs83NzQaDAR3YjKAoCn7dFxISwhih2O32dmu7xWw2my03b97k1D01dfGGDRvgYXFSfKJ1dXUGgwFZeRxvb+/p06cHBalCQ9V+fkr8XJ7+/v6ODltHR0d7u/X+/fvoBAKkGmxxWVlZ2dnZ4gRrbGzctm0b/rkZasXe3t7Tpk1Tq4NDQ9WBga8YFCRYR6ftbvM9V4JlZmbm5OS4K5InTzMxmYwHDhxsaGhgCwewr2Y57zIuyuXytLS07OxsnrMjUVP87rtv1+SsRde9vb3Ly8thdyHdte4qUxklq/72xto1f8BVyM3NXb58OSNTnvEIMvZnTp8pLS2FowBGoTGKiP8uAEClUuXk5KDlEiJKgHM8MkymxPGT45+HD3/55Vdo5bGrWgEwjw9nmVAUFRERsWrVKvQxtwix2c/u4MGDR44cYRyj6wpO4RnExsauXbtW4hYwSDBoSdm1QogkjJCxsbGrc7IipmpFvJby/KlIV65cOXToEG5NwFDli/QBACiVyoULFy5alOxqexHw6sOura3JysrGE8c7fKnKcGWKp7xv377D2BJv8KLh4VeGtCMo2Llz//7mm3LYP7sqMR7LEhkZ+cEHv5s/f8Ho0aOlqK/X61Ga6z5dt+KjFeLSEQKU8+HD7qNHj509e5bRSTJw1UIoitLpdGlpafC7Bym6c8Zta2urrKzkEU9Io5XL5XFxcckpSb96dxZPXm6JarPaTpw4gQTjEQPdYofx8fGJj4/HBRMhm2fsCDvXuro6k8lUXV3d3NwMV1gwFMB/+vj4TJkyRa/Xz3z3nZiYOWwFGLMYPIDJZKyrq5ePfT6XnqSYtGDBAukaDQkS4+jRr57Zn/u0HXa7QqEQaEdcJXvr+1tVVVU1NTUtLS0853uggVtkZKRer581axZ7AiiuplZUnOx94WeNmR2jCdMM02CEbUkvX75cV3fz2jVjd3e33W7nGYZQFDV27NgZM2bM0M2Ii4tTq9VCFBdeIOwq5/jJYbxmrK+vr66ubm1tZT8adluVy+UqlUqn02m12tmzZ8Ots6Q7m5iOfF7BOC0IEiwiImLOnDmMM+0Y4xEhheYZ/wjPrd7e3paWu+3t1q6uTsbJ3vKx8sn+k5VKZVBQEK7JkHKQmKsaAAACiElEQVQPqaGn1gu5mztnjkLsCGdE6AyzWCydXZ19vX3oJY7D4Rg3ftwkxSS1Wq3RhCJHAGCttROivist2A1p+GY3bJFsVltr6wOr1dbT04M+OXU4HF5eXhMm/MzPT6lWq9VqNc+0V0Sm+JtXdkPC//b29j548MBms3V2dT4eeKXdymQyhULh5+cXGBioUv0ceovZKXh80ASvD/T337t3n1MwAIBSGTBxoi8umPDE+RmW8YgQ+8J/i6eJsp/3kCl7HP68BPpHXEV0SxGPt3Ceuv4aS9gjWQvpn+A//Lq79fQ5A0tXR8iAy60Bhat0BMb1TLVg5IS3cyQWZ0g8AH6LHQxdwfteRhR6pNZWceZFu16qLwQU0a3oKIpHdH9DjAjgqlFDKsgTQOBUQsb6lJ5THnYP5yokeLWfEy4JP+xHwy+niOzcjTuMNYPfLvAEditl0YlIxJWlEy2DROE9ojuuAk9Dei1IqUIeqV0Sw0usHjw5vvZHA4bVjhAIhP8TiB0hEAhSIXaEQCBIhdgRAoEgFWJHCASCVIgdIRAIUiF2hEAgSIXYkRFF4hZKBMKbCbEjIwfn55i0O0dMEAhvJsSOjBy4EcE/FHgT1iMSCFIgNXjkwCc1xHYQ3iZIbR458KMGyFyG8DZB7MgIwdhWkoxHCG8TpDYPL7STdjrpwcFBZEHsdjsajJBRCeHtwO1zUgjCgftEUJTM19f36dOnAACapseMGSNlYwgC4Q2EctJOQAEAaDI2IRAI4pABAIATACcxIgQCQSQvzAdZZkkgEMQiIxaEQCBIRAYATUwJgUCQggwAGjgBAOQFJIFAEIkMAC8yHiEQCFKAflby0pdAIIgHvvclRoRAIIjnfzNyUmmDNia6AAAAAElFTkSuQmCC;" vertex="1" parent="1">
          <mxGeometry x="21.05" y="148.26" width="93.95" height="51.74" as="geometry" />
        </mxCell>
        <mxCell id="5C5vTIJOmwcPiypYMRpX-33" value="" style="endArrow=block;startArrow=block;endFill=1;startFill=1;html=1;rounded=0;" edge="1" parent="1">
          <mxGeometry width="160" relative="1" as="geometry">
            <mxPoint x="300" y="200" as="sourcePoint" />
            <mxPoint x="300" y="200" as="targetPoint" />
          </mxGeometry>
        </mxCell>
        <mxCell id="5C5vTIJOmwcPiypYMRpX-35" value="React Frontend" style="text;html=1;align=center;verticalAlign=middle;whiteSpace=wrap;rounded=0;" vertex="1" parent="1">
          <mxGeometry x="-57.52999999999997" y="195" width="60" height="30" as="geometry" />
        </mxCell>
        <mxCell id="5C5vTIJOmwcPiypYMRpX-43" style="edgeStyle=orthogonalEdgeStyle;rounded=0;orthogonalLoop=1;jettySize=auto;html=1;exitX=0.5;exitY=1;exitDx=0;exitDy=0;" edge="1" parent="1" source="5C5vTIJOmwcPiypYMRpX-36">
          <mxGeometry relative="1" as="geometry">
            <mxPoint x="68" y="320" as="targetPoint" />
          </mxGeometry>
        </mxCell>
        <mxCell id="5C5vTIJOmwcPiypYMRpX-36" value="Backend" style="text;html=1;align=center;verticalAlign=middle;whiteSpace=wrap;rounded=0;" vertex="1" parent="1">
          <mxGeometry x="38.01999999999998" y="195" width="60" height="30" as="geometry" />
        </mxCell>
        <mxCell id="5C5vTIJOmwcPiypYMRpX-37" value="MongoDB&amp;nbsp;" style="text;html=1;align=center;verticalAlign=middle;whiteSpace=wrap;rounded=0;" vertex="1" parent="1">
          <mxGeometry x="140" y="200" width="60" height="30" as="geometry" />
        </mxCell>
        <mxCell id="5C5vTIJOmwcPiypYMRpX-38" value="code commit" style="text;html=1;align=center;verticalAlign=middle;whiteSpace=wrap;rounded=0;" vertex="1" parent="1">
          <mxGeometry x="60" y="260" width="60" height="30" as="geometry" />
        </mxCell>
        <mxCell id="5C5vTIJOmwcPiypYMRpX-40" value="triggers build" style="text;html=1;align=center;verticalAlign=middle;whiteSpace=wrap;rounded=0;" vertex="1" parent="1">
          <mxGeometry x="120" y="328.75" width="80" height="30" as="geometry" />
        </mxCell>
        <mxCell id="5C5vTIJOmwcPiypYMRpX-41" value="app containerization" style="text;html=1;align=center;verticalAlign=middle;whiteSpace=wrap;rounded=0;" vertex="1" parent="1">
          <mxGeometry x="370" y="326.75" width="60" height="30" as="geometry" />
        </mxCell>
        <mxCell id="5C5vTIJOmwcPiypYMRpX-42" value="Deployment" style="text;html=1;align=center;verticalAlign=middle;whiteSpace=wrap;rounded=0;" vertex="1" parent="1">
          <mxGeometry x="570" y="328.75" width="60" height="30" as="geometry" />
        </mxCell>
        <mxCell id="5C5vTIJOmwcPiypYMRpX-49" value="" style="sketch=0;points=[[0,0,0],[0.25,0,0],[0.5,0,0],[0.75,0,0],[1,0,0],[0,1,0],[0.25,1,0],[0.5,1,0],[0.75,1,0],[1,1,0],[0,0.25,0],[0,0.5,0],[0,0.75,0],[1,0.25,0],[1,0.5,0],[1,0.75,0]];outlineConnect=0;fontColor=#232F3E;fillColor=#ED7100;strokeColor=#ffffff;dashed=0;verticalLabelPosition=bottom;verticalAlign=top;align=center;html=1;fontSize=12;fontStyle=0;aspect=fixed;shape=mxgraph.aws4.resourceIcon;resIcon=mxgraph.aws4.ec2;" vertex="1" parent="1">
          <mxGeometry x="650" y="324.25" width="78" height="78" as="geometry" />
        </mxCell>
        <mxCell id="5C5vTIJOmwcPiypYMRpX-51" value="GitHub" style="text;html=1;align=center;verticalAlign=middle;whiteSpace=wrap;rounded=0;" vertex="1" parent="1">
          <mxGeometry x="44.999999999999986" y="410" width="60" height="30" as="geometry" />
        </mxCell>
        <mxCell id="5C5vTIJOmwcPiypYMRpX-52" value="GitHub Actions" style="text;html=1;align=center;verticalAlign=middle;whiteSpace=wrap;rounded=0;" vertex="1" parent="1">
          <mxGeometry x="245" y="419.75" width="100" height="30" as="geometry" />
        </mxCell>
        <mxCell id="5C5vTIJOmwcPiypYMRpX-55" value="EC2" style="text;html=1;align=center;verticalAlign=middle;whiteSpace=wrap;rounded=0;" vertex="1" parent="1">
          <mxGeometry x="659" y="402.25" width="60" height="30" as="geometry" />
        </mxCell>
      </root>
    </mxGraphModel>
  </diagram>
</mxfile>
